<svg width="65" height="65" viewBox="0 0 65 65" fill="none" xmlns="http://www.w3.org/2000/svg">
<g clip-path="url(#clip0_795_31721)">
<mask id="mask0_795_31721" style="mask-type:luminance" maskUnits="userSpaceOnUse" x="0" y="0" width="65" height="65">
<path d="M65 0H0V65H65V0Z" fill="white"/>
</mask>
<g mask="url(#mask0_795_31721)">
<path d="M32.5 65C30.3559 65 28.3811 64.4641 26.5755 63.3919C24.8264 62.3763 23.4158 60.994 22.3438 59.2449C21.3281 57.4392 20.8203 55.4645 20.8203 53.3201C20.8203 50.6119 21.441 48.3551 22.6823 46.5494C23.9236 44.744 25.842 42.628 28.4375 40.2018C30.3559 38.4527 31.3151 36.788 31.3151 35.2082V33.685H29.7917C28.0425 33.685 25.6445 35.4341 22.5976 38.9324C19.6072 42.4307 15.9679 44.1795 11.6797 44.1795C9.5356 44.1795 7.56077 43.6719 5.7552 42.6562C4.00608 41.5841 2.59549 40.1736 1.52344 38.4244C0.507812 36.619 0 34.644 0 32.5C0 30.3559 0.507812 28.4093 1.52344 26.6601C2.59549 24.8546 4.00608 23.444 5.7552 22.4284C7.56077 21.3563 9.5356 20.8203 11.6797 20.8203C15.9114 20.8203 19.5226 22.5412 22.513 25.9831C25.5035 29.4249 27.9297 31.1458 29.7917 31.1458H31.3151V29.7917C31.3151 28.2118 30.3559 26.5473 28.4375 24.7982L26.4909 23.0208C25.0803 21.7231 23.7826 20.1714 22.5976 18.3659C21.4128 16.5039 20.8203 14.2752 20.8203 11.6797C20.8203 9.5356 21.3281 7.58898 22.3438 5.83986C23.4158 4.03429 24.8264 2.6237 26.5755 1.60807C28.3811 0.536022 30.3559 0 32.5 0C34.644 0 36.5908 0.536022 38.3399 1.60807C40.1453 2.68012 41.5561 4.09071 42.5718 5.83986C43.6436 7.58898 44.1795 9.5356 44.1795 11.6797C44.1795 15.9114 42.4586 19.5226 39.0169 22.513C35.5751 25.5035 33.8543 27.9297 33.8543 29.7917V31.1458H35.2082C37.1267 31.1458 39.5528 29.4249 42.4869 25.9831C45.3645 22.5412 48.9755 20.8203 53.3205 20.8203C55.4645 20.8203 57.4109 21.3563 59.1601 22.4284C60.9658 23.444 62.3763 24.8264 63.3919 26.5755C64.4641 28.3247 65 30.2995 65 32.5C65 34.644 64.4641 36.619 63.3919 38.4244C62.3763 40.1736 60.9658 41.5841 59.1601 42.6562C57.4109 43.6719 55.4645 44.1795 53.3205 44.1795C50.6685 44.1795 48.3834 43.5308 46.4649 42.2331C44.603 40.9354 42.5152 39.0452 40.2018 36.5625C38.4527 34.644 36.788 33.685 35.2082 33.685H33.8543V35.2082C33.8543 37.296 35.5751 39.7221 39.0169 42.4869C42.4586 45.2517 44.1795 48.8628 44.1795 53.3201C44.1795 55.4645 43.6436 57.4392 42.5718 59.2449C41.5561 60.994 40.1736 62.3763 38.4244 63.3919C36.6753 64.4641 34.7006 65 32.5 65Z" fill="#33C6C6"/>
</g>
</g>
<defs>
<clipPath id="clip0_795_31721">
<rect width="65" height="65" fill="white"/>
</clipPath>
</defs>
</svg>
