<svg width="481" height="953" viewBox="0 0 481 953" fill="none" xmlns="http://www.w3.org/2000/svg">
<g clip-path="url(#clip0_1_77000)">
<path d="M78.8528 40.0873C79.5668 40.0873 80.2098 40.2569 80.7819 40.5961C81.354 40.9303 81.8047 41.3961 82.1338 41.9935C82.4679 42.5859 82.635 43.2694 82.635 44.0441V47.3782C82.635 48.2035 82.4679 48.925 82.1338 49.5427C81.8047 50.1553 81.3414 50.6287 80.7439 50.9629C80.1465 51.2971 79.4478 51.4642 78.6478 51.4642C78.0959 51.4642 77.5744 51.3705 77.0833 51.1832C76.5921 50.9908 76.1517 50.6971 75.7618 50.3022L77.0757 49.0187C77.2731 49.2465 77.5086 49.4262 77.782 49.5579C78.0605 49.6845 78.3491 49.7478 78.6478 49.7478C79.0731 49.7478 79.4452 49.649 79.7642 49.4516C80.0832 49.249 80.3313 48.9883 80.5085 48.6693C80.6857 48.3453 80.7743 47.9984 80.7743 47.6288V45.8137L81.1009 46.1782C80.792 46.5428 80.4174 46.8288 79.9769 47.0364C79.5364 47.239 79.0731 47.3402 78.587 47.3402C77.9035 47.3402 77.2959 47.1833 76.7643 46.8694C76.2377 46.5554 75.8225 46.1301 75.5188 45.5934C75.22 45.0517 75.0707 44.439 75.0707 43.7555C75.0707 43.072 75.2428 42.4543 75.5871 41.9024C75.9314 41.3454 76.3896 40.905 76.9618 40.5809C77.539 40.2518 78.1693 40.0873 78.8528 40.0873ZM78.8528 41.834C78.4984 41.834 78.1744 41.9201 77.8807 42.0923C77.5871 42.2644 77.3542 42.4973 77.182 42.791C77.0099 43.0796 76.9238 43.4011 76.9238 43.7555C76.9238 44.1099 77.0073 44.434 77.1744 44.7276C77.3466 45.0213 77.5769 45.2542 77.8655 45.4264C78.1592 45.5985 78.4832 45.6846 78.8377 45.6846C79.1921 45.6846 79.5161 45.5985 79.8098 45.4264C80.1034 45.2542 80.3364 45.0213 80.5085 44.7276C80.6857 44.434 80.7743 44.1099 80.7743 43.7555C80.7743 43.4112 80.6882 43.0948 80.5161 42.8062C80.3439 42.5125 80.111 42.2771 79.8174 42.0999C79.5288 41.9226 79.2073 41.834 78.8528 41.834ZM85.1541 50.249V48.3731H87.03V50.249H85.1541ZM85.1693 45.8972V44.0213H87.0452V45.8972H85.1693ZM94.0859 51.2363V49.4288H89.2404V47.72L92.7416 40.2999H94.8302L91.329 47.72H94.0859V44.8719H95.939V47.72H96.9643V49.4288H95.939V51.2363H94.0859ZM100.475 51.2363V42.2973L98.4247 43.5505V41.5303L100.475 40.2999H102.344V51.2363H100.475Z" fill="#333333"/>
<path fill-rule="evenodd" clip-rule="evenodd" d="M412.246 40.2979H427.086C428.336 40.2979 428.789 40.428 429.246 40.6723C429.703 40.9167 430.061 41.2752 430.306 41.7321C430.55 42.189 430.68 42.6422 430.68 43.8919V48.2186C430.68 49.4683 430.55 49.9215 430.306 50.3784C430.061 50.8353 429.703 51.1939 429.246 51.4382C428.789 51.6826 428.336 51.8127 427.086 51.8127H412.246C410.996 51.8127 410.543 51.6826 410.086 51.4382C409.629 51.1939 409.271 50.8353 409.026 50.3784C408.782 49.9215 408.652 49.4683 408.652 48.2186V43.8919C408.652 42.6422 408.782 42.189 409.026 41.7321C409.271 41.2752 409.629 40.9167 410.086 40.6723C410.543 40.428 410.996 40.2979 412.246 40.2979ZM412.246 41.3006C411.258 41.3006 410.913 41.3672 410.559 41.5567C410.276 41.7077 410.061 41.9234 409.91 42.2058C409.72 42.5601 409.654 42.9051 409.654 43.8934V48.22C409.654 49.2083 409.72 49.5533 409.91 49.9076C410.061 50.19 410.276 50.4057 410.559 50.5567C410.913 50.7462 411.258 50.8128 412.246 50.8128H427.087C428.075 50.8128 428.42 50.7462 428.774 50.5567C429.057 50.4057 429.272 50.19 429.423 49.9076C429.613 49.5533 429.679 49.2083 429.679 48.22V43.8934C429.679 42.9051 429.613 42.5601 429.423 42.2058C429.272 41.9234 429.057 41.7077 428.774 41.5567C428.42 41.3672 428.075 41.3006 427.087 41.3006H412.246ZM431.681 47.9973V43.9921C431.681 43.9921 433.183 44.7565 433.183 45.9947C433.183 47.2329 431.681 47.9973 431.681 47.9973Z" fill="#333333"/>
<rect x="410.653" y="42.2129" width="18.0232" height="7.67655" rx="1.60206" fill="#333333"/>
<path fill-rule="evenodd" clip-rule="evenodd" d="M380.24 41.7005C380.217 41.8166 380.217 41.9562 380.217 42.2353V49.9453C380.217 50.2244 380.217 50.364 380.24 50.4801C380.335 50.9567 380.707 51.3293 381.184 51.4241C381.3 51.4472 381.44 51.4472 381.719 51.4472C381.998 51.4472 382.137 51.4472 382.253 51.4241C382.73 51.3293 383.103 50.9567 383.198 50.4801C383.221 50.364 383.221 50.2244 383.221 49.9453V42.2353C383.221 41.9562 383.221 41.8166 383.198 41.7005C383.103 41.2239 382.73 40.8513 382.253 40.7565C382.137 40.7334 381.998 40.7334 381.719 40.7334C381.44 40.7334 381.3 40.7334 381.184 40.7565C380.707 40.8513 380.335 41.2239 380.24 41.7005ZM375.506 44.638C375.506 44.3589 375.506 44.2193 375.529 44.1032C375.624 43.6266 375.996 43.254 376.473 43.1592C376.589 43.1361 376.729 43.1361 377.008 43.1361C377.287 43.1361 377.427 43.1361 377.543 43.1592C378.019 43.254 378.392 43.6266 378.487 44.1032C378.51 44.2193 378.51 44.3589 378.51 44.638V49.9449C378.51 50.224 378.51 50.3636 378.487 50.4797C378.392 50.9563 378.019 51.3289 377.543 51.4237C377.427 51.4468 377.287 51.4468 377.008 51.4468C376.729 51.4468 376.589 51.4468 376.473 51.4237C375.996 51.3289 375.624 50.9563 375.529 50.4797C375.506 50.3636 375.506 50.224 375.506 49.9449V44.638ZM370.922 46.4064C370.899 46.5225 370.899 46.662 370.899 46.9412V49.9451C370.899 50.2242 370.899 50.3638 370.922 50.4799C371.016 50.9565 371.389 51.3291 371.866 51.4239C371.982 51.447 372.121 51.447 372.401 51.447C372.68 51.447 372.819 51.447 372.935 51.4239C373.412 51.3291 373.785 50.9565 373.879 50.4799C373.902 50.3638 373.902 50.2242 373.902 49.9451V46.9412C373.902 46.662 373.902 46.5225 373.879 46.4064C373.785 45.9297 373.412 45.5571 372.935 45.4623C372.819 45.4393 372.68 45.4393 372.401 45.4393C372.121 45.4393 371.982 45.4393 371.866 45.4623C371.389 45.5571 371.016 45.9297 370.922 46.4064ZM366.119 48.4088C366.096 48.5249 366.096 48.6645 366.096 48.9436V49.9449C366.096 50.2241 366.096 50.3636 366.119 50.4797C366.214 50.9563 366.587 51.3289 367.063 51.4237C367.179 51.4468 367.319 51.4468 367.598 51.4468C367.877 51.4468 368.017 51.4468 368.133 51.4237C368.61 51.3289 368.982 50.9563 369.077 50.4797C369.1 50.3636 369.1 50.2241 369.1 49.9449V48.9436C369.1 48.6645 369.1 48.5249 369.077 48.4088C368.982 47.9322 368.61 47.5596 368.133 47.4648C368.017 47.4417 367.877 47.4417 367.598 47.4417C367.319 47.4417 367.179 47.4417 367.063 47.4648C366.587 47.5596 366.214 47.9322 366.119 48.4088Z" fill="#333333"/>
<path fill-rule="evenodd" clip-rule="evenodd" d="M395.935 42.8335C398.173 42.8336 400.324 43.6933 401.946 45.2348C402.068 45.3538 402.263 45.3523 402.383 45.2314L403.551 44.0535C403.612 43.9922 403.645 43.9091 403.645 43.8227C403.644 43.7363 403.61 43.6537 403.548 43.5931C399.292 39.5145 392.578 39.5145 388.322 43.5931C388.261 43.6536 388.226 43.7363 388.225 43.8227C388.225 43.9091 388.258 43.9922 388.319 44.0535L389.487 45.2314C389.607 45.3525 389.802 45.354 389.924 45.2348C391.546 43.6932 393.698 42.8335 395.935 42.8335ZM395.937 46.667C397.166 46.6669 398.351 47.1238 399.263 47.9489C399.386 48.066 399.58 48.0635 399.7 47.9432L400.866 46.7653C400.927 46.7035 400.961 46.6197 400.961 46.5326C400.96 46.4455 400.924 46.3624 400.861 46.3018C398.086 43.7208 393.789 43.7208 391.015 46.3018C390.952 46.3624 390.916 46.4455 390.915 46.5326C390.915 46.6198 390.949 46.7036 391.01 46.7653L392.176 47.9432C392.296 48.0635 392.49 48.066 392.613 47.9489C393.524 47.1244 394.708 46.6675 395.937 46.667ZM398.175 49.4773C398.237 49.4161 398.271 49.3319 398.27 49.2446C398.268 49.1572 398.23 49.0745 398.165 49.0159C396.877 47.9266 394.991 47.9266 393.703 49.0159C393.638 49.0744 393.601 49.1572 393.599 49.2445C393.597 49.3318 393.631 49.4161 393.694 49.4773L395.711 51.5124C395.77 51.5723 395.85 51.6059 395.934 51.6059C396.018 51.6059 396.099 51.5723 396.158 51.5124L398.175 49.4773Z" fill="#333333"/>
<g clip-path="url(#clip1_1_77000)">
<rect width="416.07" height="893.933" transform="translate(33.9858 26.7764)" fill="white"/>
<ellipse cx="241.295" cy="550.801" rx="27.7228" ry="27.7228" fill="#F22E5D"/>
<rect opacity="0.3" x="233.47" y="551.92" width="2.23571" height="15.65" rx="1.11786" transform="rotate(-90 233.47 551.92)" fill="white"/>
<path d="M240.504 556.718C240.068 557.154 240.068 557.862 240.504 558.299C240.941 558.735 241.649 558.735 242.085 558.299L248.792 551.591C249.215 551.168 249.23 550.487 248.826 550.046L242.678 543.338C242.26 542.883 241.553 542.853 241.098 543.27C240.643 543.687 240.612 544.394 241.03 544.849L246.455 550.767L240.504 556.718Z" fill="white"/>
<path d="M224.129 579.065C228.725 581.902 233.938 583.586 239.325 583.976C244.712 584.365 250.113 583.448 255.069 581.302C260.025 579.155 264.39 575.844 267.791 571.649C271.193 567.453 273.531 562.499 274.607 557.206C275.682 551.913 275.464 546.439 273.969 541.249C272.475 536.059 269.749 531.307 266.024 527.396C262.299 523.486 257.684 520.533 252.572 518.789C247.461 517.044 242.004 516.561 236.665 517.378L236.919 519.036C241.991 518.259 247.175 518.719 252.031 520.375C256.887 522.032 261.271 524.838 264.81 528.553C268.349 532.268 270.938 536.782 272.358 541.713C273.777 546.644 273.985 551.844 272.963 556.872C271.942 561.9 269.72 566.607 266.489 570.593C263.257 574.578 259.111 577.724 254.403 579.763C249.694 581.802 244.563 582.673 239.446 582.303C234.328 581.934 229.376 580.333 225.01 577.638L224.129 579.065Z" fill="#F22E5D"/>
<path d="M167.037 617.914V604.6H172.538C172.667 604.6 172.834 604.606 173.037 604.618C173.241 604.624 173.429 604.643 173.601 604.674C174.372 604.791 175.007 605.047 175.506 605.441C176.011 605.836 176.384 606.335 176.625 606.939C176.871 607.537 176.995 608.203 176.995 608.936C176.995 609.664 176.871 610.329 176.625 610.933C176.378 611.531 176.002 612.027 175.497 612.422C174.997 612.816 174.366 613.072 173.601 613.189C173.429 613.214 173.238 613.233 173.028 613.245C172.825 613.257 172.661 613.263 172.538 613.263H169.265V617.914H167.037ZM169.265 611.183H172.446C172.569 611.183 172.708 611.177 172.862 611.164C173.016 611.152 173.157 611.127 173.287 611.091C173.657 610.998 173.946 610.835 174.156 610.6C174.372 610.366 174.523 610.101 174.609 609.805C174.702 609.509 174.748 609.22 174.748 608.936C174.748 608.653 174.702 608.363 174.609 608.067C174.523 607.765 174.372 607.497 174.156 607.263C173.946 607.028 173.657 606.865 173.287 606.773C173.157 606.736 173.016 606.714 172.862 606.708C172.708 606.696 172.569 606.689 172.446 606.689H169.265V611.183ZM178.847 617.914V607.928H180.816V610.36L180.576 610.046C180.699 609.713 180.863 609.411 181.066 609.14C181.276 608.862 181.525 608.634 181.815 608.455C182.061 608.289 182.333 608.16 182.629 608.067C182.931 607.968 183.239 607.91 183.553 607.891C183.868 607.867 184.173 607.879 184.469 607.928V610.009C184.173 609.922 183.831 609.895 183.442 609.926C183.06 609.956 182.715 610.064 182.407 610.249C182.098 610.416 181.846 610.628 181.648 610.887C181.457 611.146 181.316 611.442 181.223 611.775C181.131 612.101 181.084 612.456 181.084 612.838V617.914H178.847ZM190.463 618.191C189.464 618.191 188.592 617.966 187.846 617.516C187.1 617.067 186.521 616.447 186.108 615.658C185.701 614.863 185.498 613.951 185.498 612.921C185.498 611.873 185.707 610.955 186.126 610.166C186.545 609.377 187.128 608.761 187.874 608.317C188.62 607.873 189.483 607.651 190.463 607.651C191.467 607.651 192.343 607.876 193.089 608.326C193.834 608.776 194.414 609.398 194.827 610.194C195.24 610.983 195.446 611.892 195.446 612.921C195.446 613.957 195.237 614.872 194.818 615.667C194.405 616.456 193.825 617.076 193.079 617.526C192.333 617.97 191.461 618.191 190.463 618.191ZM190.463 616.102C191.35 616.102 192.01 615.806 192.441 615.214C192.873 614.622 193.089 613.858 193.089 612.921C193.089 611.953 192.87 611.183 192.432 610.61C191.994 610.03 191.338 609.741 190.463 609.741C189.865 609.741 189.372 609.876 188.983 610.147C188.601 610.412 188.318 610.785 188.133 611.266C187.948 611.741 187.855 612.292 187.855 612.921C187.855 613.889 188.074 614.663 188.512 615.242C188.956 615.815 189.606 616.102 190.463 616.102ZM201.82 618.191C200.79 618.191 199.912 617.963 199.185 617.507C198.457 617.045 197.9 616.416 197.511 615.621C197.129 614.826 196.935 613.926 196.929 612.921C196.935 611.898 197.135 610.992 197.53 610.203C197.93 609.408 198.497 608.785 199.231 608.335C199.964 607.879 200.837 607.651 201.848 607.651C202.982 607.651 203.94 607.938 204.723 608.511C205.512 609.078 206.027 609.855 206.267 610.841L204.048 611.442C203.876 610.906 203.589 610.49 203.188 610.194C202.788 609.892 202.331 609.741 201.82 609.741C201.24 609.741 200.763 609.879 200.387 610.157C200.011 610.428 199.733 610.804 199.555 611.285C199.376 611.765 199.286 612.311 199.286 612.921C199.286 613.87 199.499 614.638 199.924 615.223C200.35 615.809 200.982 616.102 201.82 616.102C202.412 616.102 202.877 615.966 203.216 615.695C203.561 615.424 203.82 615.032 203.993 614.521L206.267 615.029C205.959 616.046 205.42 616.829 204.649 617.378C203.879 617.92 202.935 618.191 201.82 618.191ZM212.389 618.191C211.378 618.191 210.49 617.973 209.726 617.535C208.962 617.097 208.364 616.49 207.932 615.714C207.507 614.937 207.294 614.043 207.294 613.032C207.294 611.941 207.504 610.995 207.923 610.194C208.342 609.386 208.925 608.761 209.671 608.317C210.416 607.873 211.279 607.651 212.259 607.651C213.295 607.651 214.173 607.894 214.895 608.381C215.622 608.862 216.161 609.543 216.513 610.425C216.864 611.306 216.996 612.345 216.91 613.541H214.7V612.727C214.694 611.642 214.503 610.85 214.127 610.351C213.751 609.852 213.159 609.602 212.352 609.602C211.44 609.602 210.762 609.885 210.318 610.453C209.874 611.013 209.652 611.836 209.652 612.921C209.652 613.932 209.874 614.715 210.318 615.27C210.762 615.824 211.409 616.102 212.259 616.102C212.808 616.102 213.28 615.982 213.674 615.741C214.075 615.495 214.383 615.14 214.599 614.678L216.799 615.344C216.417 616.244 215.825 616.943 215.024 617.443C214.229 617.942 213.35 618.191 212.389 618.191ZM208.949 613.541V611.858H215.819V613.541H208.949ZM223.513 618.191C222.502 618.191 221.614 617.973 220.85 617.535C220.086 617.097 219.488 616.49 219.056 615.714C218.631 614.937 218.418 614.043 218.418 613.032C218.418 611.941 218.628 610.995 219.047 610.194C219.466 609.386 220.049 608.761 220.795 608.317C221.54 607.873 222.403 607.651 223.384 607.651C224.419 607.651 225.297 607.894 226.019 608.381C226.746 608.862 227.285 609.543 227.637 610.425C227.988 611.306 228.121 612.345 228.034 613.541H225.824V612.727C225.818 611.642 225.627 610.85 225.251 610.351C224.875 609.852 224.283 609.602 223.476 609.602C222.564 609.602 221.886 609.885 221.442 610.453C220.998 611.013 220.776 611.836 220.776 612.921C220.776 613.932 220.998 614.715 221.442 615.27C221.886 615.824 222.533 616.102 223.384 616.102C223.932 616.102 224.404 615.982 224.798 615.741C225.199 615.495 225.507 615.14 225.723 614.678L227.923 615.344C227.541 616.244 226.949 616.943 226.148 617.443C225.353 617.942 224.475 618.191 223.513 618.191ZM220.073 613.541V611.858H226.943V613.541H220.073ZM234.101 618.191C233.182 618.191 232.381 617.96 231.697 617.498C231.013 617.036 230.483 616.407 230.107 615.612C229.731 614.817 229.543 613.92 229.543 612.921C229.543 611.91 229.731 611.01 230.107 610.221C230.489 609.426 231.028 608.801 231.725 608.344C232.421 607.882 233.241 607.651 234.184 607.651C235.133 607.651 235.928 607.882 236.569 608.344C237.217 608.801 237.707 609.426 238.04 610.221C238.372 611.017 238.539 611.916 238.539 612.921C238.539 613.914 238.372 614.81 238.04 615.612C237.707 616.407 237.211 617.036 236.551 617.498C235.891 617.96 235.075 618.191 234.101 618.191ZM234.443 616.194C235.041 616.194 235.522 616.059 235.885 615.787C236.255 615.51 236.523 615.125 236.69 614.632C236.862 614.139 236.949 613.568 236.949 612.921C236.949 612.268 236.862 611.698 236.69 611.211C236.523 610.718 236.261 610.335 235.904 610.064C235.546 609.787 235.084 609.648 234.517 609.648C233.919 609.648 233.426 609.796 233.038 610.092C232.649 610.382 232.363 610.776 232.178 611.275C231.993 611.769 231.9 612.317 231.9 612.921C231.9 613.531 231.99 614.086 232.168 614.586C232.353 615.079 232.634 615.47 233.01 615.76C233.386 616.049 233.863 616.194 234.443 616.194ZM236.949 617.914V610.906H236.671V604.6H238.918V617.914H236.949ZM251.065 617.914C250.405 618.037 249.758 618.09 249.123 618.071C248.495 618.059 247.931 617.945 247.431 617.729C246.932 617.507 246.553 617.159 246.294 616.684C246.066 616.253 245.946 615.812 245.934 615.362C245.921 614.912 245.915 614.404 245.915 613.837V605.155H248.134V613.707C248.134 614.108 248.137 614.459 248.143 614.761C248.156 615.063 248.22 615.31 248.337 615.501C248.559 615.871 248.914 616.077 249.401 616.12C249.888 616.163 250.442 616.139 251.065 616.046V617.914ZM244.103 609.676V607.928H251.065V609.676H244.103ZM257.117 618.191C256.118 618.191 255.246 617.966 254.5 617.516C253.755 617.067 253.175 616.447 252.762 615.658C252.355 614.863 252.152 613.951 252.152 612.921C252.152 611.873 252.361 610.955 252.781 610.166C253.2 609.377 253.782 608.761 254.528 608.317C255.274 607.873 256.137 607.651 257.117 607.651C258.122 607.651 258.997 607.876 259.743 608.326C260.489 608.776 261.068 609.398 261.481 610.194C261.894 610.983 262.101 611.892 262.101 612.921C262.101 613.957 261.891 614.872 261.472 615.667C261.059 616.456 260.479 617.076 259.734 617.526C258.988 617.97 258.116 618.191 257.117 618.191ZM257.117 616.102C258.005 616.102 258.664 615.806 259.096 615.214C259.527 614.622 259.743 613.858 259.743 612.921C259.743 611.953 259.524 611.183 259.086 610.61C258.649 610.03 257.992 609.741 257.117 609.741C256.519 609.741 256.026 609.876 255.638 610.147C255.255 610.412 254.972 610.785 254.787 611.266C254.602 611.741 254.51 612.292 254.51 612.921C254.51 613.889 254.728 614.663 255.166 615.242C255.61 615.815 256.26 616.102 257.117 616.102ZM274.747 617.914V613.106C274.747 612.792 274.725 612.444 274.682 612.061C274.639 611.679 274.537 611.312 274.377 610.961C274.223 610.604 273.988 610.311 273.674 610.083C273.366 609.855 272.947 609.741 272.417 609.741C272.133 609.741 271.853 609.787 271.575 609.879C271.298 609.972 271.045 610.132 270.817 610.36C270.595 610.582 270.416 610.89 270.281 611.285C270.145 611.673 270.077 612.172 270.077 612.783L268.755 612.219C268.755 611.368 268.918 610.597 269.245 609.907C269.578 609.217 270.065 608.668 270.706 608.261C271.347 607.848 272.136 607.642 273.073 607.642C273.813 607.642 274.423 607.765 274.904 608.012C275.384 608.258 275.767 608.573 276.05 608.955C276.334 609.337 276.543 609.744 276.679 610.175C276.815 610.607 276.901 611.017 276.938 611.405C276.981 611.787 277.003 612.098 277.003 612.339V617.914H274.747ZM267.821 617.914V604.6H269.809V611.608H270.077V617.914H267.821ZM283.826 618.191C282.827 618.191 281.955 617.966 281.209 617.516C280.463 617.067 279.884 616.447 279.471 615.658C279.064 614.863 278.861 613.951 278.861 612.921C278.861 611.873 279.07 610.955 279.489 610.166C279.908 609.377 280.491 608.761 281.237 608.317C281.983 607.873 282.846 607.651 283.826 607.651C284.83 607.651 285.706 607.876 286.452 608.326C287.197 608.776 287.777 609.398 288.19 610.194C288.603 610.983 288.809 611.892 288.809 612.921C288.809 613.957 288.6 614.872 288.181 615.667C287.768 616.456 287.188 617.076 286.442 617.526C285.696 617.97 284.824 618.191 283.826 618.191ZM283.826 616.102C284.713 616.102 285.373 615.806 285.804 615.214C286.236 614.622 286.452 613.858 286.452 612.921C286.452 611.953 286.233 611.183 285.795 610.61C285.357 610.03 284.701 609.741 283.826 609.741C283.228 609.741 282.735 609.876 282.346 610.147C281.964 610.412 281.681 610.785 281.496 611.266C281.311 611.741 281.218 612.292 281.218 612.921C281.218 613.889 281.437 614.663 281.875 615.242C282.319 615.815 282.969 616.102 283.826 616.102ZM302.838 617.914V611.849C302.838 611.164 302.669 610.631 302.33 610.249C301.991 609.861 301.532 609.667 300.952 609.667C300.595 609.667 300.274 609.75 299.991 609.916C299.707 610.077 299.482 610.317 299.316 610.637C299.149 610.952 299.066 611.328 299.066 611.765L298.077 611.183C298.071 610.493 298.225 609.885 298.539 609.362C298.86 608.831 299.291 608.418 299.834 608.123C300.376 607.827 300.98 607.679 301.646 607.679C302.749 607.679 303.594 608.012 304.179 608.677C304.771 609.337 305.067 610.206 305.067 611.285V617.914H302.838ZM290.828 617.914V607.928H292.797V611.026H293.075V617.914H290.828ZM296.847 617.914V611.876C296.847 611.18 296.678 610.637 296.339 610.249C296 609.861 295.537 609.667 294.952 609.667C294.385 609.667 293.928 609.861 293.583 610.249C293.244 610.637 293.075 611.143 293.075 611.765L292.076 611.1C292.076 610.453 292.236 609.87 292.557 609.352C292.877 608.834 293.309 608.428 293.851 608.132C294.4 607.83 295.013 607.679 295.691 607.679C296.437 607.679 297.06 607.839 297.559 608.16C298.064 608.474 298.44 608.905 298.687 609.454C298.94 609.996 299.066 610.61 299.066 611.294V617.914H296.847ZM311.856 618.191C310.845 618.191 309.957 617.973 309.193 617.535C308.428 617.097 307.831 616.49 307.399 615.714C306.974 614.937 306.761 614.043 306.761 613.032C306.761 611.941 306.971 610.995 307.39 610.194C307.809 609.386 308.391 608.761 309.137 608.317C309.883 607.873 310.746 607.651 311.726 607.651C312.762 607.651 313.64 607.894 314.361 608.381C315.089 608.862 315.628 609.543 315.979 610.425C316.331 611.306 316.463 612.345 316.377 613.541H314.167V612.727C314.161 611.642 313.97 610.85 313.594 610.351C313.218 609.852 312.626 609.602 311.819 609.602C310.906 609.602 310.228 609.885 309.785 610.453C309.341 611.013 309.119 611.836 309.119 612.921C309.119 613.932 309.341 614.715 309.785 615.27C310.228 615.824 310.876 616.102 311.726 616.102C312.275 616.102 312.746 615.982 313.141 615.741C313.542 615.495 313.85 615.14 314.065 614.678L316.266 615.344C315.884 616.244 315.292 616.943 314.491 617.443C313.696 617.942 312.817 618.191 311.856 618.191ZM308.416 613.541V611.858H315.286V613.541H308.416Z" fill="#666666"/>
<ellipse opacity="0.3" cx="242.019" cy="266.214" rx="48.1563" ry="48.1563" fill="#26C165"/>
<path d="M264.987 246.074C266.801 244.129 269.849 244.024 271.793 245.839C273.737 247.654 273.842 250.701 272.028 252.645L238.318 288.763C236.558 290.649 233.623 290.812 231.664 289.133L214.809 274.686C212.79 272.955 212.556 269.915 214.287 267.896C216.018 265.877 219.058 265.643 221.077 267.374L234.427 278.816L264.987 246.074Z" fill="#26C165"/>
<path d="M182.162 354.648C180.683 354.648 179.347 354.389 178.154 353.871C176.971 353.344 175.995 352.595 175.228 351.624C174.47 350.644 173.989 349.479 173.785 348.129L177.724 347.547C178.001 348.693 178.575 349.576 179.444 350.196C180.313 350.815 181.302 351.125 182.412 351.125C183.031 351.125 183.632 351.028 184.215 350.834C184.797 350.639 185.273 350.353 185.643 349.974C186.022 349.595 186.212 349.128 186.212 348.573C186.212 348.369 186.18 348.175 186.115 347.99C186.059 347.796 185.962 347.616 185.824 347.449C185.685 347.283 185.486 347.126 185.227 346.978C184.978 346.83 184.659 346.696 184.27 346.576L179.083 345.05C178.695 344.939 178.242 344.782 177.724 344.579C177.216 344.375 176.721 344.084 176.24 343.705C175.759 343.326 175.357 342.826 175.034 342.207C174.719 341.578 174.562 340.788 174.562 339.835C174.562 338.495 174.899 337.381 175.574 336.493C176.249 335.605 177.151 334.944 178.279 334.51C179.407 334.075 180.655 333.862 182.023 333.872C183.401 333.89 184.631 334.126 185.713 334.579C186.794 335.032 187.701 335.693 188.431 336.562C189.161 337.422 189.688 338.476 190.012 339.724L185.935 340.418C185.787 339.771 185.514 339.225 185.116 338.781C184.719 338.338 184.243 338 183.688 337.769C183.142 337.538 182.569 337.413 181.968 337.394C181.376 337.376 180.817 337.459 180.29 337.644C179.772 337.82 179.347 338.079 179.014 338.421C178.69 338.763 178.529 339.17 178.529 339.641C178.529 340.076 178.663 340.432 178.931 340.709C179.199 340.977 179.536 341.195 179.943 341.361C180.35 341.527 180.766 341.666 181.191 341.777L184.659 342.72C185.176 342.859 185.75 343.044 186.378 343.275C187.007 343.497 187.608 343.811 188.181 344.218C188.764 344.616 189.24 345.143 189.61 345.799C189.989 346.456 190.178 347.288 190.178 348.296C190.178 349.368 189.952 350.307 189.499 351.111C189.055 351.906 188.454 352.567 187.696 353.094C186.938 353.612 186.078 354 185.116 354.259C184.164 354.518 183.179 354.648 182.162 354.648ZM198.802 354.675C197.628 354.675 196.671 354.476 195.931 354.079C195.192 353.681 194.614 353.177 194.198 352.567C193.791 351.957 193.5 351.324 193.324 350.667C193.148 350.001 193.042 349.396 193.005 348.85C192.968 348.305 192.949 347.907 192.949 347.658V339.253H196.777V346.326C196.777 346.668 196.796 347.107 196.833 347.644C196.87 348.171 196.985 348.702 197.18 349.239C197.374 349.775 197.688 350.223 198.123 350.584C198.566 350.944 199.191 351.125 199.995 351.125C200.319 351.125 200.665 351.074 201.035 350.972C201.405 350.871 201.752 350.676 202.075 350.39C202.399 350.094 202.662 349.664 202.866 349.1C203.078 348.527 203.185 347.778 203.185 346.853L205.348 347.879C205.348 349.063 205.108 350.172 204.627 351.208C204.146 352.244 203.421 353.08 202.45 353.718C201.488 354.356 200.272 354.675 198.802 354.675ZM203.656 354.231V349.266H203.185V339.253H206.985V354.231H203.656ZM217.463 354.648C215.909 354.648 214.578 354.301 213.468 353.607C212.359 352.914 211.508 351.971 210.917 350.778C210.325 349.585 210.029 348.24 210.029 346.742C210.029 345.226 210.334 343.871 210.944 342.679C211.564 341.486 212.433 340.547 213.552 339.863C214.67 339.179 215.993 338.837 217.518 338.837C219.284 338.837 220.764 339.285 221.956 340.182C223.158 341.07 223.926 342.286 224.259 343.83L220.486 344.828C220.264 344.052 219.876 343.446 219.321 343.011C218.776 342.577 218.156 342.36 217.463 342.36C216.668 342.36 216.016 342.554 215.507 342.942C214.999 343.321 214.624 343.844 214.384 344.509C214.143 345.166 214.023 345.91 214.023 346.742C214.023 348.046 214.31 349.105 214.883 349.918C215.466 350.723 216.325 351.125 217.463 351.125C218.313 351.125 218.961 350.931 219.404 350.542C219.848 350.154 220.181 349.599 220.403 348.878L224.259 349.682C223.833 351.273 223.029 352.498 221.845 353.358C220.662 354.218 219.201 354.648 217.463 354.648ZM233.228 354.648C231.675 354.648 230.343 354.301 229.234 353.607C228.124 352.914 227.273 351.971 226.682 350.778C226.09 349.585 225.794 348.24 225.794 346.742C225.794 345.226 226.099 343.871 226.709 342.679C227.329 341.486 228.198 340.547 229.317 339.863C230.436 339.179 231.758 338.837 233.283 338.837C235.049 338.837 236.529 339.285 237.721 340.182C238.923 341.07 239.691 342.286 240.024 343.83L236.251 344.828C236.029 344.052 235.641 343.446 235.086 343.011C234.541 342.577 233.921 342.36 233.228 342.36C232.433 342.36 231.781 342.554 231.272 342.942C230.764 343.321 230.389 343.844 230.149 344.509C229.909 345.166 229.788 345.91 229.788 346.742C229.788 348.046 230.075 349.105 230.648 349.918C231.231 350.723 232.091 351.125 233.228 351.125C234.079 351.125 234.726 350.931 235.17 350.542C235.613 350.154 235.946 349.599 236.168 348.878L240.024 349.682C239.598 351.273 238.794 352.498 237.61 353.358C236.427 354.218 234.966 354.648 233.228 354.648ZM249.354 354.648C247.819 354.648 246.464 354.319 245.29 353.663C244.125 352.997 243.21 352.086 242.544 350.931C241.887 349.766 241.559 348.434 241.559 346.936C241.559 345.3 241.883 343.876 242.53 342.665C243.177 341.453 244.07 340.515 245.207 339.849C246.344 339.174 247.652 338.837 249.132 338.837C250.704 338.837 252.04 339.207 253.14 339.946C254.24 340.686 255.054 341.726 255.581 343.067C256.108 344.408 256.293 345.984 256.136 347.796H252.405V346.409C252.405 344.884 252.16 343.788 251.67 343.122C251.189 342.447 250.398 342.11 249.298 342.11C248.013 342.11 247.065 342.503 246.455 343.289C245.854 344.065 245.554 345.217 245.554 346.742C245.554 348.138 245.854 349.22 246.455 349.988C247.065 350.746 247.957 351.125 249.132 351.125C249.871 351.125 250.505 350.963 251.032 350.639C251.559 350.316 251.961 349.849 252.238 349.239L256.011 350.32C255.447 351.689 254.555 352.752 253.334 353.51C252.123 354.268 250.796 354.648 249.354 354.648ZM244.389 347.796V344.995H254.319V347.796H244.389ZM265.12 354.648C263.234 354.648 261.708 354.222 260.543 353.372C259.387 352.512 258.685 351.3 258.435 349.738L262.291 349.155C262.448 349.858 262.795 350.408 263.331 350.806C263.876 351.203 264.565 351.402 265.397 351.402C266.081 351.402 266.608 351.273 266.978 351.014C267.348 350.746 267.533 350.376 267.533 349.904C267.533 349.608 267.459 349.373 267.311 349.197C267.163 349.012 266.83 348.832 266.313 348.656C265.804 348.48 265.009 348.249 263.927 347.963C262.707 347.648 261.731 347.297 261.001 346.909C260.27 346.52 259.743 346.058 259.42 345.522C259.096 344.976 258.934 344.32 258.934 343.552C258.934 342.591 259.179 341.759 259.669 341.056C260.159 340.344 260.848 339.798 261.736 339.419C262.633 339.031 263.687 338.837 264.898 338.837C266.072 338.837 267.112 339.017 268.018 339.378C268.925 339.738 269.655 340.251 270.21 340.917C270.774 341.583 271.121 342.369 271.25 343.275L267.394 343.968C267.33 343.414 267.089 342.974 266.673 342.651C266.257 342.327 265.693 342.138 264.981 342.082C264.288 342.036 263.728 342.128 263.303 342.36C262.887 342.591 262.679 342.924 262.679 343.358C262.679 343.617 262.767 343.834 262.942 344.01C263.127 344.186 263.502 344.366 264.066 344.551C264.639 344.736 265.508 344.976 266.673 345.272C267.81 345.568 268.721 345.915 269.405 346.312C270.099 346.701 270.603 347.172 270.917 347.727C271.231 348.272 271.389 348.933 271.389 349.71C271.389 351.245 270.834 352.452 269.724 353.33C268.615 354.208 267.08 354.648 265.12 354.648ZM280.289 354.648C278.403 354.648 276.877 354.222 275.712 353.372C274.557 352.512 273.854 351.3 273.604 349.738L277.46 349.155C277.617 349.858 277.964 350.408 278.5 350.806C279.046 351.203 279.734 351.402 280.566 351.402C281.251 351.402 281.778 351.273 282.148 351.014C282.517 350.746 282.702 350.376 282.702 349.904C282.702 349.608 282.628 349.373 282.48 349.197C282.332 349.012 282 348.832 281.482 348.656C280.973 348.48 280.178 348.249 279.096 347.963C277.876 347.648 276.9 347.297 276.17 346.909C275.44 346.52 274.913 346.058 274.589 345.522C274.265 344.976 274.104 344.32 274.104 343.552C274.104 342.591 274.349 341.759 274.839 341.056C275.329 340.344 276.017 339.798 276.905 339.419C277.802 339.031 278.856 338.837 280.067 338.837C281.241 338.837 282.282 339.017 283.188 339.378C284.094 339.738 284.824 340.251 285.379 340.917C285.943 341.583 286.29 342.369 286.419 343.275L282.564 343.968C282.499 343.414 282.259 342.974 281.842 342.651C281.426 342.327 280.862 342.138 280.15 342.082C279.457 342.036 278.898 342.128 278.472 342.36C278.056 342.591 277.848 342.924 277.848 343.358C277.848 343.617 277.936 343.834 278.112 344.01C278.297 344.186 278.671 344.366 279.235 344.551C279.808 344.736 280.677 344.976 281.842 345.272C282.98 345.568 283.89 345.915 284.575 346.312C285.268 346.701 285.772 347.172 286.086 347.727C286.401 348.272 286.558 348.933 286.558 349.71C286.558 351.245 286.003 352.452 284.894 353.33C283.784 354.208 282.249 354.648 280.289 354.648ZM290.854 354.231V339.308C290.854 338.929 290.863 338.499 290.882 338.019C290.9 337.538 290.974 337.052 291.103 336.562C291.242 336.072 291.492 335.628 291.852 335.231C292.315 334.713 292.814 334.362 293.35 334.177C293.896 333.983 294.423 333.881 294.931 333.872C295.44 333.853 295.874 333.844 296.235 333.844H298.093V336.895H296.374C295.782 336.895 295.343 337.048 295.056 337.353C294.77 337.649 294.626 338.005 294.626 338.421V354.231H290.854ZM288.496 342.165V339.253H298.093V342.165H288.496ZM305.881 354.675C304.706 354.675 303.749 354.476 303.01 354.079C302.27 353.681 301.692 353.177 301.276 352.567C300.869 351.957 300.578 351.324 300.402 350.667C300.227 350.001 300.12 349.396 300.083 348.85C300.046 348.305 300.028 347.907 300.028 347.658V339.253H303.856V346.326C303.856 346.668 303.874 347.107 303.911 347.644C303.948 348.171 304.064 348.702 304.258 349.239C304.452 349.775 304.767 350.223 305.201 350.584C305.645 350.944 306.269 351.125 307.073 351.125C307.397 351.125 307.744 351.074 308.114 350.972C308.483 350.871 308.83 350.676 309.154 350.39C309.477 350.094 309.741 349.664 309.944 349.1C310.157 348.527 310.263 347.778 310.263 346.853L312.427 347.879C312.427 349.063 312.186 350.172 311.706 351.208C311.225 352.244 310.499 353.08 309.528 353.718C308.567 354.356 307.351 354.675 305.881 354.675ZM310.735 354.231V349.266H310.263V339.253H314.063V354.231H310.735ZM318.217 354.231V333.844H321.989V354.231H318.217Z" fill="#232323"/>
<path d="M120.896 394.999V390.153L116.972 383.349H118.647L121.624 388.503L124.593 383.349H126.268L122.352 390.153V394.999H120.896ZM129.822 395.242C128.954 395.242 128.204 395.045 127.573 394.651C126.947 394.257 126.465 393.713 126.125 393.017C125.785 392.321 125.615 391.523 125.615 390.622C125.615 389.705 125.788 388.902 126.133 388.211C126.478 387.521 126.966 386.984 127.597 386.601C128.228 386.213 128.97 386.019 129.822 386.019C130.696 386.019 131.448 386.216 132.079 386.609C132.71 386.998 133.193 387.54 133.527 388.236C133.867 388.926 134.037 389.721 134.037 390.622C134.037 391.534 133.867 392.337 133.527 393.033C133.188 393.723 132.702 394.266 132.071 394.659C131.44 395.048 130.69 395.242 129.822 395.242ZM129.822 393.874C130.728 393.874 131.402 393.572 131.845 392.968C132.287 392.364 132.508 391.582 132.508 390.622C132.508 389.635 132.284 388.85 131.836 388.268C131.389 387.68 130.717 387.386 129.822 387.386C129.213 387.386 128.711 387.524 128.317 387.799C127.923 388.074 127.63 388.454 127.435 388.939C127.241 389.425 127.144 389.986 127.144 390.622C127.144 391.604 127.371 392.391 127.824 392.985C128.277 393.578 128.943 393.874 129.822 393.874ZM139.135 395.226C138.574 395.226 138.092 395.137 137.687 394.959C137.288 394.781 136.956 394.543 136.692 394.247C136.428 393.95 136.22 393.621 136.069 393.26C135.918 392.898 135.81 392.529 135.745 392.151C135.686 391.774 135.656 391.42 135.656 391.091V386.262H137.113V390.638C137.113 391.048 137.15 391.445 137.226 391.828C137.301 392.211 137.428 392.556 137.606 392.863C137.79 393.171 138.032 393.413 138.334 393.591C138.642 393.769 139.025 393.858 139.483 393.858C139.845 393.858 140.174 393.796 140.47 393.672C140.767 393.548 141.02 393.365 141.231 393.122C141.441 392.874 141.603 392.561 141.716 392.184C141.829 391.806 141.886 391.366 141.886 390.865L142.833 391.156C142.833 391.998 142.679 392.723 142.371 393.332C142.069 393.942 141.641 394.411 141.085 394.74C140.535 395.064 139.885 395.226 139.135 395.226ZM142.048 394.999V392.661H141.886V386.262H143.334V394.999H142.048ZM155.06 394.999V390.622C155.06 390.207 155.022 389.808 154.947 389.425C154.877 389.042 154.75 388.699 154.566 388.397C154.388 388.09 154.146 387.847 153.838 387.669C153.536 387.491 153.153 387.402 152.689 387.402C152.328 387.402 151.999 387.464 151.702 387.588C151.411 387.707 151.16 387.89 150.95 388.138C150.74 388.387 150.575 388.699 150.457 389.077C150.343 389.449 150.287 389.889 150.287 390.396L149.34 390.104C149.34 389.258 149.491 388.532 149.793 387.928C150.101 387.319 150.529 386.852 151.08 386.529C151.635 386.2 152.288 386.035 153.037 386.035C153.604 386.035 154.086 386.124 154.486 386.302C154.885 386.48 155.216 386.717 155.481 387.014C155.745 387.305 155.953 387.634 156.104 388.001C156.255 388.362 156.36 388.732 156.419 389.109C156.484 389.481 156.516 389.835 156.516 390.169V394.999H155.06ZM148.83 394.999V383.349H150.125V389.781H150.287V394.999H148.83ZM161.103 395.242C160.451 395.242 159.903 395.123 159.461 394.886C159.024 394.643 158.692 394.325 158.466 393.931C158.245 393.537 158.134 393.106 158.134 392.637C158.134 392.178 158.22 391.782 158.393 391.447C158.571 391.108 158.819 390.827 159.137 390.606C159.455 390.379 159.836 390.202 160.278 390.072C160.693 389.959 161.157 389.862 161.67 389.781C162.187 389.695 162.71 389.616 163.239 389.546C163.768 389.476 164.261 389.409 164.72 389.344L164.202 389.643C164.218 388.867 164.062 388.292 163.733 387.92C163.409 387.548 162.848 387.362 162.05 387.362C161.521 387.362 161.057 387.483 160.658 387.726C160.265 387.963 159.987 388.352 159.825 388.891L158.458 388.478C158.668 387.712 159.075 387.111 159.679 386.674C160.283 386.237 161.079 386.019 162.066 386.019C162.859 386.019 163.538 386.162 164.105 386.448C164.676 386.728 165.086 387.154 165.334 387.726C165.458 387.996 165.537 388.29 165.569 388.608C165.601 388.921 165.618 389.25 165.618 389.595V394.999H164.339V392.904L164.639 393.098C164.31 393.804 163.848 394.338 163.255 394.7C162.667 395.061 161.95 395.242 161.103 395.242ZM161.322 394.036C161.839 394.036 162.287 393.945 162.665 393.761C163.048 393.572 163.355 393.327 163.587 393.025C163.819 392.718 163.97 392.383 164.04 392.022C164.121 391.752 164.164 391.453 164.169 391.124C164.18 390.789 164.186 390.533 164.186 390.355L164.687 390.574C164.218 390.638 163.757 390.7 163.304 390.76C162.851 390.819 162.422 390.884 162.017 390.954C161.613 391.019 161.249 391.097 160.925 391.189C160.688 391.264 160.464 391.361 160.254 391.48C160.049 391.598 159.882 391.752 159.752 391.941C159.628 392.124 159.566 392.354 159.566 392.629C159.566 392.866 159.625 393.092 159.744 393.308C159.868 393.524 160.057 393.699 160.31 393.834C160.569 393.969 160.906 394.036 161.322 394.036ZM169.767 394.999L166.596 386.262H168.052L170.504 393.163L172.947 386.262H174.411L171.24 394.999H169.767ZM179.345 395.242C178.487 395.242 177.737 395.053 177.096 394.675C176.459 394.292 175.963 393.761 175.607 393.082C175.251 392.397 175.073 391.598 175.073 390.687C175.073 389.732 175.248 388.907 175.599 388.211C175.949 387.51 176.438 386.971 177.063 386.593C177.694 386.21 178.433 386.019 179.28 386.019C180.159 386.019 180.906 386.221 181.521 386.626C182.141 387.03 182.605 387.607 182.913 388.357C183.225 389.107 183.36 389.999 183.317 391.035H181.861V390.517C181.845 389.444 181.626 388.643 181.205 388.114C180.785 387.58 180.159 387.313 179.329 387.313C178.439 387.313 177.762 387.599 177.298 388.171C176.834 388.743 176.602 389.562 176.602 390.63C176.602 391.66 176.834 392.459 177.298 393.025C177.762 393.591 178.422 393.874 179.28 393.874C179.857 393.874 180.359 393.742 180.785 393.478C181.211 393.214 181.545 392.834 181.788 392.337L183.171 392.815C182.832 393.586 182.319 394.185 181.634 394.611C180.955 395.031 180.191 395.242 179.345 395.242ZM176.117 391.035V389.878H182.573V391.035H176.117ZM191.658 395.234C190.617 395.234 189.763 395.007 189.094 394.554C188.43 394.096 188.023 393.456 187.872 392.637L189.345 392.402C189.463 392.877 189.736 393.254 190.162 393.535C190.588 393.81 191.116 393.947 191.747 393.947C192.346 393.947 192.815 393.823 193.155 393.575C193.495 393.327 193.665 392.99 193.665 392.564C193.665 392.316 193.608 392.116 193.495 391.965C193.382 391.809 193.147 391.663 192.791 391.528C192.44 391.393 191.909 391.232 191.197 391.043C190.426 390.838 189.819 390.625 189.377 390.404C188.935 390.183 188.619 389.926 188.43 389.635C188.242 389.344 188.147 388.991 188.147 388.575C188.147 388.063 188.287 387.615 188.568 387.232C188.848 386.844 189.239 386.545 189.741 386.334C190.248 386.124 190.836 386.019 191.505 386.019C192.168 386.019 192.761 386.124 193.284 386.334C193.808 386.545 194.228 386.844 194.547 387.232C194.87 387.615 195.062 388.063 195.121 388.575L193.649 388.842C193.578 388.373 193.352 388.004 192.969 387.734C192.591 387.464 192.103 387.321 191.505 387.305C190.938 387.284 190.477 387.383 190.121 387.605C189.771 387.826 189.595 388.125 189.595 388.503C189.595 388.713 189.66 388.894 189.789 389.045C189.924 389.196 190.17 389.339 190.526 389.473C190.887 389.608 191.41 389.762 192.095 389.935C192.866 390.129 193.473 390.342 193.916 390.574C194.363 390.8 194.681 391.07 194.87 391.383C195.059 391.69 195.153 392.07 195.153 392.523C195.153 393.365 194.843 394.028 194.223 394.514C193.603 394.994 192.748 395.234 191.658 395.234ZM200.255 395.226C199.694 395.226 199.211 395.137 198.806 394.959C198.407 394.781 198.076 394.543 197.811 394.247C197.547 393.95 197.339 393.621 197.188 393.26C197.037 392.898 196.93 392.529 196.865 392.151C196.805 391.774 196.776 391.42 196.776 391.091V386.262H198.232V390.638C198.232 391.048 198.27 391.445 198.345 391.828C198.421 392.211 198.548 392.556 198.726 392.863C198.909 393.171 199.152 393.413 199.454 393.591C199.761 393.769 200.144 393.858 200.602 393.858C200.964 393.858 201.293 393.796 201.589 393.672C201.886 393.548 202.14 393.365 202.35 393.122C202.56 392.874 202.722 392.561 202.835 392.184C202.949 391.806 203.005 391.366 203.005 390.865L203.952 391.156C203.952 391.998 203.798 392.723 203.491 393.332C203.189 393.942 202.76 394.411 202.204 394.74C201.654 395.064 201.004 395.226 200.255 395.226ZM203.167 394.999V392.661H203.005V386.262H204.453V394.999H203.167ZM210.4 395.242C209.515 395.242 208.763 395.045 208.142 394.651C207.528 394.252 207.058 393.705 206.735 393.009C206.411 392.313 206.244 391.52 206.233 390.63C206.244 389.719 206.414 388.918 206.743 388.227C207.077 387.532 207.555 386.99 208.175 386.601C208.795 386.213 209.542 386.019 210.416 386.019C211.338 386.019 212.131 386.245 212.794 386.698C213.463 387.151 213.911 387.772 214.137 388.559L212.713 388.988C212.53 388.481 212.231 388.087 211.815 387.807C211.406 387.526 210.934 387.386 210.4 387.386C209.801 387.386 209.307 387.526 208.919 387.807C208.531 388.082 208.242 388.465 208.053 388.956C207.865 389.441 207.768 389.999 207.762 390.63C207.773 391.601 207.997 392.386 208.434 392.985C208.876 393.578 209.531 393.874 210.4 393.874C210.971 393.874 211.446 393.745 211.824 393.486C212.201 393.222 212.487 392.842 212.681 392.345L214.137 392.726C213.835 393.54 213.363 394.163 212.722 394.595C212.08 395.026 211.306 395.242 210.4 395.242ZM219.233 395.242C218.348 395.242 217.596 395.045 216.975 394.651C216.361 394.252 215.891 393.705 215.568 393.009C215.244 392.313 215.077 391.52 215.066 390.63C215.077 389.719 215.247 388.918 215.576 388.227C215.91 387.532 216.387 386.99 217.008 386.601C217.628 386.213 218.375 386.019 219.249 386.019C220.171 386.019 220.964 386.245 221.627 386.698C222.296 387.151 222.744 387.772 222.97 388.559L221.546 388.988C221.363 388.481 221.064 388.087 220.648 387.807C220.238 387.526 219.767 387.386 219.233 387.386C218.634 387.386 218.14 387.526 217.752 387.807C217.364 388.082 217.075 388.465 216.886 388.956C216.698 389.441 216.601 389.999 216.595 390.63C216.606 391.601 216.83 392.386 217.267 392.985C217.709 393.578 218.364 393.874 219.233 393.874C219.804 393.874 220.279 393.745 220.656 393.486C221.034 393.222 221.32 392.842 221.514 392.345L222.97 392.726C222.668 393.54 222.196 394.163 221.554 394.595C220.913 395.026 220.139 395.242 219.233 395.242ZM228.171 395.242C227.313 395.242 226.563 395.053 225.922 394.675C225.285 394.292 224.789 393.761 224.433 393.082C224.077 392.397 223.899 391.598 223.899 390.687C223.899 389.732 224.074 388.907 224.425 388.211C224.775 387.51 225.264 386.971 225.889 386.593C226.52 386.21 227.259 386.019 228.106 386.019C228.985 386.019 229.732 386.221 230.347 386.626C230.967 387.03 231.431 387.607 231.738 388.357C232.051 389.107 232.186 389.999 232.143 391.035H230.687V390.517C230.671 389.444 230.452 388.643 230.031 388.114C229.611 387.58 228.985 387.313 228.154 387.313C227.265 387.313 226.588 387.599 226.124 388.171C225.66 388.743 225.428 389.562 225.428 390.63C225.428 391.66 225.66 392.459 226.124 393.025C226.588 393.591 227.248 393.874 228.106 393.874C228.683 393.874 229.185 393.742 229.611 393.478C230.037 393.214 230.371 392.834 230.614 392.337L231.997 392.815C231.658 393.586 231.145 394.185 230.46 394.611C229.781 395.031 229.017 395.242 228.171 395.242ZM224.943 391.035V389.878H231.399V391.035H224.943ZM237.245 395.234C236.204 395.234 235.349 395.007 234.68 394.554C234.017 394.096 233.61 393.456 233.459 392.637L234.931 392.402C235.05 392.877 235.322 393.254 235.748 393.535C236.174 393.81 236.703 393.947 237.334 393.947C237.933 393.947 238.402 393.823 238.742 393.575C239.082 393.327 239.251 392.99 239.251 392.564C239.251 392.316 239.195 392.116 239.082 391.965C238.968 391.809 238.734 391.663 238.378 391.528C238.027 391.393 237.496 391.232 236.784 391.043C236.013 390.838 235.406 390.625 234.964 390.404C234.521 390.183 234.206 389.926 234.017 389.635C233.828 389.344 233.734 388.991 233.734 388.575C233.734 388.063 233.874 387.615 234.155 387.232C234.435 386.844 234.826 386.545 235.328 386.334C235.835 386.124 236.423 386.019 237.091 386.019C237.755 386.019 238.348 386.124 238.871 386.334C239.394 386.545 239.815 386.844 240.133 387.232C240.457 387.615 240.648 388.063 240.708 388.575L239.235 388.842C239.165 388.373 238.939 388.004 238.556 387.734C238.178 387.464 237.69 387.321 237.091 387.305C236.525 387.284 236.064 387.383 235.708 387.605C235.357 387.826 235.182 388.125 235.182 388.503C235.182 388.713 235.247 388.894 235.376 389.045C235.511 389.196 235.756 389.339 236.112 389.473C236.474 389.608 236.997 389.762 237.682 389.935C238.453 390.129 239.06 390.342 239.502 390.574C239.95 390.8 240.268 391.07 240.457 391.383C240.646 391.69 240.74 392.07 240.74 392.523C240.74 393.365 240.43 394.028 239.81 394.514C239.189 394.994 238.335 395.234 237.245 395.234ZM245.825 395.234C244.784 395.234 243.929 395.007 243.26 394.554C242.597 394.096 242.19 393.456 242.039 392.637L243.511 392.402C243.63 392.877 243.902 393.254 244.328 393.535C244.754 393.81 245.283 393.947 245.914 393.947C246.513 393.947 246.982 393.823 247.322 393.575C247.662 393.327 247.831 392.99 247.831 392.564C247.831 392.316 247.775 392.116 247.662 391.965C247.548 391.809 247.314 391.663 246.958 391.528C246.607 391.393 246.076 391.232 245.364 391.043C244.593 390.838 243.986 390.625 243.544 390.404C243.101 390.183 242.786 389.926 242.597 389.635C242.408 389.344 242.314 388.991 242.314 388.575C242.314 388.063 242.454 387.615 242.735 387.232C243.015 386.844 243.406 386.545 243.908 386.334C244.415 386.124 245.003 386.019 245.671 386.019C246.335 386.019 246.928 386.124 247.451 386.334C247.974 386.545 248.395 386.844 248.713 387.232C249.037 387.615 249.228 388.063 249.288 388.575L247.815 388.842C247.745 388.373 247.519 388.004 247.136 387.734C246.758 387.464 246.27 387.321 245.671 387.305C245.105 387.284 244.644 387.383 244.288 387.605C243.937 387.826 243.762 388.125 243.762 388.503C243.762 388.713 243.827 388.894 243.956 389.045C244.091 389.196 244.337 389.339 244.692 389.473C245.054 389.608 245.577 389.762 246.262 389.935C247.033 390.129 247.64 390.342 248.082 390.574C248.53 390.8 248.848 391.07 249.037 391.383C249.226 391.69 249.32 392.07 249.32 392.523C249.32 393.365 249.01 394.028 248.39 394.514C247.769 394.994 246.915 395.234 245.825 395.234ZM251.938 394.999V385.784C251.938 385.558 251.948 385.328 251.97 385.097C251.992 384.859 252.04 384.63 252.116 384.409C252.191 384.182 252.315 383.975 252.488 383.786C252.687 383.565 252.906 383.408 253.143 383.317C253.38 383.22 253.62 383.16 253.863 383.139C254.111 383.117 254.346 383.106 254.567 383.106H255.675V384.304H254.648C254.222 384.304 253.904 384.409 253.693 384.619C253.483 384.824 253.378 385.137 253.378 385.558V394.999H251.938ZM250.457 387.451V386.262H255.675V387.451H250.457ZM260.284 395.226C259.723 395.226 259.24 395.137 258.835 394.959C258.436 394.781 258.105 394.543 257.84 394.247C257.576 393.95 257.368 393.621 257.217 393.26C257.066 392.898 256.959 392.529 256.894 392.151C256.835 391.774 256.805 391.42 256.805 391.091V386.262H258.261V390.638C258.261 391.048 258.299 391.445 258.374 391.828C258.45 392.211 258.577 392.556 258.755 392.863C258.938 393.171 259.181 393.413 259.483 393.591C259.79 393.769 260.173 393.858 260.632 393.858C260.993 393.858 261.322 393.796 261.619 393.672C261.915 393.548 262.169 393.365 262.379 393.122C262.589 392.874 262.751 392.561 262.864 392.184C262.978 391.806 263.034 391.366 263.034 390.865L263.981 391.156C263.981 391.998 263.827 392.723 263.52 393.332C263.218 393.942 262.789 394.411 262.233 394.74C261.683 395.064 261.033 395.226 260.284 395.226ZM263.196 394.999V392.661H263.034V386.262H264.482V394.999H263.196ZM266.909 394.999V383.106H268.35V394.999H266.909ZM270.939 394.999V383.106H272.379V394.999H270.939ZM276.02 398.882L277.711 394.287L277.735 395.646L273.916 386.262H275.429L278.423 393.81H277.905L280.712 386.262H282.177L277.419 398.882H276.02ZM290.433 395.242C289.549 395.242 288.796 395.045 288.176 394.651C287.561 394.252 287.092 393.705 286.768 393.009C286.445 392.313 286.277 391.52 286.267 390.63C286.277 389.719 286.447 388.918 286.776 388.227C287.111 387.532 287.588 386.99 288.208 386.601C288.829 386.213 289.576 386.019 290.449 386.019C291.372 386.019 292.164 386.245 292.828 386.698C293.497 387.151 293.944 387.772 294.171 388.559L292.747 388.988C292.564 388.481 292.264 388.087 291.849 387.807C291.439 387.526 290.967 387.386 290.433 387.386C289.834 387.386 289.341 387.526 288.953 387.807C288.564 388.082 288.276 388.465 288.087 388.956C287.898 389.441 287.801 389.999 287.796 390.63C287.806 391.601 288.03 392.386 288.467 392.985C288.909 393.578 289.565 393.874 290.433 393.874C291.005 393.874 291.479 393.745 291.857 393.486C292.235 393.222 292.52 392.842 292.715 392.345L294.171 392.726C293.869 393.54 293.397 394.163 292.755 394.595C292.113 395.026 291.339 395.242 290.433 395.242ZM299.306 395.242C298.438 395.242 297.688 395.045 297.057 394.651C296.432 394.257 295.949 393.713 295.609 393.017C295.269 392.321 295.1 391.523 295.1 390.622C295.1 389.705 295.272 388.902 295.617 388.211C295.963 387.521 296.451 386.984 297.082 386.601C297.713 386.213 298.454 386.019 299.306 386.019C300.18 386.019 300.933 386.216 301.564 386.609C302.195 386.998 302.677 387.54 303.012 388.236C303.352 388.926 303.522 389.721 303.522 390.622C303.522 391.534 303.352 392.337 303.012 393.033C302.672 393.723 302.187 394.266 301.556 394.659C300.925 395.048 300.175 395.242 299.306 395.242ZM299.306 393.874C300.213 393.874 300.887 393.572 301.329 392.968C301.771 392.364 301.992 391.582 301.992 390.622C301.992 389.635 301.769 388.85 301.321 388.268C300.873 387.68 300.202 387.386 299.306 387.386C298.697 387.386 298.195 387.524 297.802 387.799C297.408 388.074 297.114 388.454 296.92 388.939C296.726 389.425 296.629 389.986 296.629 390.622C296.629 391.604 296.855 392.391 297.308 392.985C297.761 393.578 298.427 393.874 299.306 393.874ZM315.747 394.999L315.755 389.409C315.755 388.756 315.58 388.246 315.23 387.88C314.884 387.507 314.434 387.321 313.878 387.321C313.555 387.321 313.247 387.397 312.956 387.548C312.665 387.694 312.428 387.925 312.244 388.244C312.061 388.556 311.969 388.958 311.969 389.449L311.209 389.142C311.198 388.521 311.325 387.979 311.589 387.516C311.859 387.046 312.225 386.682 312.689 386.423C313.153 386.164 313.676 386.035 314.259 386.035C315.17 386.035 315.888 386.313 316.411 386.868C316.934 387.418 317.195 388.16 317.195 389.093L317.187 394.999H315.747ZM305.295 394.999V386.262H306.581V388.6H306.743V394.999H305.295ZM310.529 394.999L310.537 389.465C310.537 388.796 310.365 388.273 310.019 387.896C309.674 387.513 309.216 387.321 308.644 387.321C308.078 387.321 307.619 387.516 307.269 387.904C306.918 388.292 306.743 388.807 306.743 389.449L305.982 388.996C305.982 388.43 306.117 387.923 306.387 387.475C306.657 387.027 307.023 386.677 307.487 386.423C307.951 386.164 308.477 386.035 309.065 386.035C309.653 386.035 310.165 386.159 310.602 386.407C311.039 386.655 311.376 387.011 311.613 387.475C311.85 387.934 311.969 388.481 311.969 389.117L311.961 394.999H310.529ZM323.315 395.242C322.496 395.242 321.805 395.039 321.244 394.635C320.683 394.225 320.257 393.672 319.966 392.976C319.68 392.275 319.537 391.491 319.537 390.622C319.537 389.743 319.68 388.956 319.966 388.26C320.257 387.564 320.683 387.017 321.244 386.618C321.811 386.218 322.504 386.019 323.324 386.019C324.133 386.019 324.828 386.221 325.411 386.626C325.999 387.025 326.449 387.572 326.762 388.268C327.075 388.964 327.231 389.748 327.231 390.622C327.231 391.496 327.075 392.281 326.762 392.976C326.449 393.672 325.999 394.225 325.411 394.635C324.828 395.039 324.13 395.242 323.315 395.242ZM319.295 398.882V386.262H320.581V392.693H320.743V398.882H319.295ZM323.137 393.923C323.715 393.923 324.192 393.777 324.569 393.486C324.947 393.195 325.23 392.801 325.419 392.305C325.608 391.803 325.702 391.242 325.702 390.622C325.702 390.007 325.608 389.452 325.419 388.956C325.236 388.459 324.95 388.066 324.561 387.774C324.178 387.483 323.69 387.338 323.097 387.338C322.531 387.338 322.061 387.478 321.689 387.758C321.317 388.033 321.039 388.419 320.856 388.915C320.673 389.406 320.581 389.975 320.581 390.622C320.581 391.259 320.67 391.828 320.848 392.329C321.031 392.825 321.312 393.216 321.689 393.502C322.067 393.783 322.55 393.923 323.137 393.923ZM329.166 394.999V383.106H330.607V394.999H329.166ZM336.82 395.242C335.963 395.242 335.213 395.053 334.571 394.675C333.935 394.292 333.439 393.761 333.083 393.082C332.727 392.397 332.549 391.598 332.549 390.687C332.549 389.732 332.724 388.907 333.074 388.211C333.425 387.51 333.913 386.971 334.539 386.593C335.17 386.21 335.909 386.019 336.756 386.019C337.635 386.019 338.382 386.221 338.997 386.626C339.617 387.03 340.081 387.607 340.388 388.357C340.701 389.107 340.836 389.999 340.793 391.035H339.336V390.517C339.32 389.444 339.102 388.643 338.681 388.114C338.26 387.58 337.635 387.313 336.804 387.313C335.914 387.313 335.237 387.599 334.773 388.171C334.31 388.743 334.078 389.562 334.078 390.63C334.078 391.66 334.31 392.459 334.773 393.025C335.237 393.591 335.898 393.874 336.756 393.874C337.333 393.874 337.834 393.742 338.26 393.478C338.686 393.214 339.021 392.834 339.264 392.337L340.647 392.815C340.307 393.586 339.795 394.185 339.11 394.611C338.43 395.031 337.667 395.242 336.82 395.242ZM333.592 391.035V389.878H340.048V391.035H333.592ZM347.472 394.999C346.954 395.102 346.442 395.142 345.935 395.12C345.433 395.104 344.986 395.004 344.592 394.821C344.198 394.632 343.899 394.341 343.694 393.947C343.521 393.602 343.427 393.254 343.411 392.904C343.4 392.548 343.395 392.146 343.395 391.698V383.834H344.835V391.633C344.835 391.989 344.837 392.294 344.843 392.548C344.854 392.801 344.91 393.02 345.013 393.203C345.207 393.548 345.514 393.75 345.935 393.81C346.361 393.869 346.874 393.853 347.472 393.761V394.999ZM341.623 387.451V386.262H347.472V387.451H341.623ZM352.669 395.242C351.811 395.242 351.062 395.053 350.42 394.675C349.783 394.292 349.287 393.761 348.931 393.082C348.575 392.397 348.397 391.598 348.397 390.687C348.397 389.732 348.573 388.907 348.923 388.211C349.274 387.51 349.762 386.971 350.387 386.593C351.019 386.21 351.757 386.019 352.604 386.019C353.483 386.019 354.23 386.221 354.845 386.626C355.465 387.03 355.929 387.607 356.237 388.357C356.55 389.107 356.684 389.999 356.641 391.035H355.185V390.517C355.169 389.444 354.95 388.643 354.53 388.114C354.109 387.58 353.483 387.313 352.653 387.313C351.763 387.313 351.086 387.599 350.622 388.171C350.158 388.743 349.926 389.562 349.926 390.63C349.926 391.66 350.158 392.459 350.622 393.025C351.086 393.591 351.747 393.874 352.604 393.874C353.181 393.874 353.683 393.742 354.109 393.478C354.535 393.214 354.869 392.834 355.112 392.337L356.496 392.815C356.156 393.586 355.643 394.185 354.958 394.611C354.279 395.031 353.516 395.242 352.669 395.242ZM349.441 391.035V389.878H355.897V391.035H349.441ZM361.873 395.242C361.058 395.242 360.36 395.039 359.777 394.635C359.195 394.225 358.745 393.672 358.426 392.976C358.113 392.281 357.957 391.496 357.957 390.622C357.957 389.748 358.113 388.964 358.426 388.268C358.745 387.572 359.195 387.025 359.777 386.626C360.36 386.221 361.056 386.019 361.865 386.019C362.69 386.019 363.383 386.218 363.944 386.618C364.505 387.017 364.928 387.564 365.214 388.26C365.505 388.956 365.651 389.743 365.651 390.622C365.651 391.491 365.505 392.275 365.214 392.976C364.928 393.672 364.505 394.225 363.944 394.635C363.383 395.039 362.693 395.242 361.873 395.242ZM362.051 393.923C362.639 393.923 363.121 393.783 363.499 393.502C363.876 393.216 364.154 392.825 364.332 392.329C364.516 391.828 364.607 391.259 364.607 390.622C364.607 389.975 364.516 389.406 364.332 388.915C364.154 388.419 363.879 388.033 363.507 387.758C363.135 387.478 362.663 387.338 362.091 387.338C361.498 387.338 361.007 387.483 360.619 387.774C360.236 388.066 359.95 388.459 359.761 388.956C359.578 389.452 359.486 390.007 359.486 390.622C359.486 391.242 359.58 391.803 359.769 392.305C359.958 392.801 360.241 393.195 360.619 393.486C361.002 393.777 361.479 393.923 362.051 393.923ZM364.607 394.999V388.567H364.445V383.349H365.894V394.999H364.607ZM167.647 422.882L169.338 418.287L169.362 419.646L165.543 410.262H167.056L170.05 417.81H169.532L172.339 410.262H173.803L169.046 422.882H167.647ZM178.545 419.242C177.677 419.242 176.927 419.045 176.296 418.651C175.67 418.257 175.188 417.713 174.848 417.017C174.508 416.321 174.338 415.523 174.338 414.622C174.338 413.705 174.511 412.902 174.856 412.211C175.201 411.521 175.689 410.984 176.32 410.601C176.951 410.213 177.693 410.019 178.545 410.019C179.419 410.019 180.171 410.216 180.802 410.609C181.433 410.998 181.916 411.54 182.251 412.236C182.59 412.926 182.76 413.721 182.76 414.622C182.76 415.534 182.59 416.337 182.251 417.033C181.911 417.723 181.425 418.266 180.794 418.659C180.163 419.048 179.414 419.242 178.545 419.242ZM178.545 417.874C179.451 417.874 180.126 417.572 180.568 416.968C181.01 416.364 181.231 415.582 181.231 414.622C181.231 413.635 181.007 412.85 180.56 412.268C180.112 411.68 179.441 411.386 178.545 411.386C177.936 411.386 177.434 411.524 177.04 411.799C176.647 412.074 176.353 412.454 176.159 412.939C175.964 413.425 175.867 413.986 175.867 414.622C175.867 415.604 176.094 416.391 176.547 416.985C177 417.578 177.666 417.874 178.545 417.874ZM187.858 419.226C187.298 419.226 186.815 419.137 186.41 418.959C186.011 418.781 185.68 418.543 185.415 418.247C185.151 417.95 184.943 417.621 184.792 417.26C184.641 416.898 184.533 416.529 184.469 416.151C184.409 415.774 184.38 415.42 184.38 415.091V410.262H185.836V414.638C185.836 415.048 185.874 415.445 185.949 415.828C186.025 416.211 186.151 416.556 186.329 416.863C186.513 417.171 186.756 417.413 187.058 417.591C187.365 417.769 187.748 417.858 188.206 417.858C188.568 417.858 188.897 417.796 189.193 417.672C189.49 417.548 189.744 417.365 189.954 417.122C190.164 416.874 190.326 416.561 190.439 416.184C190.553 415.806 190.609 415.366 190.609 414.865L191.556 415.156C191.556 415.998 191.402 416.723 191.095 417.332C190.793 417.942 190.364 418.411 189.808 418.74C189.258 419.064 188.608 419.226 187.858 419.226ZM190.771 418.999V416.661H190.609V410.262H192.057V418.999H190.771ZM194.322 418.999V410.262H195.609V412.373L195.398 412.098C195.501 411.828 195.633 411.58 195.795 411.354C195.962 411.127 196.148 410.941 196.353 410.796C196.58 410.612 196.836 410.472 197.122 410.375C197.408 410.278 197.699 410.221 197.995 410.205C198.292 410.183 198.57 410.202 198.829 410.262V411.613C198.527 411.532 198.195 411.51 197.834 411.548C197.472 411.586 197.138 411.718 196.83 411.944C196.55 412.144 196.332 412.387 196.175 412.672C196.024 412.958 195.919 413.268 195.86 413.603C195.8 413.932 195.771 414.269 195.771 414.614V418.999H194.322ZM204.431 418.999V409.784C204.431 409.558 204.442 409.328 204.463 409.097C204.485 408.859 204.534 408.63 204.609 408.409C204.685 408.182 204.809 407.975 204.981 407.786C205.181 407.565 205.399 407.408 205.637 407.317C205.874 407.22 206.114 407.16 206.357 407.139C206.605 407.117 206.839 407.106 207.06 407.106H208.169V408.304H207.141C206.715 408.304 206.397 408.409 206.187 408.619C205.976 408.824 205.871 409.137 205.871 409.558V418.999H204.431ZM202.951 411.451V410.262H208.169V411.451H202.951ZM209.868 408.716V407.228H211.308V408.716H209.868ZM209.868 418.999V410.262H211.308V418.999H209.868ZM213.742 418.999V410.262H215.029V412.373L214.818 412.098C214.921 411.828 215.053 411.58 215.215 411.354C215.382 411.127 215.568 410.941 215.773 410.796C215.999 410.612 216.256 410.472 216.541 410.375C216.827 410.278 217.119 410.221 217.415 410.205C217.712 410.183 217.99 410.202 218.249 410.262V411.613C217.946 411.532 217.615 411.51 217.253 411.548C216.892 411.586 216.558 411.718 216.25 411.944C215.97 412.144 215.751 412.387 215.595 412.672C215.444 412.958 215.339 413.268 215.279 413.603C215.22 413.932 215.19 414.269 215.19 414.614V418.999H213.742ZM222.763 419.234C221.722 419.234 220.867 419.007 220.199 418.554C219.535 418.096 219.128 417.456 218.977 416.637L220.449 416.402C220.568 416.877 220.84 417.254 221.266 417.535C221.693 417.81 222.221 417.947 222.852 417.947C223.451 417.947 223.92 417.823 224.26 417.575C224.6 417.327 224.77 416.99 224.77 416.564C224.77 416.316 224.713 416.116 224.6 415.965C224.486 415.809 224.252 415.663 223.896 415.528C223.545 415.393 223.014 415.232 222.302 415.043C221.531 414.838 220.924 414.625 220.482 414.404C220.039 414.183 219.724 413.926 219.535 413.635C219.346 413.344 219.252 412.991 219.252 412.575C219.252 412.063 219.392 411.615 219.673 411.232C219.953 410.844 220.344 410.545 220.846 410.334C221.353 410.124 221.941 410.019 222.609 410.019C223.273 410.019 223.866 410.124 224.389 410.334C224.912 410.545 225.333 410.844 225.651 411.232C225.975 411.615 226.166 412.063 226.226 412.575L224.753 412.842C224.683 412.373 224.457 412.004 224.074 411.734C223.696 411.464 223.208 411.321 222.609 411.305C222.043 411.284 221.582 411.383 221.226 411.605C220.875 411.826 220.7 412.125 220.7 412.503C220.7 412.713 220.765 412.894 220.894 413.045C221.029 413.196 221.275 413.339 221.631 413.473C221.992 413.608 222.515 413.762 223.2 413.935C223.971 414.129 224.578 414.342 225.02 414.574C225.468 414.8 225.786 415.07 225.975 415.383C226.164 415.69 226.258 416.07 226.258 416.523C226.258 417.365 225.948 418.028 225.328 418.514C224.707 418.994 223.853 419.234 222.763 419.234ZM232.921 418.999C232.403 419.102 231.891 419.142 231.384 419.12C230.882 419.104 230.434 419.004 230.041 418.821C229.647 418.632 229.348 418.341 229.143 417.947C228.97 417.602 228.876 417.254 228.86 416.904C228.849 416.548 228.843 416.146 228.843 415.698V407.834H230.283V415.633C230.283 415.989 230.286 416.294 230.292 416.548C230.302 416.801 230.359 417.02 230.461 417.203C230.656 417.548 230.963 417.75 231.384 417.81C231.81 417.869 232.322 417.853 232.921 417.761V418.999ZM227.072 411.451V410.262H232.921V411.451H227.072ZM237.934 418.999V410.262H239.22V412.373L239.01 412.098C239.112 411.828 239.245 411.58 239.406 411.354C239.574 411.127 239.76 410.941 239.965 410.796C240.191 410.612 240.447 410.472 240.733 410.375C241.019 410.278 241.31 410.221 241.607 410.205C241.904 410.183 242.181 410.202 242.44 410.262V411.613C242.138 411.532 241.807 411.51 241.445 411.548C241.084 411.586 240.749 411.718 240.442 411.944C240.162 412.144 239.943 412.387 239.787 412.672C239.636 412.958 239.53 413.268 239.471 413.603C239.412 413.932 239.382 414.269 239.382 414.614V418.999H237.934ZM247.598 419.242C246.741 419.242 245.991 419.053 245.349 418.675C244.713 418.292 244.217 417.761 243.861 417.082C243.505 416.397 243.327 415.598 243.327 414.687C243.327 413.732 243.502 412.907 243.853 412.211C244.203 411.51 244.691 410.971 245.317 410.593C245.948 410.21 246.687 410.019 247.534 410.019C248.413 410.019 249.16 410.221 249.775 410.626C250.395 411.03 250.859 411.607 251.166 412.357C251.479 413.107 251.614 413.999 251.571 415.035H250.114V414.517C250.098 413.444 249.88 412.643 249.459 412.114C249.038 411.58 248.413 411.313 247.582 411.313C246.692 411.313 246.015 411.599 245.551 412.171C245.088 412.743 244.856 413.562 244.856 414.63C244.856 415.66 245.088 416.459 245.551 417.025C246.015 417.591 246.676 417.874 247.534 417.874C248.111 417.874 248.612 417.742 249.038 417.478C249.464 417.214 249.799 416.834 250.042 416.337L251.425 416.815C251.085 417.586 250.573 418.185 249.888 418.611C249.208 419.031 248.445 419.242 247.598 419.242ZM244.37 415.035V413.878H250.826V415.035H244.37ZM257.148 419.242C256.328 419.242 255.637 419.039 255.076 418.635C254.516 418.225 254.089 417.672 253.798 416.976C253.512 416.275 253.369 415.491 253.369 414.622C253.369 413.743 253.512 412.956 253.798 412.26C254.089 411.564 254.516 411.017 255.076 410.618C255.643 410.218 256.336 410.019 257.156 410.019C257.965 410.019 258.66 410.221 259.243 410.626C259.831 411.025 260.281 411.572 260.594 412.268C260.907 412.964 261.063 413.748 261.063 414.622C261.063 415.496 260.907 416.281 260.594 416.976C260.281 417.672 259.831 418.225 259.243 418.635C258.66 419.039 257.962 419.242 257.148 419.242ZM253.127 422.882V410.262H254.413V416.693H254.575V422.882H253.127ZM256.97 417.923C257.547 417.923 258.024 417.777 258.402 417.486C258.779 417.195 259.062 416.801 259.251 416.305C259.44 415.803 259.534 415.242 259.534 414.622C259.534 414.007 259.44 413.452 259.251 412.956C259.068 412.459 258.782 412.066 258.393 411.774C258.011 411.483 257.522 411.338 256.929 411.338C256.363 411.338 255.894 411.478 255.521 411.758C255.149 412.033 254.872 412.419 254.688 412.915C254.505 413.406 254.413 413.975 254.413 414.622C254.413 415.259 254.502 415.828 254.68 416.329C254.863 416.825 255.144 417.216 255.521 417.502C255.899 417.783 256.382 417.923 256.97 417.923ZM265.321 419.242C264.668 419.242 264.12 419.123 263.678 418.886C263.241 418.643 262.91 418.325 262.683 417.931C262.462 417.537 262.351 417.106 262.351 416.637C262.351 416.178 262.438 415.782 262.61 415.447C262.788 415.108 263.036 414.827 263.355 414.606C263.673 414.379 264.053 414.202 264.495 414.072C264.911 413.959 265.374 413.862 265.887 413.781C266.405 413.695 266.928 413.616 267.456 413.546C267.985 413.476 268.478 413.409 268.937 413.344L268.419 413.643C268.435 412.867 268.279 412.292 267.95 411.92C267.626 411.548 267.065 411.362 266.267 411.362C265.739 411.362 265.275 411.483 264.876 411.726C264.482 411.963 264.204 412.352 264.042 412.891L262.675 412.478C262.885 411.712 263.293 411.111 263.897 410.674C264.501 410.237 265.296 410.019 266.283 410.019C267.076 410.019 267.756 410.162 268.322 410.448C268.894 410.728 269.304 411.154 269.552 411.726C269.676 411.996 269.754 412.29 269.786 412.608C269.819 412.921 269.835 413.25 269.835 413.595V418.999H268.557V416.904L268.856 417.098C268.527 417.804 268.066 418.338 267.473 418.7C266.885 419.061 266.167 419.242 265.321 419.242ZM265.539 418.036C266.057 418.036 266.504 417.945 266.882 417.761C267.265 417.572 267.572 417.327 267.804 417.025C268.036 416.718 268.187 416.383 268.257 416.022C268.338 415.752 268.381 415.453 268.387 415.124C268.398 414.789 268.403 414.533 268.403 414.355L268.905 414.574C268.435 414.638 267.974 414.7 267.521 414.76C267.068 414.819 266.639 414.884 266.235 414.954C265.83 415.019 265.466 415.097 265.143 415.189C264.905 415.264 264.681 415.361 264.471 415.48C264.266 415.598 264.099 415.752 263.969 415.941C263.845 416.124 263.783 416.354 263.783 416.629C263.783 416.866 263.843 417.092 263.961 417.308C264.085 417.524 264.274 417.699 264.528 417.834C264.787 417.969 265.124 418.036 265.539 418.036ZM272.662 422.882L274.353 418.287L274.377 419.646L270.559 410.262H272.071L275.065 417.81H274.547L277.354 410.262H278.819L274.062 422.882H272.662ZM290.6 418.999L290.608 413.409C290.608 412.756 290.432 412.246 290.082 411.88C289.737 411.507 289.286 411.321 288.731 411.321C288.407 411.321 288.1 411.397 287.808 411.548C287.517 411.694 287.28 411.925 287.096 412.244C286.913 412.556 286.821 412.958 286.821 413.449L286.061 413.142C286.05 412.521 286.177 411.979 286.441 411.516C286.711 411.046 287.078 410.682 287.541 410.423C288.005 410.164 288.528 410.035 289.111 410.035C290.022 410.035 290.74 410.313 291.263 410.868C291.786 411.418 292.048 412.16 292.048 413.093L292.04 418.999H290.6ZM280.147 418.999V410.262H281.433V412.6H281.595V418.999H280.147ZM285.381 418.999L285.389 413.465C285.389 412.796 285.217 412.273 284.872 411.896C284.526 411.513 284.068 411.321 283.496 411.321C282.93 411.321 282.472 411.516 282.121 411.904C281.77 412.292 281.595 412.807 281.595 413.449L280.835 412.996C280.835 412.43 280.969 411.923 281.239 411.475C281.509 411.027 281.876 410.677 282.339 410.423C282.803 410.164 283.329 410.035 283.917 410.035C284.505 410.035 285.017 410.159 285.454 410.407C285.891 410.655 286.228 411.011 286.465 411.475C286.703 411.934 286.821 412.481 286.821 413.117L286.813 418.999H285.381ZM297.862 419.242C297.005 419.242 296.255 419.053 295.613 418.675C294.977 418.292 294.48 417.761 294.125 417.082C293.769 416.397 293.591 415.598 293.591 414.687C293.591 413.732 293.766 412.907 294.116 412.211C294.467 411.51 294.955 410.971 295.581 410.593C296.212 410.21 296.951 410.019 297.797 410.019C298.677 410.019 299.424 410.221 300.038 410.626C300.659 411.03 301.123 411.607 301.43 412.357C301.743 413.107 301.878 413.999 301.835 415.035H300.378V414.517C300.362 413.444 300.144 412.643 299.723 412.114C299.302 411.58 298.677 411.313 297.846 411.313C296.956 411.313 296.279 411.599 295.815 412.171C295.352 412.743 295.12 413.562 295.12 414.63C295.12 415.66 295.352 416.459 295.815 417.025C296.279 417.591 296.94 417.874 297.797 417.874C298.375 417.874 298.876 417.742 299.302 417.478C299.728 417.214 300.063 416.834 300.305 416.337L301.689 416.815C301.349 417.586 300.837 418.185 300.152 418.611C299.472 419.031 298.709 419.242 297.862 419.242ZM294.634 415.035V413.878H301.09V415.035H294.634ZM309.62 418.999V414.622C309.62 414.207 309.582 413.808 309.507 413.425C309.437 413.042 309.31 412.699 309.127 412.397C308.949 412.09 308.706 411.847 308.398 411.669C308.096 411.491 307.714 411.402 307.25 411.402C306.888 411.402 306.559 411.464 306.263 411.588C305.971 411.707 305.721 411.89 305.51 412.138C305.3 412.387 305.135 412.699 305.017 413.077C304.904 413.449 304.847 413.889 304.847 414.396L303.9 414.104C303.9 413.258 304.051 412.532 304.353 411.928C304.661 411.319 305.09 410.852 305.64 410.529C306.195 410.2 306.848 410.035 307.598 410.035C308.164 410.035 308.647 410.124 309.046 410.302C309.445 410.48 309.777 410.717 310.041 411.014C310.305 411.305 310.513 411.634 310.664 412.001C310.815 412.362 310.92 412.732 310.979 413.109C311.044 413.481 311.076 413.835 311.076 414.169V418.999H309.62ZM303.391 418.999V410.262H304.685V412.6H304.847V418.999H303.391ZM318.058 418.999C317.54 419.102 317.028 419.142 316.521 419.12C316.019 419.104 315.572 419.004 315.178 418.821C314.784 418.632 314.485 418.341 314.28 417.947C314.107 417.602 314.013 417.254 313.997 416.904C313.986 416.548 313.981 416.146 313.981 415.698V407.834H315.421V415.633C315.421 415.989 315.423 416.294 315.429 416.548C315.44 416.801 315.496 417.02 315.599 417.203C315.793 417.548 316.1 417.75 316.521 417.81C316.947 417.869 317.459 417.853 318.058 417.761V418.999ZM312.209 411.451V410.262H318.058V411.451H312.209Z" fill="#666666"/>
</g>
<path d="M474.619 217.99L475.368 70.1058C475.459 52.1448 468.411 34.8832 455.775 22.1186C443.139 9.3539 425.95 2.13168 407.988 2.04072L78.9313 0.374378C60.3429 0.334792 42.494 7.65291 29.2836 20.7303C16.0731 33.8076 8.5746 51.5814 8.42593 70.1693L8.15154 124.353C7.09808 124.347 6.08564 124.761 5.33695 125.502C4.58827 126.243 4.16468 127.251 4.15934 128.305L4.01866 156.085C4.01333 157.138 4.42669 158.151 5.16783 158.899C5.90897 159.648 6.91717 160.072 7.97063 160.077L7.80317 193.147C6.7497 193.142 5.73726 193.555 4.98858 194.296C4.23989 195.038 3.8163 196.046 3.81097 197.099L3.50961 256.609C3.50427 257.663 3.91763 258.675 4.65877 259.424C5.39991 260.173 6.40811 260.596 7.46158 260.602L7.3611 280.443C6.30764 280.437 5.2952 280.851 4.54651 281.592C3.79783 282.333 3.37424 283.341 3.3689 284.395L3.06747 343.919C3.06214 344.972 3.4755 345.985 4.21664 346.734C4.95778 347.482 5.96598 347.906 7.01944 347.911L4.32807 879.383C4.28953 898.029 11.6309 915.933 24.7488 929.184C37.8667 942.436 55.6953 949.958 74.3409 950.108L403.18 951.774C421.125 951.811 438.356 944.746 451.109 932.121C463.862 919.497 471.101 902.338 471.244 884.394L474.063 327.778L475.387 327.785C476.44 327.79 477.453 327.377 478.201 326.636C478.95 325.895 479.374 324.887 479.379 323.833L479.895 221.985C479.898 221.463 479.799 220.945 479.602 220.462C479.405 219.979 479.115 219.539 478.747 219.168C478.38 218.797 477.944 218.503 477.462 218.301C476.981 218.099 476.465 217.994 475.943 217.992L474.619 217.99ZM298.677 31.7298C298.671 32.8744 298.326 33.9915 297.686 34.94C297.045 35.8884 296.137 36.6256 295.078 37.0582C294.018 37.4909 292.854 37.5996 291.732 37.3706C290.611 37.1416 289.583 36.5853 288.777 35.7718C287.972 34.9584 287.426 33.9245 287.209 32.8008C286.991 31.6771 287.112 30.5141 287.555 29.4588C287.998 28.4036 288.745 27.5036 289.699 26.8725C290.654 26.2414 291.775 25.9077 292.919 25.9135C294.454 25.9207 295.923 26.5371 297.003 27.627C298.083 28.717 298.686 30.1913 298.679 31.7257L298.677 31.7298ZM219.98 30.1916L271.567 30.4528C273.759 30.4639 275.532 31.8316 275.522 33.7789C275.512 35.7263 273.73 37.078 271.533 37.0669L219.947 36.8056C217.755 36.7945 215.982 35.4269 215.992 33.4775C216.002 31.5281 217.785 30.1764 219.981 30.1875L219.98 30.1916ZM446.142 878.575C446.025 901.672 428.866 921.483 405.769 921.366L76.4066 919.698C53.3094 919.581 33.3236 899.582 33.4406 876.485L37.5485 65.2803C37.6655 42.1831 57.8345 25.3973 80.9347 25.5142L119.012 25.7071C127.058 25.7478 130.043 24.8463 130.474 35.0488C130.605 39.8305 132.47 44.4014 135.723 47.9087C139.089 51.4876 143.32 54.1397 148.008 55.6097C151.421 56.8117 154.992 57.5018 158.607 57.6576L332.658 58.539C336.206 58.557 339.931 57.4107 343.277 56.3816C347.951 55.0194 352.204 52.4948 355.638 49.0437C358.93 45.6686 360.846 41.1884 361.014 36.477C361.553 26.2753 364.525 26.9524 372.571 26.9931L410.298 27.1842C433.396 27.3011 450.368 44.276 450.251 67.3722L446.142 878.575Z" fill="#12030F"/>
<path d="M271.572 30.4405L219.983 30.1793C217.792 30.1682 216.004 31.5178 215.994 33.4652C215.985 35.4125 217.758 36.7883 219.95 36.7994L271.537 37.0607C273.729 37.0718 275.516 35.7221 275.526 33.7728C275.536 31.8234 273.763 30.4516 271.572 30.4405Z" fill="#12030F"/>
<path d="M292.913 25.9111C291.768 25.9053 290.648 26.2391 289.693 26.8702C288.738 27.5012 287.992 28.4013 287.548 29.4565C287.105 30.5117 286.985 31.6747 287.202 32.7984C287.42 33.9221 287.966 34.9561 288.771 35.7695C289.576 36.5829 290.605 37.1393 291.726 37.3683C292.847 37.5973 294.012 37.4886 295.071 37.0559C296.131 36.6233 297.038 35.8861 297.679 34.9376C298.32 33.9892 298.665 32.872 298.671 31.7275C298.675 30.9675 298.529 30.2142 298.241 29.5106C297.954 28.8071 297.531 28.1669 296.996 27.6268C296.462 27.0868 295.826 26.6573 295.125 26.3629C294.425 26.0685 293.673 25.915 292.913 25.9111Z" fill="#12030F"/>
<path d="M78.8528 40.0873C79.5668 40.0873 80.2098 40.2569 80.7819 40.5961C81.354 40.9303 81.8047 41.3961 82.1338 41.9935C82.4679 42.5859 82.635 43.2694 82.635 44.0441V47.3782C82.635 48.2035 82.4679 48.925 82.1338 49.5427C81.8047 50.1553 81.3414 50.6287 80.7439 50.9629C80.1465 51.2971 79.4478 51.4642 78.6478 51.4642C78.0959 51.4642 77.5744 51.3705 77.0833 51.1832C76.5921 50.9908 76.1517 50.6971 75.7618 50.3022L77.0757 49.0187C77.2731 49.2465 77.5086 49.4262 77.782 49.5579C78.0605 49.6845 78.3491 49.7478 78.6478 49.7478C79.0731 49.7478 79.4452 49.649 79.7642 49.4516C80.0832 49.249 80.3313 48.9883 80.5085 48.6693C80.6857 48.3453 80.7743 47.9984 80.7743 47.6288V45.8137L81.1009 46.1782C80.792 46.5428 80.4174 46.8288 79.9769 47.0364C79.5364 47.239 79.0731 47.3402 78.587 47.3402C77.9035 47.3402 77.2959 47.1833 76.7643 46.8694C76.2377 46.5554 75.8225 46.1301 75.5188 45.5934C75.22 45.0517 75.0707 44.439 75.0707 43.7555C75.0707 43.072 75.2428 42.4543 75.5871 41.9024C75.9314 41.3454 76.3896 40.905 76.9618 40.5809C77.539 40.2518 78.1693 40.0873 78.8528 40.0873ZM78.8528 41.834C78.4984 41.834 78.1744 41.9201 77.8807 42.0923C77.5871 42.2644 77.3542 42.4973 77.182 42.791C77.0099 43.0796 76.9238 43.4011 76.9238 43.7555C76.9238 44.1099 77.0073 44.434 77.1744 44.7276C77.3466 45.0213 77.5769 45.2542 77.8655 45.4264C78.1592 45.5985 78.4832 45.6846 78.8377 45.6846C79.1921 45.6846 79.5161 45.5985 79.8098 45.4264C80.1034 45.2542 80.3364 45.0213 80.5085 44.7276C80.6857 44.434 80.7743 44.1099 80.7743 43.7555C80.7743 43.4112 80.6882 43.0948 80.5161 42.8062C80.3439 42.5125 80.111 42.2771 79.8174 42.0999C79.5288 41.9226 79.2073 41.834 78.8528 41.834ZM85.1541 50.249V48.3731H87.03V50.249H85.1541ZM85.1693 45.8972V44.0213H87.0452V45.8972H85.1693ZM94.0859 51.2363V49.4288H89.2404V47.72L92.7416 40.2999H94.8302L91.329 47.72H94.0859V44.8719H95.939V47.72H96.9643V49.4288H95.939V51.2363H94.0859ZM100.475 51.2363V42.2973L98.4247 43.5505V41.5303L100.475 40.2999H102.344V51.2363H100.475Z" fill="#333333"/>
<path fill-rule="evenodd" clip-rule="evenodd" d="M412.246 40.2979H427.086C428.336 40.2979 428.789 40.428 429.246 40.6723C429.703 40.9167 430.061 41.2752 430.306 41.7321C430.55 42.189 430.68 42.6422 430.68 43.8919V48.2186C430.68 49.4683 430.55 49.9215 430.306 50.3784C430.061 50.8353 429.703 51.1939 429.246 51.4382C428.789 51.6826 428.336 51.8127 427.086 51.8127H412.246C410.996 51.8127 410.543 51.6826 410.086 51.4382C409.629 51.1939 409.271 50.8353 409.026 50.3784C408.782 49.9215 408.652 49.4683 408.652 48.2186V43.8919C408.652 42.6422 408.782 42.189 409.026 41.7321C409.271 41.2752 409.629 40.9167 410.086 40.6723C410.543 40.428 410.996 40.2979 412.246 40.2979ZM412.246 41.3006C411.258 41.3006 410.913 41.3672 410.559 41.5567C410.276 41.7077 410.061 41.9234 409.91 42.2058C409.72 42.5601 409.654 42.9051 409.654 43.8934V48.22C409.654 49.2083 409.72 49.5533 409.91 49.9076C410.061 50.19 410.276 50.4057 410.559 50.5567C410.913 50.7462 411.258 50.8128 412.246 50.8128H427.087C428.075 50.8128 428.42 50.7462 428.774 50.5567C429.057 50.4057 429.272 50.19 429.423 49.9076C429.613 49.5533 429.679 49.2083 429.679 48.22V43.8934C429.679 42.9051 429.613 42.5601 429.423 42.2058C429.272 41.9234 429.057 41.7077 428.774 41.5567C428.42 41.3672 428.075 41.3006 427.087 41.3006H412.246ZM431.681 47.9973V43.9921C431.681 43.9921 433.183 44.7565 433.183 45.9947C433.183 47.2329 431.681 47.9973 431.681 47.9973Z" fill="#333333"/>
<rect x="410.653" y="42.2129" width="18.0232" height="7.67655" rx="1.60206" fill="#333333"/>
<path fill-rule="evenodd" clip-rule="evenodd" d="M380.24 41.7005C380.217 41.8166 380.217 41.9562 380.217 42.2353V49.9453C380.217 50.2244 380.217 50.364 380.24 50.4801C380.335 50.9567 380.707 51.3293 381.184 51.4241C381.3 51.4472 381.44 51.4472 381.719 51.4472C381.998 51.4472 382.137 51.4472 382.253 51.4241C382.73 51.3293 383.103 50.9567 383.198 50.4801C383.221 50.364 383.221 50.2244 383.221 49.9453V42.2353C383.221 41.9562 383.221 41.8166 383.198 41.7005C383.103 41.2239 382.73 40.8513 382.253 40.7565C382.137 40.7334 381.998 40.7334 381.719 40.7334C381.44 40.7334 381.3 40.7334 381.184 40.7565C380.707 40.8513 380.335 41.2239 380.24 41.7005ZM375.506 44.638C375.506 44.3589 375.506 44.2193 375.529 44.1032C375.624 43.6266 375.996 43.254 376.473 43.1592C376.589 43.1361 376.729 43.1361 377.008 43.1361C377.287 43.1361 377.427 43.1361 377.543 43.1592C378.019 43.254 378.392 43.6266 378.487 44.1032C378.51 44.2193 378.51 44.3589 378.51 44.638V49.9449C378.51 50.224 378.51 50.3636 378.487 50.4797C378.392 50.9563 378.019 51.3289 377.543 51.4237C377.427 51.4468 377.287 51.4468 377.008 51.4468C376.729 51.4468 376.589 51.4468 376.473 51.4237C375.996 51.3289 375.624 50.9563 375.529 50.4797C375.506 50.3636 375.506 50.224 375.506 49.9449V44.638ZM370.922 46.4064C370.899 46.5225 370.899 46.662 370.899 46.9412V49.9451C370.899 50.2242 370.899 50.3638 370.922 50.4799C371.016 50.9565 371.389 51.3291 371.866 51.4239C371.982 51.447 372.121 51.447 372.401 51.447C372.68 51.447 372.819 51.447 372.935 51.4239C373.412 51.3291 373.785 50.9565 373.879 50.4799C373.902 50.3638 373.902 50.2242 373.902 49.9451V46.9412C373.902 46.662 373.902 46.5225 373.879 46.4064C373.785 45.9297 373.412 45.5571 372.935 45.4623C372.819 45.4393 372.68 45.4393 372.401 45.4393C372.121 45.4393 371.982 45.4393 371.866 45.4623C371.389 45.5571 371.016 45.9297 370.922 46.4064ZM366.119 48.4088C366.096 48.5249 366.096 48.6645 366.096 48.9436V49.9449C366.096 50.2241 366.096 50.3636 366.119 50.4797C366.214 50.9563 366.587 51.3289 367.063 51.4237C367.179 51.4468 367.319 51.4468 367.598 51.4468C367.877 51.4468 368.017 51.4468 368.133 51.4237C368.61 51.3289 368.982 50.9563 369.077 50.4797C369.1 50.3636 369.1 50.2241 369.1 49.9449V48.9436C369.1 48.6645 369.1 48.5249 369.077 48.4088C368.982 47.9322 368.61 47.5596 368.133 47.4648C368.017 47.4417 367.877 47.4417 367.598 47.4417C367.319 47.4417 367.179 47.4417 367.063 47.4648C366.587 47.5596 366.214 47.9322 366.119 48.4088Z" fill="#333333"/>
<path fill-rule="evenodd" clip-rule="evenodd" d="M395.935 42.8335C398.173 42.8336 400.324 43.6933 401.946 45.2348C402.068 45.3538 402.263 45.3523 402.383 45.2314L403.551 44.0535C403.612 43.9922 403.645 43.9091 403.645 43.8227C403.644 43.7363 403.61 43.6537 403.548 43.5931C399.292 39.5145 392.578 39.5145 388.322 43.5931C388.261 43.6536 388.226 43.7363 388.225 43.8227C388.225 43.9091 388.258 43.9922 388.319 44.0535L389.487 45.2314C389.607 45.3525 389.802 45.354 389.924 45.2348C391.546 43.6932 393.698 42.8335 395.935 42.8335ZM395.937 46.667C397.166 46.6669 398.351 47.1238 399.263 47.9489C399.386 48.066 399.58 48.0635 399.7 47.9432L400.866 46.7653C400.927 46.7035 400.961 46.6197 400.961 46.5326C400.96 46.4455 400.924 46.3624 400.861 46.3018C398.086 43.7208 393.789 43.7208 391.015 46.3018C390.952 46.3624 390.916 46.4455 390.915 46.5326C390.915 46.6198 390.949 46.7036 391.01 46.7653L392.176 47.9432C392.296 48.0635 392.49 48.066 392.613 47.9489C393.524 47.1244 394.708 46.6675 395.937 46.667ZM398.175 49.4773C398.237 49.4161 398.271 49.3319 398.27 49.2446C398.268 49.1572 398.23 49.0745 398.165 49.0159C396.877 47.9266 394.991 47.9266 393.703 49.0159C393.638 49.0744 393.601 49.1572 393.599 49.2445C393.597 49.3318 393.631 49.4161 393.694 49.4773L395.711 51.5124C395.77 51.5723 395.85 51.6059 395.934 51.6059C396.018 51.6059 396.099 51.5723 396.158 51.5124L398.175 49.4773Z" fill="#333333"/>
</g>
<defs>
<clipPath id="clip0_1_77000">
<rect width="476.197" height="949.747" fill="white" transform="translate(4.80957) rotate(0.290143)"/>
</clipPath>
<clipPath id="clip1_1_77000">
<rect width="416.07" height="893.933" fill="white" transform="translate(33.9858 26.7764)"/>
</clipPath>
</defs>
</svg>
