<svg width="482" height="953" viewBox="0 0 482 953" fill="none" xmlns="http://www.w3.org/2000/svg">
<g clip-path="url(#clip0_1_77055)">
<path d="M79.0853 40.0868C79.7992 40.0868 80.4422 40.2564 81.0143 40.5956C81.5865 40.9298 82.0371 41.3956 82.3662 41.993C82.7004 42.5854 82.8674 43.269 82.8674 44.0436V47.3777C82.8674 48.203 82.7004 48.9245 82.3662 49.5422C82.0371 50.1549 81.5738 50.6283 80.9764 50.9624C80.3789 51.2966 79.6802 51.4637 78.8802 51.4637C78.3283 51.4637 77.8068 51.37 77.3157 51.1827C76.8246 50.9903 76.3841 50.6966 75.9942 50.3017L77.3081 49.0182C77.5056 49.246 77.741 49.4258 78.0144 49.5574C78.2929 49.684 78.5815 49.7473 78.8802 49.7473C79.3055 49.7473 79.6777 49.6485 79.9966 49.4511C80.3156 49.2486 80.5637 48.9878 80.7409 48.6688C80.9181 48.3448 81.0067 47.998 81.0067 47.6283V45.8132L81.3333 46.1777C81.0245 46.5423 80.6498 46.8284 80.2093 47.036C79.7688 47.2385 79.3055 47.3397 78.8195 47.3397C78.1359 47.3397 77.5283 47.1828 76.9967 46.8689C76.4701 46.5549 76.055 46.1296 75.7512 45.5929C75.4525 45.0512 75.3031 44.4385 75.3031 43.755C75.3031 43.0715 75.4752 42.4538 75.8195 41.9019C76.1638 41.345 76.622 40.9045 77.1942 40.5804C77.7714 40.2513 78.4017 40.0868 79.0853 40.0868ZM79.0853 41.8336C78.7308 41.8336 78.4068 41.9196 78.1131 42.0918C77.8195 42.2639 77.5866 42.4968 77.4144 42.7905C77.2423 43.0791 77.1562 43.4006 77.1562 43.755C77.1562 44.1094 77.2397 44.4335 77.4068 44.7271C77.579 45.0208 77.8094 45.2537 78.098 45.4259C78.3916 45.598 78.7157 45.6841 79.0701 45.6841C79.4245 45.6841 79.7485 45.598 80.0422 45.4259C80.3359 45.2537 80.5688 45.0208 80.7409 44.7271C80.9181 44.4335 81.0067 44.1094 81.0067 43.755C81.0067 43.4107 80.9207 43.0943 80.7485 42.8057C80.5764 42.512 80.3435 42.2766 80.0498 42.0994C79.7612 41.9222 79.4397 41.8336 79.0853 41.8336ZM85.3865 50.2485V48.3726H87.2624V50.2485H85.3865ZM85.4017 45.8967V44.0208H87.2776V45.8967H85.4017ZM94.3183 51.2358V49.4283H89.4729V47.7195L92.974 40.2994H95.0626L91.5614 47.7195H94.3183V44.8714H96.1714V47.7195H97.1967V49.4283H96.1714V51.2358H94.3183ZM100.708 51.2358V42.2968L98.6571 43.55V41.5298L100.708 40.2994H102.576V51.2358H100.708Z" fill="#333333"/>
<path fill-rule="evenodd" clip-rule="evenodd" d="M412.478 40.2974H427.319C428.568 40.2974 429.021 40.4275 429.478 40.6718C429.935 40.9162 430.294 41.2747 430.538 41.7316C430.783 42.1885 430.913 42.6417 430.913 43.8914V48.2181C430.913 49.4679 430.783 49.921 430.538 50.3779C430.294 50.8348 429.935 51.1934 429.478 51.4377C429.021 51.6821 428.568 51.8122 427.319 51.8122H412.478C411.229 51.8122 410.775 51.6821 410.319 51.4377C409.862 51.1934 409.503 50.8348 409.259 50.3779C409.014 49.921 408.884 49.4679 408.884 48.2181V43.8914C408.884 42.6417 409.014 42.1885 409.259 41.7316C409.503 41.2747 409.862 40.9162 410.319 40.6718C410.775 40.4275 411.229 40.2974 412.478 40.2974ZM412.479 41.3001C411.491 41.3001 411.146 41.3667 410.791 41.5562C410.509 41.7072 410.293 41.9229 410.142 42.2053C409.953 42.5596 409.886 42.9046 409.886 43.8929V48.2196C409.886 49.2078 409.953 49.5528 410.142 49.9072C410.293 50.1895 410.509 50.4052 410.791 50.5562C411.146 50.7457 411.491 50.8123 412.479 50.8123H427.319C428.307 50.8123 428.652 50.7457 429.007 50.5562C429.289 50.4052 429.505 50.1895 429.656 49.9072C429.845 49.5528 429.912 49.2078 429.912 48.2196V43.8929C429.912 42.9046 429.845 42.5596 429.656 42.2053C429.505 41.9229 429.289 41.7072 429.007 41.5562C428.652 41.3667 428.307 41.3001 427.319 41.3001H412.479ZM431.913 47.9968V43.9916C431.913 43.9916 433.415 44.7561 433.415 45.9942C433.415 47.2324 431.913 47.9968 431.913 47.9968Z" fill="#333333"/>
<rect x="410.886" y="42.2129" width="18.0232" height="7.67655" rx="1.60206" fill="#333333"/>
<path fill-rule="evenodd" clip-rule="evenodd" d="M380.472 41.7005C380.449 41.8166 380.449 41.9562 380.449 42.2353V49.9453C380.449 50.2244 380.449 50.364 380.472 50.4801C380.567 50.9567 380.94 51.3293 381.416 51.4241C381.532 51.4472 381.672 51.4472 381.951 51.4472C382.23 51.4472 382.37 51.4472 382.486 51.4241C382.963 51.3293 383.335 50.9567 383.43 50.4801C383.453 50.364 383.453 50.2244 383.453 49.9453V42.2353C383.453 41.9562 383.453 41.8166 383.43 41.7005C383.335 41.2239 382.963 40.8513 382.486 40.7565C382.37 40.7334 382.23 40.7334 381.951 40.7334C381.672 40.7334 381.532 40.7334 381.416 40.7565C380.94 40.8513 380.567 41.2239 380.472 41.7005ZM375.738 44.638C375.738 44.3589 375.738 44.2193 375.761 44.1032C375.856 43.6266 376.229 43.254 376.705 43.1592C376.822 43.1361 376.961 43.1361 377.24 43.1361C377.519 43.1361 377.659 43.1361 377.775 43.1592C378.252 43.254 378.624 43.6266 378.719 44.1032C378.742 44.2193 378.742 44.3589 378.742 44.638V49.9449C378.742 50.224 378.742 50.3636 378.719 50.4797C378.624 50.9563 378.252 51.3289 377.775 51.4237C377.659 51.4468 377.519 51.4468 377.24 51.4468C376.961 51.4468 376.822 51.4468 376.705 51.4237C376.229 51.3289 375.856 50.9563 375.761 50.4797C375.738 50.3636 375.738 50.224 375.738 49.9449V44.638ZM371.154 46.4064C371.131 46.5225 371.131 46.662 371.131 46.9412V49.9451C371.131 50.2242 371.131 50.3638 371.154 50.4799C371.249 50.9565 371.622 51.3291 372.098 51.4239C372.214 51.447 372.354 51.447 372.633 51.447C372.912 51.447 373.052 51.447 373.168 51.4239C373.644 51.3291 374.017 50.9565 374.112 50.4799C374.135 50.3638 374.135 50.2242 374.135 49.9451V46.9412C374.135 46.662 374.135 46.5225 374.112 46.4064C374.017 45.9297 373.644 45.5571 373.168 45.4623C373.052 45.4393 372.912 45.4393 372.633 45.4393C372.354 45.4393 372.214 45.4393 372.098 45.4623C371.622 45.5571 371.249 45.9297 371.154 46.4064ZM366.352 48.4088C366.329 48.5249 366.329 48.6645 366.329 48.9436V49.9449C366.329 50.2241 366.329 50.3636 366.352 50.4797C366.447 50.9563 366.819 51.3289 367.296 51.4237C367.412 51.4468 367.551 51.4468 367.831 51.4468C368.11 51.4468 368.249 51.4468 368.365 51.4237C368.842 51.3289 369.215 50.9563 369.309 50.4797C369.332 50.3636 369.332 50.2241 369.332 49.9449V48.9436C369.332 48.6645 369.332 48.5249 369.309 48.4088C369.215 47.9322 368.842 47.5596 368.365 47.4648C368.249 47.4417 368.11 47.4417 367.831 47.4417C367.551 47.4417 367.412 47.4417 367.296 47.4648C366.819 47.5596 366.447 47.9322 366.352 48.4088Z" fill="#333333"/>
<path fill-rule="evenodd" clip-rule="evenodd" d="M396.168 42.8335C398.405 42.8336 400.557 43.6933 402.178 45.2348C402.3 45.3538 402.496 45.3523 402.616 45.2314L403.783 44.0535C403.844 43.9922 403.878 43.9091 403.877 43.8227C403.877 43.7363 403.842 43.6537 403.78 43.5931C399.525 39.5145 392.811 39.5145 388.555 43.5931C388.493 43.6536 388.458 43.7363 388.458 43.8227C388.457 43.9091 388.491 43.9922 388.552 44.0535L389.719 45.2314C389.839 45.3525 390.035 45.354 390.157 45.2348C391.778 43.6932 393.93 42.8335 396.168 42.8335ZM396.169 46.667C397.398 46.6669 398.584 47.1238 399.495 47.9489C399.618 48.066 399.812 48.0635 399.933 47.9432L401.098 46.7653C401.16 46.7035 401.194 46.6197 401.193 46.5326C401.192 46.4455 401.156 46.3624 401.094 46.3018C398.319 43.7208 394.022 43.7208 391.247 46.3018C391.184 46.3624 391.149 46.4455 391.148 46.5326C391.147 46.6198 391.181 46.7036 391.243 46.7653L392.408 47.9432C392.528 48.0635 392.723 48.066 392.846 47.9489C393.756 47.1244 394.941 46.6675 396.169 46.667ZM398.407 49.4773C398.47 49.4161 398.504 49.3319 398.502 49.2446C398.5 49.1572 398.463 49.0745 398.398 49.0159C397.11 47.9266 395.224 47.9266 393.936 49.0159C393.871 49.0744 393.833 49.1572 393.831 49.2445C393.829 49.3318 393.864 49.4161 393.926 49.4773L395.943 51.5124C396.002 51.5723 396.083 51.6059 396.167 51.6059C396.251 51.6059 396.331 51.5723 396.391 51.5124L398.407 49.4773Z" fill="#333333"/>
<g clip-path="url(#clip1_1_77055)">
<rect width="416.07" height="893.933" transform="translate(34.2183 26.7759)" fill="white"/>
<ellipse cx="241.527" cy="550.8" rx="27.7228" ry="27.7228" fill="#F22E5D"/>
<rect opacity="0.3" x="233.702" y="551.918" width="2.23571" height="15.65" rx="1.11786" transform="rotate(-90 233.702 551.918)" fill="white"/>
<path d="M240.737 556.717C240.3 557.154 240.3 557.862 240.737 558.298C241.173 558.735 241.881 558.735 242.318 558.298L249.025 551.591C249.448 551.168 249.463 550.486 249.058 550.045L242.91 543.338C242.493 542.883 241.786 542.852 241.331 543.269C240.876 543.687 240.845 544.394 241.262 544.849L246.687 550.767L240.737 556.717Z" fill="white"/>
<path d="M224.361 579.066C228.957 581.902 234.17 583.587 239.557 583.976C244.944 584.366 250.345 583.448 255.302 581.302C260.258 579.156 264.622 575.844 268.024 571.649C271.425 567.454 273.763 562.499 274.839 557.207C275.915 551.914 275.696 546.44 274.202 541.25C272.707 536.059 269.982 531.307 266.256 527.397C262.531 523.486 257.916 520.533 252.805 518.789C247.693 517.045 242.236 516.561 236.897 517.379L237.151 519.036C242.223 518.259 247.407 518.719 252.263 520.376C257.119 522.033 261.503 524.838 265.042 528.553C268.581 532.268 271.171 536.783 272.59 541.713C274.01 546.644 274.218 551.845 273.196 556.873C272.174 561.901 269.953 566.608 266.721 570.593C263.49 574.578 259.344 577.724 254.635 579.763C249.927 581.802 244.796 582.674 239.678 582.304C234.561 581.934 229.608 580.334 225.242 577.639L224.361 579.066Z" fill="#F22E5D"/>
<path d="M167.269 617.914V604.599H172.77C172.9 604.599 173.066 604.605 173.27 604.618C173.473 604.624 173.661 604.642 173.834 604.673C174.604 604.79 175.239 605.046 175.738 605.441C176.244 605.835 176.617 606.334 176.857 606.939C177.104 607.536 177.227 608.202 177.227 608.936C177.227 609.663 177.104 610.329 176.857 610.933C176.611 611.531 176.235 612.027 175.729 612.421C175.23 612.816 174.598 613.072 173.834 613.189C173.661 613.214 173.47 613.232 173.26 613.244C173.057 613.257 172.894 613.263 172.77 613.263H169.497V617.914H167.269ZM169.497 611.182H172.678C172.801 611.182 172.94 611.176 173.094 611.164C173.248 611.152 173.39 611.127 173.519 611.09C173.889 610.998 174.179 610.834 174.388 610.6C174.604 610.366 174.755 610.101 174.842 609.805C174.934 609.509 174.98 609.219 174.98 608.936C174.98 608.652 174.934 608.362 174.842 608.067C174.755 607.765 174.604 607.496 174.388 607.262C174.179 607.028 173.889 606.865 173.519 606.772C173.39 606.735 173.248 606.714 173.094 606.707C172.94 606.695 172.801 606.689 172.678 606.689H169.497V611.182ZM179.079 617.914V607.928H181.049V610.36L180.808 610.045C180.932 609.712 181.095 609.41 181.298 609.139C181.508 608.862 181.758 608.634 182.047 608.455C182.294 608.288 182.565 608.159 182.861 608.067C183.163 607.968 183.471 607.909 183.786 607.891C184.1 607.866 184.405 607.879 184.701 607.928V610.008C184.405 609.922 184.063 609.894 183.675 609.925C183.292 609.956 182.947 610.064 182.639 610.249C182.331 610.415 182.078 610.628 181.881 610.887C181.69 611.145 181.548 611.441 181.456 611.774C181.363 612.101 181.317 612.455 181.317 612.838V617.914H179.079ZM190.695 618.191C189.697 618.191 188.824 617.966 188.078 617.516C187.333 617.066 186.753 616.447 186.34 615.658C185.933 614.862 185.73 613.95 185.73 612.921C185.73 611.873 185.94 610.954 186.359 610.165C186.778 609.376 187.36 608.76 188.106 608.316C188.852 607.872 189.715 607.651 190.695 607.651C191.7 607.651 192.575 607.875 193.321 608.325C194.067 608.775 194.646 609.398 195.059 610.193C195.472 610.982 195.679 611.891 195.679 612.921C195.679 613.956 195.469 614.872 195.05 615.667C194.637 616.456 194.058 617.075 193.312 617.525C192.566 617.969 191.694 618.191 190.695 618.191ZM190.695 616.101C191.583 616.101 192.242 615.805 192.674 615.214C193.105 614.622 193.321 613.858 193.321 612.921C193.321 611.953 193.102 611.182 192.665 610.609C192.227 610.03 191.57 609.74 190.695 609.74C190.097 609.74 189.604 609.876 189.216 610.147C188.834 610.412 188.55 610.785 188.365 611.266C188.18 611.74 188.088 612.292 188.088 612.921C188.088 613.888 188.307 614.662 188.744 615.241C189.188 615.815 189.838 616.101 190.695 616.101ZM202.052 618.191C201.023 618.191 200.144 617.963 199.417 617.507C198.69 617.044 198.132 616.416 197.744 615.621C197.361 614.825 197.167 613.925 197.161 612.921C197.167 611.898 197.368 610.991 197.762 610.202C198.163 609.407 198.73 608.785 199.463 608.335C200.197 607.879 201.069 607.651 202.08 607.651C203.214 607.651 204.173 607.937 204.955 608.51C205.744 609.077 206.259 609.854 206.5 610.84L204.281 611.441C204.108 610.905 203.821 610.489 203.421 610.193C203.02 609.891 202.564 609.74 202.052 609.74C201.473 609.74 200.995 609.879 200.619 610.156C200.243 610.427 199.966 610.803 199.787 611.284C199.608 611.765 199.519 612.31 199.519 612.921C199.519 613.87 199.731 614.637 200.157 615.223C200.582 615.809 201.214 616.101 202.052 616.101C202.644 616.101 203.109 615.966 203.448 615.695C203.794 615.423 204.052 615.032 204.225 614.52L206.5 615.029C206.191 616.046 205.652 616.829 204.882 617.377C204.111 617.92 203.168 618.191 202.052 618.191ZM212.621 618.191C211.61 618.191 210.723 617.972 209.958 617.534C209.194 617.097 208.596 616.49 208.165 615.713C207.739 614.936 207.527 614.043 207.527 613.032C207.527 611.941 207.736 610.994 208.155 610.193C208.575 609.386 209.157 608.76 209.903 608.316C210.649 607.872 211.512 607.651 212.492 607.651C213.527 607.651 214.406 607.894 215.127 608.381C215.854 608.862 216.394 609.543 216.745 610.424C217.096 611.306 217.229 612.344 217.143 613.54H214.933V612.727C214.927 611.642 214.736 610.85 214.36 610.35C213.984 609.851 213.392 609.601 212.584 609.601C211.672 609.601 210.994 609.885 210.55 610.452C210.106 611.013 209.884 611.836 209.884 612.921C209.884 613.932 210.106 614.714 210.55 615.269C210.994 615.824 211.641 616.101 212.492 616.101C213.04 616.101 213.512 615.981 213.906 615.741C214.307 615.494 214.615 615.14 214.831 614.677L217.032 615.343C216.649 616.243 216.058 616.943 215.256 617.442C214.461 617.941 213.583 618.191 212.621 618.191ZM209.182 613.54V611.857H216.052V613.54H209.182ZM223.745 618.191C222.734 618.191 221.847 617.972 221.083 617.534C220.318 617.097 219.72 616.49 219.289 615.713C218.863 614.936 218.651 614.043 218.651 613.032C218.651 611.941 218.86 610.994 219.28 610.193C219.699 609.386 220.281 608.76 221.027 608.316C221.773 607.872 222.636 607.651 223.616 607.651C224.651 607.651 225.53 607.894 226.251 608.381C226.978 608.862 227.518 609.543 227.869 610.424C228.22 611.306 228.353 612.344 228.267 613.54H226.057V612.727C226.051 611.642 225.86 610.85 225.484 610.35C225.108 609.851 224.516 609.601 223.708 609.601C222.796 609.601 222.118 609.885 221.674 610.452C221.23 611.013 221.009 611.836 221.009 612.921C221.009 613.932 221.23 614.714 221.674 615.269C222.118 615.824 222.765 616.101 223.616 616.101C224.165 616.101 224.636 615.981 225.031 615.741C225.431 615.494 225.739 615.14 225.955 614.677L228.156 615.343C227.774 616.243 227.182 616.943 226.38 617.442C225.585 617.941 224.707 618.191 223.745 618.191ZM220.306 613.54V611.857H227.176V613.54H220.306ZM234.333 618.191C233.415 618.191 232.613 617.96 231.929 617.498C231.245 617.035 230.715 616.406 230.339 615.611C229.963 614.816 229.775 613.919 229.775 612.921C229.775 611.91 229.963 611.01 230.339 610.221C230.721 609.426 231.26 608.8 231.957 608.344C232.654 607.882 233.473 607.651 234.416 607.651C235.366 607.651 236.161 607.882 236.802 608.344C237.449 608.8 237.939 609.426 238.272 610.221C238.605 611.016 238.771 611.916 238.771 612.921C238.771 613.913 238.605 614.81 238.272 615.611C237.939 616.406 237.443 617.035 236.783 617.498C236.124 617.96 235.307 618.191 234.333 618.191ZM234.675 616.194C235.273 616.194 235.754 616.058 236.118 615.787C236.488 615.51 236.756 615.124 236.922 614.631C237.095 614.138 237.181 613.568 237.181 612.921C237.181 612.267 237.095 611.697 236.922 611.21C236.756 610.717 236.494 610.335 236.136 610.064C235.779 609.786 235.316 609.648 234.749 609.648C234.151 609.648 233.658 609.796 233.27 610.091C232.882 610.381 232.595 610.776 232.41 611.275C232.225 611.768 232.133 612.317 232.133 612.921C232.133 613.531 232.222 614.086 232.401 614.585C232.586 615.078 232.866 615.47 233.242 615.759C233.618 616.049 234.096 616.194 234.675 616.194ZM237.181 617.914V610.905H236.904V604.599H239.15V617.914H237.181ZM251.297 617.914C250.638 618.037 249.991 618.089 249.356 618.071C248.727 618.058 248.163 617.944 247.664 617.729C247.165 617.507 246.785 617.158 246.527 616.684C246.298 616.252 246.178 615.812 246.166 615.362C246.154 614.912 246.147 614.403 246.147 613.836V605.154H248.366V613.707C248.366 614.107 248.37 614.459 248.376 614.761C248.388 615.063 248.453 615.309 248.57 615.5C248.792 615.87 249.146 616.077 249.633 616.12C250.12 616.163 250.675 616.138 251.297 616.046V617.914ZM244.335 609.675V607.928H251.297V609.675H244.335ZM257.349 618.191C256.351 618.191 255.479 617.966 254.733 617.516C253.987 617.066 253.408 616.447 252.995 615.658C252.588 614.862 252.384 613.95 252.384 612.921C252.384 611.873 252.594 610.954 253.013 610.165C253.432 609.376 254.015 608.76 254.761 608.316C255.506 607.872 256.369 607.651 257.349 607.651C258.354 607.651 259.229 607.875 259.975 608.325C260.721 608.775 261.301 609.398 261.714 610.193C262.127 610.982 262.333 611.891 262.333 612.921C262.333 613.956 262.123 614.872 261.704 615.667C261.291 616.456 260.712 617.075 259.966 617.525C259.22 617.969 258.348 618.191 257.349 618.191ZM257.349 616.101C258.237 616.101 258.897 615.805 259.328 615.214C259.76 614.622 259.975 613.858 259.975 612.921C259.975 611.953 259.756 611.182 259.319 610.609C258.881 610.03 258.225 609.74 257.349 609.74C256.751 609.74 256.258 609.876 255.87 610.147C255.488 610.412 255.204 610.785 255.019 611.266C254.834 611.74 254.742 612.292 254.742 612.921C254.742 613.888 254.961 614.662 255.399 615.241C255.842 615.815 256.493 616.101 257.349 616.101ZM274.979 617.914V613.106C274.979 612.791 274.957 612.443 274.914 612.061C274.871 611.679 274.769 611.312 274.609 610.961C274.455 610.603 274.221 610.31 273.906 610.082C273.598 609.854 273.179 609.74 272.649 609.74C272.365 609.74 272.085 609.786 271.808 609.879C271.53 609.971 271.277 610.132 271.049 610.36C270.827 610.581 270.649 610.89 270.513 611.284C270.378 611.673 270.31 612.172 270.31 612.782L268.988 612.218C268.988 611.367 269.151 610.597 269.478 609.907C269.81 609.216 270.297 608.668 270.938 608.261C271.579 607.848 272.368 607.641 273.305 607.641C274.045 607.641 274.655 607.765 275.136 608.011C275.617 608.258 275.999 608.572 276.283 608.954C276.566 609.336 276.776 609.743 276.911 610.175C277.047 610.606 277.133 611.016 277.17 611.404C277.213 611.787 277.235 612.098 277.235 612.338V617.914H274.979ZM268.054 617.914V604.599H270.042V611.608H270.31V617.914H268.054ZM284.058 618.191C283.06 618.191 282.187 617.966 281.441 617.516C280.696 617.066 280.116 616.447 279.703 615.658C279.296 614.862 279.093 613.95 279.093 612.921C279.093 611.873 279.303 610.954 279.722 610.165C280.141 609.376 280.723 608.76 281.469 608.316C282.215 607.872 283.078 607.651 284.058 607.651C285.063 607.651 285.938 607.875 286.684 608.325C287.43 608.775 288.009 609.398 288.422 610.193C288.835 610.982 289.042 611.891 289.042 612.921C289.042 613.956 288.832 614.872 288.413 615.667C288 616.456 287.421 617.075 286.675 617.525C285.929 617.969 285.057 618.191 284.058 618.191ZM284.058 616.101C284.946 616.101 285.605 615.805 286.037 615.214C286.468 614.622 286.684 613.858 286.684 612.921C286.684 611.953 286.465 611.182 286.027 610.609C285.59 610.03 284.933 609.74 284.058 609.74C283.46 609.74 282.967 609.876 282.579 610.147C282.197 610.412 281.913 610.785 281.728 611.266C281.543 611.74 281.451 612.292 281.451 612.921C281.451 613.888 281.67 614.662 282.107 615.241C282.551 615.815 283.201 616.101 284.058 616.101ZM303.071 617.914V611.848C303.071 611.164 302.901 610.631 302.562 610.249C302.223 609.86 301.764 609.666 301.185 609.666C300.827 609.666 300.507 609.749 300.223 609.916C299.94 610.076 299.715 610.316 299.548 610.637C299.382 610.951 299.299 611.327 299.299 611.765L298.309 611.182C298.303 610.492 298.457 609.885 298.772 609.361C299.092 608.831 299.524 608.418 300.066 608.122C300.608 607.826 301.212 607.678 301.878 607.678C302.982 607.678 303.826 608.011 304.412 608.677C305.003 609.336 305.299 610.205 305.299 611.284V617.914H303.071ZM291.06 617.914V607.928H293.03V611.025H293.307V617.914H291.06ZM297.079 617.914V611.876C297.079 611.179 296.91 610.637 296.571 610.249C296.232 609.86 295.77 609.666 295.184 609.666C294.617 609.666 294.161 609.86 293.816 610.249C293.477 610.637 293.307 611.142 293.307 611.765L292.309 611.099C292.309 610.452 292.469 609.87 292.789 609.352C293.11 608.834 293.541 608.427 294.084 608.131C294.632 607.829 295.246 607.678 295.924 607.678C296.67 607.678 297.292 607.839 297.791 608.159C298.297 608.473 298.673 608.905 298.919 609.453C299.172 609.996 299.299 610.609 299.299 611.293V617.914H297.079ZM312.088 618.191C311.077 618.191 310.19 617.972 309.425 617.534C308.661 617.097 308.063 616.49 307.632 615.713C307.206 614.936 306.994 614.043 306.994 613.032C306.994 611.941 307.203 610.994 307.622 610.193C308.041 609.386 308.624 608.76 309.37 608.316C310.116 607.872 310.979 607.651 311.959 607.651C312.994 607.651 313.873 607.894 314.594 608.381C315.321 608.862 315.86 609.543 316.212 610.424C316.563 611.306 316.696 612.344 316.609 613.54H314.4V612.727C314.393 611.642 314.202 610.85 313.826 610.35C313.45 609.851 312.859 609.601 312.051 609.601C311.139 609.601 310.461 609.885 310.017 610.452C309.573 611.013 309.351 611.836 309.351 612.921C309.351 613.932 309.573 614.714 310.017 615.269C310.461 615.824 311.108 616.101 311.959 616.101C312.507 616.101 312.979 615.981 313.373 615.741C313.774 615.494 314.082 615.14 314.298 614.677L316.498 615.343C316.116 616.243 315.525 616.943 314.723 617.442C313.928 617.941 313.05 618.191 312.088 618.191ZM308.649 613.54V611.857H315.518V613.54H308.649Z" fill="#666666"/>
<ellipse opacity="0.3" cx="242.252" cy="266.214" rx="48.1563" ry="48.1563" fill="#26C165"/>
<path d="M265.219 246.074C267.034 244.129 270.081 244.024 272.025 245.839C273.97 247.654 274.075 250.701 272.26 252.645L238.551 288.763C236.79 290.649 233.855 290.812 231.896 289.133L215.042 274.686C213.022 272.955 212.788 269.915 214.519 267.896C216.25 265.877 219.29 265.643 221.31 267.374L234.659 278.816L265.219 246.074Z" fill="#26C165"/>
<path d="M182.395 354.648C180.915 354.648 179.579 354.389 178.386 353.871C177.203 353.344 176.228 352.595 175.46 351.624C174.702 350.644 174.221 349.479 174.018 348.129L177.957 347.547C178.234 348.693 178.807 349.576 179.676 350.196C180.545 350.815 181.535 351.125 182.644 351.125C183.264 351.125 183.865 351.028 184.447 350.834C185.03 350.639 185.506 350.353 185.876 349.974C186.255 349.595 186.444 349.128 186.444 348.573C186.444 348.369 186.412 348.175 186.347 347.99C186.292 347.796 186.195 347.616 186.056 347.449C185.917 347.283 185.719 347.126 185.46 346.978C185.21 346.83 184.891 346.696 184.503 346.576L179.316 345.05C178.927 344.939 178.474 344.782 177.957 344.579C177.448 344.375 176.953 344.084 176.473 343.705C175.992 343.326 175.59 342.826 175.266 342.207C174.952 341.578 174.794 340.788 174.794 339.835C174.794 338.495 175.132 337.381 175.807 336.493C176.482 335.605 177.383 334.944 178.511 334.51C179.639 334.075 180.888 333.862 182.256 333.872C183.634 333.89 184.863 334.126 185.945 334.579C187.027 335.032 187.933 335.693 188.663 336.562C189.394 337.422 189.921 338.476 190.244 339.724L186.167 340.418C186.019 339.771 185.746 339.225 185.349 338.781C184.951 338.338 184.475 338 183.92 337.769C183.375 337.538 182.801 337.413 182.2 337.394C181.609 337.376 181.049 337.459 180.522 337.644C180.005 337.82 179.579 338.079 179.246 338.421C178.923 338.763 178.761 339.17 178.761 339.641C178.761 340.076 178.895 340.432 179.163 340.709C179.431 340.977 179.769 341.195 180.176 341.361C180.582 341.527 180.998 341.666 181.424 341.777L184.891 342.72C185.409 342.859 185.982 343.044 186.611 343.275C187.24 343.497 187.841 343.811 188.414 344.218C188.996 344.616 189.472 345.143 189.842 345.799C190.221 346.456 190.411 347.288 190.411 348.296C190.411 349.368 190.184 350.307 189.731 351.111C189.288 351.906 188.687 352.567 187.928 353.094C187.17 353.612 186.31 354 185.349 354.259C184.396 354.518 183.412 354.648 182.395 354.648ZM199.035 354.675C197.86 354.675 196.903 354.476 196.164 354.079C195.424 353.681 194.846 353.177 194.43 352.567C194.023 351.957 193.732 351.324 193.556 350.667C193.381 350.001 193.274 349.396 193.237 348.85C193.2 348.305 193.182 347.907 193.182 347.658V339.253H197.01V346.326C197.01 346.668 197.028 347.107 197.065 347.644C197.102 348.171 197.218 348.702 197.412 349.239C197.606 349.775 197.92 350.223 198.355 350.584C198.799 350.944 199.423 351.125 200.227 351.125C200.551 351.125 200.898 351.074 201.268 350.972C201.637 350.871 201.984 350.676 202.308 350.39C202.631 350.094 202.895 349.664 203.098 349.1C203.311 348.527 203.417 347.778 203.417 346.853L205.581 347.879C205.581 349.063 205.34 350.172 204.86 351.208C204.379 352.244 203.653 353.08 202.682 353.718C201.721 354.356 200.505 354.675 199.035 354.675ZM203.889 354.231V349.266H203.417V339.253H207.217V354.231H203.889ZM217.695 354.648C216.142 354.648 214.81 354.301 213.701 353.607C212.591 352.914 211.741 351.971 211.149 350.778C210.557 349.585 210.261 348.24 210.261 346.742C210.261 345.226 210.566 343.871 211.177 342.679C211.796 341.486 212.665 340.547 213.784 339.863C214.903 339.179 216.225 338.837 217.751 338.837C219.517 338.837 220.996 339.285 222.189 340.182C223.391 341.07 224.158 342.286 224.491 343.83L220.719 344.828C220.497 344.052 220.108 343.446 219.554 343.011C219.008 342.577 218.389 342.36 217.695 342.36C216.9 342.36 216.248 342.554 215.74 342.942C215.231 343.321 214.857 343.844 214.616 344.509C214.376 345.166 214.256 345.91 214.256 346.742C214.256 348.046 214.542 349.105 215.115 349.918C215.698 350.723 216.558 351.125 217.695 351.125C218.546 351.125 219.193 350.931 219.637 350.542C220.081 350.154 220.413 349.599 220.635 348.878L224.491 349.682C224.066 351.273 223.261 352.498 222.078 353.358C220.894 354.218 219.433 354.648 217.695 354.648ZM233.46 354.648C231.907 354.648 230.576 354.301 229.466 353.607C228.356 352.914 227.506 351.971 226.914 350.778C226.322 349.585 226.027 348.24 226.027 346.742C226.027 345.226 226.332 343.871 226.942 342.679C227.561 341.486 228.43 340.547 229.549 339.863C230.668 339.179 231.99 338.837 233.516 338.837C235.282 338.837 236.761 339.285 237.954 340.182C239.156 341.07 239.923 342.286 240.256 343.83L236.484 344.828C236.262 344.052 235.874 343.446 235.319 343.011C234.773 342.577 234.154 342.36 233.46 342.36C232.665 342.36 232.013 342.554 231.505 342.942C230.996 343.321 230.622 343.844 230.381 344.509C230.141 345.166 230.021 345.91 230.021 346.742C230.021 348.046 230.307 349.105 230.881 349.918C231.463 350.723 232.323 351.125 233.46 351.125C234.311 351.125 234.958 350.931 235.402 350.542C235.846 350.154 236.179 349.599 236.401 348.878L240.256 349.682C239.831 351.273 239.026 352.498 237.843 353.358C236.659 354.218 235.199 354.648 233.46 354.648ZM249.586 354.648C248.051 354.648 246.697 354.319 245.522 353.663C244.357 352.997 243.442 352.086 242.776 350.931C242.12 349.766 241.792 348.434 241.792 346.936C241.792 345.3 242.115 343.876 242.762 342.665C243.41 341.453 244.302 340.515 245.439 339.849C246.576 339.174 247.885 338.837 249.364 338.837C250.936 338.837 252.272 339.207 253.372 339.946C254.473 340.686 255.286 341.726 255.813 343.067C256.34 344.408 256.525 345.984 256.368 347.796H252.637V346.409C252.637 344.884 252.392 343.788 251.902 343.122C251.421 342.447 250.631 342.11 249.531 342.11C248.245 342.11 247.298 342.503 246.687 343.289C246.086 344.065 245.786 345.217 245.786 346.742C245.786 348.138 246.086 349.22 246.687 349.988C247.298 350.746 248.19 351.125 249.364 351.125C250.104 351.125 250.737 350.963 251.264 350.639C251.791 350.316 252.193 349.849 252.471 349.239L256.243 350.32C255.679 351.689 254.787 352.752 253.566 353.51C252.355 354.268 251.028 354.648 249.586 354.648ZM244.621 347.796V344.995H254.551V347.796H244.621ZM265.352 354.648C263.466 354.648 261.941 354.222 260.776 353.372C259.62 352.512 258.917 351.3 258.667 349.738L262.523 349.155C262.68 349.858 263.027 350.408 263.563 350.806C264.109 351.203 264.798 351.402 265.63 351.402C266.314 351.402 266.841 351.273 267.211 351.014C267.581 350.746 267.766 350.376 267.766 349.904C267.766 349.608 267.692 349.373 267.544 349.197C267.396 349.012 267.063 348.832 266.545 348.656C266.037 348.48 265.241 348.249 264.16 347.963C262.939 347.648 261.964 347.297 261.233 346.909C260.503 346.52 259.976 346.058 259.652 345.522C259.329 344.976 259.167 344.32 259.167 343.552C259.167 342.591 259.412 341.759 259.902 341.056C260.392 340.344 261.081 339.798 261.968 339.419C262.865 339.031 263.919 338.837 265.13 338.837C266.305 338.837 267.345 339.017 268.251 339.378C269.157 339.738 269.887 340.251 270.442 340.917C271.006 341.583 271.353 342.369 271.482 343.275L267.627 343.968C267.562 343.414 267.322 342.974 266.906 342.651C266.49 342.327 265.926 342.138 265.214 342.082C264.52 342.036 263.961 342.128 263.535 342.36C263.119 342.591 262.911 342.924 262.911 343.358C262.911 343.617 262.999 343.834 263.175 344.01C263.36 344.186 263.734 344.366 264.298 344.551C264.872 344.736 265.741 344.976 266.906 345.272C268.043 345.568 268.954 345.915 269.638 346.312C270.331 346.701 270.835 347.172 271.15 347.727C271.464 348.272 271.621 348.933 271.621 349.71C271.621 351.245 271.066 352.452 269.957 353.33C268.847 354.208 267.312 354.648 265.352 354.648ZM280.522 354.648C278.635 354.648 277.11 354.222 275.945 353.372C274.789 352.512 274.086 351.3 273.837 349.738L277.692 349.155C277.849 349.858 278.196 350.408 278.732 350.806C279.278 351.203 279.967 351.402 280.799 351.402C281.483 351.402 282.01 351.273 282.38 351.014C282.75 350.746 282.935 350.376 282.935 349.904C282.935 349.608 282.861 349.373 282.713 349.197C282.565 349.012 282.232 348.832 281.714 348.656C281.206 348.48 280.411 348.249 279.329 347.963C278.108 347.648 277.133 347.297 276.402 346.909C275.672 346.52 275.145 346.058 274.821 345.522C274.498 344.976 274.336 344.32 274.336 343.552C274.336 342.591 274.581 341.759 275.071 341.056C275.561 340.344 276.25 339.798 277.137 339.419C278.034 339.031 279.088 338.837 280.3 338.837C281.474 338.837 282.514 339.017 283.42 339.378C284.326 339.738 285.057 340.251 285.611 340.917C286.175 341.583 286.522 342.369 286.652 343.275L282.796 343.968C282.731 343.414 282.491 342.974 282.075 342.651C281.659 342.327 281.095 342.138 280.383 342.082C279.689 342.036 279.13 342.128 278.705 342.36C278.289 342.591 278.081 342.924 278.081 343.358C278.081 343.617 278.168 343.834 278.344 344.01C278.529 344.186 278.903 344.366 279.467 344.551C280.041 344.736 280.91 344.976 282.075 345.272C283.212 345.568 284.123 345.915 284.807 346.312C285.501 346.701 286.004 347.172 286.319 347.727C286.633 348.272 286.79 348.933 286.79 349.71C286.79 351.245 286.236 352.452 285.126 353.33C284.017 354.208 282.482 354.648 280.522 354.648ZM291.086 354.231V339.308C291.086 338.929 291.095 338.499 291.114 338.019C291.132 337.538 291.206 337.052 291.336 336.562C291.475 336.072 291.724 335.628 292.085 335.231C292.547 334.713 293.046 334.362 293.583 334.177C294.128 333.983 294.655 333.881 295.164 333.872C295.672 333.853 296.107 333.844 296.467 333.844H298.326V336.895H296.606C296.014 336.895 295.575 337.048 295.289 337.353C295.002 337.649 294.859 338.005 294.859 338.421V354.231H291.086ZM288.729 342.165V339.253H298.326V342.165H288.729ZM306.113 354.675C304.939 354.675 303.982 354.476 303.242 354.079C302.503 353.681 301.925 353.177 301.509 352.567C301.102 351.957 300.811 351.324 300.635 350.667C300.459 350.001 300.353 349.396 300.316 348.85C300.279 348.305 300.26 347.907 300.26 347.658V339.253H304.088V346.326C304.088 346.668 304.107 347.107 304.144 347.644C304.181 348.171 304.296 348.702 304.49 349.239C304.685 349.775 304.999 350.223 305.434 350.584C305.877 350.944 306.501 351.125 307.306 351.125C307.629 351.125 307.976 351.074 308.346 350.972C308.716 350.871 309.063 350.676 309.386 350.39C309.71 350.094 309.973 349.664 310.177 349.1C310.389 348.527 310.496 347.778 310.496 346.853L312.659 347.879C312.659 349.063 312.419 350.172 311.938 351.208C311.457 352.244 310.731 353.08 309.761 353.718C308.799 354.356 307.583 354.675 306.113 354.675ZM310.967 354.231V349.266H310.496V339.253H314.296V354.231H310.967ZM318.449 354.231V333.844H322.222V354.231H318.449Z" fill="#232323"/>
<path d="M116.57 394.999V390.12L112.662 383.349H114.037L117.168 388.761L120.283 383.349H121.658L117.767 390.12V394.999H116.57ZM125.139 395.241C124.27 395.241 123.529 395.044 122.914 394.651C122.299 394.257 121.827 393.712 121.498 393.016C121.169 392.321 121.004 391.522 121.004 390.622C121.004 389.705 121.172 388.901 121.506 388.211C121.84 387.52 122.315 386.984 122.93 386.601C123.55 386.213 124.286 386.018 125.139 386.018C126.012 386.018 126.757 386.215 127.371 386.609C127.992 386.997 128.464 387.539 128.787 388.235C129.116 388.925 129.281 389.721 129.281 390.622C129.281 391.539 129.116 392.345 128.787 393.041C128.458 393.731 127.984 394.27 127.363 394.659C126.743 395.047 126.001 395.241 125.139 395.241ZM125.139 394.101C126.109 394.101 126.832 393.78 127.307 393.138C127.781 392.491 128.019 391.652 128.019 390.622C128.019 389.565 127.779 388.723 127.299 388.098C126.824 387.472 126.104 387.159 125.139 387.159C124.486 387.159 123.947 387.307 123.52 387.604C123.1 387.895 122.784 388.303 122.574 388.826C122.369 389.343 122.266 389.942 122.266 390.622C122.266 391.673 122.509 392.518 122.995 393.154C123.48 393.785 124.195 394.101 125.139 394.101ZM134.407 395.217C133.883 395.217 133.425 395.136 133.031 394.974C132.643 394.812 132.311 394.594 132.036 394.319C131.767 394.044 131.548 393.731 131.381 393.38C131.214 393.025 131.092 392.65 131.017 392.256C130.941 391.857 130.904 391.46 130.904 391.067V386.261H132.101V390.719C132.101 391.199 132.147 391.644 132.238 392.054C132.33 392.464 132.476 392.822 132.675 393.13C132.88 393.432 133.142 393.666 133.46 393.834C133.784 394.001 134.175 394.084 134.633 394.084C135.054 394.084 135.423 394.012 135.742 393.866C136.065 393.72 136.335 393.513 136.551 393.243C136.772 392.968 136.939 392.636 137.052 392.248C137.165 391.854 137.222 391.412 137.222 390.921L138.063 391.107C138.063 392.002 137.907 392.755 137.594 393.364C137.281 393.974 136.85 394.435 136.3 394.748C135.75 395.061 135.119 395.217 134.407 395.217ZM137.343 394.999V392.847H137.222V386.261H138.411V394.999H137.343ZM150.222 394.999V390.541C150.222 390.055 150.176 389.61 150.085 389.206C149.993 388.796 149.845 388.44 149.64 388.138C149.44 387.831 149.179 387.593 148.855 387.426C148.537 387.259 148.148 387.175 147.69 387.175C147.269 387.175 146.897 387.248 146.574 387.394C146.255 387.539 145.986 387.75 145.764 388.025C145.549 388.294 145.384 388.623 145.271 389.012C145.158 389.4 145.101 389.842 145.101 390.339L144.26 390.152C144.26 389.257 144.416 388.505 144.729 387.895C145.042 387.286 145.473 386.825 146.023 386.512C146.574 386.199 147.205 386.043 147.916 386.043C148.44 386.043 148.895 386.124 149.284 386.285C149.677 386.447 150.009 386.666 150.279 386.941C150.554 387.216 150.775 387.531 150.942 387.887C151.109 388.238 151.231 388.613 151.306 389.012C151.382 389.405 151.42 389.799 151.42 390.193V394.999H150.222ZM143.904 394.999V383.349H144.98V389.926H145.101V394.999H143.904ZM156.019 395.241C155.361 395.241 154.808 395.123 154.36 394.885C153.918 394.648 153.586 394.332 153.365 393.939C153.144 393.545 153.034 393.116 153.034 392.652C153.034 392.178 153.128 391.773 153.317 391.439C153.511 391.099 153.772 390.821 154.101 390.606C154.436 390.39 154.822 390.225 155.258 390.112C155.701 390.004 156.189 389.91 156.723 389.829C157.262 389.743 157.788 389.67 158.3 389.61C158.818 389.546 159.271 389.484 159.659 389.424L159.239 389.683C159.255 388.82 159.088 388.181 158.737 387.766C158.387 387.351 157.777 387.143 156.909 387.143C156.31 387.143 155.803 387.278 155.388 387.547C154.978 387.817 154.689 388.243 154.522 388.826L153.365 388.486C153.565 387.704 153.967 387.097 154.571 386.666C155.175 386.234 155.96 386.018 156.925 386.018C157.723 386.018 158.4 386.169 158.956 386.471C159.517 386.768 159.913 387.2 160.145 387.766C160.253 388.019 160.323 388.303 160.355 388.615C160.388 388.928 160.404 389.246 160.404 389.57V394.999H159.344V392.806L159.651 392.936C159.355 393.685 158.894 394.257 158.268 394.651C157.642 395.044 156.893 395.241 156.019 395.241ZM156.156 394.214C156.712 394.214 157.197 394.114 157.613 393.914C158.028 393.715 158.362 393.443 158.616 393.097C158.869 392.747 159.034 392.353 159.109 391.916C159.174 391.636 159.209 391.328 159.215 390.994C159.22 390.654 159.223 390.401 159.223 390.233L159.676 390.468C159.271 390.522 158.832 390.576 158.357 390.63C157.888 390.684 157.424 390.746 156.965 390.816C156.512 390.886 156.102 390.97 155.736 391.067C155.488 391.137 155.248 391.237 155.016 391.366C154.784 391.49 154.592 391.657 154.441 391.868C154.296 392.078 154.223 392.34 154.223 392.652C154.223 392.906 154.285 393.151 154.409 393.389C154.538 393.626 154.743 393.823 155.024 393.979C155.31 394.136 155.687 394.214 156.156 394.214ZM164.556 394.999L161.385 386.261H162.59L165.171 393.445L167.736 386.261H168.957L165.786 394.999H164.556ZM173.792 395.241C172.94 395.241 172.201 395.052 171.575 394.675C170.955 394.297 170.472 393.766 170.127 393.081C169.782 392.396 169.609 391.593 169.609 390.67C169.609 389.716 169.779 388.89 170.119 388.195C170.459 387.499 170.936 386.962 171.551 386.585C172.171 386.207 172.902 386.018 173.743 386.018C174.606 386.018 175.342 386.218 175.952 386.617C176.561 387.011 177.022 387.577 177.335 388.316C177.648 389.055 177.791 389.937 177.764 390.961H176.551V390.541C176.529 389.408 176.284 388.553 175.814 387.976C175.351 387.399 174.671 387.111 173.776 387.111C172.837 387.111 172.117 387.415 171.616 388.025C171.119 388.634 170.871 389.503 170.871 390.63C170.871 391.73 171.119 392.585 171.616 393.194C172.117 393.798 172.826 394.101 173.743 394.101C174.369 394.101 174.914 393.958 175.377 393.672C175.847 393.38 176.216 392.962 176.486 392.418L177.594 392.847C177.249 393.607 176.739 394.198 176.065 394.618C175.396 395.034 174.639 395.241 173.792 395.241ZM170.451 390.961V389.966H177.125V390.961H170.451ZM186.059 395.233C185.034 395.233 184.19 395.012 183.527 394.57C182.869 394.127 182.464 393.513 182.313 392.725L183.527 392.523C183.656 393.019 183.95 393.416 184.409 393.712C184.873 394.003 185.444 394.149 186.124 394.149C186.787 394.149 187.31 394.012 187.693 393.736C188.076 393.456 188.268 393.076 188.268 392.596C188.268 392.326 188.206 392.108 188.082 391.94C187.963 391.768 187.718 391.609 187.345 391.463C186.973 391.317 186.418 391.145 185.679 390.945C184.886 390.73 184.266 390.514 183.818 390.298C183.37 390.082 183.052 389.834 182.863 389.554C182.675 389.268 182.58 388.92 182.58 388.51C182.58 388.014 182.721 387.58 183.001 387.208C183.281 386.83 183.67 386.539 184.166 386.334C184.662 386.124 185.239 386.018 185.897 386.018C186.555 386.018 187.143 386.126 187.661 386.342C188.184 386.552 188.605 386.849 188.923 387.232C189.241 387.615 189.43 388.06 189.489 388.567L188.276 388.785C188.195 388.273 187.939 387.868 187.507 387.572C187.081 387.27 186.539 387.113 185.881 387.102C185.261 387.086 184.757 387.205 184.368 387.458C183.98 387.707 183.786 388.038 183.786 388.454C183.786 388.685 183.856 388.885 183.996 389.052C184.136 389.214 184.39 389.368 184.757 389.513C185.129 389.659 185.657 389.818 186.342 389.991C187.146 390.196 187.777 390.411 188.235 390.638C188.694 390.864 189.02 391.131 189.214 391.439C189.408 391.746 189.506 392.126 189.506 392.58C189.506 393.405 189.198 394.055 188.583 394.529C187.974 394.999 187.132 395.233 186.059 395.233ZM194.641 395.217C194.118 395.217 193.66 395.136 193.266 394.974C192.877 394.812 192.546 394.594 192.271 394.319C192.001 394.044 191.783 393.731 191.615 393.38C191.448 393.025 191.327 392.65 191.251 392.256C191.176 391.857 191.138 391.46 191.138 391.067V386.261H192.335V390.719C192.335 391.199 192.381 391.644 192.473 392.054C192.565 392.464 192.71 392.822 192.91 393.13C193.115 393.432 193.376 393.666 193.695 393.834C194.018 394.001 194.409 394.084 194.868 394.084C195.288 394.084 195.658 394.012 195.976 393.866C196.3 393.72 196.569 393.513 196.785 393.243C197.006 392.968 197.173 392.636 197.287 392.248C197.4 391.854 197.457 391.412 197.457 390.921L198.298 391.107C198.298 392.002 198.142 392.755 197.829 393.364C197.516 393.974 197.084 394.435 196.534 394.748C195.984 395.061 195.353 395.217 194.641 395.217ZM197.578 394.999V392.847H197.457V386.261H198.646V394.999H197.578ZM204.531 395.241C203.652 395.241 202.908 395.044 202.299 394.651C201.689 394.257 201.225 393.715 200.907 393.025C200.594 392.329 200.432 391.531 200.422 390.63C200.432 389.713 200.6 388.909 200.923 388.219C201.247 387.523 201.713 386.984 202.323 386.601C202.932 386.213 203.671 386.018 204.54 386.018C205.424 386.018 206.193 386.234 206.845 386.666C207.503 387.097 207.954 387.688 208.196 388.437L207.031 388.809C206.826 388.286 206.5 387.882 206.052 387.596C205.61 387.305 205.103 387.159 204.531 387.159C203.89 387.159 203.358 387.307 202.938 387.604C202.517 387.895 202.204 388.303 201.999 388.826C201.794 389.349 201.689 389.95 201.684 390.63C201.694 391.676 201.937 392.518 202.412 393.154C202.886 393.785 203.593 394.101 204.531 394.101C205.125 394.101 205.629 393.966 206.044 393.696C206.465 393.421 206.783 393.022 206.999 392.499L208.196 392.855C207.873 393.631 207.398 394.225 206.772 394.634C206.147 395.039 205.4 395.241 204.531 395.241ZM213.254 395.241C212.375 395.241 211.63 395.044 211.021 394.651C210.411 394.257 209.948 393.715 209.629 393.025C209.317 392.329 209.155 391.531 209.144 390.63C209.155 389.713 209.322 388.909 209.646 388.219C209.969 387.523 210.436 386.984 211.045 386.601C211.655 386.213 212.394 386.018 213.262 386.018C214.146 386.018 214.915 386.234 215.568 386.666C216.226 387.097 216.676 387.688 216.919 388.437L215.754 388.809C215.549 388.286 215.222 387.882 214.775 387.596C214.332 387.305 213.825 387.159 213.254 387.159C212.612 387.159 212.081 387.307 211.66 387.604C211.239 387.895 210.926 388.303 210.722 388.826C210.517 389.349 210.411 389.95 210.406 390.63C210.417 391.676 210.659 392.518 211.134 393.154C211.609 393.785 212.315 394.101 213.254 394.101C213.847 394.101 214.351 393.966 214.767 393.696C215.187 393.421 215.506 393.022 215.721 392.499L216.919 392.855C216.595 393.631 216.12 394.225 215.495 394.634C214.869 395.039 214.122 395.241 213.254 395.241ZM222.049 395.241C221.197 395.241 220.458 395.052 219.832 394.675C219.212 394.297 218.729 393.766 218.384 393.081C218.039 392.396 217.866 391.593 217.866 390.67C217.866 389.716 218.036 388.89 218.376 388.195C218.716 387.499 219.193 386.962 219.808 386.585C220.428 386.207 221.159 386.018 222 386.018C222.863 386.018 223.6 386.218 224.209 386.617C224.818 387.011 225.28 387.577 225.592 388.316C225.905 389.055 226.048 389.937 226.021 390.961H224.808V390.541C224.786 389.408 224.541 388.553 224.071 387.976C223.608 387.399 222.928 387.111 222.033 387.111C221.094 387.111 220.374 387.415 219.873 388.025C219.376 388.634 219.128 389.503 219.128 390.63C219.128 391.73 219.376 392.585 219.873 393.194C220.374 393.798 221.083 394.101 222 394.101C222.626 394.101 223.171 393.958 223.635 393.672C224.104 393.38 224.473 392.962 224.743 392.418L225.851 392.847C225.506 393.607 224.996 394.198 224.322 394.618C223.653 395.034 222.896 395.241 222.049 395.241ZM218.708 390.961V389.966H225.382V390.961H218.708ZM231.077 395.233C230.052 395.233 229.208 395.012 228.545 394.57C227.887 394.127 227.482 393.513 227.331 392.725L228.545 392.523C228.674 393.019 228.968 393.416 229.427 393.712C229.89 394.003 230.462 394.149 231.142 394.149C231.805 394.149 232.328 394.012 232.711 393.736C233.094 393.456 233.286 393.076 233.286 392.596C233.286 392.326 233.224 392.108 233.1 391.94C232.981 391.768 232.735 391.609 232.363 391.463C231.991 391.317 231.436 391.145 230.697 390.945C229.904 390.73 229.284 390.514 228.836 390.298C228.388 390.082 228.07 389.834 227.881 389.554C227.693 389.268 227.598 388.92 227.598 388.51C227.598 388.014 227.738 387.58 228.019 387.208C228.299 386.83 228.688 386.539 229.184 386.334C229.68 386.124 230.257 386.018 230.915 386.018C231.573 386.018 232.161 386.126 232.679 386.342C233.202 386.552 233.623 386.849 233.941 387.232C234.259 387.615 234.448 388.06 234.507 388.567L233.294 388.785C233.213 388.273 232.957 387.868 232.525 387.572C232.099 387.27 231.557 387.113 230.899 387.102C230.279 387.086 229.774 387.205 229.386 387.458C228.998 387.707 228.804 388.038 228.804 388.454C228.804 388.685 228.874 388.885 229.014 389.052C229.154 389.214 229.408 389.368 229.774 389.513C230.147 389.659 230.675 389.818 231.36 389.991C232.164 390.196 232.795 390.411 233.253 390.638C233.712 390.864 234.038 391.131 234.232 391.439C234.426 391.746 234.523 392.126 234.523 392.58C234.523 393.405 234.216 394.055 233.601 394.529C232.992 394.999 232.15 395.233 231.077 395.233ZM239.578 395.233C238.553 395.233 237.709 395.012 237.046 394.57C236.388 394.127 235.983 393.513 235.832 392.725L237.046 392.523C237.175 393.019 237.469 393.416 237.928 393.712C238.391 394.003 238.963 394.149 239.643 394.149C240.306 394.149 240.829 394.012 241.212 393.736C241.595 393.456 241.787 393.076 241.787 392.596C241.787 392.326 241.725 392.108 241.601 391.94C241.482 391.768 241.237 391.609 240.864 391.463C240.492 391.317 239.937 391.145 239.198 390.945C238.405 390.73 237.785 390.514 237.337 390.298C236.889 390.082 236.571 389.834 236.382 389.554C236.194 389.268 236.099 388.92 236.099 388.51C236.099 388.014 236.239 387.58 236.52 387.208C236.8 386.83 237.189 386.539 237.685 386.334C238.181 386.124 238.758 386.018 239.416 386.018C240.074 386.018 240.662 386.126 241.18 386.342C241.703 386.552 242.124 386.849 242.442 387.232C242.76 387.615 242.949 388.06 243.008 388.567L241.795 388.785C241.714 388.273 241.458 387.868 241.026 387.572C240.6 387.27 240.058 387.113 239.4 387.102C238.78 387.086 238.276 387.205 237.887 387.458C237.499 387.707 237.305 388.038 237.305 388.454C237.305 388.685 237.375 388.885 237.515 389.052C237.655 389.214 237.909 389.368 238.276 389.513C238.648 389.659 239.176 389.818 239.861 389.991C240.665 390.196 241.296 390.411 241.754 390.638C242.213 390.864 242.539 391.131 242.733 391.439C242.927 391.746 243.025 392.126 243.025 392.58C243.025 393.405 242.717 394.055 242.102 394.529C241.493 394.999 240.651 395.233 239.578 395.233ZM245.684 394.999V385.614C245.684 385.387 245.695 385.163 245.717 384.942C245.744 384.721 245.795 384.511 245.871 384.311C245.946 384.106 246.065 383.918 246.226 383.745C246.404 383.551 246.599 383.411 246.809 383.324C247.019 383.233 247.238 383.173 247.464 383.146C247.696 383.119 247.923 383.106 248.144 383.106H249.26V384.109H248.225C247.772 384.109 247.432 384.22 247.205 384.441C246.984 384.662 246.874 385.01 246.874 385.484V394.999H245.684ZM244.172 387.28V386.261H249.26V387.28H244.172ZM253.896 395.217C253.373 395.217 252.914 395.136 252.521 394.974C252.132 394.812 251.801 394.594 251.525 394.319C251.256 394.044 251.037 393.731 250.87 393.38C250.703 393.025 250.582 392.65 250.506 392.256C250.431 391.857 250.393 391.46 250.393 391.067V386.261H251.59V390.719C251.59 391.199 251.636 391.644 251.728 392.054C251.819 392.464 251.965 392.822 252.165 393.13C252.37 393.432 252.631 393.666 252.949 393.834C253.273 394.001 253.664 394.084 254.122 394.084C254.543 394.084 254.913 394.012 255.231 393.866C255.554 393.72 255.824 393.513 256.04 393.243C256.261 392.968 256.428 392.636 256.541 392.248C256.655 391.854 256.711 391.412 256.711 390.921L257.553 391.107C257.553 392.002 257.396 392.755 257.083 393.364C256.771 393.974 256.339 394.435 255.789 394.748C255.239 395.061 254.608 395.217 253.896 395.217ZM256.833 394.999V392.847H256.711V386.261H257.901V394.999H256.833ZM260.324 394.999V383.106H261.513V394.999H260.324ZM264.1 394.999V383.106H265.289V394.999H264.1ZM268.961 398.882L270.652 394.295L270.676 395.654L266.849 386.261H268.111L271.25 394.117H270.732L273.629 386.261H274.842L270.15 398.882H268.961ZM281.987 395.241C281.329 395.241 280.776 395.123 280.328 394.885C279.886 394.648 279.554 394.332 279.333 393.939C279.112 393.545 279.001 393.116 279.001 392.652C279.001 392.178 279.096 391.773 279.285 391.439C279.479 391.099 279.74 390.821 280.069 390.606C280.404 390.39 280.789 390.225 281.226 390.112C281.668 390.004 282.157 389.91 282.691 389.829C283.23 389.743 283.756 389.67 284.268 389.61C284.786 389.546 285.239 389.484 285.627 389.424L285.207 389.683C285.223 388.82 285.056 388.181 284.705 387.766C284.354 387.351 283.745 387.143 282.877 387.143C282.278 387.143 281.771 387.278 281.356 387.547C280.946 387.817 280.657 388.243 280.49 388.826L279.333 388.486C279.533 387.704 279.934 387.097 280.539 386.666C281.143 386.234 281.927 386.018 282.893 386.018C283.691 386.018 284.368 386.169 284.923 386.471C285.484 386.768 285.881 387.2 286.113 387.766C286.221 388.019 286.291 388.303 286.323 388.615C286.355 388.928 286.372 389.246 286.372 389.57V394.999H285.312V392.806L285.619 392.936C285.323 393.685 284.861 394.257 284.236 394.651C283.61 395.044 282.86 395.241 281.987 395.241ZM282.124 394.214C282.68 394.214 283.165 394.114 283.58 393.914C283.996 393.715 284.33 393.443 284.584 393.097C284.837 392.747 285.002 392.353 285.077 391.916C285.142 391.636 285.177 391.328 285.182 390.994C285.188 390.654 285.19 390.401 285.19 390.233L285.643 390.468C285.239 390.522 284.799 390.576 284.325 390.63C283.856 390.684 283.392 390.746 282.933 390.816C282.48 390.886 282.07 390.97 281.704 391.067C281.455 391.137 281.215 391.237 280.983 391.366C280.752 391.49 280.56 391.657 280.409 391.868C280.263 392.078 280.191 392.34 280.191 392.652C280.191 392.906 280.253 393.151 280.377 393.389C280.506 393.626 280.711 393.823 280.992 393.979C281.277 394.136 281.655 394.214 282.124 394.214ZM291.868 395.241C291.053 395.241 290.357 395.039 289.78 394.634C289.203 394.225 288.761 393.672 288.453 392.976C288.146 392.28 287.992 391.495 287.992 390.622C287.992 389.753 288.143 388.971 288.445 388.276C288.753 387.58 289.192 387.03 289.764 386.625C290.336 386.221 291.021 386.018 291.819 386.018C292.639 386.018 293.329 386.218 293.89 386.617C294.451 387.016 294.874 387.564 295.16 388.259C295.452 388.95 295.597 389.737 295.597 390.622C295.597 391.49 295.454 392.275 295.168 392.976C294.882 393.672 294.462 394.225 293.906 394.634C293.351 395.039 292.671 395.241 291.868 395.241ZM291.989 394.133C292.609 394.133 293.122 393.982 293.526 393.68C293.931 393.378 294.233 392.962 294.432 392.434C294.632 391.9 294.731 391.296 294.731 390.622C294.731 389.937 294.632 389.333 294.432 388.809C294.233 388.281 293.931 387.868 293.526 387.572C293.127 387.275 292.623 387.127 292.013 387.127C291.388 387.127 290.87 387.28 290.46 387.588C290.05 387.895 289.745 388.313 289.546 388.842C289.351 389.37 289.254 389.964 289.254 390.622C289.254 391.285 289.354 391.884 289.554 392.418C289.759 392.946 290.063 393.364 290.468 393.672C290.872 393.979 291.379 394.133 291.989 394.133ZM294.731 394.999V388.421H294.602V383.349H295.799V394.999H294.731ZM301.459 395.241C300.644 395.241 299.949 395.039 299.372 394.634C298.795 394.225 298.352 393.672 298.045 392.976C297.737 392.28 297.584 391.495 297.584 390.622C297.584 389.753 297.735 388.971 298.037 388.276C298.344 387.58 298.784 387.03 299.355 386.625C299.927 386.221 300.612 386.018 301.41 386.018C302.23 386.018 302.921 386.218 303.481 386.617C304.042 387.016 304.466 387.564 304.752 388.259C305.043 388.95 305.189 389.737 305.189 390.622C305.189 391.49 305.046 392.275 304.76 392.976C304.474 393.672 304.053 394.225 303.498 394.634C302.942 395.039 302.263 395.241 301.459 395.241ZM301.58 394.133C302.201 394.133 302.713 393.982 303.117 393.68C303.522 393.378 303.824 392.962 304.024 392.434C304.223 391.9 304.323 391.296 304.323 390.622C304.323 389.937 304.223 389.333 304.024 388.809C303.824 388.281 303.522 387.868 303.117 387.572C302.718 387.275 302.214 387.127 301.605 387.127C300.979 387.127 300.461 387.28 300.051 387.588C299.641 387.895 299.337 388.313 299.137 388.842C298.943 389.37 298.846 389.964 298.846 390.622C298.846 391.285 298.946 391.884 299.145 392.418C299.35 392.946 299.655 393.364 300.059 393.672C300.464 393.979 300.971 394.133 301.58 394.133ZM304.323 394.999V388.421H304.193V383.349H305.391V394.999H304.323ZM311.358 395.241C310.506 395.241 309.767 395.052 309.141 394.675C308.521 394.297 308.038 393.766 307.693 393.081C307.348 392.396 307.175 391.593 307.175 390.67C307.175 389.716 307.345 388.89 307.685 388.195C308.025 387.499 308.502 386.962 309.117 386.585C309.737 386.207 310.468 386.018 311.309 386.018C312.172 386.018 312.908 386.218 313.518 386.617C314.127 387.011 314.588 387.577 314.901 388.316C315.214 389.055 315.357 389.937 315.33 390.961H314.116V390.541C314.095 389.408 313.85 388.553 313.38 387.976C312.916 387.399 312.237 387.111 311.342 387.111C310.403 387.111 309.683 387.415 309.181 388.025C308.685 388.634 308.437 389.503 308.437 390.63C308.437 391.73 308.685 392.585 309.181 393.194C309.683 393.798 310.392 394.101 311.309 394.101C311.935 394.101 312.48 393.958 312.943 393.672C313.413 393.38 313.782 392.962 314.052 392.418L315.16 392.847C314.815 393.607 314.305 394.198 313.631 394.618C312.962 395.034 312.204 395.241 311.358 395.241ZM308.016 390.961V389.966H314.691V390.961H308.016ZM320.515 395.241C319.701 395.241 319.005 395.039 318.428 394.634C317.851 394.225 317.409 393.672 317.101 392.976C316.794 392.28 316.64 391.495 316.64 390.622C316.64 389.753 316.791 388.971 317.093 388.276C317.401 387.58 317.84 387.03 318.412 386.625C318.983 386.221 319.668 386.018 320.467 386.018C321.287 386.018 321.977 386.218 322.538 386.617C323.099 387.016 323.522 387.564 323.808 388.259C324.099 388.95 324.245 389.737 324.245 390.622C324.245 391.49 324.102 392.275 323.816 392.976C323.53 393.672 323.11 394.225 322.554 394.634C321.998 395.039 321.319 395.241 320.515 395.241ZM320.637 394.133C321.257 394.133 321.769 393.982 322.174 393.68C322.578 393.378 322.88 392.962 323.08 392.434C323.279 391.9 323.379 391.296 323.379 390.622C323.379 389.937 323.279 389.333 323.08 388.809C322.88 388.281 322.578 387.868 322.174 387.572C321.775 387.275 321.27 387.127 320.661 387.127C320.035 387.127 319.517 387.28 319.108 387.588C318.698 387.895 318.393 388.313 318.193 388.842C317.999 389.37 317.902 389.964 317.902 390.622C317.902 391.285 318.002 391.884 318.201 392.418C318.406 392.946 318.711 393.364 319.116 393.672C319.52 393.979 320.027 394.133 320.637 394.133ZM323.379 394.999V388.421H323.25V383.349H324.447V394.999H323.379ZM330.822 394.999V385.614C330.822 385.387 330.833 385.163 330.854 384.942C330.881 384.721 330.932 384.511 331.008 384.311C331.083 384.106 331.202 383.918 331.364 383.745C331.542 383.551 331.736 383.411 331.946 383.324C332.157 383.233 332.375 383.173 332.602 383.146C332.834 383.119 333.06 383.106 333.281 383.106H334.398V384.109H333.362C332.909 384.109 332.569 384.22 332.343 384.441C332.122 384.662 332.011 385.01 332.011 385.484V394.999H330.822ZM329.309 387.28V386.261H334.398V387.28H329.309ZM339.033 395.217C338.51 395.217 338.052 395.136 337.658 394.974C337.27 394.812 336.938 394.594 336.663 394.319C336.393 394.044 336.175 393.731 336.007 393.38C335.84 393.025 335.719 392.65 335.643 392.256C335.568 391.857 335.53 391.46 335.53 391.067V386.261H336.727V390.719C336.727 391.199 336.773 391.644 336.865 392.054C336.957 392.464 337.102 392.822 337.302 393.13C337.507 393.432 337.768 393.666 338.087 393.834C338.41 394.001 338.801 394.084 339.26 394.084C339.68 394.084 340.05 394.012 340.368 393.866C340.692 393.72 340.961 393.513 341.177 393.243C341.398 392.968 341.565 392.636 341.679 392.248C341.792 391.854 341.849 391.412 341.849 390.921L342.69 391.107C342.69 392.002 342.534 392.755 342.221 393.364C341.908 393.974 341.476 394.435 340.926 394.748C340.376 395.061 339.745 395.217 339.033 395.217ZM341.97 394.999V392.847H341.849V386.261H343.038V394.999H341.97ZM351.61 394.999V390.541C351.61 390.055 351.564 389.61 351.472 389.206C351.38 388.796 351.232 388.44 351.027 388.138C350.827 387.831 350.566 387.593 350.242 387.426C349.924 387.259 349.536 387.175 349.077 387.175C348.657 387.175 348.284 387.248 347.961 387.394C347.643 387.539 347.373 387.75 347.152 388.025C346.936 388.294 346.772 388.623 346.658 389.012C346.545 389.4 346.488 389.842 346.488 390.339L345.647 390.152C345.647 389.257 345.803 388.505 346.116 387.895C346.429 387.286 346.861 386.825 347.411 386.512C347.961 386.199 348.592 386.043 349.304 386.043C349.827 386.043 350.283 386.124 350.671 386.285C351.065 386.447 351.396 386.666 351.666 386.941C351.941 387.216 352.162 387.531 352.33 387.887C352.497 388.238 352.618 388.613 352.694 389.012C352.769 389.405 352.807 389.799 352.807 390.193V394.999H351.61ZM345.291 394.999V386.261H346.367V388.413H346.488V394.999H345.291ZM358.233 395.241C357.418 395.241 356.723 395.039 356.146 394.634C355.569 394.225 355.126 393.672 354.819 392.976C354.511 392.28 354.358 391.495 354.358 390.622C354.358 389.753 354.509 388.971 354.811 388.276C355.118 387.58 355.558 387.03 356.129 386.625C356.701 386.221 357.386 386.018 358.184 386.018C359.004 386.018 359.695 386.218 360.255 386.617C360.816 387.016 361.24 387.564 361.526 388.259C361.817 388.95 361.963 389.737 361.963 390.622C361.963 391.49 361.82 392.275 361.534 392.976C361.248 393.672 360.827 394.225 360.272 394.634C359.716 395.039 359.037 395.241 358.233 395.241ZM358.354 394.133C358.975 394.133 359.487 393.982 359.891 393.68C360.296 393.378 360.598 392.962 360.798 392.434C360.997 391.9 361.097 391.296 361.097 390.622C361.097 389.937 360.997 389.333 360.798 388.809C360.598 388.281 360.296 387.868 359.891 387.572C359.492 387.275 358.988 387.127 358.379 387.127C357.753 387.127 357.235 387.28 356.825 387.588C356.415 387.895 356.111 388.313 355.911 388.842C355.717 389.37 355.62 389.964 355.62 390.622C355.62 391.285 355.72 391.884 355.919 392.418C356.124 392.946 356.429 393.364 356.833 393.672C357.238 393.979 357.745 394.133 358.354 394.133ZM361.097 394.999V388.421H360.967V383.349H362.165V394.999H361.097ZM367.695 395.233C366.67 395.233 365.826 395.012 365.163 394.57C364.505 394.127 364.1 393.513 363.949 392.725L365.163 392.523C365.292 393.019 365.586 393.416 366.044 393.712C366.508 394.003 367.08 394.149 367.76 394.149C368.423 394.149 368.946 394.012 369.329 393.736C369.712 393.456 369.903 393.076 369.903 392.596C369.903 392.326 369.841 392.108 369.717 391.94C369.599 391.768 369.353 391.609 368.981 391.463C368.609 391.317 368.053 391.145 367.315 390.945C366.522 390.73 365.901 390.514 365.454 390.298C365.006 390.082 364.688 389.834 364.499 389.554C364.31 389.268 364.216 388.92 364.216 388.51C364.216 388.014 364.356 387.58 364.637 387.208C364.917 386.83 365.306 386.539 365.802 386.334C366.298 386.124 366.875 386.018 367.533 386.018C368.191 386.018 368.779 386.126 369.297 386.342C369.82 386.552 370.241 386.849 370.559 387.232C370.877 387.615 371.066 388.06 371.125 388.567L369.912 388.785C369.831 388.273 369.574 387.868 369.143 387.572C368.717 387.27 368.175 387.113 367.517 387.102C366.897 387.086 366.392 387.205 366.004 387.458C365.616 387.707 365.421 388.038 365.421 388.454C365.421 388.685 365.492 388.885 365.632 389.052C365.772 389.214 366.026 389.368 366.392 389.513C366.764 389.659 367.293 389.818 367.978 389.991C368.782 390.196 369.413 390.411 369.871 390.638C370.33 390.864 370.656 391.131 370.85 391.439C371.044 391.746 371.141 392.126 371.141 392.58C371.141 393.405 370.834 394.055 370.219 394.529C369.61 394.999 368.768 395.233 367.695 395.233ZM196.136 418.999C195.645 419.101 195.16 419.141 194.68 419.12C194.205 419.098 193.779 418.996 193.401 418.812C193.029 418.629 192.746 418.343 192.552 417.955C192.396 417.631 192.309 417.305 192.293 416.976C192.282 416.642 192.277 416.261 192.277 415.835V407.834H193.458V415.787C193.458 416.153 193.461 416.461 193.466 416.709C193.477 416.952 193.534 417.167 193.636 417.356C193.83 417.718 194.138 417.933 194.558 418.003C194.984 418.074 195.51 418.057 196.136 417.955V418.999ZM190.408 411.28V410.261H196.136V411.28H190.408ZM201.19 419.241C200.322 419.241 199.58 419.044 198.965 418.651C198.35 418.257 197.878 417.712 197.549 417.016C197.22 416.321 197.056 415.522 197.056 414.622C197.056 413.705 197.223 412.901 197.558 412.211C197.892 411.52 198.367 410.984 198.981 410.601C199.602 410.213 200.338 410.018 201.19 410.018C202.064 410.018 202.808 410.215 203.423 410.609C204.043 410.997 204.515 411.539 204.839 412.235C205.168 412.925 205.332 413.721 205.332 414.622C205.332 415.539 205.168 416.345 204.839 417.041C204.51 417.731 204.035 418.27 203.415 418.659C202.795 419.047 202.053 419.241 201.19 419.241ZM201.19 418.101C202.161 418.101 202.884 417.78 203.358 417.138C203.833 416.491 204.07 415.652 204.07 414.622C204.07 413.565 203.83 412.723 203.35 412.098C202.876 411.472 202.155 411.159 201.19 411.159C200.537 411.159 199.998 411.307 199.572 411.604C199.151 411.895 198.836 412.303 198.625 412.826C198.42 413.343 198.318 413.942 198.318 414.622C198.318 415.673 198.561 416.518 199.046 417.154C199.532 417.785 200.246 418.101 201.19 418.101ZM211.602 422.882L213.293 418.295L213.317 419.654L209.491 410.261H210.753L213.892 418.117H213.374L216.27 410.261H217.484L212.791 422.882H211.602ZM222.222 419.241C221.353 419.241 220.612 419.044 219.997 418.651C219.382 418.257 218.91 417.712 218.581 417.016C218.252 416.321 218.087 415.522 218.087 414.622C218.087 413.705 218.255 412.901 218.589 412.211C218.923 411.52 219.398 410.984 220.013 410.601C220.633 410.213 221.369 410.018 222.222 410.018C223.095 410.018 223.84 410.215 224.454 410.609C225.075 410.997 225.547 411.539 225.87 412.235C226.199 412.925 226.364 413.721 226.364 414.622C226.364 415.539 226.199 416.345 225.87 417.041C225.541 417.731 225.067 418.27 224.446 418.659C223.826 419.047 223.085 419.241 222.222 419.241ZM222.222 418.101C223.192 418.101 223.915 417.78 224.39 417.138C224.864 416.491 225.102 415.652 225.102 414.622C225.102 413.565 224.862 412.723 224.382 412.098C223.907 411.472 223.187 411.159 222.222 411.159C221.569 411.159 221.03 411.307 220.604 411.604C220.183 411.895 219.867 412.303 219.657 412.826C219.452 413.343 219.35 413.942 219.35 414.622C219.35 415.673 219.592 416.518 220.078 417.154C220.563 417.785 221.278 418.101 222.222 418.101ZM231.49 419.217C230.967 419.217 230.508 419.136 230.114 418.974C229.726 418.812 229.394 418.594 229.119 418.319C228.85 418.044 228.631 417.731 228.464 417.38C228.297 417.025 228.175 416.65 228.1 416.256C228.024 415.857 227.987 415.46 227.987 415.067V410.261H229.184V414.719C229.184 415.199 229.23 415.644 229.322 416.054C229.413 416.464 229.559 416.822 229.758 417.13C229.963 417.432 230.225 417.666 230.543 417.834C230.867 418.001 231.258 418.084 231.716 418.084C232.137 418.084 232.506 418.012 232.825 417.866C233.148 417.72 233.418 417.513 233.634 417.243C233.855 416.968 234.022 416.636 234.135 416.248C234.248 415.854 234.305 415.412 234.305 414.921L235.146 415.107C235.146 416.002 234.99 416.755 234.677 417.364C234.364 417.974 233.933 418.435 233.383 418.748C232.833 419.061 232.202 419.217 231.49 419.217ZM234.426 418.999V416.847H234.305V410.261H235.494V418.999H234.426ZM237.756 418.999V410.261H238.824V412.365L238.613 412.089C238.71 411.831 238.837 411.593 238.993 411.378C239.15 411.156 239.32 410.976 239.503 410.835C239.73 410.636 239.994 410.485 240.296 410.382C240.598 410.275 240.903 410.213 241.21 410.196C241.518 410.175 241.798 410.196 242.052 410.261V411.378C241.733 411.297 241.385 411.278 241.008 411.321C240.63 411.364 240.282 411.515 239.964 411.774C239.673 412 239.455 412.273 239.309 412.591C239.163 412.904 239.066 413.238 239.018 413.594C238.969 413.945 238.945 414.293 238.945 414.638V418.999H237.756ZM248.686 418.999L246.017 410.253L247.206 410.261L249.277 417.049L251.356 410.261H252.44L254.519 417.049L256.607 410.261H257.788L255.118 418.999H254.082L251.898 412.041L249.722 418.999H248.686ZM261.255 419.241C260.597 419.241 260.045 419.123 259.597 418.885C259.155 418.648 258.823 418.332 258.602 417.939C258.381 417.545 258.27 417.116 258.27 416.652C258.27 416.178 258.364 415.773 258.553 415.439C258.747 415.099 259.009 414.821 259.338 414.606C259.672 414.39 260.058 414.225 260.495 414.112C260.937 414.004 261.425 413.91 261.959 413.829C262.499 413.743 263.024 413.67 263.537 413.61C264.055 413.546 264.508 413.484 264.896 413.424L264.475 413.683C264.491 412.82 264.324 412.181 263.974 411.766C263.623 411.351 263.014 411.143 262.145 411.143C261.547 411.143 261.04 411.278 260.624 411.547C260.214 411.817 259.926 412.243 259.759 412.826L258.602 412.486C258.801 411.704 259.203 411.097 259.807 410.666C260.411 410.234 261.196 410.018 262.161 410.018C262.96 410.018 263.637 410.169 264.192 410.471C264.753 410.768 265.149 411.2 265.381 411.766C265.489 412.019 265.559 412.303 265.592 412.615C265.624 412.928 265.64 413.246 265.64 413.57V418.999H264.58V416.806L264.888 416.936C264.591 417.685 264.13 418.257 263.504 418.651C262.879 419.044 262.129 419.241 261.255 419.241ZM261.393 418.214C261.948 418.214 262.434 418.114 262.849 417.914C263.264 417.715 263.599 417.443 263.852 417.097C264.106 416.747 264.27 416.353 264.346 415.916C264.411 415.636 264.446 415.328 264.451 414.994C264.456 414.654 264.459 414.401 264.459 414.233L264.912 414.468C264.508 414.522 264.068 414.576 263.593 414.63C263.124 414.684 262.66 414.746 262.202 414.816C261.749 414.886 261.339 414.97 260.972 415.067C260.724 415.137 260.484 415.237 260.252 415.366C260.02 415.49 259.829 415.657 259.678 415.868C259.532 416.078 259.459 416.34 259.459 416.652C259.459 416.906 259.521 417.151 259.645 417.389C259.775 417.626 259.98 417.823 260.26 417.979C260.546 418.136 260.924 418.214 261.393 418.214ZM267.908 418.999V407.106H269.098V418.999H267.908ZM271.685 418.999V407.106H272.874V418.999H271.685ZM278.997 419.241C278.145 419.241 277.406 419.052 276.78 418.675C276.16 418.297 275.677 417.766 275.332 417.081C274.987 416.396 274.814 415.593 274.814 414.67C274.814 413.716 274.984 412.89 275.324 412.195C275.664 411.499 276.141 410.962 276.756 410.585C277.376 410.207 278.107 410.018 278.948 410.018C279.811 410.018 280.547 410.218 281.157 410.617C281.766 411.011 282.227 411.577 282.54 412.316C282.853 413.055 282.996 413.937 282.969 414.961H281.755V414.541C281.734 413.408 281.488 412.553 281.019 411.976C280.555 411.399 279.876 411.111 278.981 411.111C278.042 411.111 277.322 411.415 276.82 412.025C276.324 412.634 276.076 413.503 276.076 414.63C276.076 415.73 276.324 416.585 276.82 417.194C277.322 417.798 278.031 418.101 278.948 418.101C279.574 418.101 280.119 417.958 280.582 417.672C281.052 417.38 281.421 416.962 281.691 416.418L282.799 416.847C282.454 417.607 281.944 418.198 281.27 418.618C280.601 419.034 279.843 419.241 278.997 419.241ZM275.655 414.961V413.966H282.33V414.961H275.655ZM289.521 418.999C289.031 419.101 288.545 419.141 288.065 419.12C287.591 419.098 287.165 418.996 286.787 418.812C286.415 418.629 286.132 418.343 285.937 417.955C285.781 417.631 285.695 417.305 285.679 416.976C285.668 416.642 285.662 416.261 285.662 415.835V407.834H286.844V415.787C286.844 416.153 286.846 416.461 286.852 416.709C286.862 416.952 286.919 417.167 287.022 417.356C287.216 417.718 287.523 417.933 287.944 418.003C288.37 418.074 288.896 418.057 289.521 417.955V418.999ZM283.794 411.28V410.261H289.521V411.28H283.794ZM291.469 418.999V417.615H292.853V418.999H291.469Z" fill="#666666"/>
</g>
<path d="M474.851 217.99L475.6 70.1058C475.691 52.1448 468.643 34.8832 456.007 22.1186C443.371 9.3539 426.182 2.13168 408.221 2.04072L79.1638 0.374378C60.5753 0.334792 42.7265 7.65291 29.516 20.7303C16.3055 33.8076 8.80702 51.5814 8.65835 70.1693L8.38396 124.353C7.3305 124.347 6.31806 124.761 5.56938 125.502C4.82069 126.243 4.3971 127.251 4.39176 128.305L4.25109 156.085C4.24575 157.138 4.65911 158.151 5.40025 158.899C6.14139 159.648 7.14959 160.072 8.20306 160.077L8.03559 193.147C6.98212 193.142 5.96968 193.555 5.221 194.296C4.47232 195.038 4.04872 196.046 4.04339 197.099L3.74203 256.609C3.7367 257.663 4.15006 258.675 4.89119 259.424C5.63233 260.173 6.64054 260.596 7.694 260.602L7.59352 280.443C6.54006 280.437 5.52762 280.851 4.77894 281.592C4.03025 282.333 3.60666 283.341 3.60133 284.395L3.29989 343.919C3.29456 344.972 3.70792 345.985 4.44906 346.734C5.1902 347.482 6.1984 347.906 7.25186 347.911L4.56049 879.383C4.52195 898.029 11.8633 915.933 24.9812 929.184C38.0991 942.436 55.9277 949.958 74.5733 950.108L403.412 951.774C421.357 951.811 438.588 944.746 451.341 932.121C464.094 919.497 471.333 902.338 471.477 884.394L474.295 327.778L475.619 327.785C476.673 327.79 477.685 327.377 478.434 326.636C479.183 325.895 479.606 324.887 479.611 323.833L480.127 221.985C480.131 221.463 480.031 220.945 479.834 220.462C479.637 219.979 479.347 219.539 478.98 219.168C478.613 218.797 478.176 218.503 477.695 218.301C477.213 218.099 476.697 217.994 476.175 217.992L474.851 217.99ZM298.91 31.7298C298.904 32.8744 298.559 33.9915 297.918 34.94C297.277 35.8884 296.37 36.6256 295.31 37.0582C294.25 37.4909 293.086 37.5996 291.965 37.3706C290.843 37.1416 289.815 36.5853 289.01 35.7718C288.205 34.9584 287.659 33.9245 287.441 32.8008C287.223 31.6771 287.344 30.5141 287.787 29.4588C288.231 28.4036 288.977 27.5036 289.932 26.8725C290.887 26.2414 292.007 25.9077 293.152 25.9135C294.686 25.9207 296.155 26.5371 297.235 27.627C298.315 28.717 298.918 30.1913 298.912 31.7257L298.91 31.7298ZM220.212 30.1916L271.799 30.4528C273.991 30.4639 275.764 31.8316 275.755 33.7789C275.745 35.7263 273.963 37.078 271.766 37.0669L220.18 36.8056C217.988 36.7945 216.214 35.4269 216.224 33.4775C216.234 31.5281 218.017 30.1764 220.213 30.1875L220.212 30.1916ZM446.374 878.575C446.257 901.672 429.099 921.483 406.002 921.366L76.639 919.698C53.5418 919.581 33.556 899.582 33.673 876.485L37.7809 65.2803C37.8979 42.1831 58.0669 25.3973 81.1672 25.5142L119.244 25.7071C127.29 25.7478 130.275 24.8463 130.706 35.0488C130.837 39.8305 132.703 44.4014 135.956 47.9087C139.322 51.4876 143.552 54.1397 148.241 55.6097C151.653 56.8117 155.224 57.5018 158.839 57.6576L332.89 58.539C336.438 58.557 340.164 57.4107 343.51 56.3816C348.184 55.0194 352.437 52.4948 355.871 49.0437C359.162 45.6686 361.079 41.1884 361.246 36.477C361.785 26.2753 364.757 26.9524 372.803 26.9931L410.531 27.1842C433.628 27.3011 450.6 44.276 450.483 67.3722L446.374 878.575Z" fill="#12030F"/>
<path d="M271.804 30.4405L220.216 30.1793C218.024 30.1682 216.237 31.5178 216.227 33.4652C216.217 35.4125 217.99 36.7883 220.182 36.7994L271.769 37.0607C273.961 37.0718 275.748 35.7221 275.758 33.7728C275.768 31.8234 273.996 30.4516 271.804 30.4405Z" fill="#12030F"/>
<path d="M293.145 25.9111C292.001 25.9053 290.88 26.2391 289.925 26.8702C288.971 27.5012 288.224 28.4013 287.781 29.4565C287.337 30.5117 287.217 31.6747 287.435 32.7984C287.652 33.9221 288.198 34.9561 289.003 35.7695C289.809 36.5829 290.837 37.1393 291.958 37.3683C293.08 37.5973 294.244 37.4886 295.304 37.0559C296.363 36.6233 297.271 35.8861 297.912 34.9376C298.552 33.9892 298.897 32.872 298.903 31.7275C298.907 30.9675 298.761 30.2142 298.474 29.5106C298.187 28.8071 297.764 28.1669 297.229 27.6268C296.694 27.0868 296.058 26.6573 295.358 26.3629C294.657 26.0685 293.905 25.915 293.145 25.9111Z" fill="#12030F"/>
<path d="M79.0853 40.0868C79.7992 40.0868 80.4422 40.2564 81.0143 40.5956C81.5865 40.9298 82.0371 41.3956 82.3662 41.993C82.7004 42.5854 82.8674 43.269 82.8674 44.0436V47.3777C82.8674 48.203 82.7004 48.9245 82.3662 49.5422C82.0371 50.1549 81.5738 50.6283 80.9764 50.9624C80.3789 51.2966 79.6802 51.4637 78.8802 51.4637C78.3283 51.4637 77.8068 51.37 77.3157 51.1827C76.8246 50.9903 76.3841 50.6966 75.9942 50.3017L77.3081 49.0182C77.5056 49.246 77.741 49.4258 78.0144 49.5574C78.2929 49.684 78.5815 49.7473 78.8802 49.7473C79.3055 49.7473 79.6777 49.6485 79.9966 49.4511C80.3156 49.2486 80.5637 48.9878 80.7409 48.6688C80.9181 48.3448 81.0067 47.998 81.0067 47.6283V45.8132L81.3333 46.1777C81.0245 46.5423 80.6498 46.8284 80.2093 47.036C79.7688 47.2385 79.3055 47.3397 78.8195 47.3397C78.1359 47.3397 77.5283 47.1828 76.9967 46.8689C76.4701 46.5549 76.055 46.1296 75.7512 45.5929C75.4525 45.0512 75.3031 44.4385 75.3031 43.755C75.3031 43.0715 75.4752 42.4538 75.8195 41.9019C76.1638 41.345 76.622 40.9045 77.1942 40.5804C77.7714 40.2513 78.4017 40.0868 79.0853 40.0868ZM79.0853 41.8336C78.7308 41.8336 78.4068 41.9196 78.1131 42.0918C77.8195 42.2639 77.5866 42.4968 77.4144 42.7905C77.2423 43.0791 77.1562 43.4006 77.1562 43.755C77.1562 44.1094 77.2397 44.4335 77.4068 44.7271C77.579 45.0208 77.8094 45.2537 78.098 45.4259C78.3916 45.598 78.7157 45.6841 79.0701 45.6841C79.4245 45.6841 79.7485 45.598 80.0422 45.4259C80.3359 45.2537 80.5688 45.0208 80.7409 44.7271C80.9181 44.4335 81.0067 44.1094 81.0067 43.755C81.0067 43.4107 80.9207 43.0943 80.7485 42.8057C80.5764 42.512 80.3435 42.2766 80.0498 42.0994C79.7612 41.9222 79.4397 41.8336 79.0853 41.8336ZM85.3865 50.2485V48.3726H87.2624V50.2485H85.3865ZM85.4017 45.8967V44.0208H87.2776V45.8967H85.4017ZM94.3183 51.2358V49.4283H89.4729V47.7195L92.974 40.2994H95.0626L91.5614 47.7195H94.3183V44.8714H96.1714V47.7195H97.1967V49.4283H96.1714V51.2358H94.3183ZM100.708 51.2358V42.2968L98.6571 43.55V41.5298L100.708 40.2994H102.576V51.2358H100.708Z" fill="#333333"/>
<path fill-rule="evenodd" clip-rule="evenodd" d="M412.478 40.2974H427.319C428.568 40.2974 429.021 40.4275 429.478 40.6718C429.935 40.9162 430.294 41.2747 430.538 41.7316C430.783 42.1885 430.913 42.6417 430.913 43.8914V48.2181C430.913 49.4679 430.783 49.921 430.538 50.3779C430.294 50.8348 429.935 51.1934 429.478 51.4377C429.021 51.6821 428.568 51.8122 427.319 51.8122H412.478C411.229 51.8122 410.775 51.6821 410.319 51.4377C409.862 51.1934 409.503 50.8348 409.259 50.3779C409.014 49.921 408.884 49.4679 408.884 48.2181V43.8914C408.884 42.6417 409.014 42.1885 409.259 41.7316C409.503 41.2747 409.862 40.9162 410.319 40.6718C410.775 40.4275 411.229 40.2974 412.478 40.2974ZM412.479 41.3001C411.491 41.3001 411.146 41.3667 410.791 41.5562C410.509 41.7072 410.293 41.9229 410.142 42.2053C409.953 42.5596 409.886 42.9046 409.886 43.8929V48.2196C409.886 49.2078 409.953 49.5528 410.142 49.9072C410.293 50.1895 410.509 50.4052 410.791 50.5562C411.146 50.7457 411.491 50.8123 412.479 50.8123H427.319C428.307 50.8123 428.652 50.7457 429.007 50.5562C429.289 50.4052 429.505 50.1895 429.656 49.9072C429.845 49.5528 429.912 49.2078 429.912 48.2196V43.8929C429.912 42.9046 429.845 42.5596 429.656 42.2053C429.505 41.9229 429.289 41.7072 429.007 41.5562C428.652 41.3667 428.307 41.3001 427.319 41.3001H412.479ZM431.913 47.9968V43.9916C431.913 43.9916 433.415 44.7561 433.415 45.9942C433.415 47.2324 431.913 47.9968 431.913 47.9968Z" fill="#333333"/>
<rect x="410.886" y="42.2129" width="18.0232" height="7.67655" rx="1.60206" fill="#333333"/>
<path fill-rule="evenodd" clip-rule="evenodd" d="M380.472 41.7005C380.449 41.8166 380.449 41.9562 380.449 42.2353V49.9453C380.449 50.2244 380.449 50.364 380.472 50.4801C380.567 50.9567 380.94 51.3293 381.416 51.4241C381.532 51.4472 381.672 51.4472 381.951 51.4472C382.23 51.4472 382.37 51.4472 382.486 51.4241C382.963 51.3293 383.335 50.9567 383.43 50.4801C383.453 50.364 383.453 50.2244 383.453 49.9453V42.2353C383.453 41.9562 383.453 41.8166 383.43 41.7005C383.335 41.2239 382.963 40.8513 382.486 40.7565C382.37 40.7334 382.23 40.7334 381.951 40.7334C381.672 40.7334 381.532 40.7334 381.416 40.7565C380.94 40.8513 380.567 41.2239 380.472 41.7005ZM375.738 44.638C375.738 44.3589 375.738 44.2193 375.761 44.1032C375.856 43.6266 376.229 43.254 376.705 43.1592C376.822 43.1361 376.961 43.1361 377.24 43.1361C377.519 43.1361 377.659 43.1361 377.775 43.1592C378.252 43.254 378.624 43.6266 378.719 44.1032C378.742 44.2193 378.742 44.3589 378.742 44.638V49.9449C378.742 50.224 378.742 50.3636 378.719 50.4797C378.624 50.9563 378.252 51.3289 377.775 51.4237C377.659 51.4468 377.519 51.4468 377.24 51.4468C376.961 51.4468 376.822 51.4468 376.705 51.4237C376.229 51.3289 375.856 50.9563 375.761 50.4797C375.738 50.3636 375.738 50.224 375.738 49.9449V44.638ZM371.154 46.4064C371.131 46.5225 371.131 46.662 371.131 46.9412V49.9451C371.131 50.2242 371.131 50.3638 371.154 50.4799C371.249 50.9565 371.622 51.3291 372.098 51.4239C372.214 51.447 372.354 51.447 372.633 51.447C372.912 51.447 373.052 51.447 373.168 51.4239C373.644 51.3291 374.017 50.9565 374.112 50.4799C374.135 50.3638 374.135 50.2242 374.135 49.9451V46.9412C374.135 46.662 374.135 46.5225 374.112 46.4064C374.017 45.9297 373.644 45.5571 373.168 45.4623C373.052 45.4393 372.912 45.4393 372.633 45.4393C372.354 45.4393 372.214 45.4393 372.098 45.4623C371.622 45.5571 371.249 45.9297 371.154 46.4064ZM366.352 48.4088C366.329 48.5249 366.329 48.6645 366.329 48.9436V49.9449C366.329 50.2241 366.329 50.3636 366.352 50.4797C366.447 50.9563 366.819 51.3289 367.296 51.4237C367.412 51.4468 367.551 51.4468 367.831 51.4468C368.11 51.4468 368.249 51.4468 368.365 51.4237C368.842 51.3289 369.215 50.9563 369.309 50.4797C369.332 50.3636 369.332 50.2241 369.332 49.9449V48.9436C369.332 48.6645 369.332 48.5249 369.309 48.4088C369.215 47.9322 368.842 47.5596 368.365 47.4648C368.249 47.4417 368.11 47.4417 367.831 47.4417C367.551 47.4417 367.412 47.4417 367.296 47.4648C366.819 47.5596 366.447 47.9322 366.352 48.4088Z" fill="#333333"/>
<path fill-rule="evenodd" clip-rule="evenodd" d="M396.168 42.8335C398.405 42.8336 400.557 43.6933 402.178 45.2348C402.3 45.3538 402.496 45.3523 402.616 45.2314L403.783 44.0535C403.844 43.9922 403.878 43.9091 403.877 43.8227C403.877 43.7363 403.842 43.6537 403.78 43.5931C399.525 39.5145 392.811 39.5145 388.555 43.5931C388.493 43.6536 388.458 43.7363 388.458 43.8227C388.457 43.9091 388.491 43.9922 388.552 44.0535L389.719 45.2314C389.839 45.3525 390.035 45.354 390.157 45.2348C391.778 43.6932 393.93 42.8335 396.168 42.8335ZM396.169 46.667C397.398 46.6669 398.584 47.1238 399.495 47.9489C399.618 48.066 399.812 48.0635 399.933 47.9432L401.098 46.7653C401.16 46.7035 401.194 46.6197 401.193 46.5326C401.192 46.4455 401.156 46.3624 401.094 46.3018C398.319 43.7208 394.022 43.7208 391.247 46.3018C391.184 46.3624 391.149 46.4455 391.148 46.5326C391.147 46.6198 391.181 46.7036 391.243 46.7653L392.408 47.9432C392.528 48.0635 392.723 48.066 392.846 47.9489C393.756 47.1244 394.941 46.6675 396.169 46.667ZM398.407 49.4773C398.47 49.4161 398.504 49.3319 398.502 49.2446C398.5 49.1572 398.463 49.0745 398.398 49.0159C397.11 47.9266 395.224 47.9266 393.936 49.0159C393.871 49.0744 393.833 49.1572 393.831 49.2445C393.829 49.3318 393.864 49.4161 393.926 49.4773L395.943 51.5124C396.002 51.5723 396.083 51.6059 396.167 51.6059C396.251 51.6059 396.331 51.5723 396.391 51.5124L398.407 49.4773Z" fill="#333333"/>
</g>
<defs>
<clipPath id="clip0_1_77055">
<rect width="476.197" height="949.747" fill="white" transform="translate(5.04199 -0.000488281) rotate(0.290143)"/>
</clipPath>
<clipPath id="clip1_1_77055">
<rect width="416.07" height="893.933" fill="white" transform="translate(34.2183 26.7759)"/>
</clipPath>
</defs>
</svg>
