<svg width="261" height="517" viewBox="0 0 261 517" fill="none" xmlns="http://www.w3.org/2000/svg">
<g clip-path="url(#clip0_1_64533)">
<path d="M42.7809 22.0684C43.1683 22.0684 43.5171 22.1604 43.8275 22.3445C44.1379 22.5258 44.3824 22.7785 44.561 23.1026C44.7423 23.424 44.8329 23.7949 44.8329 24.2152V26.024C44.8329 26.4718 44.7423 26.8632 44.561 27.1983C44.3824 27.5307 44.1311 27.7876 43.8069 27.9689C43.4828 28.1502 43.1037 28.2408 42.6697 28.2408C42.3703 28.2408 42.0873 28.19 41.8209 28.0883C41.5544 27.984 41.3155 27.8246 41.1039 27.6104L41.8168 26.914C41.9239 27.0376 42.0516 27.1352 42.2 27.2066C42.351 27.2752 42.5076 27.3096 42.6697 27.3096C42.9004 27.3096 43.1023 27.256 43.2754 27.1489C43.4485 27.039 43.5831 26.8975 43.6792 26.7245C43.7753 26.5487 43.8234 26.3605 43.8234 26.16V25.1752L44.0006 25.373C43.833 25.5708 43.6298 25.726 43.3908 25.8386C43.1518 25.9485 42.9004 26.0034 42.6367 26.0034C42.2659 26.0034 41.9363 25.9183 41.6478 25.7479C41.3621 25.5776 41.1369 25.3469 40.9721 25.0557C40.81 24.7618 40.729 24.4294 40.729 24.0586C40.729 23.6877 40.8224 23.3526 41.0092 23.0532C41.196 22.751 41.4446 22.512 41.755 22.3362C42.0681 22.1577 42.4101 22.0684 42.7809 22.0684ZM42.7809 23.0161C42.5887 23.0161 42.4129 23.0628 42.2535 23.1562C42.0942 23.2496 41.9679 23.376 41.8745 23.5353C41.7811 23.6919 41.7344 23.8663 41.7344 24.0586C41.7344 24.2509 41.7797 24.4267 41.8703 24.586C41.9637 24.7453 42.0887 24.8717 42.2453 24.9651C42.4046 25.0585 42.5804 25.1052 42.7727 25.1052C42.965 25.1052 43.1408 25.0585 43.3001 24.9651C43.4594 24.8717 43.5858 24.7453 43.6792 24.586C43.7753 24.4267 43.8234 24.2509 43.8234 24.0586C43.8234 23.8718 43.7767 23.7001 43.6833 23.5435C43.5899 23.3842 43.4636 23.2565 43.3042 23.1603C43.1477 23.0642 42.9732 23.0161 42.7809 23.0161ZM46.1996 27.5815V26.5638H47.2173V27.5815H46.1996ZM46.2078 25.2205V24.2028H47.2256V25.2205H46.2078ZM51.0454 28.1172V27.1365H48.4166V26.2094L50.3161 22.1838H51.4492L49.5497 26.2094H51.0454V24.6643H52.0508V26.2094H52.607V27.1365H52.0508V28.1172H51.0454ZM54.5119 28.1172V23.2675L53.3994 23.9473V22.8513L54.5119 22.1838H55.5255V28.1172H54.5119Z" fill="#333333"/>
<path fill-rule="evenodd" clip-rule="evenodd" d="M223.659 21.8711H231.71C232.388 21.8711 232.634 21.9417 232.882 22.0743C233.13 22.2068 233.324 22.4014 233.457 22.6492C233.59 22.8971 233.66 23.143 233.66 23.821V26.1684C233.66 26.8464 233.59 27.0923 233.457 27.3402C233.324 27.588 233.13 27.7826 232.882 27.9151C232.634 28.0477 232.388 28.1183 231.71 28.1183H223.659C222.981 28.1183 222.735 28.0477 222.487 27.9151C222.239 27.7826 222.045 27.588 221.912 27.3402C221.78 27.0923 221.709 26.8464 221.709 26.1684V23.821C221.709 23.143 221.78 22.8971 221.912 22.6492C222.045 22.4014 222.239 22.2068 222.487 22.0743C222.735 21.9417 222.981 21.8711 223.659 21.8711ZM223.659 22.4141C223.123 22.4141 222.936 22.4502 222.744 22.553C222.59 22.635 222.473 22.7519 222.391 22.9052C222.289 23.0974 222.252 23.2846 222.252 23.8207V26.1681C222.252 26.7043 222.289 26.8915 222.391 27.0837C222.473 27.2369 222.59 27.3539 222.744 27.4358C222.936 27.5387 223.123 27.5748 223.659 27.5748H231.71C232.247 27.5748 232.434 27.5387 232.626 27.4358C232.779 27.3539 232.896 27.2369 232.978 27.0837C233.081 26.8915 233.117 26.7043 233.117 26.1681V23.8207C233.117 23.2846 233.081 23.0974 232.978 22.9052C232.896 22.7519 232.779 22.635 232.626 22.553C232.434 22.4502 232.247 22.4141 231.71 22.4141H223.659ZM235.017 24.9615C235.017 25.6332 234.203 26.0479 234.203 26.0479V23.875C234.203 23.875 235.017 24.2897 235.017 24.9615Z" fill="#333333"/>
<rect x="222.795" y="22.9062" width="9.77824" height="4.16481" rx="0.869177" fill="#333333"/>
<path fill-rule="evenodd" clip-rule="evenodd" d="M206.293 22.6302C206.281 22.6931 206.281 22.7689 206.281 22.9203V27.1032C206.281 27.2547 206.281 27.3304 206.293 27.3934C206.345 27.652 206.547 27.8541 206.805 27.9056C206.868 27.9181 206.944 27.9181 207.096 27.9181C207.247 27.9181 207.323 27.9181 207.386 27.9056C207.644 27.8541 207.847 27.652 207.898 27.3934C207.91 27.3304 207.91 27.2547 207.91 27.1032V22.9203C207.91 22.7689 207.91 22.6931 207.898 22.6302C207.847 22.3716 207.644 22.1694 207.386 22.118C207.323 22.1055 207.247 22.1055 207.096 22.1055C206.944 22.1055 206.868 22.1055 206.805 22.118C206.547 22.1694 206.345 22.3716 206.293 22.6302ZM203.725 24.225C203.725 24.0736 203.725 23.9978 203.738 23.9349C203.789 23.6763 203.991 23.4741 204.25 23.4227C204.313 23.4102 204.389 23.4102 204.54 23.4102C204.691 23.4102 204.767 23.4102 204.83 23.4227C205.089 23.4741 205.291 23.6763 205.342 23.9349C205.355 23.9978 205.355 24.0736 205.355 24.225V27.1042C205.355 27.2556 205.355 27.3313 205.342 27.3943C205.291 27.6529 205.089 27.855 204.83 27.9065C204.767 27.919 204.691 27.919 204.54 27.919C204.389 27.919 204.313 27.919 204.25 27.9065C203.991 27.855 203.789 27.6529 203.738 27.3943C203.725 27.3313 203.725 27.2556 203.725 27.1042V24.225ZM201.238 25.1849C201.226 25.2478 201.226 25.3236 201.226 25.475V27.1047C201.226 27.2562 201.226 27.3319 201.238 27.3949C201.29 27.6535 201.492 27.8556 201.75 27.907C201.813 27.9196 201.889 27.9196 202.04 27.9196C202.192 27.9196 202.268 27.9196 202.331 27.907C202.589 27.8556 202.791 27.6535 202.843 27.3949C202.855 27.3319 202.855 27.2562 202.855 27.1047V25.475C202.855 25.3236 202.855 25.2478 202.843 25.1849C202.791 24.9263 202.589 24.7241 202.331 24.6727C202.268 24.6602 202.192 24.6602 202.04 24.6602C201.889 24.6602 201.813 24.6602 201.75 24.6727C201.492 24.7241 201.29 24.9263 201.238 25.1849ZM198.633 26.263C198.62 26.326 198.62 26.4017 198.62 26.5531V27.0964C198.62 27.2478 198.62 27.3235 198.633 27.3865C198.684 27.6451 198.886 27.8473 199.145 27.8987C199.208 27.9112 199.284 27.9112 199.435 27.9112C199.586 27.9112 199.662 27.9112 199.725 27.8987C199.984 27.8473 200.186 27.6451 200.237 27.3865C200.25 27.3235 200.25 27.2478 200.25 27.0964V26.5531C200.25 26.4017 200.25 26.326 200.237 26.263C200.186 26.0044 199.984 25.8022 199.725 25.7508C199.662 25.7383 199.586 25.7383 199.435 25.7383C199.284 25.7383 199.208 25.7383 199.145 25.7508C198.886 25.8022 198.684 26.0044 198.633 26.263Z" fill="#333333"/>
<path fill-rule="evenodd" clip-rule="evenodd" d="M214.809 23.2397C216.023 23.2397 217.19 23.7061 218.07 24.5424C218.136 24.607 218.242 24.6062 218.307 24.5406L218.941 23.9015C218.974 23.8683 218.992 23.8232 218.992 23.7764C218.992 23.7295 218.973 23.6846 218.939 23.6518C216.63 21.439 212.988 21.439 210.679 23.6518C210.645 23.6846 210.626 23.7294 210.626 23.7763C210.626 23.8232 210.644 23.8683 210.677 23.9015L211.31 24.5406C211.376 24.6063 211.482 24.6071 211.548 24.5424C212.428 23.706 213.595 23.2396 214.809 23.2397ZM214.81 25.3226C215.477 25.3225 216.12 25.5704 216.614 26.0181C216.681 26.0816 216.786 26.0802 216.851 26.015L217.484 25.3759C217.517 25.3424 217.536 25.2969 217.535 25.2496C217.535 25.2024 217.515 25.1573 217.481 25.1245C215.976 23.7241 213.645 23.7241 212.139 25.1245C212.105 25.1573 212.086 25.2024 212.085 25.2497C212.085 25.2969 212.104 25.3424 212.137 25.3759L212.769 26.015C212.834 26.0802 212.94 26.0816 213.007 26.0181C213.501 25.5707 214.143 25.3228 214.81 25.3226ZM216.023 26.8459C216.057 26.8127 216.076 26.767 216.075 26.7196C216.074 26.6723 216.053 26.6274 216.018 26.5956C215.319 26.0046 214.296 26.0046 213.597 26.5956C213.562 26.6273 213.542 26.6722 213.541 26.7196C213.54 26.767 213.558 26.8127 213.592 26.8459L214.686 27.95C214.718 27.9825 214.762 28.0008 214.808 28.0008C214.853 28.0008 214.897 27.9825 214.929 27.95L216.023 26.8459Z" fill="#333333"/>
<g clip-path="url(#clip1_1_64533)">
<rect width="225.733" height="484.991" transform="translate(18.4385 14.5273)" fill="white"/>
<ellipse cx="131.179" cy="298.831" rx="15.0406" ry="15.0406" fill="#F22E5D"/>
<rect opacity="0.3" x="126.934" y="299.438" width="1.21296" height="8.49068" rx="0.606478" transform="rotate(-90 126.934 299.438)" fill="white"/>
<path d="M130.751 302.041C130.514 302.278 130.514 302.662 130.751 302.899C130.987 303.135 131.371 303.135 131.608 302.899L135.247 299.26C135.477 299.03 135.485 298.66 135.265 298.421L131.93 294.782C131.703 294.535 131.32 294.519 131.073 294.745C130.826 294.971 130.809 295.355 131.036 295.602L133.979 298.813L130.751 302.041Z" fill="white"/>
<path d="M121.865 314.165C124.359 315.704 127.187 316.618 130.109 316.829C133.032 317.041 135.962 316.543 138.651 315.379C141.34 314.214 143.708 312.418 145.554 310.141C147.399 307.865 148.667 305.177 149.251 302.306C149.835 299.434 149.716 296.464 148.905 293.649C148.095 290.833 146.616 288.254 144.595 286.133C142.574 284.011 140.07 282.409 137.297 281.463C134.523 280.517 131.563 280.254 128.666 280.698L128.804 281.597C131.556 281.176 134.368 281.425 137.003 282.324C139.637 283.223 142.016 284.745 143.936 286.76C145.856 288.776 147.261 291.225 148.031 293.9C148.801 296.575 148.914 299.397 148.36 302.125C147.805 304.853 146.6 307.406 144.847 309.569C143.094 311.731 140.844 313.438 138.29 314.544C135.735 315.65 132.951 316.123 130.175 315.922C127.399 315.721 124.712 314.853 122.343 313.391L121.865 314.165Z" fill="#F22E5D"/>
<path d="M90.6232 335.392V328.168H93.6079C93.6781 328.168 93.7684 328.171 93.8788 328.178C93.9891 328.182 94.0911 328.192 94.1847 328.208C94.6028 328.272 94.9472 328.411 95.2181 328.625C95.4923 328.839 95.6946 329.11 95.8251 329.437C95.9588 329.762 96.0257 330.123 96.0257 330.521C96.0257 330.915 95.9588 331.277 95.8251 331.604C95.6913 331.929 95.4873 332.198 95.2131 332.412C94.9422 332.626 94.5994 332.765 94.1847 332.828C94.0911 332.842 93.9874 332.852 93.8737 332.858C93.7634 332.865 93.6748 332.868 93.6079 332.868H91.8321V335.392H90.6232ZM91.8321 331.74H93.5577C93.6246 331.74 93.6998 331.736 93.7834 331.73C93.867 331.723 93.944 331.71 94.0142 331.69C94.2148 331.639 94.372 331.551 94.4857 331.424C94.6028 331.297 94.6847 331.153 94.7315 330.992C94.7817 330.832 94.8068 330.675 94.8068 330.521C94.8068 330.367 94.7817 330.21 94.7315 330.049C94.6847 329.885 94.6028 329.74 94.4857 329.613C94.372 329.486 94.2148 329.397 94.0142 329.347C93.944 329.327 93.867 329.315 93.7834 329.312C93.6998 329.305 93.6246 329.302 93.5577 329.302H91.8321V331.74ZM97.0307 335.392V329.974H98.0992V331.293L97.9688 331.123C98.0356 330.942 98.1243 330.778 98.2346 330.631C98.3483 330.481 98.4838 330.357 98.6409 330.26C98.7747 330.17 98.9218 330.099 99.0824 330.049C99.2462 329.996 99.4134 329.964 99.584 329.954C99.7545 329.941 99.9201 329.947 100.081 329.974V331.103C99.9201 331.056 99.7345 331.041 99.5238 331.058C99.3165 331.074 99.1292 331.133 98.962 331.233C98.7948 331.323 98.6577 331.439 98.5506 331.579C98.447 331.72 98.3701 331.88 98.3199 332.061C98.2697 332.238 98.2446 332.43 98.2446 332.638V335.392H97.0307ZM103.333 335.542C102.791 335.542 102.318 335.42 101.913 335.176C101.508 334.932 101.194 334.596 100.97 334.168C100.749 333.736 100.639 333.241 100.639 332.683C100.639 332.114 100.753 331.616 100.98 331.188C101.207 330.76 101.523 330.425 101.928 330.185C102.333 329.944 102.801 329.824 103.333 329.824C103.878 329.824 104.353 329.946 104.757 330.19C105.162 330.434 105.476 330.772 105.7 331.203C105.924 331.631 106.036 332.124 106.036 332.683C106.036 333.245 105.923 333.741 105.695 334.173C105.471 334.601 105.157 334.937 104.752 335.181C104.348 335.422 103.874 335.542 103.333 335.542ZM103.333 334.408C103.814 334.408 104.172 334.248 104.406 333.927C104.64 333.606 104.757 333.191 104.757 332.683C104.757 332.158 104.639 331.74 104.401 331.429C104.164 331.114 103.808 330.957 103.333 330.957C103.008 330.957 102.741 331.031 102.53 331.178C102.323 331.322 102.169 331.524 102.069 331.785C101.968 332.042 101.918 332.342 101.918 332.683C101.918 333.208 102.037 333.628 102.274 333.942C102.515 334.253 102.868 334.408 103.333 334.408ZM109.494 335.542C108.936 335.542 108.459 335.418 108.065 335.171C107.67 334.92 107.367 334.579 107.157 334.148C106.949 333.716 106.844 333.228 106.841 332.683C106.844 332.128 106.953 331.636 107.167 331.208C107.384 330.777 107.692 330.439 108.09 330.195C108.488 329.947 108.961 329.824 109.509 329.824C110.125 329.824 110.645 329.979 111.069 330.29C111.497 330.598 111.777 331.019 111.907 331.554L110.703 331.88C110.61 331.589 110.454 331.364 110.237 331.203C110.019 331.039 109.772 330.957 109.494 330.957C109.18 330.957 108.921 331.032 108.717 331.183C108.513 331.33 108.362 331.534 108.265 331.795C108.168 332.056 108.12 332.352 108.12 332.683C108.12 333.198 108.235 333.614 108.466 333.932C108.697 334.25 109.039 334.408 109.494 334.408C109.815 334.408 110.068 334.335 110.252 334.188C110.439 334.041 110.579 333.828 110.673 333.551L111.907 333.827C111.74 334.378 111.447 334.803 111.029 335.101C110.611 335.395 110.1 335.542 109.494 335.542ZM115.228 335.542C114.68 335.542 114.198 335.423 113.784 335.186C113.369 334.948 113.045 334.619 112.811 334.198C112.58 333.776 112.464 333.291 112.464 332.743C112.464 332.151 112.578 331.638 112.806 331.203C113.033 330.765 113.349 330.425 113.754 330.185C114.158 329.944 114.626 329.824 115.158 329.824C115.72 329.824 116.197 329.956 116.588 330.22C116.982 330.481 117.275 330.85 117.466 331.328C117.656 331.807 117.728 332.37 117.681 333.019H116.482V332.577C116.479 331.989 116.375 331.559 116.171 331.288C115.967 331.017 115.646 330.882 115.208 330.882C114.713 330.882 114.346 331.036 114.105 331.343C113.864 331.648 113.744 332.094 113.744 332.683C113.744 333.231 113.864 333.656 114.105 333.957C114.346 334.258 114.697 334.408 115.158 334.408C115.456 334.408 115.712 334.343 115.926 334.213C116.143 334.079 116.31 333.887 116.427 333.636L117.621 333.997C117.414 334.485 117.093 334.865 116.658 335.136C116.227 335.407 115.75 335.542 115.228 335.542ZM113.362 333.019V332.106H117.089V333.019H113.362ZM121.264 335.542C120.715 335.542 120.234 335.423 119.819 335.186C119.404 334.948 119.08 334.619 118.846 334.198C118.615 333.776 118.5 333.291 118.5 332.743C118.5 332.151 118.613 331.638 118.841 331.203C119.068 330.765 119.384 330.425 119.789 330.185C120.193 329.944 120.662 329.824 121.193 329.824C121.755 329.824 122.232 329.956 122.623 330.22C123.018 330.481 123.31 330.85 123.501 331.328C123.691 331.807 123.763 332.37 123.717 333.019H122.518V332.577C122.514 331.989 122.411 331.559 122.207 331.288C122.003 331.017 121.682 330.882 121.244 330.882C120.749 330.882 120.381 331.036 120.14 331.343C119.899 331.648 119.779 332.094 119.779 332.683C119.779 333.231 119.899 333.656 120.14 333.957C120.381 334.258 120.732 334.408 121.193 334.408C121.491 334.408 121.747 334.343 121.961 334.213C122.178 334.079 122.345 333.887 122.463 333.636L123.656 333.997C123.449 334.485 123.128 334.865 122.693 335.136C122.262 335.407 121.785 335.542 121.264 335.542ZM119.398 333.019V332.106H123.125V333.019H119.398ZM127.008 335.542C126.51 335.542 126.075 335.417 125.704 335.166C125.332 334.915 125.045 334.574 124.841 334.143C124.637 333.711 124.535 333.225 124.535 332.683C124.535 332.134 124.637 331.646 124.841 331.218C125.048 330.787 125.341 330.447 125.719 330.2C126.097 329.949 126.541 329.824 127.053 329.824C127.568 329.824 127.999 329.949 128.347 330.2C128.698 330.447 128.964 330.787 129.145 331.218C129.325 331.649 129.416 332.138 129.416 332.683C129.416 333.221 129.325 333.708 129.145 334.143C128.964 334.574 128.695 334.915 128.337 335.166C127.979 335.417 127.536 335.542 127.008 335.542ZM127.193 334.459C127.518 334.459 127.779 334.385 127.976 334.238C128.177 334.087 128.322 333.878 128.412 333.611C128.506 333.343 128.553 333.034 128.553 332.683C128.553 332.328 128.506 332.019 128.412 331.755C128.322 331.487 128.18 331.28 127.986 331.133C127.792 330.982 127.541 330.907 127.234 330.907C126.909 330.907 126.642 330.987 126.431 331.148C126.22 331.305 126.065 331.519 125.965 331.79C125.864 332.057 125.814 332.355 125.814 332.683C125.814 333.014 125.863 333.315 125.959 333.586C126.06 333.853 126.212 334.066 126.416 334.223C126.62 334.38 126.879 334.459 127.193 334.459ZM128.553 335.392V331.589H128.402V328.168H129.621V335.392H128.553ZM136.212 335.392C135.854 335.458 135.503 335.487 135.158 335.477C134.817 335.47 134.511 335.408 134.24 335.291C133.969 335.171 133.764 334.982 133.623 334.724C133.499 334.49 133.434 334.251 133.428 334.007C133.421 333.763 133.418 333.487 133.418 333.179V328.469H134.621V333.109C134.621 333.327 134.623 333.517 134.626 333.681C134.633 333.845 134.668 333.979 134.732 334.082C134.852 334.283 135.044 334.395 135.309 334.418C135.573 334.442 135.874 334.428 136.212 334.378V335.392ZM132.434 330.922V329.974H136.212V330.922H132.434ZM139.495 335.542C138.953 335.542 138.48 335.42 138.075 335.176C137.671 334.932 137.356 334.596 137.132 334.168C136.912 333.736 136.801 333.241 136.801 332.683C136.801 332.114 136.915 331.616 137.142 331.188C137.37 330.76 137.686 330.425 138.09 330.185C138.495 329.944 138.963 329.824 139.495 329.824C140.04 329.824 140.515 329.946 140.92 330.19C141.324 330.434 141.639 330.772 141.863 331.203C142.087 331.631 142.199 332.124 142.199 332.683C142.199 333.245 142.085 333.741 141.858 334.173C141.634 334.601 141.319 334.937 140.915 335.181C140.51 335.422 140.037 335.542 139.495 335.542ZM139.495 334.408C139.977 334.408 140.334 334.248 140.568 333.927C140.803 333.606 140.92 333.191 140.92 332.683C140.92 332.158 140.801 331.74 140.563 331.429C140.326 331.114 139.97 330.957 139.495 330.957C139.171 330.957 138.903 331.031 138.692 331.178C138.485 331.322 138.331 331.524 138.231 331.785C138.131 332.042 138.08 332.342 138.08 332.683C138.08 333.208 138.199 333.628 138.437 333.942C138.677 334.253 139.03 334.408 139.495 334.408ZM149.06 335.392V332.783C149.06 332.613 149.048 332.424 149.025 332.216C149.001 332.009 148.946 331.81 148.859 331.619C148.775 331.425 148.648 331.267 148.478 331.143C148.311 331.019 148.083 330.957 147.796 330.957C147.642 330.957 147.49 330.982 147.339 331.032C147.189 331.083 147.051 331.17 146.928 331.293C146.807 331.414 146.71 331.581 146.637 331.795C146.563 332.006 146.526 332.276 146.526 332.608L145.809 332.302C145.809 331.84 145.898 331.422 146.075 331.047C146.256 330.673 146.52 330.375 146.868 330.155C147.215 329.931 147.643 329.819 148.152 329.819C148.553 329.819 148.884 329.885 149.145 330.019C149.406 330.153 149.613 330.323 149.767 330.531C149.921 330.738 150.034 330.959 150.108 331.193C150.182 331.427 150.228 331.649 150.249 331.86C150.272 332.067 150.284 332.236 150.284 332.367V335.392H149.06ZM145.302 335.392V328.168H146.381V331.97H146.526V335.392H145.302ZM153.985 335.542C153.444 335.542 152.97 335.42 152.566 335.176C152.161 334.932 151.847 334.596 151.623 334.168C151.402 333.736 151.292 333.241 151.292 332.683C151.292 332.114 151.405 331.616 151.633 331.188C151.86 330.76 152.176 330.425 152.581 330.185C152.986 329.944 153.454 329.824 153.985 329.824C154.531 329.824 155.005 329.946 155.41 330.19C155.815 330.434 156.129 330.772 156.353 331.203C156.577 331.631 156.689 332.124 156.689 332.683C156.689 333.245 156.575 333.741 156.348 334.173C156.124 334.601 155.81 334.937 155.405 335.181C155 335.422 154.527 335.542 153.985 335.542ZM153.985 334.408C154.467 334.408 154.825 334.248 155.059 333.927C155.293 333.606 155.41 333.191 155.41 332.683C155.41 332.158 155.291 331.74 155.054 331.429C154.816 331.114 154.46 330.957 153.985 330.957C153.661 330.957 153.393 331.031 153.183 331.178C152.975 331.322 152.822 331.524 152.721 331.785C152.621 332.042 152.571 332.342 152.571 332.683C152.571 333.208 152.69 333.628 152.927 333.942C153.168 334.253 153.521 334.408 153.985 334.408ZM164.301 335.392V332.101C164.301 331.73 164.209 331.44 164.025 331.233C163.841 331.022 163.592 330.917 163.277 330.917C163.083 330.917 162.909 330.962 162.756 331.053C162.602 331.139 162.48 331.27 162.389 331.444C162.299 331.614 162.254 331.818 162.254 332.056L161.717 331.74C161.714 331.365 161.797 331.036 161.968 330.752C162.142 330.464 162.376 330.24 162.67 330.079C162.965 329.919 163.292 329.839 163.653 329.839C164.252 329.839 164.71 330.019 165.028 330.38C165.349 330.738 165.509 331.21 165.509 331.795V335.392H164.301ZM157.784 335.392V329.974H158.853V331.654H159.003V335.392H157.784ZM161.05 335.392V332.116C161.05 331.738 160.958 331.444 160.774 331.233C160.59 331.022 160.339 330.917 160.022 330.917C159.714 330.917 159.467 331.022 159.279 331.233C159.095 331.444 159.003 331.718 159.003 332.056L158.462 331.695C158.462 331.343 158.549 331.027 158.722 330.747C158.896 330.466 159.13 330.245 159.425 330.084C159.722 329.921 160.055 329.839 160.423 329.839C160.828 329.839 161.165 329.926 161.436 330.099C161.71 330.27 161.914 330.504 162.048 330.802C162.185 331.096 162.254 331.429 162.254 331.8V335.392H161.05ZM169.193 335.542C168.644 335.542 168.163 335.423 167.748 335.186C167.333 334.948 167.009 334.619 166.775 334.198C166.544 333.776 166.429 333.291 166.429 332.743C166.429 332.151 166.542 331.638 166.77 331.203C166.997 330.765 167.313 330.425 167.718 330.185C168.123 329.944 168.591 329.824 169.122 329.824C169.684 329.824 170.161 329.956 170.552 330.22C170.947 330.481 171.239 330.85 171.43 331.328C171.621 331.807 171.692 332.37 171.646 333.019H170.447V332.577C170.443 331.989 170.34 331.559 170.136 331.288C169.932 331.017 169.611 330.882 169.173 330.882C168.678 330.882 168.31 331.036 168.069 331.343C167.828 331.648 167.708 332.094 167.708 332.683C167.708 333.231 167.828 333.656 168.069 333.957C168.31 334.258 168.661 334.408 169.122 334.408C169.42 334.408 169.676 334.343 169.89 334.213C170.107 334.079 170.275 333.887 170.392 333.636L171.585 333.997C171.378 334.485 171.057 334.865 170.622 335.136C170.191 335.407 169.714 335.542 169.193 335.542ZM167.327 333.019V332.106H171.054V333.019H167.327Z" fill="#666666"/>
<ellipse opacity="0.3" cx="131.304" cy="144.439" rx="26.1265" ry="26.1265" fill="#26C165"/>
<path d="M143.764 133.51C144.749 132.455 146.402 132.398 147.457 133.382C148.512 134.367 148.569 136.02 147.584 137.075L129.296 156.67C128.341 157.693 126.749 157.782 125.686 156.871L116.541 149.033C115.446 148.094 115.319 146.445 116.258 145.349C117.197 144.253 118.846 144.127 119.942 145.066L127.185 151.274L143.764 133.51Z" fill="#26C165"/>
<path d="M98.8293 192.136C98.0267 192.136 97.3019 191.995 96.6548 191.715C96.0127 191.429 95.4835 191.022 95.0671 190.496C94.6558 189.964 94.3949 189.332 94.2846 188.599L96.4215 188.283C96.572 188.905 96.883 189.384 97.3545 189.721C97.8261 190.057 98.3628 190.225 98.9648 190.225C99.3009 190.225 99.6269 190.172 99.9429 190.067C100.259 189.961 100.517 189.806 100.718 189.6C100.924 189.394 101.026 189.141 101.026 188.84C101.026 188.73 101.009 188.624 100.974 188.524C100.944 188.419 100.891 188.321 100.816 188.231C100.741 188.14 100.633 188.055 100.492 187.975C100.357 187.895 100.184 187.822 99.973 187.757L97.1589 186.929C96.9482 186.869 96.7024 186.784 96.4215 186.673C96.1456 186.563 95.8772 186.405 95.6164 186.199C95.3555 185.993 95.1373 185.723 94.9618 185.386C94.7912 185.045 94.7059 184.616 94.7059 184.1C94.7059 183.372 94.889 182.768 95.2552 182.286C95.6214 181.805 96.1105 181.446 96.7225 181.21C97.3345 180.975 98.0117 180.859 98.7541 180.864C99.5015 180.874 100.169 181.002 100.756 181.248C101.342 181.494 101.834 181.852 102.23 182.324C102.627 182.791 102.913 183.362 103.088 184.04L100.876 184.416C100.796 184.065 100.648 183.769 100.432 183.528C100.216 183.287 99.958 183.104 99.657 182.979C99.3611 182.853 99.05 182.786 98.724 182.775C98.4029 182.765 98.0995 182.811 97.8135 182.911C97.5326 183.006 97.3019 183.147 97.1213 183.332C96.9457 183.518 96.8579 183.739 96.8579 183.994C96.8579 184.23 96.9307 184.423 97.0761 184.574C97.2216 184.719 97.4047 184.837 97.6254 184.927C97.8461 185.018 98.0719 185.093 98.3026 185.153L100.184 185.665C100.465 185.74 100.776 185.84 101.117 185.966C101.458 186.086 101.784 186.257 102.095 186.478C102.411 186.693 102.669 186.979 102.87 187.335C103.076 187.691 103.178 188.143 103.178 188.69C103.178 189.272 103.056 189.781 102.81 190.217C102.569 190.649 102.243 191.007 101.832 191.293C101.42 191.574 100.954 191.785 100.432 191.925C99.9154 192.066 99.3811 192.136 98.8293 192.136ZM107.857 192.151C107.22 192.151 106.701 192.043 106.3 191.827C105.898 191.612 105.585 191.338 105.359 191.007C105.138 190.676 104.98 190.333 104.885 189.976C104.79 189.615 104.732 189.287 104.712 188.991C104.692 188.695 104.682 188.479 104.682 188.344V183.784H106.759V187.621C106.759 187.807 106.769 188.045 106.789 188.336C106.809 188.622 106.871 188.91 106.977 189.201C107.082 189.492 107.253 189.736 107.488 189.931C107.729 190.127 108.068 190.225 108.504 190.225C108.68 190.225 108.868 190.197 109.069 190.142C109.269 190.087 109.457 189.981 109.633 189.826C109.808 189.665 109.951 189.432 110.062 189.126C110.177 188.815 110.235 188.409 110.235 187.907L111.409 188.464C111.409 189.106 111.278 189.708 111.017 190.27C110.757 190.832 110.363 191.286 109.836 191.632C109.314 191.978 108.655 192.151 107.857 192.151ZM110.491 191.91V189.216H110.235V183.784H112.297V191.91H110.491ZM117.981 192.136C117.138 192.136 116.416 191.948 115.814 191.572C115.212 191.195 114.751 190.684 114.43 190.037C114.109 189.389 113.948 188.66 113.948 187.847C113.948 187.024 114.114 186.289 114.445 185.642C114.781 184.995 115.252 184.486 115.859 184.115C116.466 183.744 117.184 183.558 118.011 183.558C118.969 183.558 119.772 183.801 120.419 184.288C121.071 184.769 121.488 185.429 121.668 186.267L119.621 186.809C119.501 186.387 119.29 186.059 118.989 185.823C118.693 185.587 118.357 185.469 117.981 185.469C117.55 185.469 117.196 185.575 116.92 185.785C116.644 185.991 116.441 186.274 116.311 186.636C116.18 186.992 116.115 187.395 116.115 187.847C116.115 188.554 116.271 189.129 116.582 189.57C116.898 190.006 117.364 190.225 117.981 190.225C118.443 190.225 118.794 190.119 119.035 189.909C119.275 189.698 119.456 189.397 119.576 189.006L121.668 189.442C121.437 190.305 121.001 190.97 120.359 191.436C119.717 191.903 118.924 192.136 117.981 192.136ZM126.534 192.136C125.692 192.136 124.969 191.948 124.367 191.572C123.765 191.195 123.304 190.684 122.983 190.037C122.662 189.389 122.501 188.66 122.501 187.847C122.501 187.024 122.667 186.289 122.998 185.642C123.334 184.995 123.805 184.486 124.412 184.115C125.019 183.744 125.737 183.558 126.564 183.558C127.523 183.558 128.325 183.801 128.972 184.288C129.624 184.769 130.041 185.429 130.221 186.267L128.175 186.809C128.054 186.387 127.844 186.059 127.543 185.823C127.247 185.587 126.911 185.469 126.534 185.469C126.103 185.469 125.749 185.575 125.473 185.785C125.197 185.991 124.994 186.274 124.864 186.636C124.733 186.992 124.668 187.395 124.668 187.847C124.668 188.554 124.824 189.129 125.135 189.57C125.451 190.006 125.917 190.225 126.534 190.225C126.996 190.225 127.347 190.119 127.588 189.909C127.829 189.698 128.009 189.397 128.129 189.006L130.221 189.442C129.991 190.305 129.554 190.97 128.912 191.436C128.27 191.903 127.477 192.136 126.534 192.136ZM135.283 192.136C134.45 192.136 133.716 191.958 133.078 191.602C132.446 191.24 131.95 190.746 131.589 190.119C131.232 189.487 131.054 188.765 131.054 187.952C131.054 187.064 131.23 186.292 131.581 185.635C131.932 184.978 132.416 184.468 133.033 184.107C133.65 183.741 134.36 183.558 135.163 183.558C136.015 183.558 136.74 183.759 137.337 184.16C137.934 184.561 138.376 185.126 138.662 185.853C138.947 186.58 139.048 187.436 138.963 188.419H136.938V187.666C136.938 186.839 136.806 186.244 136.54 185.883C136.279 185.517 135.85 185.334 135.253 185.334C134.556 185.334 134.042 185.547 133.71 185.973C133.384 186.395 133.221 187.019 133.221 187.847C133.221 188.604 133.384 189.191 133.71 189.608C134.042 190.019 134.526 190.225 135.163 190.225C135.564 190.225 135.908 190.137 136.194 189.961C136.479 189.786 136.698 189.532 136.848 189.201L138.895 189.788C138.589 190.531 138.105 191.108 137.443 191.519C136.785 191.93 136.066 192.136 135.283 192.136ZM132.589 188.419V186.899H137.977V188.419H132.589ZM143.837 192.136C142.814 192.136 141.986 191.905 141.354 191.444C140.727 190.977 140.346 190.32 140.21 189.472L142.302 189.156C142.387 189.537 142.575 189.836 142.866 190.052C143.162 190.267 143.536 190.375 143.987 190.375C144.359 190.375 144.644 190.305 144.845 190.164C145.046 190.019 145.146 189.818 145.146 189.563C145.146 189.402 145.106 189.274 145.026 189.179C144.945 189.078 144.765 188.981 144.484 188.885C144.208 188.79 143.777 188.665 143.19 188.509C142.528 188.339 141.998 188.148 141.602 187.937C141.206 187.727 140.92 187.476 140.744 187.185C140.569 186.889 140.481 186.533 140.481 186.116C140.481 185.595 140.614 185.143 140.88 184.762C141.146 184.376 141.519 184.08 142.001 183.874C142.487 183.663 143.059 183.558 143.716 183.558C144.354 183.558 144.918 183.656 145.409 183.851C145.901 184.047 146.297 184.326 146.598 184.687C146.904 185.048 147.092 185.474 147.163 185.966L145.071 186.342C145.036 186.041 144.905 185.803 144.68 185.627C144.454 185.452 144.148 185.349 143.762 185.319C143.385 185.294 143.082 185.344 142.851 185.469C142.625 185.595 142.513 185.775 142.513 186.011C142.513 186.151 142.56 186.269 142.656 186.365C142.756 186.46 142.959 186.558 143.265 186.658C143.576 186.758 144.048 186.889 144.68 187.049C145.297 187.21 145.791 187.398 146.162 187.614C146.538 187.824 146.812 188.08 146.982 188.381C147.153 188.677 147.238 189.036 147.238 189.457C147.238 190.29 146.937 190.945 146.335 191.421C145.733 191.898 144.9 192.136 143.837 192.136ZM152.067 192.136C151.043 192.136 150.216 191.905 149.584 191.444C148.957 190.977 148.575 190.32 148.44 189.472L150.532 189.156C150.617 189.537 150.805 189.836 151.096 190.052C151.392 190.267 151.766 190.375 152.217 190.375C152.588 190.375 152.874 190.305 153.075 190.164C153.276 190.019 153.376 189.818 153.376 189.563C153.376 189.402 153.336 189.274 153.256 189.179C153.175 189.078 152.995 188.981 152.714 188.885C152.438 188.79 152.007 188.665 151.42 188.509C150.757 188.339 150.228 188.148 149.832 187.937C149.436 187.727 149.15 187.476 148.974 187.185C148.799 186.889 148.711 186.533 148.711 186.116C148.711 185.595 148.844 185.143 149.11 184.762C149.375 184.376 149.749 184.08 150.231 183.874C150.717 183.663 151.289 183.558 151.946 183.558C152.583 183.558 153.148 183.656 153.639 183.851C154.131 184.047 154.527 184.326 154.828 184.687C155.134 185.048 155.322 185.474 155.392 185.966L153.301 186.342C153.266 186.041 153.135 185.803 152.909 185.627C152.684 185.452 152.378 185.349 151.991 185.319C151.615 185.294 151.312 185.344 151.081 185.469C150.855 185.595 150.742 185.775 150.742 186.011C150.742 186.151 150.79 186.269 150.885 186.365C150.986 186.46 151.189 186.558 151.495 186.658C151.806 186.758 152.277 186.889 152.909 187.049C153.526 187.21 154.021 187.398 154.392 187.614C154.768 187.824 155.041 188.08 155.212 188.381C155.382 188.677 155.468 189.036 155.468 189.457C155.468 190.29 155.167 190.945 154.565 191.421C153.963 191.898 153.13 192.136 152.067 192.136ZM157.798 191.91V183.814C157.798 183.608 157.803 183.375 157.813 183.114C157.824 182.853 157.864 182.59 157.934 182.324C158.009 182.058 158.145 181.817 158.34 181.602C158.591 181.321 158.862 181.13 159.153 181.03C159.449 180.924 159.735 180.869 160.011 180.864C160.287 180.854 160.522 180.849 160.718 180.849H161.726V182.505H160.793C160.472 182.505 160.234 182.587 160.078 182.753C159.923 182.913 159.845 183.107 159.845 183.332V191.91H157.798ZM156.519 185.364V183.784H161.726V185.364H156.519ZM165.951 192.151C165.314 192.151 164.795 192.043 164.393 191.827C163.992 191.612 163.679 191.338 163.453 191.007C163.232 190.676 163.074 190.333 162.979 189.976C162.884 189.615 162.826 189.287 162.806 188.991C162.786 188.695 162.776 188.479 162.776 188.344V183.784H164.852V187.621C164.852 187.807 164.863 188.045 164.883 188.336C164.903 188.622 164.965 188.91 165.071 189.201C165.176 189.492 165.347 189.736 165.582 189.931C165.823 190.127 166.162 190.225 166.598 190.225C166.774 190.225 166.962 190.197 167.162 190.142C167.363 190.087 167.551 189.981 167.727 189.826C167.902 189.665 168.045 189.432 168.156 189.126C168.271 188.815 168.329 188.409 168.329 187.907L169.503 188.464C169.503 189.106 169.372 189.708 169.111 190.27C168.85 190.832 168.457 191.286 167.93 191.632C167.408 191.978 166.749 192.151 165.951 192.151ZM168.585 191.91V189.216H168.329V183.784H170.39V191.91H168.585ZM172.644 191.91V180.849H174.691V191.91H172.644Z" fill="#232323"/>
<path d="M65.5902 214.539V211.91L63.4614 208.219H64.37L65.9852 211.014L67.5961 208.219H68.5046L66.3802 211.91V214.539H65.5902ZM70.4327 214.671C69.9616 214.671 69.5549 214.564 69.2125 214.35C68.8731 214.137 68.6112 213.841 68.4269 213.464C68.2425 213.086 68.1503 212.653 68.1503 212.164C68.1503 211.667 68.244 211.231 68.4312 210.856C68.6185 210.482 68.8833 210.191 69.2257 209.983C69.5681 209.772 69.9704 209.667 70.4327 209.667C70.9068 209.667 71.315 209.774 71.6574 209.987C71.9997 210.198 72.2616 210.492 72.443 210.87C72.6274 211.244 72.7195 211.676 72.7195 212.164C72.7195 212.659 72.6274 213.095 72.443 213.472C72.2587 213.847 71.9953 214.141 71.653 214.355C71.3106 214.565 70.9039 214.671 70.4327 214.671ZM70.4327 213.929C70.9243 213.929 71.2901 213.765 71.5301 213.437C71.77 213.11 71.89 212.685 71.89 212.164C71.89 211.629 71.7685 211.203 71.5257 210.887C71.2828 210.568 70.9185 210.409 70.4327 210.409C70.1021 210.409 69.83 210.483 69.6163 210.633C69.4027 210.782 69.2433 210.988 69.1379 211.252C69.0326 211.515 68.9799 211.819 68.9799 212.164C68.9799 212.697 69.1028 213.124 69.3486 213.446C69.5944 213.768 69.9558 213.929 70.4327 213.929ZM75.4855 214.662C75.1812 214.662 74.9193 214.614 74.6999 214.517C74.4833 214.421 74.3034 214.292 74.16 214.131C74.0166 213.97 73.9039 213.791 73.822 213.595C73.7401 213.399 73.6815 213.199 73.6464 212.994C73.6142 212.789 73.5982 212.598 73.5982 212.419V209.799H74.3882V212.173C74.3882 212.396 74.4087 212.611 74.4497 212.818C74.4906 213.026 74.5594 213.214 74.656 213.38C74.7555 213.547 74.8871 213.679 75.051 213.775C75.2178 213.872 75.4255 213.92 75.6743 213.92C75.8703 213.92 76.0488 213.887 76.2098 213.819C76.3707 213.752 76.5082 213.652 76.6223 213.521C76.7365 213.386 76.8243 213.216 76.8857 213.012C76.9472 212.807 76.9779 212.568 76.9779 212.296L77.4914 212.454C77.4914 212.911 77.408 213.304 77.2412 213.635C77.0774 213.966 76.8447 214.22 76.5433 214.399C76.2449 214.574 75.8923 214.662 75.4855 214.662ZM77.0657 214.539V213.271H76.9779V209.799H77.7636V214.539H77.0657ZM84.1252 214.539V212.164C84.1252 211.939 84.1047 211.723 84.0638 211.515C84.0257 211.307 83.957 211.121 83.8575 210.957C83.7609 210.791 83.6292 210.659 83.4625 210.562C83.2986 210.466 83.0908 210.418 82.8392 210.418C82.6431 210.418 82.4646 210.451 82.3037 210.519C82.1457 210.583 82.0096 210.682 81.8955 210.817C81.7814 210.952 81.6921 211.121 81.6277 211.326C81.5663 211.528 81.5356 211.767 81.5356 212.042L81.022 211.884C81.022 211.424 81.104 211.031 81.2678 210.703C81.4346 210.372 81.6672 210.119 81.9657 209.944C82.2671 209.765 82.6212 209.676 83.0279 209.676C83.3352 209.676 83.5971 209.724 83.8136 209.821C84.0301 209.917 84.2101 210.046 84.3535 210.207C84.4969 210.365 84.6095 210.543 84.6914 210.742C84.7734 210.938 84.8304 211.139 84.8626 211.344C84.8977 211.546 84.9153 211.737 84.9153 211.919V214.539H84.1252ZM80.7455 214.539V208.219H81.4478V211.708H81.5356V214.539H80.7455ZM87.4039 214.671C87.0499 214.671 86.7529 214.606 86.5129 214.478C86.2759 214.346 86.0959 214.173 85.973 213.96C85.8531 213.746 85.7931 213.512 85.7931 213.257C85.7931 213.009 85.8399 212.794 85.9335 212.612C86.0301 212.428 86.1647 212.276 86.3373 212.156C86.51 212.033 86.7163 211.936 86.9562 211.866C87.1815 211.805 87.4332 211.752 87.7112 211.708C87.9921 211.661 88.2759 211.619 88.5627 211.581C88.8495 211.543 89.1172 211.506 89.3659 211.471L89.085 211.633C89.0938 211.212 89.0089 210.9 88.8304 210.698C88.6549 210.497 88.3505 210.396 87.9175 210.396C87.6307 210.396 87.3791 210.461 87.1625 210.593C86.9489 210.722 86.7982 210.933 86.7104 211.225L85.9686 211.001C86.0828 210.586 86.3037 210.26 86.6314 210.023C86.9592 209.786 87.3908 209.667 87.9263 209.667C88.3564 209.667 88.7251 209.745 89.0323 209.9C89.3425 210.052 89.5649 210.283 89.6995 210.593C89.7668 210.739 89.8092 210.899 89.8268 211.072C89.8444 211.241 89.8531 211.42 89.8531 211.607V214.539H89.1596V213.402L89.322 213.508C89.1435 213.891 88.8934 214.181 88.5715 214.377C88.2525 214.573 87.8633 214.671 87.4039 214.671ZM87.5224 214.017C87.8034 214.017 88.0462 213.967 88.2511 213.868C88.4588 213.765 88.6256 213.632 88.7514 213.468C88.8773 213.301 88.9592 213.12 88.9972 212.924C89.0411 212.778 89.0645 212.615 89.0675 212.437C89.0733 212.255 89.0762 212.116 89.0762 212.02L89.3484 212.138C89.0938 212.173 88.8436 212.207 88.5978 212.239C88.352 212.271 88.1194 212.306 87.8999 212.344C87.6805 212.38 87.4829 212.422 87.3074 212.472C87.1786 212.513 87.0572 212.565 86.9431 212.63C86.8319 212.694 86.7412 212.778 86.6709 212.88C86.6036 212.979 86.57 213.104 86.57 213.253C86.57 213.382 86.6022 213.505 86.6665 213.622C86.7338 213.739 86.8363 213.834 86.9738 213.907C87.1142 213.98 87.2971 214.017 87.5224 214.017ZM92.1045 214.539L90.384 209.799H91.174L92.504 213.543L93.8295 209.799H94.624L92.9034 214.539H92.1045ZM97.3006 214.671C96.8353 214.671 96.4286 214.568 96.0804 214.363C95.7351 214.156 95.4659 213.868 95.2728 213.499C95.0796 213.127 94.9831 212.694 94.9831 212.2C94.9831 211.682 95.0782 211.234 95.2684 210.856C95.4586 210.476 95.7234 210.183 96.0628 209.979C96.4052 209.771 96.8061 209.667 97.2655 209.667C97.7425 209.667 98.1477 209.777 98.4813 209.996C98.8178 210.216 99.0695 210.529 99.2363 210.935C99.406 211.342 99.4791 211.827 99.4557 212.388H98.6657V212.107C98.6569 211.525 98.5384 211.091 98.3101 210.804C98.0819 210.514 97.7425 210.369 97.2918 210.369C96.809 210.369 96.4418 210.524 96.1901 210.835C95.9385 211.145 95.8126 211.589 95.8126 212.169C95.8126 212.728 95.9385 213.161 96.1901 213.468C96.4418 213.775 96.8002 213.929 97.2655 213.929C97.5786 213.929 97.8507 213.857 98.0819 213.714C98.3131 213.571 98.4945 213.364 98.6262 213.095L99.3767 213.354C99.1924 213.772 98.9144 214.097 98.5428 214.328C98.1741 214.557 97.76 214.671 97.3006 214.671ZM95.5493 212.388V211.761H99.0519V212.388H95.5493ZM103.981 214.666C103.416 214.666 102.953 214.543 102.59 214.298C102.23 214.049 102.009 213.702 101.927 213.257L102.726 213.13C102.79 213.388 102.938 213.592 103.169 213.745C103.4 213.894 103.687 213.968 104.029 213.968C104.354 213.968 104.609 213.901 104.793 213.767C104.978 213.632 105.07 213.449 105.07 213.218C105.07 213.083 105.039 212.975 104.978 212.893C104.916 212.808 104.789 212.729 104.596 212.656C104.405 212.583 104.117 212.495 103.731 212.393C103.313 212.282 102.983 212.166 102.743 212.046C102.503 211.926 102.332 211.787 102.23 211.629C102.127 211.471 102.076 211.279 102.076 211.054C102.076 210.776 102.152 210.533 102.304 210.325C102.457 210.115 102.669 209.952 102.941 209.838C103.216 209.724 103.535 209.667 103.898 209.667C104.258 209.667 104.58 209.724 104.863 209.838C105.147 209.952 105.376 210.115 105.548 210.325C105.724 210.533 105.828 210.776 105.86 211.054L105.061 211.199C105.023 210.944 104.9 210.744 104.692 210.598C104.487 210.451 104.223 210.374 103.898 210.365C103.591 210.353 103.34 210.407 103.147 210.527C102.957 210.647 102.862 210.81 102.862 211.014C102.862 211.129 102.897 211.227 102.967 211.309C103.04 211.391 103.174 211.468 103.367 211.541C103.563 211.614 103.847 211.698 104.218 211.791C104.637 211.897 104.966 212.012 105.206 212.138C105.449 212.261 105.621 212.407 105.724 212.577C105.826 212.744 105.877 212.95 105.877 213.196C105.877 213.652 105.709 214.012 105.373 214.276C105.036 214.536 104.572 214.666 103.981 214.666ZM108.645 214.662C108.341 214.662 108.079 214.614 107.859 214.517C107.643 214.421 107.463 214.292 107.319 214.131C107.176 213.97 107.063 213.791 106.981 213.595C106.9 213.399 106.841 213.199 106.806 212.994C106.774 212.789 106.758 212.598 106.758 212.419V209.799H107.548V212.173C107.548 212.396 107.568 212.611 107.609 212.818C107.65 213.026 107.719 213.214 107.815 213.38C107.915 213.547 108.047 213.679 108.21 213.775C108.377 213.872 108.585 213.92 108.834 213.92C109.03 213.92 109.208 213.887 109.369 213.819C109.53 213.752 109.668 213.652 109.782 213.521C109.896 213.386 109.984 213.216 110.045 213.012C110.107 212.807 110.137 212.568 110.137 212.296L110.651 212.454C110.651 212.911 110.567 213.304 110.401 213.635C110.237 213.966 110.004 214.22 109.703 214.399C109.404 214.574 109.052 214.662 108.645 214.662ZM110.225 214.539V213.271H110.137V209.799H110.923V214.539H110.225ZM114.149 214.671C113.669 214.671 113.261 214.564 112.924 214.35C112.591 214.134 112.336 213.837 112.161 213.459C111.985 213.082 111.894 212.652 111.889 212.169C111.894 211.674 111.987 211.24 112.165 210.865C112.347 210.488 112.605 210.194 112.942 209.983C113.278 209.772 113.684 209.667 114.158 209.667C114.658 209.667 115.088 209.79 115.448 210.036C115.811 210.281 116.054 210.618 116.177 211.045L115.404 211.278C115.305 211.003 115.142 210.789 114.917 210.637C114.695 210.485 114.439 210.409 114.149 210.409C113.824 210.409 113.556 210.485 113.346 210.637C113.135 210.786 112.979 210.994 112.876 211.26C112.774 211.524 112.721 211.827 112.718 212.169C112.724 212.696 112.845 213.121 113.082 213.446C113.322 213.768 113.678 213.929 114.149 213.929C114.459 213.929 114.717 213.859 114.922 213.718C115.126 213.575 115.281 213.369 115.387 213.099L116.177 213.306C116.013 213.748 115.757 214.086 115.409 214.32C115.061 214.554 114.641 214.671 114.149 214.671ZM118.941 214.671C118.461 214.671 118.053 214.564 117.717 214.35C117.383 214.134 117.128 213.837 116.953 213.459C116.777 213.082 116.687 212.652 116.681 212.169C116.687 211.674 116.779 211.24 116.957 210.865C117.139 210.488 117.398 210.194 117.734 209.983C118.071 209.772 118.476 209.667 118.95 209.667C119.45 209.667 119.88 209.79 120.24 210.036C120.603 210.281 120.846 210.618 120.969 211.045L120.197 211.278C120.097 211.003 119.935 210.789 119.709 210.637C119.487 210.485 119.231 210.409 118.941 210.409C118.616 210.409 118.349 210.485 118.138 210.637C117.927 210.786 117.771 210.994 117.668 211.26C117.566 211.524 117.513 211.827 117.51 212.169C117.516 212.696 117.638 213.121 117.875 213.446C118.115 213.768 118.47 213.929 118.941 213.929C119.251 213.929 119.509 213.859 119.714 213.718C119.919 213.575 120.074 213.369 120.179 213.099L120.969 213.306C120.805 213.748 120.549 214.086 120.201 214.32C119.853 214.554 119.433 214.671 118.941 214.671ZM123.79 214.671C123.325 214.671 122.918 214.568 122.57 214.363C122.225 214.156 121.956 213.868 121.763 213.499C121.569 213.127 121.473 212.694 121.473 212.2C121.473 211.682 121.568 211.234 121.758 210.856C121.948 210.476 122.213 210.183 122.553 209.979C122.895 209.771 123.296 209.667 123.755 209.667C124.232 209.667 124.638 209.777 124.971 209.996C125.308 210.216 125.559 210.529 125.726 210.935C125.896 211.342 125.969 211.827 125.946 212.388H125.155V212.107C125.147 211.525 125.028 211.091 124.8 210.804C124.572 210.514 124.232 210.369 123.782 210.369C123.299 210.369 122.932 210.524 122.68 210.835C122.428 211.145 122.302 211.589 122.302 212.169C122.302 212.728 122.428 213.161 122.68 213.468C122.932 213.775 123.29 213.929 123.755 213.929C124.068 213.929 124.341 213.857 124.572 213.714C124.803 213.571 124.984 213.364 125.116 213.095L125.867 213.354C125.682 213.772 125.404 214.097 125.033 214.328C124.664 214.557 124.25 214.671 123.79 214.671ZM122.039 212.388V211.761H125.542V212.388H122.039ZM128.714 214.666C128.149 214.666 127.685 214.543 127.322 214.298C126.962 214.049 126.741 213.702 126.659 213.257L127.458 213.13C127.523 213.388 127.67 213.592 127.902 213.745C128.133 213.894 128.42 213.968 128.762 213.968C129.087 213.968 129.341 213.901 129.526 213.767C129.71 213.632 129.802 213.449 129.802 213.218C129.802 213.083 129.771 212.975 129.71 212.893C129.649 212.808 129.521 212.729 129.328 212.656C129.138 212.583 128.85 212.495 128.463 212.393C128.045 212.282 127.716 212.166 127.476 212.046C127.236 211.926 127.065 211.787 126.962 211.629C126.86 211.471 126.809 211.279 126.809 211.054C126.809 210.776 126.885 210.533 127.037 210.325C127.189 210.115 127.401 209.952 127.673 209.838C127.948 209.724 128.267 209.667 128.63 209.667C128.99 209.667 129.312 209.724 129.596 209.838C129.88 209.952 130.108 210.115 130.281 210.325C130.456 210.533 130.56 210.776 130.592 211.054L129.793 211.199C129.755 210.944 129.632 210.744 129.425 210.598C129.22 210.451 128.955 210.374 128.63 210.365C128.323 210.353 128.073 210.407 127.88 210.527C127.689 210.647 127.594 210.81 127.594 211.014C127.594 211.129 127.629 211.227 127.7 211.309C127.773 211.391 127.906 211.468 128.099 211.541C128.295 211.614 128.579 211.698 128.951 211.791C129.369 211.897 129.698 212.012 129.938 212.138C130.181 212.261 130.354 212.407 130.456 212.577C130.559 212.744 130.61 212.95 130.61 213.196C130.61 213.652 130.442 214.012 130.105 214.276C129.768 214.536 129.305 214.666 128.714 214.666ZM133.369 214.666C132.804 214.666 132.34 214.543 131.977 214.298C131.617 214.049 131.396 213.702 131.314 213.257L132.113 213.13C132.178 213.388 132.325 213.592 132.557 213.745C132.788 213.894 133.075 213.968 133.417 213.968C133.742 213.968 133.996 213.901 134.181 213.767C134.365 213.632 134.457 213.449 134.457 213.218C134.457 213.083 134.426 212.975 134.365 212.893C134.304 212.808 134.176 212.729 133.983 212.656C133.793 212.583 133.505 212.495 133.118 212.393C132.7 212.282 132.371 212.166 132.131 212.046C131.891 211.926 131.72 211.787 131.617 211.629C131.515 211.471 131.464 211.279 131.464 211.054C131.464 210.776 131.54 210.533 131.692 210.325C131.844 210.115 132.056 209.952 132.328 209.838C132.603 209.724 132.922 209.667 133.285 209.667C133.645 209.667 133.967 209.724 134.251 209.838C134.535 209.952 134.763 210.115 134.936 210.325C135.111 210.533 135.215 210.776 135.247 211.054L134.448 211.199C134.41 210.944 134.287 210.744 134.08 210.598C133.875 210.451 133.61 210.374 133.285 210.365C132.978 210.353 132.728 210.407 132.535 210.527C132.344 210.647 132.249 210.81 132.249 211.014C132.249 211.129 132.284 211.227 132.355 211.309C132.428 211.391 132.561 211.468 132.754 211.541C132.95 211.614 133.234 211.698 133.606 211.791C134.024 211.897 134.353 212.012 134.593 212.138C134.836 212.261 135.009 212.407 135.111 212.577C135.214 212.744 135.265 212.95 135.265 213.196C135.265 213.652 135.097 214.012 134.76 214.276C134.423 214.536 133.96 214.666 133.369 214.666ZM136.685 214.539V209.54C136.685 209.417 136.691 209.292 136.702 209.167C136.714 209.038 136.74 208.914 136.781 208.794C136.822 208.671 136.89 208.558 136.983 208.456C137.092 208.336 137.21 208.251 137.339 208.201C137.468 208.148 137.598 208.116 137.73 208.104C137.864 208.093 137.991 208.087 138.111 208.087H138.713V208.736H138.155C137.924 208.736 137.751 208.794 137.637 208.908C137.523 209.019 137.466 209.189 137.466 209.417V214.539H136.685ZM135.882 210.444V209.799H138.713V210.444H135.882ZM141.213 214.662C140.909 214.662 140.647 214.614 140.427 214.517C140.211 214.421 140.031 214.292 139.887 214.131C139.744 213.97 139.631 213.791 139.549 213.595C139.467 213.399 139.409 213.199 139.374 212.994C139.342 212.789 139.326 212.598 139.326 212.419V209.799H140.116V212.173C140.116 212.396 140.136 212.611 140.177 212.818C140.218 213.026 140.287 213.214 140.383 213.38C140.483 213.547 140.614 213.679 140.778 213.775C140.945 213.872 141.153 213.92 141.402 213.92C141.598 213.92 141.776 213.887 141.937 213.819C142.098 213.752 142.236 213.652 142.35 213.521C142.464 213.386 142.552 213.216 142.613 213.012C142.675 212.807 142.705 212.568 142.705 212.296L143.219 212.454C143.219 212.911 143.135 213.304 142.969 213.635C142.805 213.966 142.572 214.22 142.271 214.399C141.972 214.574 141.62 214.662 141.213 214.662ZM142.793 214.539V213.271H142.705V209.799H143.491V214.539H142.793ZM144.808 214.539V208.087H145.589V214.539H144.808ZM146.994 214.539V208.087H147.775V214.539H146.994ZM149.75 216.646L150.668 214.153L150.681 214.89L148.609 209.799H149.43L151.054 213.894H150.773L152.296 209.799H153.091L150.51 216.646H149.75ZM157.57 214.671C157.09 214.671 156.682 214.564 156.345 214.35C156.012 214.134 155.757 213.837 155.582 213.459C155.406 213.082 155.315 212.652 155.31 212.169C155.315 211.674 155.408 211.24 155.586 210.865C155.768 210.488 156.027 210.194 156.363 209.983C156.7 209.772 157.105 209.667 157.579 209.667C158.079 209.667 158.509 209.79 158.869 210.036C159.232 210.281 159.475 210.618 159.598 211.045L158.825 211.278C158.726 211.003 158.563 210.789 158.338 210.637C158.116 210.485 157.86 210.409 157.57 210.409C157.245 210.409 156.978 210.485 156.767 210.637C156.556 210.786 156.4 210.994 156.297 211.26C156.195 211.524 156.142 211.827 156.139 212.169C156.145 212.696 156.266 213.121 156.503 213.446C156.743 213.768 157.099 213.929 157.57 213.929C157.88 213.929 158.138 213.859 158.343 213.718C158.547 213.575 158.702 213.369 158.808 213.099L159.598 213.306C159.434 213.748 159.178 214.086 158.83 214.32C158.482 214.554 158.062 214.671 157.57 214.671ZM162.384 214.671C161.913 214.671 161.506 214.564 161.164 214.35C160.825 214.137 160.563 213.841 160.378 213.464C160.194 213.086 160.102 212.653 160.102 212.164C160.102 211.667 160.195 211.231 160.383 210.856C160.57 210.482 160.835 210.191 161.177 209.983C161.519 209.772 161.922 209.667 162.384 209.667C162.858 209.667 163.266 209.774 163.609 209.987C163.951 210.198 164.213 210.492 164.394 210.87C164.579 211.244 164.671 211.676 164.671 212.164C164.671 212.659 164.579 213.095 164.394 213.472C164.21 213.847 163.947 214.141 163.604 214.355C163.262 214.565 162.855 214.671 162.384 214.671ZM162.384 213.929C162.876 213.929 163.242 213.765 163.481 213.437C163.721 213.11 163.841 212.685 163.841 212.164C163.841 211.629 163.72 211.203 163.477 210.887C163.234 210.568 162.87 210.409 162.384 210.409C162.054 210.409 161.781 210.483 161.568 210.633C161.354 210.782 161.195 210.988 161.089 211.252C160.984 211.515 160.931 211.819 160.931 212.164C160.931 212.697 161.054 213.124 161.3 213.446C161.546 213.768 161.907 213.929 162.384 213.929ZM171.304 214.539L171.308 211.506C171.308 211.152 171.213 210.875 171.023 210.677C170.836 210.475 170.591 210.374 170.29 210.374C170.114 210.374 169.948 210.415 169.79 210.497C169.632 210.576 169.503 210.701 169.403 210.874C169.304 211.044 169.254 211.262 169.254 211.528L168.842 211.361C168.836 211.025 168.904 210.731 169.048 210.479C169.194 210.224 169.393 210.027 169.645 209.886C169.896 209.746 170.18 209.676 170.496 209.676C170.991 209.676 171.38 209.826 171.664 210.128C171.948 210.426 172.09 210.829 172.09 211.335L172.085 214.539H171.304ZM165.633 214.539V209.799H166.331V211.067H166.419V214.539H165.633ZM168.473 214.539L168.477 211.537C168.477 211.174 168.384 210.89 168.196 210.685C168.009 210.478 167.76 210.374 167.45 210.374C167.143 210.374 166.894 210.479 166.704 210.69C166.514 210.9 166.419 211.18 166.419 211.528L166.006 211.282C166.006 210.975 166.079 210.7 166.226 210.457C166.372 210.214 166.571 210.024 166.822 209.886C167.074 209.746 167.359 209.676 167.678 209.676C167.997 209.676 168.275 209.743 168.512 209.878C168.749 210.012 168.932 210.205 169.061 210.457C169.19 210.706 169.254 211.003 169.254 211.348L169.25 214.539H168.473ZM175.41 214.671C174.965 214.671 174.591 214.561 174.286 214.342C173.982 214.119 173.751 213.819 173.593 213.442C173.438 213.061 173.36 212.636 173.36 212.164C173.36 211.688 173.438 211.26 173.593 210.883C173.751 210.505 173.982 210.208 174.286 209.992C174.593 209.775 174.97 209.667 175.414 209.667C175.853 209.667 176.231 209.777 176.547 209.996C176.866 210.213 177.11 210.51 177.28 210.887C177.449 211.265 177.534 211.69 177.534 212.164C177.534 212.639 177.449 213.064 177.28 213.442C177.11 213.819 176.866 214.119 176.547 214.342C176.231 214.561 175.852 214.671 175.41 214.671ZM173.228 216.646V209.799H173.926V213.288H174.014V216.646H173.228ZM175.313 213.955C175.626 213.955 175.885 213.876 176.09 213.718C176.295 213.56 176.449 213.347 176.551 213.077C176.654 212.805 176.705 212.501 176.705 212.164C176.705 211.831 176.654 211.529 176.551 211.26C176.452 210.991 176.297 210.777 176.086 210.619C175.878 210.461 175.613 210.382 175.291 210.382C174.984 210.382 174.73 210.459 174.528 210.611C174.326 210.76 174.175 210.969 174.076 211.238C173.976 211.505 173.926 211.813 173.926 212.164C173.926 212.51 173.975 212.818 174.071 213.091C174.171 213.36 174.323 213.572 174.528 213.727C174.732 213.879 174.994 213.955 175.313 213.955ZM178.584 214.539V208.087H179.366V214.539H178.584ZM182.737 214.671C182.271 214.671 181.865 214.568 181.517 214.363C181.171 214.156 180.902 213.868 180.709 213.499C180.516 213.127 180.419 212.694 180.419 212.2C180.419 211.682 180.514 211.234 180.705 210.856C180.895 210.476 181.16 210.183 181.499 209.979C181.841 209.771 182.242 209.667 182.702 209.667C183.179 209.667 183.584 209.777 183.917 209.996C184.254 210.216 184.506 210.529 184.672 210.935C184.842 211.342 184.915 211.827 184.892 212.388H184.102V212.107C184.093 211.525 183.974 211.091 183.746 210.804C183.518 210.514 183.179 210.369 182.728 210.369C182.245 210.369 181.878 210.524 181.626 210.835C181.375 211.145 181.249 211.589 181.249 212.169C181.249 212.728 181.375 213.161 181.626 213.468C181.878 213.775 182.236 213.929 182.702 213.929C183.015 213.929 183.287 213.857 183.518 213.714C183.749 213.571 183.931 213.364 184.062 213.095L184.813 213.354C184.628 213.772 184.351 214.097 183.979 214.328C183.61 214.557 183.196 214.671 182.737 214.671ZM180.985 212.388V211.761H184.488V212.388H180.985ZM188.516 214.539C188.235 214.595 187.957 214.617 187.682 214.605C187.41 214.596 187.167 214.542 186.953 214.442C186.74 214.34 186.577 214.182 186.466 213.968C186.372 213.781 186.321 213.592 186.312 213.402C186.307 213.209 186.304 212.991 186.304 212.748V208.482H187.085V212.713C187.085 212.906 187.086 213.072 187.089 213.209C187.095 213.347 187.126 213.465 187.181 213.565C187.287 213.752 187.454 213.862 187.682 213.894C187.913 213.926 188.191 213.917 188.516 213.868V214.539ZM185.342 210.444V209.799H188.516V210.444H185.342ZM191.335 214.671C190.87 214.671 190.463 214.568 190.115 214.363C189.77 214.156 189.5 213.868 189.307 213.499C189.114 213.127 189.018 212.694 189.018 212.2C189.018 211.682 189.113 211.234 189.303 210.856C189.493 210.476 189.758 210.183 190.097 209.979C190.44 209.771 190.841 209.667 191.3 209.667C191.777 209.667 192.182 209.777 192.516 209.996C192.852 210.216 193.104 210.529 193.271 210.935C193.441 211.342 193.514 211.827 193.49 212.388H192.7V212.107C192.691 211.525 192.573 211.091 192.345 210.804C192.116 210.514 191.777 210.369 191.326 210.369C190.844 210.369 190.476 210.524 190.225 210.835C189.973 211.145 189.847 211.589 189.847 212.169C189.847 212.728 189.973 213.161 190.225 213.468C190.476 213.775 190.835 213.929 191.3 213.929C191.613 213.929 191.885 213.857 192.116 213.714C192.348 213.571 192.529 213.364 192.661 213.095L193.411 213.354C193.227 213.772 192.949 214.097 192.577 214.328C192.209 214.557 191.795 214.671 191.335 214.671ZM189.584 212.388V211.761H193.087V212.388H189.584ZM196.329 214.671C195.887 214.671 195.508 214.561 195.192 214.342C194.876 214.119 194.631 213.819 194.459 213.442C194.289 213.064 194.204 212.639 194.204 212.164C194.204 211.69 194.289 211.265 194.459 210.887C194.631 210.51 194.876 210.213 195.192 209.996C195.508 209.777 195.885 209.667 196.324 209.667C196.772 209.667 197.148 209.775 197.452 209.992C197.757 210.208 197.986 210.505 198.141 210.883C198.299 211.26 198.378 211.688 198.378 212.164C198.378 212.636 198.299 213.061 198.141 213.442C197.986 213.819 197.757 214.119 197.452 214.342C197.148 214.561 196.773 214.671 196.329 214.671ZM196.425 213.955C196.744 213.955 197.006 213.879 197.211 213.727C197.416 213.572 197.566 213.36 197.663 213.091C197.762 212.818 197.812 212.51 197.812 212.164C197.812 211.813 197.762 211.505 197.663 211.238C197.566 210.969 197.417 210.76 197.215 210.611C197.013 210.459 196.757 210.382 196.447 210.382C196.125 210.382 195.859 210.461 195.648 210.619C195.441 210.777 195.285 210.991 195.183 211.26C195.084 211.529 195.034 211.831 195.034 212.164C195.034 212.501 195.085 212.805 195.187 213.077C195.29 213.347 195.443 213.56 195.648 213.718C195.856 213.876 196.115 213.955 196.425 213.955ZM197.812 214.539V211.05H197.724V208.219H198.51V214.539H197.812ZM90.954 229.646L91.8714 227.153L91.8846 227.89L89.8128 222.799H90.6336L92.2577 226.894H91.9767L93.4998 222.799H94.2943L91.7134 229.646H90.954ZM96.8669 227.671C96.3957 227.671 95.989 227.564 95.6466 227.35C95.3072 227.137 95.0453 226.841 94.861 226.464C94.6766 226.086 94.5844 225.653 94.5844 225.164C94.5844 224.667 94.6781 224.231 94.8654 223.856C95.0526 223.482 95.3174 223.191 95.6598 222.983C96.0022 222.772 96.4045 222.667 96.8669 222.667C97.3409 222.667 97.7491 222.774 98.0915 222.987C98.4338 223.198 98.6957 223.492 98.8771 223.87C99.0615 224.244 99.1537 224.676 99.1537 225.164C99.1537 225.659 99.0615 226.095 98.8771 226.472C98.6928 226.847 98.4294 227.141 98.0871 227.355C97.7447 227.565 97.338 227.671 96.8669 227.671ZM96.8669 226.929C97.3584 226.929 97.7242 226.765 97.9642 226.437C98.2041 226.11 98.3241 225.685 98.3241 225.164C98.3241 224.629 98.2026 224.203 97.9598 223.887C97.7169 223.568 97.3526 223.409 96.8669 223.409C96.5362 223.409 96.2641 223.483 96.0505 223.633C95.8368 223.782 95.6774 223.988 95.572 224.252C95.4667 224.515 95.414 224.819 95.414 225.164C95.414 225.697 95.5369 226.124 95.7827 226.446C96.0285 226.768 96.3899 226.929 96.8669 226.929ZM101.92 227.662C101.615 227.662 101.353 227.614 101.134 227.517C100.917 227.421 100.737 227.292 100.594 227.131C100.451 226.97 100.338 226.791 100.256 226.595C100.174 226.399 100.116 226.199 100.081 225.994C100.048 225.789 100.032 225.598 100.032 225.419V222.799H100.822V225.173C100.822 225.396 100.843 225.611 100.884 225.818C100.925 226.026 100.994 226.214 101.09 226.38C101.19 226.547 101.321 226.679 101.485 226.775C101.652 226.872 101.86 226.92 102.108 226.92C102.304 226.92 102.483 226.887 102.644 226.819C102.805 226.752 102.942 226.652 103.056 226.521C103.171 226.386 103.258 226.216 103.32 226.012C103.381 225.807 103.412 225.568 103.412 225.296L103.926 225.454C103.926 225.911 103.842 226.304 103.675 226.635C103.511 226.966 103.279 227.22 102.977 227.399C102.679 227.574 102.326 227.662 101.92 227.662ZM103.5 227.539V226.271H103.412V222.799H104.198V227.539H103.5ZM105.427 227.539V222.799H106.124V223.944L106.01 223.795C106.066 223.649 106.138 223.514 106.225 223.391C106.316 223.268 106.417 223.167 106.528 223.088C106.651 222.989 106.79 222.913 106.945 222.86C107.1 222.807 107.258 222.777 107.419 222.768C107.58 222.756 107.731 222.766 107.871 222.799V223.532C107.708 223.488 107.528 223.476 107.332 223.497C107.135 223.517 106.954 223.589 106.787 223.712C106.635 223.82 106.517 223.952 106.432 224.107C106.35 224.262 106.293 224.43 106.261 224.611C106.228 224.79 106.212 224.973 106.212 225.16V227.539H105.427ZM110.911 227.539V222.54C110.911 222.417 110.917 222.292 110.928 222.167C110.94 222.038 110.966 221.914 111.007 221.794C111.048 221.671 111.116 221.558 111.209 221.456C111.318 221.336 111.436 221.251 111.565 221.201C111.694 221.148 111.824 221.116 111.956 221.104C112.09 221.093 112.217 221.087 112.337 221.087H112.939V221.736H112.381C112.15 221.736 111.977 221.794 111.863 221.908C111.749 222.019 111.692 222.189 111.692 222.417V227.539H110.911ZM110.108 223.444V222.799H112.939V223.444H110.108ZM113.86 221.96V221.153H114.642V221.96H113.86ZM113.86 227.539V222.799H114.642V227.539H113.86ZM115.963 227.539V222.799H116.66V223.944L116.546 223.795C116.602 223.649 116.674 223.514 116.761 223.391C116.852 223.268 116.953 223.167 117.064 223.088C117.187 222.989 117.326 222.913 117.481 222.86C117.636 222.807 117.794 222.777 117.955 222.768C118.116 222.756 118.267 222.766 118.407 222.799V223.532C118.243 223.488 118.063 223.476 117.867 223.497C117.671 223.517 117.49 223.589 117.323 223.712C117.171 223.82 117.053 223.952 116.968 224.107C116.886 224.262 116.829 224.43 116.796 224.611C116.764 224.79 116.748 224.973 116.748 225.16V227.539H115.963ZM120.857 227.666C120.292 227.666 119.828 227.543 119.465 227.298C119.105 227.049 118.884 226.702 118.802 226.257L119.601 226.13C119.666 226.388 119.813 226.592 120.045 226.745C120.276 226.894 120.563 226.968 120.905 226.968C121.23 226.968 121.484 226.901 121.669 226.767C121.853 226.632 121.945 226.449 121.945 226.218C121.945 226.083 121.914 225.975 121.853 225.893C121.792 225.808 121.664 225.729 121.471 225.656C121.281 225.583 120.993 225.495 120.606 225.393C120.188 225.282 119.859 225.166 119.619 225.046C119.379 224.926 119.208 224.787 119.105 224.629C119.003 224.471 118.952 224.279 118.952 224.054C118.952 223.776 119.028 223.533 119.18 223.325C119.332 223.115 119.544 222.952 119.816 222.838C120.091 222.724 120.41 222.667 120.773 222.667C121.133 222.667 121.455 222.724 121.739 222.838C122.023 222.952 122.251 223.115 122.424 223.325C122.599 223.533 122.703 223.776 122.735 224.054L121.936 224.199C121.898 223.944 121.775 223.744 121.568 223.598C121.363 223.451 121.098 223.374 120.773 223.365C120.466 223.353 120.216 223.407 120.023 223.527C119.832 223.647 119.737 223.81 119.737 224.014C119.737 224.129 119.773 224.227 119.843 224.309C119.916 224.391 120.049 224.468 120.242 224.541C120.438 224.614 120.722 224.698 121.094 224.791C121.512 224.897 121.841 225.012 122.081 225.138C122.324 225.261 122.497 225.407 122.599 225.577C122.702 225.744 122.753 225.95 122.753 226.196C122.753 226.652 122.585 227.012 122.248 227.276C121.912 227.536 121.448 227.666 120.857 227.666ZM126.368 227.539C126.087 227.595 125.809 227.617 125.534 227.605C125.261 227.596 125.019 227.542 124.805 227.442C124.591 227.34 124.429 227.182 124.318 226.968C124.224 226.781 124.173 226.592 124.164 226.402C124.158 226.209 124.155 225.991 124.155 225.748V221.482H124.937V225.713C124.937 225.906 124.938 226.072 124.941 226.209C124.947 226.347 124.978 226.465 125.033 226.565C125.139 226.752 125.305 226.862 125.534 226.894C125.765 226.926 126.043 226.917 126.368 226.868V227.539ZM123.194 223.444V222.799H126.368V223.444H123.194ZM129.087 227.539V222.799H129.785V223.944L129.671 223.795C129.727 223.649 129.798 223.514 129.886 223.391C129.977 223.268 130.078 223.167 130.189 223.088C130.312 222.989 130.451 222.913 130.606 222.86C130.761 222.807 130.919 222.777 131.08 222.768C131.241 222.756 131.392 222.766 131.532 222.799V223.532C131.368 223.488 131.188 223.476 130.992 223.497C130.796 223.517 130.615 223.589 130.448 223.712C130.296 223.82 130.177 223.952 130.093 224.107C130.011 224.262 129.954 224.43 129.921 224.611C129.889 224.79 129.873 224.973 129.873 225.16V227.539H129.087ZM134.331 227.671C133.865 227.671 133.459 227.568 133.11 227.363C132.765 227.156 132.496 226.868 132.303 226.499C132.11 226.127 132.013 225.694 132.013 225.2C132.013 224.682 132.108 224.234 132.298 223.856C132.489 223.476 132.753 223.183 133.093 222.979C133.435 222.771 133.836 222.667 134.296 222.667C134.772 222.667 135.178 222.777 135.511 222.996C135.848 223.216 136.1 223.529 136.266 223.935C136.436 224.342 136.509 224.827 136.486 225.388H135.696V225.107C135.687 224.525 135.568 224.091 135.34 223.804C135.112 223.514 134.772 223.369 134.322 223.369C133.839 223.369 133.472 223.524 133.22 223.835C132.969 224.145 132.843 224.589 132.843 225.169C132.843 225.728 132.969 226.161 133.22 226.468C133.472 226.775 133.83 226.929 134.296 226.929C134.609 226.929 134.881 226.857 135.112 226.714C135.343 226.571 135.525 226.364 135.656 226.095L136.407 226.354C136.222 226.772 135.944 227.097 135.573 227.328C135.204 227.557 134.79 227.671 134.331 227.671ZM132.579 225.388V224.761H136.082V225.388H132.579ZM139.511 227.671C139.067 227.671 138.692 227.561 138.388 227.342C138.083 227.119 137.852 226.819 137.694 226.442C137.539 226.061 137.462 225.636 137.462 225.164C137.462 224.688 137.539 224.26 137.694 223.883C137.852 223.505 138.083 223.208 138.388 222.992C138.695 222.775 139.071 222.667 139.516 222.667C139.955 222.667 140.332 222.777 140.648 222.996C140.967 223.213 141.212 223.51 141.381 223.887C141.551 224.265 141.636 224.69 141.636 225.164C141.636 225.639 141.551 226.064 141.381 226.442C141.212 226.819 140.967 227.119 140.648 227.342C140.332 227.561 139.953 227.671 139.511 227.671ZM137.33 229.646V222.799H138.028V226.288H138.116V229.646H137.33ZM139.415 226.955C139.728 226.955 139.987 226.876 140.192 226.718C140.397 226.56 140.55 226.347 140.653 226.077C140.755 225.805 140.806 225.501 140.806 225.164C140.806 224.831 140.755 224.529 140.653 224.26C140.553 223.991 140.398 223.777 140.187 223.619C139.98 223.461 139.715 223.382 139.393 223.382C139.086 223.382 138.831 223.459 138.629 223.611C138.427 223.76 138.277 223.969 138.177 224.238C138.078 224.505 138.028 224.813 138.028 225.164C138.028 225.51 138.076 225.818 138.173 226.091C138.272 226.36 138.424 226.572 138.629 226.727C138.834 226.879 139.096 226.955 139.415 226.955ZM143.946 227.671C143.592 227.671 143.294 227.606 143.055 227.478C142.818 227.346 142.638 227.173 142.515 226.96C142.395 226.746 142.335 226.512 142.335 226.257C142.335 226.009 142.382 225.794 142.475 225.612C142.572 225.428 142.706 225.276 142.879 225.156C143.052 225.033 143.258 224.936 143.498 224.866C143.723 224.805 143.975 224.752 144.253 224.708C144.534 224.661 144.818 224.619 145.104 224.581C145.391 224.543 145.659 224.506 145.908 224.471L145.627 224.633C145.635 224.212 145.551 223.9 145.372 223.698C145.197 223.497 144.892 223.396 144.459 223.396C144.172 223.396 143.921 223.461 143.704 223.593C143.491 223.722 143.34 223.933 143.252 224.225L142.51 224.001C142.624 223.586 142.845 223.26 143.173 223.023C143.501 222.786 143.932 222.667 144.468 222.667C144.898 222.667 145.267 222.745 145.574 222.9C145.884 223.052 146.107 223.283 146.241 223.593C146.308 223.739 146.351 223.899 146.368 224.072C146.386 224.241 146.395 224.42 146.395 224.607V227.539H145.701V226.402L145.864 226.508C145.685 226.891 145.435 227.181 145.113 227.377C144.794 227.573 144.405 227.671 143.946 227.671ZM144.064 227.017C144.345 227.017 144.588 226.967 144.793 226.868C145 226.765 145.167 226.632 145.293 226.468C145.419 226.301 145.501 226.12 145.539 225.924C145.583 225.778 145.606 225.615 145.609 225.437C145.615 225.255 145.618 225.116 145.618 225.02L145.89 225.138C145.635 225.173 145.385 225.207 145.139 225.239C144.894 225.271 144.661 225.306 144.442 225.344C144.222 225.38 144.025 225.422 143.849 225.472C143.72 225.513 143.599 225.565 143.485 225.63C143.374 225.694 143.283 225.778 143.213 225.88C143.145 225.979 143.112 226.104 143.112 226.253C143.112 226.382 143.144 226.505 143.208 226.622C143.275 226.739 143.378 226.834 143.515 226.907C143.656 226.98 143.839 227.017 144.064 227.017ZM147.929 229.646L148.846 227.153L148.859 227.89L146.787 222.799H147.608L149.232 226.894H148.951L150.474 222.799H151.269L148.688 229.646H147.929ZM157.66 227.539L157.665 224.506C157.665 224.152 157.57 223.875 157.379 223.677C157.192 223.475 156.948 223.374 156.646 223.374C156.471 223.374 156.304 223.415 156.146 223.497C155.988 223.576 155.859 223.701 155.76 223.874C155.66 224.044 155.611 224.262 155.611 224.528L155.198 224.361C155.192 224.025 155.261 223.731 155.404 223.479C155.551 223.224 155.75 223.027 156.001 222.886C156.253 222.746 156.537 222.676 156.853 222.676C157.347 222.676 157.736 222.826 158.02 223.128C158.304 223.426 158.446 223.829 158.446 224.335L158.442 227.539H157.66ZM151.989 227.539V222.799H152.687V224.067H152.775V227.539H151.989ZM154.829 227.539L154.834 224.537C154.834 224.174 154.74 223.89 154.553 223.685C154.365 223.478 154.117 223.374 153.807 223.374C153.499 223.374 153.251 223.479 153.06 223.69C152.87 223.9 152.775 224.18 152.775 224.528L152.363 224.282C152.363 223.975 152.436 223.7 152.582 223.457C152.728 223.214 152.927 223.024 153.179 222.886C153.431 222.746 153.716 222.676 154.035 222.676C154.354 222.676 154.632 222.743 154.869 222.878C155.106 223.012 155.289 223.205 155.417 223.457C155.546 223.706 155.611 224.003 155.611 224.348L155.606 227.539H154.829ZM161.601 227.671C161.135 227.671 160.729 227.568 160.38 227.363C160.035 227.156 159.766 226.868 159.573 226.499C159.38 226.127 159.283 225.694 159.283 225.2C159.283 224.682 159.378 224.234 159.568 223.856C159.759 223.476 160.023 223.183 160.363 222.979C160.705 222.771 161.106 222.667 161.565 222.667C162.042 222.667 162.448 222.777 162.781 222.996C163.118 223.216 163.369 223.529 163.536 223.935C163.706 224.342 163.779 224.827 163.756 225.388H162.966V225.107C162.957 224.525 162.838 224.091 162.61 223.804C162.382 223.514 162.042 223.369 161.592 223.369C161.109 223.369 160.742 223.524 160.49 223.835C160.238 224.145 160.113 224.589 160.113 225.169C160.113 225.728 160.238 226.161 160.49 226.468C160.742 226.775 161.1 226.929 161.565 226.929C161.879 226.929 162.151 226.857 162.382 226.714C162.613 226.571 162.794 226.364 162.926 226.095L163.677 226.354C163.492 226.772 163.214 227.097 162.843 227.328C162.474 227.557 162.06 227.671 161.601 227.671ZM159.849 225.388V224.761H163.352V225.388H159.849ZM167.98 227.539V225.164C167.98 224.939 167.959 224.723 167.918 224.515C167.88 224.307 167.811 224.121 167.712 223.957C167.615 223.791 167.484 223.659 167.317 223.562C167.153 223.466 166.945 223.418 166.694 223.418C166.498 223.418 166.319 223.451 166.158 223.519C166 223.583 165.864 223.682 165.75 223.817C165.636 223.952 165.547 224.121 165.482 224.326C165.421 224.528 165.39 224.767 165.39 225.042L164.876 224.884C164.876 224.424 164.958 224.031 165.122 223.703C165.289 223.372 165.522 223.119 165.82 222.944C166.122 222.765 166.476 222.676 166.882 222.676C167.19 222.676 167.452 222.724 167.668 222.821C167.885 222.917 168.065 223.046 168.208 223.207C168.351 223.365 168.464 223.543 168.546 223.742C168.628 223.938 168.685 224.139 168.717 224.344C168.752 224.546 168.77 224.737 168.77 224.919V227.539H167.98ZM164.6 227.539V222.799H165.302V224.067H165.39V227.539H164.6ZM172.558 227.539C172.277 227.595 171.999 227.617 171.724 227.605C171.452 227.596 171.209 227.542 170.995 227.442C170.781 227.34 170.619 227.182 170.508 226.968C170.414 226.781 170.363 226.592 170.354 226.402C170.348 226.209 170.345 225.991 170.345 225.748V221.482H171.127V225.713C171.127 225.906 171.128 226.072 171.131 226.209C171.137 226.347 171.168 226.465 171.223 226.565C171.329 226.752 171.495 226.862 171.724 226.894C171.955 226.926 172.233 226.917 172.558 226.868V227.539ZM169.384 223.444V222.799H172.558V223.444H169.384Z" fill="#666666"/>
</g>
<path d="M257.498 118.272L257.904 38.0393C257.954 28.2948 254.13 18.9298 247.274 12.0046C240.419 5.07926 231.093 1.16095 221.349 1.1116L42.8234 0.20755C32.7384 0.186073 23.0548 4.15642 15.8877 11.2513C8.72051 18.3463 4.6523 27.9892 4.57164 38.0738L4.42278 67.4702C3.85124 67.4673 3.30195 67.6916 2.89576 68.0937C2.48958 68.4958 2.25976 69.0428 2.25687 69.6143L2.18054 84.6861C2.17765 85.2576 2.40191 85.8069 2.80401 86.2131C3.2061 86.6193 3.75309 86.8491 4.32463 86.852L4.23377 104.794C3.66223 104.791 3.11295 105.015 2.70676 105.417C2.30057 105.819 2.07076 106.366 2.06786 106.938L1.90436 139.224C1.90147 139.796 2.12573 140.345 2.52783 140.751C2.92992 141.157 3.47691 141.387 4.04845 141.39L3.99394 152.155C3.4224 152.152 2.87311 152.376 2.46692 152.778C2.06073 153.18 1.83092 153.727 1.82803 154.299L1.66449 186.593C1.6616 187.164 1.88586 187.714 2.28795 188.12C2.69005 188.526 3.23703 188.756 3.80858 188.759L2.34841 477.101C2.3275 487.217 6.31044 496.931 13.4274 504.12C20.5443 511.31 30.217 515.391 40.3329 515.472L218.74 516.376C228.476 516.396 237.824 512.563 244.743 505.714C251.662 498.864 255.589 489.555 255.667 479.82L257.196 177.836L257.915 177.84C258.486 177.842 259.036 177.618 259.442 177.216C259.848 176.814 260.078 176.267 260.081 175.695L260.36 120.439C260.362 120.156 260.308 119.875 260.201 119.613C260.095 119.351 259.937 119.112 259.738 118.911C259.539 118.71 259.302 118.55 259.041 118.44C258.78 118.331 258.499 118.274 258.216 118.273L257.498 118.272ZM162.043 17.219C162.04 17.84 161.853 18.4461 161.505 18.9606C161.158 19.4752 160.665 19.8751 160.091 20.1099C159.516 20.3446 158.884 20.4036 158.276 20.2793C157.667 20.1551 157.109 19.8533 156.672 19.4119C156.236 18.9706 155.939 18.4097 155.821 17.8C155.703 17.1904 155.769 16.5594 156.009 15.9869C156.25 15.4144 156.655 14.9261 157.173 14.5837C157.691 14.2413 158.299 14.0603 158.92 14.0634C159.752 14.0673 160.549 14.4017 161.135 14.9931C161.721 15.5844 162.048 16.3843 162.045 17.2168L162.043 17.219ZM119.347 16.3845L147.335 16.5262C148.524 16.5322 149.486 17.2742 149.481 18.3307C149.476 19.3872 148.509 20.1206 147.317 20.1145L119.329 19.9728C118.14 19.9668 117.178 19.2248 117.184 18.1672C117.189 17.1096 118.156 16.3762 119.348 16.3822L119.347 16.3845ZM242.048 476.663C241.985 489.194 232.676 499.942 220.145 499.879L41.4536 498.974C28.9225 498.91 18.0795 488.06 18.143 475.529L20.3717 35.4213C20.4352 22.8903 31.3776 13.7834 43.9103 13.8468L64.5685 13.9514C68.9337 13.9735 70.5531 13.4844 70.7869 19.0197C70.8579 21.6139 71.8702 24.0938 73.635 25.9966C75.4612 27.9383 77.7565 29.3772 80.3 30.1747C82.1513 30.8268 84.089 31.2012 86.0501 31.2858L180.479 31.7639C182.404 31.7737 184.425 31.1518 186.24 30.5935C188.776 29.8544 191.084 28.4848 192.947 26.6124C194.733 24.7813 195.772 22.3506 195.863 19.7945C196.156 14.2597 197.768 14.6271 202.133 14.6492L222.602 14.7528C235.133 14.8163 244.341 24.0258 244.277 36.5563L242.048 476.663Z" fill="#12030F"/>
<path d="M147.337 16.5198L119.348 16.3781C118.159 16.3721 117.19 17.1043 117.184 18.1608C117.179 19.2173 118.141 19.9637 119.33 19.9698L147.318 20.1115C148.507 20.1175 149.477 19.3853 149.482 18.3277C149.488 17.2701 148.526 16.5259 147.337 16.5198Z" fill="#12030F"/>
<path d="M158.916 14.0667C158.295 14.0635 157.687 14.2446 157.169 14.587C156.651 14.9294 156.246 15.4177 156.006 15.9902C155.765 16.5627 155.7 17.1936 155.818 17.8033C155.936 18.4129 156.232 18.9739 156.669 19.4152C157.106 19.8565 157.664 20.1584 158.272 20.2826C158.88 20.4068 159.512 20.3478 160.087 20.1131C160.662 19.8784 161.154 19.4785 161.502 18.9639C161.849 18.4493 162.037 17.8432 162.04 17.2223C162.042 16.8099 161.963 16.4013 161.807 16.0195C161.651 15.6378 161.422 15.2905 161.131 14.9975C160.841 14.7045 160.496 14.4715 160.116 14.3118C159.736 14.152 159.328 14.0688 158.916 14.0667Z" fill="#12030F"/>
<path d="M42.7809 22.0684C43.1683 22.0684 43.5171 22.1604 43.8275 22.3445C44.1379 22.5258 44.3824 22.7785 44.561 23.1026C44.7423 23.424 44.8329 23.7949 44.8329 24.2152V26.024C44.8329 26.4718 44.7423 26.8632 44.561 27.1983C44.3824 27.5307 44.1311 27.7876 43.8069 27.9689C43.4828 28.1502 43.1037 28.2408 42.6697 28.2408C42.3703 28.2408 42.0873 28.19 41.8209 28.0883C41.5544 27.984 41.3155 27.8246 41.1039 27.6104L41.8168 26.914C41.9239 27.0376 42.0516 27.1352 42.2 27.2066C42.351 27.2752 42.5076 27.3096 42.6697 27.3096C42.9004 27.3096 43.1023 27.256 43.2754 27.1489C43.4485 27.039 43.5831 26.8975 43.6792 26.7245C43.7753 26.5487 43.8234 26.3605 43.8234 26.16V25.1752L44.0006 25.373C43.833 25.5708 43.6298 25.726 43.3908 25.8386C43.1518 25.9485 42.9004 26.0034 42.6367 26.0034C42.2659 26.0034 41.9363 25.9183 41.6478 25.7479C41.3621 25.5776 41.1369 25.3469 40.9721 25.0557C40.81 24.7618 40.729 24.4294 40.729 24.0586C40.729 23.6877 40.8224 23.3526 41.0092 23.0532C41.196 22.751 41.4446 22.512 41.755 22.3362C42.0681 22.1577 42.4101 22.0684 42.7809 22.0684ZM42.7809 23.0161C42.5887 23.0161 42.4129 23.0628 42.2535 23.1562C42.0942 23.2496 41.9679 23.376 41.8745 23.5353C41.7811 23.6919 41.7344 23.8663 41.7344 24.0586C41.7344 24.2509 41.7797 24.4267 41.8703 24.586C41.9637 24.7453 42.0887 24.8717 42.2453 24.9651C42.4046 25.0585 42.5804 25.1052 42.7727 25.1052C42.965 25.1052 43.1408 25.0585 43.3001 24.9651C43.4594 24.8717 43.5858 24.7453 43.6792 24.586C43.7753 24.4267 43.8234 24.2509 43.8234 24.0586C43.8234 23.8718 43.7767 23.7001 43.6833 23.5435C43.5899 23.3842 43.4636 23.2565 43.3042 23.1603C43.1477 23.0642 42.9732 23.0161 42.7809 23.0161ZM46.1996 27.5815V26.5638H47.2173V27.5815H46.1996ZM46.2078 25.2205V24.2028H47.2256V25.2205H46.2078ZM51.0454 28.1172V27.1365H48.4166V26.2094L50.3161 22.1838H51.4492L49.5497 26.2094H51.0454V24.6643H52.0508V26.2094H52.607V27.1365H52.0508V28.1172H51.0454ZM54.5119 28.1172V23.2675L53.3994 23.9473V22.8513L54.5119 22.1838H55.5255V28.1172H54.5119Z" fill="#333333"/>
<path fill-rule="evenodd" clip-rule="evenodd" d="M223.659 21.8711H231.71C232.388 21.8711 232.634 21.9417 232.882 22.0743C233.13 22.2068 233.324 22.4014 233.457 22.6492C233.59 22.8971 233.66 23.143 233.66 23.821V26.1684C233.66 26.8464 233.59 27.0923 233.457 27.3402C233.324 27.588 233.13 27.7826 232.882 27.9151C232.634 28.0477 232.388 28.1183 231.71 28.1183H223.659C222.981 28.1183 222.735 28.0477 222.487 27.9151C222.239 27.7826 222.045 27.588 221.912 27.3402C221.78 27.0923 221.709 26.8464 221.709 26.1684V23.821C221.709 23.143 221.78 22.8971 221.912 22.6492C222.045 22.4014 222.239 22.2068 222.487 22.0743C222.735 21.9417 222.981 21.8711 223.659 21.8711ZM223.659 22.4141C223.123 22.4141 222.936 22.4502 222.744 22.553C222.59 22.635 222.473 22.7519 222.391 22.9052C222.289 23.0974 222.252 23.2846 222.252 23.8207V26.1681C222.252 26.7043 222.289 26.8915 222.391 27.0837C222.473 27.2369 222.59 27.3539 222.744 27.4358C222.936 27.5387 223.123 27.5748 223.659 27.5748H231.71C232.247 27.5748 232.434 27.5387 232.626 27.4358C232.779 27.3539 232.896 27.2369 232.978 27.0837C233.081 26.8915 233.117 26.7043 233.117 26.1681V23.8207C233.117 23.2846 233.081 23.0974 232.978 22.9052C232.896 22.7519 232.779 22.635 232.626 22.553C232.434 22.4502 232.247 22.4141 231.71 22.4141H223.659ZM235.017 24.9615C235.017 25.6332 234.203 26.0479 234.203 26.0479V23.875C234.203 23.875 235.017 24.2897 235.017 24.9615Z" fill="#333333"/>
<rect x="222.795" y="22.9062" width="9.77824" height="4.16481" rx="0.869177" fill="#333333"/>
<path fill-rule="evenodd" clip-rule="evenodd" d="M206.293 22.6302C206.281 22.6931 206.281 22.7689 206.281 22.9203V27.1032C206.281 27.2547 206.281 27.3304 206.293 27.3934C206.345 27.652 206.547 27.8541 206.805 27.9056C206.868 27.9181 206.944 27.9181 207.096 27.9181C207.247 27.9181 207.323 27.9181 207.386 27.9056C207.644 27.8541 207.847 27.652 207.898 27.3934C207.91 27.3304 207.91 27.2547 207.91 27.1032V22.9203C207.91 22.7689 207.91 22.6931 207.898 22.6302C207.847 22.3716 207.644 22.1694 207.386 22.118C207.323 22.1055 207.247 22.1055 207.096 22.1055C206.944 22.1055 206.868 22.1055 206.805 22.118C206.547 22.1694 206.345 22.3716 206.293 22.6302ZM203.725 24.225C203.725 24.0736 203.725 23.9978 203.738 23.9349C203.789 23.6763 203.991 23.4741 204.25 23.4227C204.313 23.4102 204.389 23.4102 204.54 23.4102C204.691 23.4102 204.767 23.4102 204.83 23.4227C205.089 23.4741 205.291 23.6763 205.342 23.9349C205.355 23.9978 205.355 24.0736 205.355 24.225V27.1042C205.355 27.2556 205.355 27.3313 205.342 27.3943C205.291 27.6529 205.089 27.855 204.83 27.9065C204.767 27.919 204.691 27.919 204.54 27.919C204.389 27.919 204.313 27.919 204.25 27.9065C203.991 27.855 203.789 27.6529 203.738 27.3943C203.725 27.3313 203.725 27.2556 203.725 27.1042V24.225ZM201.238 25.1849C201.226 25.2478 201.226 25.3236 201.226 25.475V27.1047C201.226 27.2562 201.226 27.3319 201.238 27.3949C201.29 27.6535 201.492 27.8556 201.75 27.907C201.813 27.9196 201.889 27.9196 202.04 27.9196C202.192 27.9196 202.268 27.9196 202.331 27.907C202.589 27.8556 202.791 27.6535 202.843 27.3949C202.855 27.3319 202.855 27.2562 202.855 27.1047V25.475C202.855 25.3236 202.855 25.2478 202.843 25.1849C202.791 24.9263 202.589 24.7241 202.331 24.6727C202.268 24.6602 202.192 24.6602 202.04 24.6602C201.889 24.6602 201.813 24.6602 201.75 24.6727C201.492 24.7241 201.29 24.9263 201.238 25.1849ZM198.633 26.263C198.62 26.326 198.62 26.4017 198.62 26.5531V27.0964C198.62 27.2478 198.62 27.3235 198.633 27.3865C198.684 27.6451 198.886 27.8473 199.145 27.8987C199.208 27.9112 199.284 27.9112 199.435 27.9112C199.586 27.9112 199.662 27.9112 199.725 27.8987C199.984 27.8473 200.186 27.6451 200.237 27.3865C200.25 27.3235 200.25 27.2478 200.25 27.0964V26.5531C200.25 26.4017 200.25 26.326 200.237 26.263C200.186 26.0044 199.984 25.8022 199.725 25.7508C199.662 25.7383 199.586 25.7383 199.435 25.7383C199.284 25.7383 199.208 25.7383 199.145 25.7508C198.886 25.8022 198.684 26.0044 198.633 26.263Z" fill="#333333"/>
<path fill-rule="evenodd" clip-rule="evenodd" d="M214.809 23.2397C216.023 23.2397 217.19 23.7061 218.07 24.5424C218.136 24.607 218.242 24.6062 218.307 24.5406L218.941 23.9015C218.974 23.8683 218.992 23.8232 218.992 23.7764C218.992 23.7295 218.973 23.6846 218.939 23.6518C216.63 21.439 212.988 21.439 210.679 23.6518C210.645 23.6846 210.626 23.7294 210.626 23.7763C210.626 23.8232 210.644 23.8683 210.677 23.9015L211.31 24.5406C211.376 24.6063 211.482 24.6071 211.548 24.5424C212.428 23.706 213.595 23.2396 214.809 23.2397ZM214.81 25.3226C215.477 25.3225 216.12 25.5704 216.614 26.0181C216.681 26.0816 216.786 26.0802 216.851 26.015L217.484 25.3759C217.517 25.3424 217.536 25.2969 217.535 25.2496C217.535 25.2024 217.515 25.1573 217.481 25.1245C215.976 23.7241 213.645 23.7241 212.139 25.1245C212.105 25.1573 212.086 25.2024 212.085 25.2497C212.085 25.2969 212.104 25.3424 212.137 25.3759L212.769 26.015C212.834 26.0802 212.94 26.0816 213.007 26.0181C213.501 25.5707 214.143 25.3228 214.81 25.3226ZM216.023 26.8459C216.057 26.8127 216.076 26.767 216.075 26.7196C216.074 26.6723 216.053 26.6274 216.018 26.5956C215.319 26.0046 214.296 26.0046 213.597 26.5956C213.562 26.6273 213.542 26.6722 213.541 26.7196C213.54 26.767 213.558 26.8127 213.592 26.8459L214.686 27.95C214.718 27.9825 214.762 28.0008 214.808 28.0008C214.853 28.0008 214.897 27.9825 214.929 27.95L216.023 26.8459Z" fill="#333333"/>
</g>
<defs>
<clipPath id="clip0_1_64533">
<rect width="258.354" height="515.272" fill="white" transform="translate(2.60938) rotate(0.290143)"/>
</clipPath>
<clipPath id="clip1_1_64533">
<rect width="225.733" height="484.991" fill="white" transform="translate(18.4385 14.5273)"/>
</clipPath>
</defs>
</svg>
