<svg width="30" height="30" viewBox="0 0 30 30" fill="none" xmlns="http://www.w3.org/2000/svg">
<g clip-path="url(#clip0_1_22148)">
<path d="M28.1903 17.2983C27.0449 20.2191 25.1355 23.2689 22.3089 24.0477C20.1418 24.6477 18.7085 23.7252 15.1428 24.5831C13.7295 24.9254 12.6089 25.3964 11.8649 25.7485C11.493 25.2875 11.012 24.7518 10.4912 24.2062C10.3569 24.0661 10.2214 23.9273 10.0845 23.7898C9.83658 23.5418 9.58866 23.2937 9.34074 23.0558C9.17699 22.897 9.01345 22.7483 8.8547 22.5995C8.48283 22.2573 8.13074 21.95 7.82324 21.7018C8.18512 21.3448 8.73574 21.0275 8.94408 20.0258C9.26137 18.4735 8.67116 11.7241 11.2253 9.44288C13.7791 7.16163 18.6143 4.06226 22.7651 6.57163C26.916 9.0808 29.6039 13.6979 28.1903 17.2983Z" fill="#FFD800"/>
<path d="M11.8649 25.7519C11.493 25.2906 11.012 24.755 10.4913 24.2096C10.3571 24.0695 10.2215 23.9306 10.0847 23.7929C9.83676 23.545 9.58884 23.2971 9.34092 23.059C9.17717 22.9002 9.01342 22.7515 8.85488 22.6027C8.4828 22.2606 8.13071 21.9531 7.82321 21.7052C7.2828 21.2688 6.88113 21.0159 6.74717 21.0752C6.18676 21.3381 6.08259 21.9086 6.43967 22.454C6.43967 22.454 5.43801 22.2309 5.08092 22.6027C4.72384 22.9698 5.26426 23.9319 5.27426 23.9567C5.25446 23.9467 4.66926 23.6392 4.28738 24.145C3.90051 24.6609 4.77342 25.2756 4.77342 25.2756C4.77342 25.2756 4.34696 26.1684 4.91717 26.9123C5.48759 27.6611 7.10926 29.6398 8.17551 29.3919C9.24655 29.1438 9.59363 28.6827 9.59363 28.6827C9.59363 28.6827 9.80196 29.4811 10.4763 29.0646C11.1509 28.6429 10.4615 28.0081 10.4615 28.0081C10.4615 28.0081 12.2815 28.8067 11.7261 27.18C11.7261 27.18 12.1676 27.6711 12.584 27.0561C12.6982 26.9023 12.3905 26.4015 11.8649 25.7519Z" fill="#009D6F"/>
<path d="M20.8904 21.3144C19.4025 21.4186 18.2175 21.0417 17.8604 20.9178C16.6304 20.4763 14.4881 20.7986 10.491 24.2155C10.3571 24.0767 10.2233 23.9378 10.0844 23.799C11.101 22.8815 12.8219 21.4782 14.8698 20.5209C16.5262 19.7474 17.176 19.8417 17.409 19.8863C18.1231 20.0251 18.5496 20.4417 19.3877 20.3376C19.7348 20.2928 20.3398 20.1688 20.4935 19.7869C20.7019 19.2613 19.844 18.8547 19.5019 17.8432C18.986 16.3057 20.2706 15.1849 19.715 14.5403C19.234 13.9849 18.2769 14.8328 16.7048 14.3122C15.5494 13.9303 15.1427 13.1022 14.6121 13.3649C13.9725 13.6824 13.8583 14.7932 13.8235 15.1057C13.6648 16.5388 12.6829 18.9042 9.34542 23.0651C9.18188 22.9063 9.01833 22.7576 8.85938 22.6088C10.0744 21.0565 13.2681 16.7322 13.2333 14.1088C13.2135 12.7947 13.6848 12.0259 14.3196 11.7086C15.0335 11.3515 15.5792 12.5367 17.2008 13.0128C19.0654 13.5584 20.0473 12.6161 20.6721 13.2657C21.4656 14.099 19.8637 15.6511 20.5779 17.6644C21.1383 19.2563 23.241 21.1459 20.8904 21.3144Z" fill="#8D41E5"/>
<path d="M9.89574 9.45464C9.89574 9.45464 7.32199 8.79026 6.57324 8.69609C5.82428 8.60193 4.60449 8.21005 4.60449 8.21005L5.35324 5.0363L10.5157 8.47797L9.89574 9.45464ZM12.3507 6.96026L10.5605 5.29901L8.33866 3.46422L10.7737 1.47047C11.2587 2.32296 11.7185 3.18959 12.1524 4.06922C12.533 4.84475 12.8967 5.62848 13.2432 6.41984C12.9457 6.59839 12.6482 6.77693 12.3507 6.96026ZM15.7774 5.03609C15.6585 4.41109 15.5345 3.78151 15.4055 3.15151C15.2368 2.29859 15.0582 1.45568 14.8847 0.617552C15.8368 0.523177 16.7941 0.43401 17.7462 0.339844C17.4337 1.20276 17.2503 1.91193 17.1462 2.40776C17.1016 2.62109 17.0816 2.74505 17.0072 3.10693C16.8437 3.91047 16.6947 4.56005 16.5957 4.99651C16.3228 5.00699 16.05 5.02019 15.7774 5.03609Z" fill="#FFD800"/>
</g>
<defs>
<clipPath id="clip0_1_22148">
<rect width="30" height="29.7917" fill="white"/>
</clipPath>
</defs>
</svg>
