<svg width="30" height="30" viewBox="0 0 30 30" fill="none" xmlns="http://www.w3.org/2000/svg">
<path d="M1.64785 7.84049C1.31559 7.84545 0.988284 7.8504 0.670898 7.86032C0.77504 6.97759 0.933734 6.62053 1.26104 6.25851C2.36693 5.01874 4.14726 5.0237 7.30128 5.10799C10.6586 5.19726 14.0209 5.17247 17.3832 5.29645C25.0203 5.5692 27.5147 5.12782 28.6207 6.8784C28.7745 7.12636 28.8934 7.41399 28.9926 7.76609C26.6022 7.77105 24.8666 7.9099 21.8266 7.99918C17.78 8.12315 14.7053 8.06861 11.4967 8.01405C6.83512 7.92976 5.44656 7.78097 1.64785 7.84049Z" fill="#FFF200"/>
<path d="M28.9182 23.8604C28.0257 24.9018 25.2932 24.8918 19.8629 24.8275C18.3603 24.8077 18.4049 24.7729 15.7171 24.7233C12.3052 24.6539 11.4175 24.6985 9.22058 24.6489C3.78535 24.5398 2.23314 25.0158 1.26114 23.8604C0.943754 23.4835 0.814815 23.0966 0.621409 21.1725C0.393288 18.8566 0.328819 16.9523 0.353615 14.9191C0.363534 14.1008 0.388329 13.2578 0.423042 12.3602C0.428002 12.2213 0.432961 12.0824 0.437921 11.9436C2.87783 12.008 4.25647 11.8494 7.26668 11.7502C10.9513 11.6262 10.4257 11.8146 14.9038 11.7154C19.3521 11.6212 19.6447 11.4377 23.0666 11.4477C25.5362 11.4576 25.9874 11.5518 29.077 11.6064C29.2257 11.6113 29.3745 11.6113 29.5184 11.6163C29.5332 11.7799 29.5432 11.9436 29.553 12.1172C29.5928 12.7767 29.6176 13.5503 29.6572 14.6364C29.6572 14.6513 29.6572 14.6711 29.6572 14.686C29.677 15.2166 29.7168 16.3324 29.7218 17.1308C29.7466 20.9691 29.7564 22.8885 28.9182 23.8604Z" fill="#FFF200"/>
<path d="M29.518 11.6198C29.374 11.6148 29.2253 11.6148 29.0765 11.6099C25.992 11.5553 25.5357 11.4611 23.0661 11.4512C19.6443 11.4413 19.3517 11.6198 14.9033 11.719C10.4252 11.8132 10.9459 11.6297 7.26625 11.7537C4.261 11.8529 2.88236 12.0116 0.4375 11.9471C0.452377 11.6099 0.467254 11.2627 0.482131 10.9106C0.482131 10.9057 0.482131 10.9007 0.482131 10.8958C0.526765 9.81961 0.566438 9.02615 0.616029 8.42113C0.630906 8.21286 0.650742 8.02936 0.670579 7.86571C0.987965 7.86076 1.31527 7.85084 1.64753 7.84588C5.44625 7.78636 6.83481 7.93515 11.5014 8.01944C14.705 8.07401 17.7846 8.12855 21.8313 8.00457C24.8663 7.91034 26.602 7.77644 28.9972 7.77148C29.0518 7.9649 29.0963 8.17813 29.1411 8.41617C29.2501 9.02119 29.3345 9.78986 29.4486 10.7916C29.4534 10.8164 29.4534 10.8412 29.4584 10.866C29.4782 11.109 29.4982 11.357 29.518 11.6198Z" fill="#FF7300"/>
<path d="M24.6034 15.3709C24.1076 15.8669 22.6893 15.8123 22.238 15.7974C19.56 15.7181 7.35548 15.7032 4.28082 15.8024C3.7849 15.8173 2.24757 15.8817 1.72685 15.3511C1.50369 15.123 1.55824 14.4485 1.55328 14.3494C1.54337 13.9477 1.59296 13.6303 1.60783 13.5658C1.84091 12.6236 7.7919 13.303 13.0982 13.0203C16.4258 12.8418 19.7683 13.055 23.1007 13.1443C23.438 13.1542 24.2811 13.184 24.653 13.5361C24.8415 13.7146 24.8415 13.9278 24.8365 14.3494C24.8265 14.88 24.8215 15.1577 24.6034 15.3709Z" fill="white"/>
<path d="M15.6923 19.5243C15.3947 19.6483 14.5467 19.6384 14.274 19.6334C12.6672 19.6136 5.34253 19.6086 3.49774 19.6334C3.20018 19.6384 2.27778 19.6533 1.96536 19.5194C1.83146 19.4598 1.86122 19.2912 1.86122 19.2664C1.85626 19.1623 1.88601 19.0829 1.89593 19.0681C2.03478 18.83 5.60537 18.9986 8.79412 18.9292C10.7926 18.8846 12.7961 18.9391 14.7947 18.959C14.998 18.959 15.5038 18.9689 15.727 19.0581C15.8411 19.1028 15.8411 19.1573 15.8361 19.2664C15.8212 19.4003 15.8212 19.4698 15.6923 19.5243Z" fill="white"/>
<path d="M15.6923 20.7623C15.3947 20.8863 14.5467 20.8765 14.274 20.8715C12.6672 20.8517 5.34253 20.8467 3.49774 20.8715C3.20018 20.8765 2.27778 20.8913 1.96536 20.7574C1.83146 20.6979 1.86122 20.5293 1.86122 20.5045C1.85626 20.4003 1.88601 20.321 1.89593 20.3061C2.03478 20.0681 5.60537 20.2367 8.79412 20.1673C10.7926 20.1226 12.7961 20.1772 14.7947 20.197C14.998 20.197 15.5038 20.2069 15.727 20.2962C15.8411 20.3408 15.8411 20.3954 15.8361 20.5045C15.8212 20.6384 15.8212 20.7078 15.6923 20.7623Z" fill="white"/>
<path d="M11.3869 22.0068C11.1836 22.1308 10.5934 22.1208 10.4099 22.116C9.30405 22.096 4.25564 22.0912 2.9861 22.116C2.78278 22.1208 2.14303 22.1358 1.9298 22.0018C1.83557 21.9422 1.86037 21.7737 1.86037 21.7489C1.85541 21.6447 1.87525 21.5654 1.88517 21.5506C1.97939 21.3124 4.4441 21.4812 6.63603 21.4116C8.01468 21.367 9.39332 21.4216 10.772 21.4414C10.9108 21.4414 11.258 21.4514 11.4117 21.5406C11.491 21.5854 11.491 21.6397 11.4861 21.7489C11.4811 21.8779 11.4762 21.9522 11.3869 22.0068Z" fill="white"/>
<path d="M20.978 15.0694C20.8889 15.1587 20.7698 15.1636 20.5218 15.1735C20.2739 15.1835 20.14 15.1884 20.0556 15.0992C20.0011 15.0396 19.9961 14.9801 20.0061 14.5487C20.0209 14.0974 20.0259 14.023 20.0953 13.9586C20.1647 13.8941 20.259 13.8891 20.4474 13.8743C20.6904 13.8594 20.8641 13.8495 20.973 13.9586C21.0574 14.0379 21.0574 14.2015 21.0574 14.5289C21.0624 14.8264 21.0624 14.9851 20.978 15.0694Z" fill="#4E02C6"/>
<path d="M22.4018 15.0538C22.3126 15.143 22.1935 15.148 21.9456 15.1579C21.6976 15.1678 21.5637 15.1728 21.4795 15.0835C21.4249 15.024 21.4199 14.9645 21.4299 14.5331C21.4447 14.0818 21.4497 14.0074 21.5191 13.9429C21.5885 13.8785 21.6828 13.8735 21.8712 13.8586C22.1141 13.8438 22.2878 13.8338 22.3968 13.9429C22.4812 14.0223 22.4812 14.1859 22.4812 14.5132C22.4862 14.8158 22.4812 14.9744 22.4018 15.0538Z" fill="#4E02C6"/>
<path d="M23.8247 15.0538C23.7355 15.143 23.6163 15.148 23.3684 15.1579C23.1205 15.1678 22.9865 15.1728 22.9024 15.0835C22.8478 15.024 22.8428 14.9645 22.8528 14.5331C22.8676 14.0818 22.8726 14.0074 22.942 13.9429C23.0113 13.8785 23.1057 13.8735 23.294 13.8586C23.537 13.8438 23.7107 13.8338 23.8197 13.9429C23.904 14.0223 23.904 14.1859 23.904 14.5132C23.909 14.8158 23.904 14.9744 23.8247 15.0538Z" fill="#4E02C6"/>
</svg>
