<svg width="145" height="102" viewBox="0 0 145 102" fill="none" xmlns="http://www.w3.org/2000/svg">
<path fill-rule="evenodd" clip-rule="evenodd" d="M0.74066 46.5354C2.05893 37.0742 53.2989 -8.0327 89.8961 1.77496C104.057 5.55753 119.824 30.8624 130.065 66.0853C131.753 71.8937 132.869 75.8961 135.318 81.2543C135.461 81.6008 135.827 78.8248 136.097 75.0332C136.736 66.056 138.333 61.7424 141.469 60.5927C142.992 60.0567 143.249 60.7755 142.662 63.9001C140.96 72.8576 141.394 82.1073 144.202 95.0008C145.298 100.067 142.986 106.571 134.415 96.6855C127.165 88.3234 122.132 83.8459 113.245 78.0011C107.491 74.2008 107.333 69.7343 112.953 70.3026C114.9 70.4974 121.066 74.4111 127.001 79.205L130.021 81.6617C125.828 67.3527 125.613 66.4407 121.51 55.1924C111.729 28.4645 99.9008 11.9865 88.0614 8.64939C58.1176 0.240245 22.646 30.1062 1.70882 47.8933C1.14139 48.3853 0.579583 47.6167 0.74066 46.5354Z" fill="#FFC24C"/>
</svg>
