<svg width="129" height="49" viewBox="0 0 129 49" fill="none" xmlns="http://www.w3.org/2000/svg">
<rect x="-1" y="10.2842" width="128" height="40" rx="17" transform="rotate(-5 -1 10.2842)" fill="#2F8ED6"/>
<path d="M32.9625 26.2825L30.8456 26.4677C30.7548 26.1258 30.6166 25.828 30.4309 25.5743C30.2449 25.3168 30.0229 25.1043 29.7649 24.9367C29.5069 24.7692 29.219 24.6518 28.9013 24.5845C28.5871 24.5132 28.2526 24.493 27.8979 24.524C27.2678 24.5792 26.7231 24.7865 26.2641 25.1461C25.8047 25.5019 25.4639 25.9956 25.2416 26.6272C25.0189 27.255 24.9457 28.0048 25.022 28.8765C25.0996 29.7632 25.3027 30.4983 25.6313 31.0818C25.9634 31.6611 26.3844 32.0843 26.8945 32.3515C27.408 32.6146 27.978 32.7187 28.6044 32.6639C28.9515 32.6335 29.2721 32.5598 29.566 32.4429C29.8634 32.3218 30.125 32.1601 30.3506 31.9579C30.58 31.7553 30.7662 31.5147 30.9091 31.236C31.0558 30.957 31.1464 30.6449 31.1808 30.2997L33.2987 30.1258C33.2677 30.6836 33.1412 31.2156 32.9193 31.7217C32.7012 32.2275 32.397 32.6838 32.0068 33.0906C31.6162 33.4936 31.1469 33.8236 30.5991 34.0807C30.0509 34.3339 29.4315 34.4908 28.741 34.5512C27.7221 34.6403 26.7921 34.4841 25.9508 34.0824C25.1096 33.6807 24.4198 33.0547 23.8816 32.2044C23.3433 31.3542 23.0197 30.3064 22.9107 29.0612C22.8015 27.8122 22.9401 26.724 23.3267 25.7966C23.7129 24.8655 24.2854 24.129 25.0441 23.5874C25.8028 23.0457 26.6878 22.7306 27.6991 22.6422C28.3443 22.5857 28.9522 22.6238 29.5228 22.7564C30.0933 22.889 30.6109 23.1117 31.0756 23.4247C31.5399 23.7339 31.9338 24.1291 32.2573 24.6103C32.5842 25.0874 32.8193 25.6448 32.9625 26.2825ZM37.1036 36.9451C36.8244 36.9695 36.5639 36.9695 36.3222 36.945C36.0846 36.924 35.8935 36.8913 35.749 36.8469L36.0848 35.2091C36.3905 35.2698 36.6601 35.2881 36.8938 35.2638C37.1274 35.2396 37.3266 35.148 37.4914 34.9891C37.6603 34.8336 37.7927 34.5863 37.8885 34.2471L38.0228 33.762L34.0936 25.1626L36.2671 24.9724L38.8453 31.363L38.9359 31.355L40.3708 24.6134L42.55 24.4228L39.9217 34.4742C39.7997 34.9487 39.6191 35.3619 39.3799 35.7136C39.1411 36.0691 38.8349 36.3507 38.4614 36.5582C38.092 36.7693 37.6394 36.8982 37.1036 36.9451ZM44.819 32.9849L43.8049 21.3928L45.8539 21.2135L46.2332 25.5492L46.3181 25.5418C46.4053 25.3212 46.5347 25.0837 46.7063 24.8291C46.8776 24.5708 47.12 24.3423 47.4334 24.1438C47.7465 23.9415 48.1578 23.8181 48.6672 23.7735C49.3389 23.7147 49.9596 23.8335 50.5292 24.1296C51.1023 24.4217 51.5766 24.8878 51.952 25.528C52.3308 26.1641 52.5625 26.9651 52.647 27.9311C52.7305 28.8858 52.6449 29.7108 52.3901 30.4061C52.1354 31.1014 51.7535 31.6481 51.2446 32.0463C50.7357 32.4444 50.1398 32.6734 49.4568 32.7331C48.9587 32.7767 48.5382 32.7298 48.1954 32.5925C47.8526 32.4552 47.571 32.2783 47.3505 32.0619C47.1335 31.8413 46.961 31.6301 46.8331 31.4284L46.7142 31.4388L46.8341 32.8086L44.819 32.9849ZM46.4481 28.462C46.4973 29.0243 46.6196 29.5098 46.8151 29.9185C47.0143 30.327 47.2753 30.6369 47.5979 30.8482C47.9241 31.0554 48.3041 31.14 48.738 31.102C49.1909 31.0624 49.5595 30.9085 49.844 30.6403C50.1282 30.3682 50.3292 30.0141 50.4469 29.578C50.5681 29.1377 50.6049 28.6459 50.5574 28.1025C50.5102 27.5629 50.3909 27.0904 50.1995 26.6851C50.0082 26.2798 49.7493 25.9717 49.4228 25.7607C49.0964 25.5497 48.7049 25.4642 48.2483 25.5041C47.8106 25.5424 47.4489 25.69 47.1634 25.9469C46.8779 26.2039 46.6741 26.5468 46.5519 26.9757C46.4335 27.4044 46.3989 27.8998 46.4481 28.462ZM58.632 31.9475C57.7604 32.0237 56.9917 31.9085 56.3261 31.6017C55.6639 31.2908 55.1338 30.8163 54.7357 30.1781C54.3374 29.5361 54.0984 28.7604 54.0188 27.851C53.9406 26.9567 54.0417 26.157 54.3222 25.4518C54.6062 24.7425 55.0392 24.1723 55.6213 23.7412C56.203 23.3062 56.9089 23.0525 57.7391 22.9798C58.2749 22.9329 58.7882 22.9755 59.2788 23.1075C59.7729 23.2354 60.2186 23.4625 60.616 23.789C61.0172 24.1151 61.3477 24.5463 61.6075 25.0825C61.8671 25.6149 62.0302 26.2623 62.0968 27.0245L62.1518 27.6528L55.0256 28.2762L54.9048 26.8952L60.0669 26.4435C60.0288 26.0514 59.9133 25.7098 59.7206 25.4187C59.5275 25.1238 59.2741 24.9007 58.9605 24.7494C58.6506 24.5978 58.2995 24.5392 57.9071 24.5735C57.4882 24.6102 57.1292 24.7442 56.8301 24.9757C56.5306 25.2035 56.3065 25.4892 56.1579 25.833C56.0127 26.1727 55.9552 26.5371 55.9855 26.9261L56.0909 28.1317C56.1352 28.6374 56.2656 29.0632 56.4822 29.4093C56.6984 29.7516 56.981 30.0044 57.3299 30.1678C57.6785 30.3275 58.0754 30.3878 58.5207 30.3488C58.8188 30.3228 59.085 30.2576 59.3192 30.1535C59.5531 30.0456 59.7515 29.9008 59.9143 29.7193C60.0771 29.5377 60.1931 29.3204 60.2622 29.0672L62.1942 29.1149C62.1177 29.6311 61.9261 30.0927 61.6195 30.4998C61.3164 30.9027 60.9116 31.2309 60.4052 31.4844C59.8986 31.734 59.3075 31.8884 58.632 31.9475ZM64.2165 31.2878L63.4559 22.5937L65.4426 22.4199L65.5694 23.8689L65.66 23.861C65.7745 23.3453 66.0124 22.9347 66.3735 22.6294C66.7381 22.3199 67.1694 22.1434 67.6675 22.0998C67.7807 22.0899 67.9076 22.0845 68.0482 22.0836C68.1923 22.0786 68.3123 22.0814 68.4083 22.092L68.5732 23.9769C68.4838 23.9543 68.3437 23.9399 68.1531 23.9338C67.9659 23.9235 67.7855 23.926 67.6119 23.9412C67.2383 23.9739 66.9096 24.0844 66.6257 24.2727C66.3452 24.457 66.1324 24.698 65.9874 24.9959C65.8424 25.2937 65.786 25.6276 65.8184 25.9974L66.2655 31.1085L64.2165 31.2878ZM70.6267 30.727L69.6125 19.1349L73.9596 18.7546C74.8501 18.6767 75.6118 18.7773 76.2446 19.0566C76.8812 19.3355 77.3796 19.752 77.7398 20.306C78.1036 20.856 78.3176 21.4988 78.382 22.2347C78.447 22.978 78.3482 23.6521 78.0855 24.2568C77.8228 24.8616 77.4003 25.3567 76.8181 25.7423C76.2355 26.124 75.4971 26.354 74.6028 26.4323L71.7217 26.6843L71.5707 24.958L74.1687 24.7307C74.6894 24.6851 75.1079 24.5573 75.4241 24.3471C75.7404 24.1369 75.9639 23.8664 76.0946 23.5356C76.2291 23.2044 76.2784 22.8332 76.2424 22.4218C76.2064 22.0105 76.0936 21.6554 75.904 21.3564C75.7181 21.0571 75.4496 20.8353 75.0986 20.6911C74.751 20.5428 74.315 20.4916 73.7904 20.5375L71.866 20.7058L72.7266 30.5433L70.6267 30.727ZM83.1553 29.8077C82.6044 29.8559 82.0996 29.8012 81.641 29.6436C81.1857 29.4819 80.8128 29.2179 80.5222 28.8517C80.2354 28.4852 80.0671 28.017 80.0172 27.4472C79.9743 26.9567 80.0294 26.5431 80.1824 26.2065C80.3355 25.8699 80.5602 25.5917 80.8566 25.3718C81.1529 25.152 81.493 24.9758 81.8769 24.8434C82.2642 24.7068 82.6672 24.5974 83.0859 24.5152C83.5906 24.4178 83.9997 24.3345 84.3131 24.2652C84.6261 24.1922 84.8503 24.1042 84.9858 24.0011C85.1247 23.8938 85.1856 23.7421 85.1684 23.5459L85.1654 23.5119C85.1281 23.0855 84.9728 22.7664 84.6995 22.5546C84.4262 22.3427 84.0519 22.2576 83.5764 22.2992C83.0745 22.3431 82.686 22.4874 82.4108 22.732C82.1394 22.9763 81.9658 23.2519 81.89 23.559L79.9531 23.4546C80.0578 22.9132 80.2682 22.4499 80.5844 22.0648C80.9002 21.6759 81.3012 21.3709 81.7876 21.1496C82.2736 20.9246 82.8204 20.7855 83.4279 20.7323C83.8468 20.6957 84.268 20.7083 84.6917 20.7701C85.1154 20.8319 85.5088 20.9609 85.872 21.1573C86.2348 21.3499 86.5369 21.6296 86.7781 21.9963C87.0231 22.3627 87.1708 22.8346 87.2213 23.4119L87.7304 29.2306L85.7607 29.4029L85.6562 28.2086L85.5883 28.2146C85.4849 28.467 85.3292 28.7087 85.1213 28.9399C84.9168 29.1669 84.6504 29.3594 84.322 29.5174C83.997 29.6713 83.6082 29.7681 83.1553 29.8077ZM83.5557 28.2555C83.967 28.2195 84.3165 28.1072 84.6042 27.9185C84.8915 27.7261 85.1044 27.4869 85.2429 27.201C85.3852 26.9148 85.4423 26.6113 85.4142 26.2906L85.3246 25.2661C85.2651 25.3245 85.1599 25.3832 85.0092 25.442C84.8622 25.5005 84.6959 25.555 84.5102 25.6054C84.3245 25.6559 84.1403 25.7024 83.9577 25.745C83.7751 25.7876 83.6167 25.8243 83.4825 25.855C83.1805 25.9233 82.9129 26.0151 82.6796 26.1306C82.4464 26.2461 82.2674 26.3948 82.1426 26.5768C82.0175 26.7551 81.9665 26.9763 81.9897 27.2404C82.0227 27.6178 82.1853 27.8906 82.4776 28.059C82.7699 28.2273 83.1293 28.2928 83.5557 28.2555ZM91.0382 32.2264C90.759 32.2509 90.4985 32.2508 90.2568 32.2264C90.0192 32.2053 89.8281 32.1726 89.6836 32.1282L90.0194 30.4904C90.3251 30.5512 90.5947 30.5694 90.8284 30.5451C91.062 30.5209 91.2612 30.4293 91.426 30.2704C91.5949 30.115 91.7273 29.8676 91.8231 29.5284L91.9574 29.0433L88.0282 20.4439L90.2018 20.2538L92.7799 26.6443L92.8705 26.6364L94.3054 19.8948L96.4846 19.7041L93.8563 29.7555C93.7343 30.2301 93.5537 30.6432 93.3145 30.9949C93.0757 31.3505 92.7695 31.632 92.396 31.8396C92.0266 32.0506 91.574 32.1796 91.0382 32.2264Z" fill="white"/>
</svg>
