<svg width="119" height="48" viewBox="0 0 119 48" fill="none" xmlns="http://www.w3.org/2000/svg">
<rect x="-1" y="9" width="118" height="40" rx="17" transform="rotate(-5 -1 9)" fill="#E2AFFA"/>
<path d="M40.6403 31.4878L36.7122 31.8315L35.698 20.2394L39.7054 19.8888C40.8563 19.7881 41.8653 19.9337 42.7323 20.3255C43.6027 20.7132 44.2984 21.3197 44.8192 22.1449C45.3401 22.97 45.6532 23.9845 45.7585 25.1882C45.8641 26.3957 45.7304 27.4531 45.3573 28.3602C44.988 29.2671 44.4029 29.9894 43.602 30.5272C42.8049 31.0646 41.8177 31.3848 40.6403 31.4878ZM38.6531 29.8308L40.3795 29.6798C41.187 29.6091 41.8477 29.403 42.3616 29.0615C42.8751 28.7162 43.2419 28.2373 43.4621 27.6249C43.682 27.0087 43.7531 26.2572 43.6755 25.3704C43.598 24.4837 43.3977 23.7597 43.0749 23.1986C42.7517 22.6337 42.3114 22.2293 41.7539 21.9853C41.1998 21.7372 40.5304 21.6474 39.7455 21.7161L37.9569 21.8726L38.6531 29.8308ZM48.1712 30.8289L47.4106 22.1349L49.4596 21.9556L50.2202 30.6497L48.1712 30.8289ZM48.3328 20.8108C48.0083 20.8392 47.7196 20.7561 47.4669 20.5615C47.2138 20.3631 47.0738 20.1111 47.0471 19.8054C47.02 19.496 47.1141 19.2235 47.3292 18.9879C47.544 18.7486 47.8137 18.6148 48.1382 18.5864C48.4665 18.5576 48.7553 18.6426 49.0046 18.8414C49.2574 19.036 49.3973 19.288 49.4244 19.5974C49.4511 19.9031 49.3571 20.1756 49.1423 20.4149C48.9309 20.6501 48.6611 20.7821 48.3328 20.8108ZM56.4093 33.5759C55.6735 33.6403 55.0327 33.5956 54.4869 33.4418C53.9415 33.2918 53.4938 33.0648 53.144 32.7608C52.7942 32.4568 52.5394 32.1084 52.3796 31.7155L54.1857 31.1069C54.2836 31.2695 54.419 31.4268 54.592 31.579C54.7653 31.7349 54.9908 31.8559 55.2683 31.9419C55.5498 32.0313 55.8963 32.0581 56.3076 32.0221C56.8887 31.9712 57.3575 31.7876 57.7138 31.4713C58.0705 31.1587 58.2208 30.6817 58.1647 30.0402L58.0206 28.3931L57.9187 28.402C57.8315 28.6225 57.6958 28.853 57.5115 29.0935C57.331 29.3336 57.0813 29.5437 56.7624 29.7237C56.4473 29.9033 56.0407 30.015 55.5427 30.0585C54.8747 30.117 54.2554 30.0134 53.6846 29.7477C53.1173 29.4779 52.6458 29.0439 52.2703 28.4456C51.8982 27.8431 51.6707 27.0683 51.5878 26.1212C51.5043 25.1665 51.5923 24.347 51.8519 23.6627C52.1148 22.9743 52.5031 22.4365 53.0168 22.0493C53.5301 21.6584 54.1208 21.4337 54.7887 21.3753C55.2981 21.3307 55.7245 21.3809 56.068 21.5257C56.4149 21.6665 56.6971 21.849 56.9144 22.0734C57.1314 22.2939 57.3001 22.5054 57.4205 22.7078L57.5337 22.6979L57.4079 21.2602L59.4286 21.0834L60.2016 29.919C60.2667 30.6624 60.1431 31.293 59.831 31.8108C59.5189 32.3286 59.0659 32.7351 58.4719 33.0305C57.878 33.3258 57.1904 33.5076 56.4093 33.5759ZM55.9737 28.401C56.4076 28.3631 56.7682 28.2251 57.0554 27.987C57.3425 27.7489 57.548 27.4249 57.6718 27.0148C57.7957 26.6047 57.8333 26.1223 57.7848 25.5676C57.7369 25.0205 57.6157 24.5482 57.4213 24.1507C57.2306 23.753 56.9725 23.4542 56.647 23.2546C56.325 23.0508 55.9433 22.9682 55.5018 23.0069C55.0452 23.0468 54.6745 23.199 54.3896 23.4635C54.1048 23.728 53.9031 24.0745 53.7847 24.5031C53.666 24.928 53.6296 25.4026 53.6755 25.9271C53.722 26.4592 53.8401 26.9185 54.0299 27.3049C54.223 27.6873 54.4821 27.9764 54.8073 28.1723C55.1358 28.3641 55.5247 28.4403 55.9737 28.401ZM62.2892 29.5938L61.5285 20.8997L63.5775 20.7204L64.3382 29.4145L62.2892 29.5938ZM62.4507 19.5757C62.1262 19.6041 61.8376 19.5209 61.5848 19.3263C61.3317 19.1279 61.1918 18.8759 61.165 18.5703C61.138 18.2608 61.232 17.9883 61.4471 17.7528C61.662 17.5135 61.9316 17.3796 62.2561 17.3512C62.5844 17.3225 62.8732 17.4075 63.1226 17.6062C63.3753 17.8008 63.5153 18.0528 63.5423 18.3623C63.5691 18.6679 63.475 18.9404 63.2602 19.1797C63.0489 19.415 62.779 19.5469 62.4507 19.5757ZM70.0259 20.1563L70.1646 21.7411L65.1666 22.1784L65.028 20.5936L70.0259 20.1563ZM66.0797 18.4026L68.1286 18.2234L68.8427 26.3854C68.8668 26.6608 68.9268 26.8685 69.0227 27.0084C69.122 27.1442 69.2438 27.2324 69.3881 27.2731C69.5323 27.3137 69.6893 27.3265 69.8591 27.3117C69.9874 27.3005 70.1036 27.2808 70.2076 27.2527C70.3154 27.2242 70.3969 27.2 70.4522 27.18L70.9376 28.7516C70.8315 28.7989 70.6785 28.8541 70.4787 28.9172C70.2827 28.98 70.0397 29.0279 69.7498 29.0608C69.2379 29.1208 68.7689 29.0839 68.3428 28.9501C67.9163 28.8125 67.5664 28.5731 67.2932 28.232C67.0238 27.8906 66.8672 27.448 66.8234 26.9043L66.0797 18.4026ZM75.0173 28.657C74.4664 28.7052 73.9616 28.6505 73.503 28.4929C73.0477 28.3312 72.6748 28.0673 72.3842 27.701C72.0974 27.3345 71.9291 26.8663 71.8792 26.2965C71.8363 25.806 71.8914 25.3924 72.0444 25.0558C72.1975 24.7192 72.4222 24.441 72.7186 24.2212C73.0149 24.0013 73.355 23.8252 73.7389 23.6927C74.1262 23.5562 74.5292 23.4468 74.9478 23.3645C75.4526 23.2671 75.8617 23.1838 76.175 23.1146C76.4881 23.0416 76.7123 22.9535 76.8478 22.8504C76.9867 22.7432 77.0475 22.5915 77.0304 22.3952L77.0274 22.3613C76.9901 21.9349 76.8348 21.6158 76.5615 21.4039C76.2882 21.1921 75.9139 21.107 75.4384 21.1486C74.9365 21.1925 74.548 21.3367 74.2728 21.5813C74.0014 21.8256 73.8278 22.1013 73.752 22.4083L71.8151 22.304C71.9198 21.7625 72.1302 21.2992 72.4463 20.9141C72.7621 20.5253 73.1632 20.2202 73.6496 19.999C74.1356 19.7739 74.6824 19.6348 75.2899 19.5817C75.7088 19.545 76.13 19.5576 76.5537 19.6194C76.9773 19.6812 77.3708 19.8103 77.734 20.0066C78.0968 20.1992 78.3989 20.4789 78.6401 20.8456C78.8851 21.212 79.0328 21.6839 79.0833 22.2613L79.5924 28.0799L77.6227 28.2523L77.5182 27.058L77.4502 27.0639C77.3468 27.3163 77.1912 27.5581 76.9833 27.7892C76.7788 28.0162 76.5124 28.2087 76.184 28.3667C75.859 28.5206 75.4701 28.6174 75.0173 28.657ZM75.4177 27.1049C75.829 27.0689 76.1785 26.9565 76.4662 26.7679C76.7535 26.5754 76.9664 26.3363 77.1049 26.0504C77.2472 25.7642 77.3043 25.4607 77.2762 25.1399L77.1866 24.1154C77.1271 24.1739 77.0219 24.2325 76.8712 24.2913C76.7242 24.3498 76.5579 24.4043 76.3721 24.4548C76.1864 24.5052 76.0023 24.5518 75.8197 24.5944C75.6371 24.6369 75.4787 24.6736 75.3445 24.7044C75.0425 24.7726 74.7749 24.8645 74.5416 24.9799C74.3084 25.0954 74.1294 25.2441 74.0046 25.4262C73.8795 25.6044 73.8285 25.8256 73.8516 26.0898C73.8847 26.4671 74.0473 26.7399 74.3396 26.9083C74.6319 27.0766 74.9913 27.1422 75.4177 27.1049ZM82.6875 16.1283L83.7017 27.7204L81.6527 27.8997L80.6385 16.3076L82.6875 16.1283Z" fill="#4F4C4C"/>
</svg>
