<svg width="30" height="30" viewBox="0 0 30 30" fill="none" xmlns="http://www.w3.org/2000/svg">
<path d="M28.734 25.1842C27.1867 26.6073 26.5419 25.3032 16.589 26.4438C16.5096 26.4538 16.4253 26.4636 16.341 26.4736C16.0385 26.5082 15.7409 26.5429 15.4384 26.5727C12.8647 26.8307 10.2661 26.9198 7.71209 27.3165C4.70189 27.7877 3.46209 28.1696 2.34132 27.4159C0.962689 26.4884 0.977566 24.6386 0.83375 20.225C0.511406 10.1083 0.0898777 8.5809 1.53795 7.33119C1.66193 7.22704 1.78095 7.13779 1.9446 7.05844C0.65522 8.29327 1.06187 10.0389 1.3743 19.8332C1.51315 24.2469 1.50324 26.0967 2.88189 27.024C3.9977 27.7777 5.24243 27.3959 8.25264 26.9248C10.8066 26.5282 13.4052 26.4338 15.979 26.1809V23.0567C15.979 20.9242 15.5773 16.8577 15.2252 11.7498C15.0417 9.06194 14.9376 7.13284 14.883 5.90296C14.9425 5.898 15.0021 5.898 15.0566 5.89304C17.0502 5.78394 18.0966 5.74427 18.0966 5.74427C20.5563 5.5459 27.7817 5.04998 28.0794 5.74427C28.3769 6.43854 29.4877 24.4898 28.734 25.1842Z" fill="#02B795"/>
<path d="M15.2256 11.7518C15.0422 9.06397 14.938 7.13484 14.8835 5.90499C14.8785 5.77605 14.8735 5.65703 14.8686 5.54297C13.2618 5.63718 11.1641 5.76614 8.60023 5.94961C3.10548 6.33643 2.63932 6.46041 2.07894 6.94145C2.03431 6.98111 1.98968 7.02078 1.94504 7.06047C0.655665 8.29528 1.06232 10.0409 1.37474 19.8352C1.5136 24.2489 1.50368 26.0987 2.88232 27.026C3.99813 27.7798 5.24288 27.3979 8.25309 26.9268C10.807 26.5302 13.4056 26.4358 15.9794 26.1829V23.0587C15.9794 20.9262 15.5778 16.8597 15.2256 11.7518Z" fill="#2E1544"/>
<path d="M29.2749 24.7955C27.7278 26.2188 27.083 24.9144 17.13 26.0551C16.9713 23.3624 16.6589 18.3783 16.4804 16.8112C16.2771 15.0606 15.7861 8.15255 15.5977 5.50436C17.5912 5.39525 18.6376 5.35559 18.6376 5.35559C21.0974 5.15723 28.3228 4.66132 28.6203 5.35559C28.918 6.04988 30.0289 24.1011 29.2749 24.7955Z" fill="#2E1544"/>
<path d="M17.1295 26.0526C17.0502 26.0626 16.9659 26.0726 16.8816 26.0824C16.5791 26.1172 16.2815 26.152 15.979 26.1815V23.0574C15.979 20.9249 15.5773 16.8584 15.2252 11.7505C15.0219 8.78491 14.9178 6.73677 14.8682 5.54162C15.126 5.52675 15.369 5.51187 15.5972 5.50195C15.7856 8.15014 16.2766 15.0533 16.4799 16.8088C16.6634 18.3759 16.9709 23.3599 17.1295 26.0526Z" fill="#FFD110"/>
<path d="M28.4073 15.6255C28.2683 13.7956 28.1444 13.617 28.0404 13.498C27.4552 12.8434 25.9029 12.9773 22.8035 13.2401C22.0298 13.3046 21.395 13.379 20.1503 13.5228C19.1337 13.6418 18.6229 13.7013 18.5386 13.746C17.1946 14.4651 18.0526 16.8802 18.0575 22.0524C18.0575 22.4741 18.0526 23.4014 18.6675 23.8974C19.213 24.3337 19.9767 24.2197 20.2941 24.1799C24.7723 23.5652 27.3906 24.666 28.4023 23.0543C28.4917 22.9106 28.5065 21.9683 28.5262 20.0937C28.5362 18.8341 28.5462 17.4356 28.4073 15.6255ZM27.8767 19.9251C27.8569 21.5764 27.8469 22.3997 27.7675 22.5287C26.8798 23.942 24.574 22.9749 20.6313 23.5156C20.3536 23.5552 19.6792 23.6543 19.2031 23.2674C18.6626 22.8312 18.6675 22.0179 18.6675 21.646C18.6626 17.0983 17.9088 14.9758 19.089 14.3411C19.1634 14.3014 19.6147 14.2468 20.5074 14.1427C21.6033 14.0138 22.1637 13.9493 22.8431 13.8947C25.5706 13.6617 26.9344 13.5476 27.4502 14.1179C27.5394 14.2171 27.6535 14.3758 27.7725 15.9875C27.8965 17.5794 27.8915 18.8093 27.8767 19.9251Z" fill="#FFD110"/>
<path d="M10.3613 19.8085C10.2125 19.7986 10.2274 19.3275 9.84058 18.6282C9.76122 18.4844 9.45872 17.9439 9.25539 17.9786C9.21077 17.9885 9.17108 18.0282 9.13637 18.1224C8.9876 18.5043 7.78252 21.2516 9.01239 22.6253C9.27522 22.9228 9.56783 23.037 9.96456 23.2205C10.3415 23.3941 11.4275 23.8899 12.6078 23.508C12.7417 23.4634 13.1186 23.3345 13.4806 23.0468C15.0477 21.7822 14.5964 18.7175 14.1154 18.6233C13.7583 18.5588 13.2773 20.0962 12.8805 19.992C12.707 19.9474 12.7367 19.63 12.4342 18.9357C12.2061 18.42 12.0226 17.9935 11.7449 17.9736C11.4473 17.9489 11.1696 18.3952 10.9316 18.777C10.5596 19.387 10.5051 19.8185 10.3613 19.8085Z" fill="#DCB8FD"/>
<path d="M22.4716 7.91356C22.4716 7.91356 22.8039 6.72337 21.832 6.67377C20.8599 6.62418 20.6269 7.56145 20.8351 8.06729C21.0385 8.57312 21.4749 8.77645 21.4749 8.77645C21.4749 8.77645 20.9889 8.345 20.1955 9.1831C19.402 10.0162 19.6053 10.5766 20.1955 10.7502C20.7856 10.9287 21.4006 10.4973 21.8072 9.89227C21.8072 9.89227 21.3708 10.6014 22.0651 11.256C22.7593 11.9106 24.0637 11.5337 23.8554 9.94185C23.8554 9.94185 24.6239 10.5221 25.5166 9.89227C26.4143 9.2575 25.3629 8.17143 23.7016 8.57808C24.3314 8.42931 24.7281 7.94827 24.6935 7.497C24.6735 7.20935 24.4751 6.92172 24.2172 6.81758C23.7412 6.62418 22.9774 7.02091 22.4716 7.91356Z" fill="#DCB8FD"/>
<path d="M12.4234 12.4416C12.3788 12.7144 12.2895 13.2698 11.9275 13.8847C11.7986 14.1079 11.4068 14.7179 10.6431 15.2039C9.6562 15.8337 8.67924 15.8436 8.32714 15.8386C7.91553 15.8386 7.0328 15.8237 6.15007 15.2634C5.49051 14.8419 5.14336 14.3112 4.95491 14.0186C4.74168 13.6814 4.39949 13.1309 4.32509 12.3474C4.24576 11.4845 4.53339 10.8299 4.69207 10.4778C4.85078 10.1257 5.26239 9.25287 6.21949 8.67267C7.19149 8.08252 8.15853 8.13708 8.97678 8.18171C9.78018 8.22633 10.4844 8.26602 11.1588 8.76194C11.9126 9.32231 12.1705 10.1158 12.2944 10.5125C12.3441 10.6662 12.5821 11.4399 12.4234 12.4416Z" fill="#FFD110"/>
<path d="M7.14724 20.1785C7.12243 20.729 6.73066 21.0909 6.64141 21.1703C6.5571 21.2447 6.17028 21.587 5.61487 21.5472C4.97016 21.5026 4.60816 20.982 4.51889 20.8628C4.44449 20.7537 4.30564 20.5256 4.2511 20.2033C4.22631 20.0495 4.13703 19.504 4.48914 19.0726C4.94041 18.5172 5.73387 18.6263 5.78843 18.6362C6.52735 18.7453 7.18195 19.4396 7.14724 20.1785Z" fill="#02B795"/>
<path d="M5.22795 23.126C5.09406 23.592 4.29562 23.7606 3.75012 23.6218C3.61127 23.587 3.33852 23.5177 3.18975 23.2697C2.9765 22.9127 3.20462 22.4862 3.23437 22.4316C3.25916 22.387 3.4972 21.9606 3.98816 21.901C4.5287 21.8366 4.88577 22.2729 4.96016 22.3672C5.05437 22.4862 5.32218 22.8085 5.22795 23.126Z" fill="#02B795"/>
<path d="M20.001 15.347C20.001 15.347 21.6722 14.9156 22.2475 15.6991C22.8227 16.4827 22.4706 16.8447 22.5945 17.8762C22.7185 18.9077 23.2939 18.0845 24.4989 17.8762C25.7039 17.6679 26.8545 18.258 26.2793 18.9722C25.7039 19.6863 24.3452 20.7723 25.1833 20.9807C26.0214 21.1888 26.6462 20.7674 26.6462 20.7674V21.5459C26.6462 21.5459 24.1864 22.7857 23.9287 21.5459C23.6708 20.3062 25.4958 19.1358 25.2379 18.6597C24.975 18.1836 22.9368 19.8599 21.9945 18.9672C21.0522 18.0746 22.4656 16.3488 22.0491 16.0512C21.6325 15.7537 20.0109 16.0512 20.0109 16.0512V15.347H20.001Z" fill="#02B795"/>
<path d="M5.68945 12.4422C5.68945 12.4422 5.84318 13.5382 7.46483 13.8655C9.08647 14.1928 10.6139 13.7762 11.1842 12.7398L10.3461 12.5612C10.3461 12.5612 10.6139 12.9084 9.89481 13.2059C9.17575 13.5084 7.94587 13.6572 7.46483 13.3894C6.98379 13.1216 6.26472 12.2637 6.26472 12.2637L5.68945 12.4422Z" fill="#2E1544"/>
<path d="M7.13207 10.4233C7.16678 10.5275 7.20149 10.6167 7.17669 10.7159C7.12711 10.9044 6.89899 11.0581 6.67086 11.0432C6.41299 11.0283 6.19974 10.8052 6.18982 10.5671C6.17494 10.215 6.61632 9.95716 6.8593 10.0415C7.01801 10.1059 7.09238 10.3192 7.13207 10.4233Z" fill="#2E1544"/>
<path d="M10.6731 10.5223C10.688 10.7355 10.5392 10.9339 10.3409 10.9934C10.1871 11.043 10.0086 11.0033 9.88956 10.8992C9.75566 10.7802 9.74079 10.6215 9.73583 10.5719C9.73087 10.5223 9.71104 10.2942 9.87468 10.1652C10.0036 10.0611 10.1673 10.0859 10.2169 10.0958C10.3904 10.1206 10.6533 10.2594 10.6731 10.5223Z" fill="#2E1544"/>
</svg>
