<svg width="32" height="32" viewBox="0 0 32 32" fill="none" xmlns="http://www.w3.org/2000/svg">
<rect width="32" height="32" rx="4" fill="#3B3B3B"/>
<path d="M15.625 8.5C11.2741 8.5 7.75 11.9411 7.75 16.1897C7.75 19.5924 10.0042 22.4664 13.1346 23.4853C13.5283 23.5526 13.6759 23.3219 13.6759 23.1201C13.6759 22.9374 13.6661 22.3319 13.6661 21.6878C11.6875 22.0435 11.1756 21.2169 11.0181 20.7843C10.9295 20.5632 10.5456 19.8807 10.2109 19.6981C9.93531 19.5539 9.54156 19.1983 10.2011 19.1887C10.8213 19.1791 11.2642 19.7462 11.4119 19.9769C12.1206 21.14 13.2527 20.8131 13.7055 20.6113C13.7744 20.1114 13.9811 19.7751 14.2075 19.5828C12.4553 19.3905 10.6244 18.7273 10.6244 15.786C10.6244 14.9498 10.9295 14.2577 11.4316 13.7194C11.3528 13.5272 11.0772 12.7389 11.5103 11.6816C11.5103 11.6816 12.1698 11.4798 13.6759 12.4698C14.306 12.2968 14.9754 12.2102 15.6447 12.2102C16.3141 12.2102 16.9835 12.2968 17.6135 12.4698C19.1196 11.4702 19.779 11.6816 19.779 11.6816C20.2122 12.7389 19.9366 13.5272 19.8579 13.7194C20.3598 14.2577 20.665 14.9401 20.665 15.786C20.665 18.7369 18.8242 19.3905 17.0721 19.5828C17.3575 19.8231 17.6036 20.2844 17.6036 21.0054C17.6036 22.0339 17.5938 22.8606 17.5938 23.1201C17.5938 23.3219 17.7414 23.5622 18.1352 23.4853C19.6986 22.9701 21.0571 21.989 22.0195 20.6802C22.9819 19.3715 23.4997 17.8009 23.5 16.1897C23.5 11.9411 19.976 8.5 15.625 8.5Z" fill="white"/>
</svg>
