<svg width="30" height="30" viewBox="0 0 30 30" fill="none" xmlns="http://www.w3.org/2000/svg">
<path d="M22.4309 9.59067C22.163 8.83688 21.692 7.48798 20.4323 6.37219C19.8074 5.81675 19.0735 5.40019 18.2899 5.11752C18.6867 4.67615 18.9495 4.12569 19.0685 3.64465C19.138 3.35207 19.2619 2.82144 19.014 2.27096C18.6222 1.39815 17.6254 1.17499 17.3923 1.1254C16.5493 0.936953 15.3938 1.11052 14.7342 1.9635C14.2978 2.52388 14.2681 3.13882 14.2581 3.36198C14.2581 3.42148 14.2433 4.06121 14.5458 4.69598C13.182 4.84477 11.8678 5.31092 10.7967 6.05975C9.65606 6.85321 9.05104 7.7905 8.6444 8.42032C8.05425 9.3328 7.48892 10.5428 6.51692 15.859C6.38302 16.5831 6.27392 17.2278 6.17969 17.7832C9.3585 18.1006 17.3725 18.6709 21.9995 19.2362C22.163 18.4229 22.3415 17.4857 22.4309 16.9798C22.8822 14.2622 23.2688 11.981 22.4309 9.59067ZM18.1213 3.25288C17.9825 3.79838 17.5114 4.33396 16.8667 4.43811C16.7576 4.45298 16.3162 4.52738 15.9294 4.26454C15.3888 3.89757 15.3839 3.16361 15.3839 2.93548C15.3839 2.70242 15.3839 2.47429 15.5178 2.24617C15.8253 1.73042 16.584 1.62628 17.1097 1.74034C17.2485 1.77009 17.8486 1.90895 18.0816 2.42965C18.2404 2.77679 18.156 3.11402 18.1213 3.25288Z" fill="#4E02C6"/>
<path d="M25.6388 20.1821C25.6388 20.1821 25.5496 20.0333 25.4157 19.8994C25.2025 19.6862 23.8784 19.4581 21.9938 19.23C17.362 18.6646 9.35302 18.0943 6.17421 17.7769C5.713 17.7323 5.35594 17.6926 5.12286 17.6579C4.63688 17.5885 3.14913 17.2711 2.43005 18.0497C2.21184 18.2877 2.09284 18.5902 1.92422 20.2367C1.76552 21.7641 1.69114 22.5229 1.7556 22.7608C2.16225 24.1791 5.08815 24.1741 9.41253 24.7248C9.55138 24.7446 9.6853 24.7594 9.82911 24.7794C9.82911 24.7794 13.3253 25.2454 17.129 25.5579C19.7821 25.776 22.584 25.9248 24.4586 25.786C24.5182 25.781 24.6421 25.771 24.7859 25.7016C25.2817 25.4487 25.3265 24.7496 25.4703 23.7675C25.7778 21.6202 26.1446 20.9606 25.6388 20.1821Z" fill="#ECD3EF"/>
<path d="M17.1293 25.5577C17.0202 26.8223 16.2466 28.1315 15.0712 28.6423C14.3323 28.9646 13.5984 28.9002 13.1868 28.8704C12.0462 28.7761 11.2577 28.2852 11.0047 28.1167C10.613 27.8588 10.0129 27.4571 9.65091 26.6884C9.27401 25.8948 9.34839 25.1213 9.41783 24.7246C9.55668 24.7444 9.69058 24.7592 9.83439 24.779C9.82943 24.779 13.3256 25.2452 17.1293 25.5577Z" fill="#FA0018"/>
<path d="M2.40522 4.58691C2.45978 5.16219 3.16892 5.19194 4.20538 6.11931C5.42534 7.21527 5.55428 7.34916 5.55428 7.34916C5.73778 7.53266 5.99565 7.7955 6.2932 7.76079C6.42709 7.74589 6.49653 7.67648 6.7544 7.43844C7.4933 6.75904 7.63713 6.66977 7.66688 6.44164C7.69663 6.22343 7.6024 6.04987 7.53299 5.92094C6.96763 4.87456 6.20392 3.88273 6.00557 3.61989C5.13276 2.46441 5.08811 2.07263 4.69138 2.04784C4.3988 2.028 4.07645 2.31562 3.43672 2.89089C2.89122 3.38185 2.7127 3.68931 2.61351 3.88769C2.4697 4.2001 2.38538 4.37369 2.40522 4.58691Z" fill="#FA0018"/>
<path d="M29.4529 8.77212C29.2198 9.24324 28.59 9.06472 27.1419 9.49616C26.6014 9.6598 26.0558 9.79372 25.5104 9.94745C25.1533 10.0466 24.816 10.1408 24.5779 9.96728C24.4639 9.88297 24.4442 9.7937 24.3202 9.40689C24.0077 8.44978 23.8837 8.25637 23.9977 8.00345C24.0771 7.82493 24.2258 7.7307 24.34 7.66128C25.6194 6.86284 26.2542 6.46612 26.6012 6.28759C27.9948 5.57347 28.1783 5.36518 28.4808 5.49909C28.7387 5.61809 28.8875 5.99995 29.1802 6.77359C29.4181 7.39845 29.4677 7.80014 29.4827 8.00345C29.5123 8.41012 29.5273 8.61343 29.4529 8.77212Z" fill="#FA0018"/>
<path d="M0.61092 15.0208C0.90351 15.3283 1.38455 15.0853 2.71857 14.9564C2.99628 14.9316 3.72528 14.8671 4.3898 14.8175C5.05928 14.7679 5.44113 14.7431 5.59982 14.4753C5.67917 14.3414 5.62463 14.277 5.60973 13.8108C5.58494 12.9925 5.73371 12.695 5.51553 12.4669C5.40642 12.3528 5.27253 12.3231 5.15351 12.3032C3.5269 11.971 2.95163 11.8916 2.44084 11.7776C1.61267 11.5941 1.49365 11.4403 1.20602 11.5643C0.690266 11.7924 0.526614 12.5363 0.427431 12.9925C0.303451 13.5728 0.367922 14.0389 0.412553 14.3414C0.477022 14.7183 0.501818 14.9068 0.61092 15.0208Z" fill="#FA0018"/>
<path d="M29.061 18.357C28.7833 18.5553 28.5056 18.4264 27.0872 18.0594C27.0722 18.0545 26.3781 17.8759 25.4754 17.5635C25.0241 17.4098 24.7862 17.3106 24.6422 17.0676C24.5283 16.8792 24.5481 16.6262 24.5879 16.1353C24.6422 15.4757 24.682 15.0195 24.9745 14.8806C25.0589 14.8409 25.1233 14.8459 25.2572 14.8459C25.6539 14.8558 26.0458 14.8558 26.4424 14.8608C27.2458 14.8757 27.6477 14.8955 28.0145 14.8955C28.9122 14.8856 29.061 14.7913 29.2643 14.9451C29.5816 15.1831 29.5964 15.6542 29.6212 16.3386C29.6462 17.018 29.4972 17.4743 29.4477 17.623C29.3039 18.0297 29.2345 18.228 29.061 18.357Z" fill="#FA0018"/>
<path d="M13.1869 6.40682C11.8281 6.16878 10.5486 7.77059 10.256 8.13757C10.1569 8.26155 9.56176 9.02526 9.29397 10.1758C9.17495 10.6866 9.05593 11.237 9.36835 11.6635C9.60143 11.9759 10.023 12.0503 10.137 12.0751C10.1668 12.0801 10.6329 12.1743 10.9801 12.0206C11.7686 11.6734 11.1834 10.4237 12.0761 9.30297C12.329 8.98557 13.0282 8.28138 13.8217 7.66644C13.9754 7.54742 14.2234 7.36394 14.2085 7.13086C14.2035 6.78371 13.6382 6.48617 13.1869 6.40682Z" fill="white"/>
</svg>
