<svg width="32" height="32" viewBox="0 0 32 32" fill="none" xmlns="http://www.w3.org/2000/svg">
<rect width="32" height="32" rx="4" fill="#3B3B3B"/>
<path d="M18.666 13.334C19.7269 13.334 20.7443 13.7554 21.4944 14.5056C22.2446 15.2557 22.666 16.2731 22.666 17.334V22.0007H19.9993V17.334C19.9993 16.9804 19.8589 16.6412 19.6088 16.3912C19.3588 16.1411 19.0196 16.0007 18.666 16.0007C18.3124 16.0007 17.9733 16.1411 17.7232 16.3912C17.4732 16.6412 17.3327 16.9804 17.3327 17.334V22.0007H14.666V17.334C14.666 16.2731 15.0874 15.2557 15.8376 14.5056C16.5877 13.7554 17.6051 13.334 18.666 13.334Z" stroke="white" stroke-width="1.33333" stroke-linecap="round" stroke-linejoin="round"/>
<path d="M12.0007 14H9.33398V22H12.0007V14Z" stroke="white" stroke-width="1.33333" stroke-linecap="round" stroke-linejoin="round"/>
<path d="M10.6673 12.0007C11.4037 12.0007 12.0007 11.4037 12.0007 10.6673C12.0007 9.93094 11.4037 9.33398 10.6673 9.33398C9.93094 9.33398 9.33398 9.93094 9.33398 10.6673C9.33398 11.4037 9.93094 12.0007 10.6673 12.0007Z" stroke="white" stroke-width="1.33333" stroke-linecap="round" stroke-linejoin="round"/>
</svg>
