<svg width="32" height="32" viewBox="0 0 32 32" fill="none" xmlns="http://www.w3.org/2000/svg">
<rect width="32" height="32" rx="4" fill="#3B3B3B"/>
<g clip-path="url(#clip0_0_1)">
<path fill-rule="evenodd" clip-rule="evenodd" d="M20.6672 22C22.1399 22 23.3338 20.8061 23.3338 19.3333V13.3485C23.3341 13.3383 23.3341 13.328 23.3338 13.3178V12.6667C23.3338 11.1939 22.1399 10 20.6672 10H11.3338C9.86108 10 8.66717 11.1939 8.66717 12.6667V13.3178C8.66693 13.328 8.66693 13.3383 8.66717 13.3485V19.3333C8.66717 20.8061 9.86108 22 11.3338 22H20.6672ZM10.0005 19.3333C10.0005 20.0697 10.5975 20.6667 11.3338 20.6667H20.6672C21.4035 20.6667 22.0005 20.0697 22.0005 19.3333V14.318L16.9909 16.3219C16.3551 16.5762 15.6459 16.5762 15.0101 16.3219L10.0005 14.318V19.3333ZM16.4957 15.0839L22.0005 12.882V12.6667C22.0005 11.9303 21.4035 11.3333 20.6672 11.3333H11.3338C10.5975 11.3333 10.0005 11.9303 10.0005 12.6667V12.882L15.5053 15.0839C15.8232 15.2111 16.1778 15.2111 16.4957 15.0839Z" fill="#ABB2BF"/>
</g>
<defs>
<clipPath id="clip0_0_1">
<rect width="16" height="16" fill="white" transform="translate(8 8)"/>
</clipPath>
</defs>
</svg>
