<svg width="1668" height="900" viewBox="0 0 1668 900" fill="none" xmlns="http://www.w3.org/2000/svg">
<path d="M0 47.9596C0 21.4723 21.4722 0 47.9596 0H1620.04C1646.53 0 1668 21.4722 1668 47.9596V852.04C1668 878.528 1646.53 900 1620.04 900H47.9596C21.4722 900 0 878.528 0 852.04V47.9596Z" fill="#191D20"/>
<line y1="197.834" x2="1668" y2="197.834" stroke="#384148" stroke-width="2.39798"/>
<line y1="557.531" x2="1668" y2="557.531" stroke="#384148" stroke-width="2.39798"/>
<path d="M173.449 275.169H176.978L185.275 295.436H185.561L193.859 275.169H197.388V299.585H194.622V281.035H194.383L186.753 299.585H184.083L176.453 281.035H176.215V299.585H173.449V275.169ZM202.98 299.585V275.169H217.715V277.792H205.937V286.042H216.952V288.665H205.937V296.962H217.906V299.585H202.98ZM223.71 299.585H220.61L229.576 275.169H232.628L241.593 299.585H238.493L231.197 279.032H231.006L223.71 299.585ZM224.855 290.048H237.349V292.67H224.855V290.048ZM245.06 299.585V275.169H248.017V296.962H259.366V299.585H245.06ZM293.316 287.377C293.316 289.952 292.851 292.178 291.921 294.053C290.991 295.929 289.715 297.375 288.094 298.393C286.473 299.41 284.621 299.919 282.538 299.919C280.456 299.919 278.604 299.41 276.983 298.393C275.361 297.375 274.086 295.929 273.156 294.053C272.226 292.178 271.761 289.952 271.761 287.377C271.761 284.802 272.226 282.577 273.156 280.701C274.086 278.825 275.361 277.379 276.983 276.361C278.604 275.344 280.456 274.835 282.538 274.835C284.621 274.835 286.473 275.344 288.094 276.361C289.715 277.379 290.991 278.825 291.921 280.701C292.851 282.577 293.316 284.802 293.316 287.377ZM290.454 287.377C290.454 285.263 290.101 283.479 289.393 282.024C288.694 280.57 287.744 279.469 286.544 278.722C285.352 277.975 284.017 277.601 282.538 277.601C281.06 277.601 279.721 277.975 278.521 278.722C277.329 279.469 276.379 280.57 275.671 282.024C274.972 283.479 274.622 285.263 274.622 287.377C274.622 289.491 274.972 291.275 275.671 292.73C276.379 294.184 277.329 295.285 278.521 296.032C279.721 296.779 281.06 297.153 282.538 297.153C284.017 297.153 285.352 296.779 286.544 296.032C287.744 295.285 288.694 294.184 289.393 292.73C290.101 291.275 290.454 289.491 290.454 287.377ZM297.951 299.585V275.169H306.201C308.109 275.169 309.674 275.495 310.898 276.147C312.122 276.791 313.028 277.677 313.617 278.805C314.205 279.934 314.499 281.217 314.499 282.656C314.499 284.095 314.205 285.37 313.617 286.483C313.028 287.596 312.126 288.47 310.91 289.106C309.694 289.734 308.14 290.048 306.249 290.048H299.573V287.377H306.154C307.457 287.377 308.506 287.186 309.301 286.805C310.104 286.423 310.684 285.883 311.041 285.183C311.407 284.476 311.59 283.634 311.59 282.656C311.59 281.678 311.407 280.824 311.041 280.093C310.676 279.362 310.092 278.797 309.289 278.4C308.486 277.995 307.425 277.792 306.106 277.792H300.908V299.585H297.951ZM309.444 288.617L315.453 299.585H312.019L306.106 288.617H309.444ZM326.624 299.585H319.09V275.169H326.958C329.327 275.169 331.353 275.658 333.038 276.636C334.723 277.605 336.015 279 336.913 280.82C337.811 282.632 338.26 284.802 338.26 287.329C338.26 289.873 337.807 292.062 336.901 293.898C335.995 295.726 334.675 297.133 332.943 298.119C331.21 299.096 329.104 299.585 326.624 299.585ZM322.046 296.962H326.434C328.452 296.962 330.125 296.573 331.453 295.794C332.78 295.015 333.769 293.906 334.421 292.468C335.073 291.029 335.399 289.316 335.399 287.329C335.399 285.358 335.077 283.661 334.433 282.239C333.789 280.808 332.828 279.711 331.548 278.948C330.268 278.177 328.675 277.792 326.767 277.792H322.046V296.962ZM342.884 299.585V275.169H357.619V277.792H345.84V286.042H356.856V288.665H345.84V296.962H357.81V299.585H342.884ZM362.612 299.585V275.169H370.862C372.77 275.169 374.335 275.495 375.559 276.147C376.783 276.791 377.689 277.677 378.278 278.805C378.866 279.934 379.16 281.217 379.16 282.656C379.16 284.095 378.866 285.37 378.278 286.483C377.689 287.596 376.787 288.47 375.571 289.106C374.355 289.734 372.801 290.048 370.91 290.048H364.234V287.377H370.814C372.118 287.377 373.167 287.186 373.962 286.805C374.765 286.423 375.345 285.883 375.702 285.183C376.068 284.476 376.251 283.634 376.251 282.656C376.251 281.678 376.068 280.824 375.702 280.093C375.337 279.362 374.753 278.797 373.95 278.4C373.147 277.995 372.086 277.792 370.767 277.792H365.569V299.585H362.612ZM374.105 288.617L380.113 299.585H376.68L370.767 288.617H374.105ZM397.103 281.273C396.96 280.065 396.38 279.127 395.363 278.46C394.345 277.792 393.097 277.458 391.619 277.458C390.538 277.458 389.592 277.633 388.782 277.983C387.979 278.332 387.351 278.813 386.898 279.425C386.453 280.037 386.23 280.733 386.23 281.512C386.23 282.163 386.385 282.724 386.695 283.193C387.013 283.653 387.419 284.039 387.911 284.349C388.404 284.651 388.921 284.901 389.461 285.1C390.002 285.291 390.498 285.446 390.951 285.565L393.431 286.233C394.067 286.399 394.774 286.63 395.553 286.924C396.34 287.218 397.091 287.619 397.806 288.128C398.53 288.629 399.126 289.273 399.595 290.059C400.064 290.846 400.298 291.812 400.298 292.956C400.298 294.276 399.952 295.468 399.261 296.533C398.577 297.598 397.576 298.444 396.257 299.072C394.945 299.7 393.352 300.014 391.476 300.014C389.727 300.014 388.213 299.732 386.934 299.168C385.662 298.603 384.661 297.817 383.93 296.807C383.206 295.798 382.797 294.626 382.702 293.29H385.754C385.833 294.212 386.143 294.975 386.683 295.579C387.232 296.175 387.923 296.62 388.758 296.914C389.6 297.201 390.506 297.344 391.476 297.344C392.605 297.344 393.618 297.161 394.516 296.795C395.414 296.422 396.126 295.905 396.65 295.245C397.175 294.578 397.437 293.799 397.437 292.909C397.437 292.098 397.21 291.438 396.757 290.93C396.304 290.421 395.708 290.008 394.969 289.69C394.23 289.372 393.431 289.094 392.573 288.855L389.569 287.997C387.661 287.449 386.151 286.666 385.038 285.648C383.926 284.631 383.369 283.3 383.369 281.655C383.369 280.288 383.739 279.095 384.478 278.078C385.225 277.053 386.226 276.258 387.482 275.694C388.746 275.121 390.157 274.835 391.714 274.835C393.288 274.835 394.687 275.118 395.911 275.682C397.135 276.238 398.105 277.001 398.82 277.971C399.543 278.94 399.925 280.041 399.964 281.273H397.103Z" fill="white"/>
<path d="M174.45 659.281H171.351L180.316 634.865H183.368L192.333 659.281H189.233L181.937 638.728H181.746L174.45 659.281ZM175.595 649.744H188.089V652.367H175.595V649.744ZM214.3 642.495H211.343C211.168 641.645 210.862 640.898 210.425 640.254C209.996 639.61 209.472 639.07 208.852 638.633C208.24 638.188 207.56 637.854 206.813 637.631C206.066 637.409 205.287 637.297 204.476 637.297C202.998 637.297 201.659 637.671 200.459 638.418C199.266 639.165 198.317 640.266 197.609 641.72C196.91 643.175 196.56 644.959 196.56 647.073C196.56 649.187 196.91 650.972 197.609 652.426C198.317 653.881 199.266 654.981 200.459 655.729C201.659 656.476 202.998 656.849 204.476 656.849C205.287 656.849 206.066 656.738 206.813 656.515C207.56 656.293 208.24 655.963 208.852 655.526C209.472 655.081 209.996 654.536 210.425 653.893C210.862 653.241 211.168 652.494 211.343 651.651H214.3C214.077 652.899 213.672 654.016 213.084 655.001C212.496 655.987 211.764 656.825 210.89 657.517C210.016 658.2 209.034 658.721 207.946 659.079C206.865 659.436 205.708 659.615 204.476 659.615C202.394 659.615 200.542 659.106 198.921 658.089C197.299 657.072 196.024 655.625 195.094 653.75C194.164 651.874 193.699 649.648 193.699 647.073C193.699 644.498 194.164 642.273 195.094 640.397C196.024 638.521 197.299 637.075 198.921 636.058C200.542 635.04 202.394 634.532 204.476 634.532C205.708 634.532 206.865 634.71 207.946 635.068C209.034 635.426 210.016 635.95 210.89 636.642C211.764 637.325 212.496 638.16 213.084 639.145C213.672 640.123 214.077 641.24 214.3 642.495ZM238.389 642.495H235.432C235.257 641.645 234.951 640.898 234.514 640.254C234.085 639.61 233.561 639.07 232.941 638.633C232.329 638.188 231.649 637.854 230.902 637.631C230.155 637.409 229.376 637.297 228.565 637.297C227.087 637.297 225.748 637.671 224.548 638.418C223.355 639.165 222.406 640.266 221.698 641.72C220.999 643.175 220.649 644.959 220.649 647.073C220.649 649.187 220.999 650.972 221.698 652.426C222.406 653.881 223.355 654.981 224.548 655.729C225.748 656.476 227.087 656.849 228.565 656.849C229.376 656.849 230.155 656.738 230.902 656.515C231.649 656.293 232.329 655.963 232.941 655.526C233.561 655.081 234.085 654.536 234.514 653.893C234.951 653.241 235.257 652.494 235.432 651.651H238.389C238.166 652.899 237.761 654.016 237.173 655.001C236.585 655.987 235.853 656.825 234.979 657.517C234.105 658.2 233.123 658.721 232.035 659.079C230.954 659.436 229.797 659.615 228.565 659.615C226.483 659.615 224.631 659.106 223.01 658.089C221.388 657.072 220.113 655.625 219.183 653.75C218.253 651.874 217.788 649.648 217.788 647.073C217.788 644.498 218.253 642.273 219.183 640.397C220.113 638.521 221.388 637.075 223.01 636.058C224.631 635.04 226.483 634.532 228.565 634.532C229.797 634.532 230.954 634.71 232.035 635.068C233.123 635.426 234.105 635.95 234.979 636.642C235.853 637.325 236.585 638.16 237.173 639.145C237.761 640.123 238.166 641.24 238.389 642.495ZM263.432 647.073C263.432 649.648 262.967 651.874 262.037 653.75C261.107 655.625 259.831 657.072 258.21 658.089C256.589 659.106 254.737 659.615 252.654 659.615C250.572 659.615 248.72 659.106 247.099 658.089C245.477 657.072 244.202 655.625 243.272 653.75C242.342 651.874 241.877 649.648 241.877 647.073C241.877 644.498 242.342 642.273 243.272 640.397C244.202 638.521 245.477 637.075 247.099 636.058C248.72 635.04 250.572 634.532 252.654 634.532C254.737 634.532 256.589 635.04 258.21 636.058C259.831 637.075 261.107 638.521 262.037 640.397C262.967 642.273 263.432 644.498 263.432 647.073ZM260.57 647.073C260.57 644.959 260.217 643.175 259.509 641.72C258.81 640.266 257.86 639.165 256.66 638.418C255.468 637.671 254.133 637.297 252.654 637.297C251.176 637.297 249.837 637.671 248.637 638.418C247.445 639.165 246.495 640.266 245.787 641.72C245.088 643.175 244.738 644.959 244.738 647.073C244.738 649.187 245.088 650.972 245.787 652.426C246.495 653.881 247.445 654.981 248.637 655.729C249.837 656.476 251.176 656.849 252.654 656.849C254.133 656.849 255.468 656.476 256.66 655.729C257.86 654.981 258.81 653.881 259.509 652.426C260.217 650.972 260.57 649.187 260.57 647.073ZM284.09 634.865H287.047V651.031C287.047 652.7 286.653 654.191 285.866 655.502C285.088 656.805 283.987 657.835 282.564 658.59C281.141 659.337 279.472 659.71 277.557 659.71C275.642 659.71 273.973 659.337 272.55 658.59C271.127 657.835 270.022 656.805 269.236 655.502C268.457 654.191 268.067 652.7 268.067 651.031V634.865H271.024V650.793C271.024 651.985 271.286 653.046 271.811 653.976C272.335 654.898 273.082 655.625 274.052 656.158C275.03 656.682 276.198 656.945 277.557 656.945C278.916 656.945 280.084 656.682 281.062 656.158C282.04 655.625 282.787 654.898 283.303 653.976C283.828 653.046 284.09 651.985 284.09 650.793V634.865ZM311.976 634.865V659.281H309.115L295.81 640.111H295.572V659.281H292.615V634.865H295.477L308.829 654.083H309.067V634.865H311.976ZM316.221 637.488V634.865H334.533V637.488H326.856V659.281H323.899V637.488H316.221ZM336.91 659.281H333.81L342.775 634.865H345.827L354.792 659.281H351.693L344.397 638.728H344.206L336.91 659.281ZM338.054 649.744H350.548V652.367H338.054V649.744ZM377.621 634.865V659.281H374.76L361.455 640.111H361.216V659.281H358.26V634.865H361.121L374.473 654.083H374.712V634.865H377.621ZM381.866 637.488V634.865H400.178V637.488H392.5V659.281H389.544V637.488H381.866Z" fill="white"/>
<line x1="159.699" y1="728.987" x2="159.699" y2="201.432" stroke="#384148" stroke-width="2.39798"/>
<circle cx="160.899" cy="199.034" r="28.7758" fill="#5FA4DA"/>
<circle cx="160.899" cy="558.73" r="28.7758" fill="#5FA4DA"/>
<path d="M757.117 292V267.584H760.073V278.457H773.092V267.584H776.049V292H773.092V281.08H760.073V292H757.117ZM797.655 267.584H800.611V283.75C800.611 285.419 800.218 286.909 799.431 288.221C798.652 289.524 797.552 290.553 796.129 291.309C794.706 292.056 793.037 292.429 791.122 292.429C789.206 292.429 787.537 292.056 786.115 291.309C784.692 290.553 783.587 289.524 782.8 288.221C782.021 286.909 781.632 285.419 781.632 283.75V267.584H784.589V283.512C784.589 284.704 784.851 285.765 785.375 286.695C785.9 287.617 786.647 288.344 787.617 288.876C788.594 289.401 789.763 289.663 791.122 289.663C792.481 289.663 793.649 289.401 794.627 288.876C795.604 288.344 796.351 287.617 796.868 286.695C797.393 285.765 797.655 284.704 797.655 283.512V267.584ZM806.18 267.584H809.709L818.006 287.851H818.293L826.59 267.584H830.119V292H827.353V273.45H827.115L819.485 292H816.814L809.184 273.45H808.946V292H806.18V267.584ZM836.713 292H833.613L842.578 267.584H845.63L854.595 292H851.496L844.2 271.447H844.009L836.713 292ZM837.857 282.463H850.351V285.085H837.857V282.463ZM877.424 267.584V292H874.562L861.258 272.83H861.019V292H858.063V267.584H860.924L874.276 286.802H874.515V267.584H877.424ZM757.117 338V313.584H765.367C767.274 313.584 768.84 313.91 770.064 314.562C771.288 315.206 772.194 316.092 772.782 317.22C773.37 318.349 773.664 319.633 773.664 321.071C773.664 322.51 773.37 323.785 772.782 324.898C772.194 326.011 771.292 326.885 770.076 327.521C768.86 328.149 767.306 328.463 765.414 328.463H758.738V325.792H765.319C766.622 325.792 767.672 325.601 768.466 325.22C769.269 324.838 769.849 324.298 770.207 323.598C770.572 322.891 770.755 322.049 770.755 321.071C770.755 320.093 770.572 319.239 770.207 318.508C769.841 317.777 769.257 317.212 768.454 316.815C767.652 316.41 766.591 316.207 765.271 316.207H760.073V338H757.117ZM768.609 327.032L774.618 338H771.184L765.271 327.032H768.609ZM778.255 338V313.584H792.99V316.207H781.212V324.457H792.227V327.08H781.212V335.377H793.181V338H778.255ZM811.336 319.688C811.193 318.48 810.613 317.542 809.596 316.875C808.578 316.207 807.33 315.873 805.852 315.873C804.771 315.873 803.825 316.048 803.015 316.398C802.212 316.747 801.584 317.228 801.131 317.84C800.686 318.452 800.463 319.148 800.463 319.927C800.463 320.578 800.618 321.139 800.928 321.608C801.246 322.069 801.652 322.454 802.144 322.764C802.637 323.066 803.154 323.316 803.694 323.515C804.235 323.706 804.731 323.861 805.185 323.98L807.664 324.648C808.3 324.815 809.007 325.045 809.786 325.339C810.573 325.633 811.324 326.035 812.04 326.543C812.763 327.044 813.359 327.688 813.828 328.475C814.297 329.261 814.531 330.227 814.531 331.371C814.531 332.691 814.185 333.883 813.494 334.948C812.81 336.013 811.809 336.859 810.49 337.487C809.178 338.115 807.585 338.429 805.709 338.429C803.961 338.429 802.446 338.147 801.167 337.583C799.895 337.018 798.894 336.232 798.163 335.222C797.439 334.213 797.03 333.041 796.935 331.705H799.987C800.066 332.627 800.376 333.39 800.917 333.994C801.465 334.59 802.156 335.035 802.991 335.33C803.833 335.616 804.739 335.759 805.709 335.759C806.838 335.759 807.851 335.576 808.749 335.21C809.647 334.837 810.359 334.32 810.883 333.66C811.408 332.993 811.67 332.214 811.67 331.324C811.67 330.513 811.443 329.853 810.99 329.345C810.537 328.836 809.941 328.423 809.202 328.105C808.463 327.787 807.664 327.509 806.806 327.27L803.802 326.412C801.894 325.864 800.384 325.081 799.271 324.063C798.159 323.046 797.602 321.715 797.602 320.07C797.602 318.703 797.972 317.51 798.711 316.493C799.458 315.468 800.46 314.673 801.715 314.109C802.979 313.537 804.39 313.25 805.948 313.25C807.521 313.25 808.92 313.533 810.144 314.097C811.368 314.653 812.338 315.416 813.053 316.386C813.776 317.355 814.158 318.456 814.197 319.688H811.336ZM839.657 325.792C839.657 328.367 839.192 330.593 838.263 332.468C837.333 334.344 836.057 335.79 834.436 336.808C832.814 337.825 830.962 338.334 828.88 338.334C826.798 338.334 824.946 337.825 823.325 336.808C821.703 335.79 820.428 334.344 819.498 332.468C818.568 330.593 818.103 328.367 818.103 325.792C818.103 323.217 818.568 320.992 819.498 319.116C820.428 317.24 821.703 315.794 823.325 314.776C824.946 313.759 826.798 313.25 828.88 313.25C830.962 313.25 832.814 313.759 834.436 314.776C836.057 315.794 837.333 317.24 838.263 319.116C839.192 320.992 839.657 323.217 839.657 325.792ZM836.796 325.792C836.796 323.678 836.443 321.894 835.735 320.439C835.036 318.985 834.086 317.884 832.886 317.137C831.694 316.39 830.358 316.016 828.88 316.016C827.402 316.016 826.063 316.39 824.862 317.137C823.67 317.884 822.721 318.985 822.013 320.439C821.314 321.894 820.964 323.678 820.964 325.792C820.964 327.906 821.314 329.691 822.013 331.145C822.721 332.599 823.67 333.7 824.862 334.447C826.063 335.194 827.402 335.568 828.88 335.568C830.358 335.568 831.694 335.194 832.886 334.447C834.086 333.7 835.036 332.599 835.735 331.145C836.443 329.691 836.796 327.906 836.796 325.792ZM860.316 313.584H863.273V329.75C863.273 331.419 862.879 332.909 862.092 334.221C861.313 335.524 860.213 336.553 858.79 337.309C857.367 338.056 855.698 338.429 853.783 338.429C851.867 338.429 850.198 338.056 848.776 337.309C847.353 336.553 846.248 335.524 845.461 334.221C844.683 332.909 844.293 331.419 844.293 329.75V313.584H847.25V329.512C847.25 330.704 847.512 331.765 848.037 332.695C848.561 333.617 849.308 334.344 850.278 334.876C851.255 335.401 852.424 335.663 853.783 335.663C855.142 335.663 856.31 335.401 857.288 334.876C858.265 334.344 859.012 333.617 859.529 332.695C860.054 331.765 860.316 330.704 860.316 329.512V313.584ZM868.841 338V313.584H877.091C878.998 313.584 880.564 313.91 881.788 314.562C883.012 315.206 883.918 316.092 884.506 317.22C885.094 318.349 885.389 319.633 885.389 321.071C885.389 322.51 885.094 323.785 884.506 324.898C883.918 326.011 883.016 326.885 881.8 327.521C880.584 328.149 879.03 328.463 877.139 328.463H870.462V325.792H877.043C878.347 325.792 879.396 325.601 880.191 325.22C880.993 324.838 881.574 324.298 881.931 323.598C882.297 322.891 882.48 322.049 882.48 321.071C882.48 320.093 882.297 319.239 881.931 318.508C881.566 317.777 880.981 317.212 880.179 316.815C879.376 316.41 878.315 316.207 876.996 316.207H871.798V338H868.841ZM880.334 327.032L886.342 338H882.909L876.996 327.032H880.334ZM909.627 321.214H906.67C906.495 320.364 906.189 319.617 905.752 318.973C905.323 318.329 904.798 317.789 904.178 317.351C903.566 316.906 902.887 316.573 902.14 316.35C901.393 316.128 900.614 316.016 899.803 316.016C898.325 316.016 896.985 316.39 895.785 317.137C894.593 317.884 893.643 318.985 892.936 320.439C892.237 321.894 891.887 323.678 891.887 325.792C891.887 327.906 892.237 329.691 892.936 331.145C893.643 332.599 894.593 333.7 895.785 334.447C896.985 335.194 898.325 335.568 899.803 335.568C900.614 335.568 901.393 335.457 902.14 335.234C902.887 335.012 903.566 334.682 904.178 334.245C904.798 333.8 905.323 333.255 905.752 332.611C906.189 331.96 906.495 331.213 906.67 330.37H909.627C909.404 331.618 908.999 332.735 908.411 333.72C907.822 334.706 907.091 335.544 906.217 336.236C905.343 336.919 904.361 337.44 903.272 337.797C902.191 338.155 901.035 338.334 899.803 338.334C897.721 338.334 895.869 337.825 894.247 336.808C892.626 335.79 891.35 334.344 890.421 332.468C889.491 330.593 889.026 328.367 889.026 325.792C889.026 323.217 889.491 320.992 890.421 319.116C891.35 317.24 892.626 315.794 894.247 314.776C895.869 313.759 897.721 313.25 899.803 313.25C901.035 313.25 902.191 313.429 903.272 313.787C904.361 314.145 905.343 314.669 906.217 315.361C907.091 316.044 907.822 316.879 908.411 317.864C908.999 318.842 909.404 319.958 909.627 321.214ZM914.068 338V313.584H928.804V316.207H917.025V324.457H928.041V327.08H917.025V335.377H928.995V338H914.068Z" fill="white"/>
<path d="M770.678 632.969C770.535 631.761 769.955 630.823 768.938 630.156C767.92 629.488 766.672 629.154 765.194 629.154C764.113 629.154 763.167 629.329 762.357 629.679C761.554 630.029 760.926 630.51 760.473 631.122C760.028 631.734 759.805 632.429 759.805 633.208C759.805 633.86 759.96 634.42 760.27 634.889C760.588 635.35 760.994 635.735 761.486 636.045C761.979 636.347 762.496 636.598 763.036 636.796C763.577 636.987 764.073 637.142 764.526 637.261L767.006 637.929C767.642 638.096 768.349 638.326 769.128 638.62C769.915 638.914 770.666 639.316 771.382 639.824C772.105 640.325 772.701 640.969 773.17 641.756C773.639 642.543 773.873 643.508 773.873 644.653C773.873 645.972 773.527 647.164 772.836 648.229C772.152 649.294 771.151 650.141 769.832 650.769C768.52 651.396 766.927 651.71 765.051 651.71C763.303 651.71 761.788 651.428 760.509 650.864C759.237 650.3 758.236 649.513 757.505 648.503C756.781 647.494 756.372 646.322 756.277 644.987H759.329C759.408 645.909 759.718 646.671 760.258 647.276C760.807 647.872 761.498 648.317 762.333 648.611C763.175 648.897 764.081 649.04 765.051 649.04C766.18 649.04 767.193 648.857 768.091 648.492C768.989 648.118 769.701 647.601 770.225 646.942C770.75 646.274 771.012 645.495 771.012 644.605C771.012 643.794 770.785 643.135 770.332 642.626C769.879 642.117 769.283 641.704 768.544 641.386C767.805 641.068 767.006 640.79 766.148 640.552L763.144 639.693C761.236 639.145 759.726 638.362 758.613 637.345C757.501 636.327 756.944 634.996 756.944 633.351C756.944 631.984 757.314 630.792 758.053 629.774C758.8 628.749 759.801 627.954 761.057 627.39C762.321 626.818 763.732 626.532 765.289 626.532C766.863 626.532 768.262 626.814 769.486 627.378C770.71 627.934 771.68 628.697 772.395 629.667C773.118 630.637 773.5 631.737 773.539 632.969H770.678ZM798.999 639.073C798.999 641.648 798.534 643.874 797.605 645.75C796.675 647.625 795.399 649.072 793.778 650.089C792.156 651.106 790.304 651.615 788.222 651.615C786.14 651.615 784.288 651.106 782.667 650.089C781.045 649.072 779.77 647.625 778.84 645.75C777.91 643.874 777.445 641.648 777.445 639.073C777.445 636.498 777.91 634.273 778.84 632.397C779.77 630.521 781.045 629.075 782.667 628.058C784.288 627.04 786.14 626.532 788.222 626.532C790.304 626.532 792.156 627.04 793.778 628.058C795.399 629.075 796.675 630.521 797.605 632.397C798.534 634.273 798.999 636.498 798.999 639.073ZM796.138 639.073C796.138 636.959 795.784 635.175 795.077 633.72C794.378 632.266 793.428 631.165 792.228 630.418C791.036 629.671 789.7 629.297 788.222 629.297C786.744 629.297 785.405 629.671 784.204 630.418C783.012 631.165 782.063 632.266 781.355 633.72C780.656 635.175 780.306 636.959 780.306 639.073C780.306 641.187 780.656 642.972 781.355 644.426C782.063 645.881 783.012 646.981 784.204 647.729C785.405 648.476 786.744 648.849 788.222 648.849C789.7 648.849 791.036 648.476 792.228 647.729C793.428 646.981 794.378 645.881 795.077 644.426C795.784 642.972 796.138 641.187 796.138 639.073ZM803.635 651.281V626.865H818.275V629.488H806.592V637.738H817.178V640.361H806.592V651.281H803.635ZM821.668 629.488V626.865H839.98V629.488H832.302V651.281H829.345V629.488H821.668ZM848.642 651.281L841.966 626.865H844.97L850.073 646.751H850.311L855.509 626.865H858.847L864.045 646.751H864.283L869.386 626.865H872.39L865.714 651.281H862.662L857.273 631.825H857.083L851.694 651.281H848.642ZM874.838 651.281H871.738L880.704 626.865H883.756L892.721 651.281H889.621L882.325 630.728H882.134L874.838 651.281ZM875.983 641.744H888.477V644.367H875.983V641.744ZM896.188 651.281V626.865H904.438C906.345 626.865 907.911 627.191 909.135 627.843C910.359 628.487 911.265 629.373 911.853 630.502C912.441 631.63 912.736 632.914 912.736 634.352C912.736 635.791 912.441 637.067 911.853 638.179C911.265 639.292 910.363 640.166 909.147 640.802C907.931 641.43 906.377 641.744 904.486 641.744H897.809V639.073H904.39C905.694 639.073 906.743 638.883 907.538 638.501C908.34 638.12 908.921 637.579 909.278 636.88C909.644 636.172 909.827 635.33 909.827 634.352C909.827 633.375 909.644 632.52 909.278 631.789C908.913 631.058 908.328 630.494 907.526 630.096C906.723 629.691 905.662 629.488 904.343 629.488H899.145V651.281H896.188ZM907.681 640.313L913.689 651.281H910.256L904.343 640.313H907.681ZM917.326 651.281V626.865H932.062V629.488H920.283V637.738H931.299V640.361H920.283V648.658H932.253V651.281H917.326ZM758.327 697.281H755.228L764.193 672.865H767.245L776.21 697.281H773.11L765.814 676.728H765.623L758.327 697.281ZM759.472 687.744H771.966V690.367H759.472V687.744ZM779.677 697.281V672.865H787.927C789.835 672.865 791.4 673.191 792.624 673.843C793.848 674.487 794.754 675.373 795.342 676.502C795.931 677.63 796.225 678.914 796.225 680.352C796.225 681.791 795.931 683.067 795.342 684.179C794.754 685.292 793.852 686.166 792.636 686.802C791.42 687.43 789.866 687.744 787.975 687.744H781.299V685.073H787.879C789.183 685.073 790.232 684.883 791.027 684.501C791.829 684.12 792.41 683.579 792.767 682.88C793.133 682.172 793.316 681.33 793.316 680.352C793.316 679.375 793.133 678.52 792.767 677.789C792.402 677.058 791.818 676.494 791.015 676.096C790.212 675.691 789.151 675.488 787.832 675.488H782.634V697.281H779.677ZM791.17 686.313L797.178 697.281H793.745L787.832 686.313H791.17ZM820.463 680.495H817.506C817.331 679.645 817.025 678.898 816.588 678.254C816.159 677.61 815.634 677.07 815.014 676.633C814.402 676.188 813.723 675.854 812.976 675.631C812.229 675.409 811.45 675.297 810.639 675.297C809.161 675.297 807.822 675.671 806.621 676.418C805.429 677.165 804.48 678.266 803.772 679.72C803.073 681.175 802.723 682.959 802.723 685.073C802.723 687.187 803.073 688.972 803.772 690.426C804.48 691.881 805.429 692.981 806.621 693.729C807.822 694.476 809.161 694.849 810.639 694.849C811.45 694.849 812.229 694.738 812.976 694.515C813.723 694.293 814.402 693.963 815.014 693.526C815.634 693.081 816.159 692.536 816.588 691.893C817.025 691.241 817.331 690.494 817.506 689.651H820.463C820.24 690.899 819.835 692.016 819.247 693.001C818.658 693.987 817.927 694.825 817.053 695.517C816.179 696.2 815.197 696.721 814.108 697.079C813.027 697.436 811.871 697.615 810.639 697.615C808.557 697.615 806.705 697.106 805.084 696.089C803.462 695.072 802.187 693.625 801.257 691.75C800.327 689.874 799.862 687.648 799.862 685.073C799.862 682.498 800.327 680.273 801.257 678.397C802.187 676.521 803.462 675.075 805.084 674.058C806.705 673.04 808.557 672.532 810.639 672.532C811.871 672.532 813.027 672.71 814.108 673.068C815.197 673.426 816.179 673.95 817.053 674.642C817.927 675.325 818.658 676.16 819.247 677.145C819.835 678.123 820.24 679.24 820.463 680.495ZM824.905 697.281V672.865H827.861V683.738H840.88V672.865H843.836V697.281H840.88V686.361H827.861V697.281H824.905ZM852.376 672.865V697.281H849.42V672.865H852.376ZM856.634 675.488V672.865H874.945V675.488H867.268V697.281H864.311V675.488H856.634ZM879.173 697.281V672.865H893.908V675.488H882.129V683.738H893.145V686.361H882.129V694.658H894.099V697.281H879.173ZM918.548 680.495H915.592C915.417 679.645 915.111 678.898 914.674 678.254C914.245 677.61 913.72 677.07 913.1 676.633C912.488 676.188 911.809 675.854 911.062 675.631C910.314 675.409 909.536 675.297 908.725 675.297C907.247 675.297 905.907 675.671 904.707 676.418C903.515 677.165 902.565 678.266 901.858 679.72C901.159 681.175 900.809 682.959 900.809 685.073C900.809 687.187 901.159 688.972 901.858 690.426C902.565 691.881 903.515 692.981 904.707 693.729C905.907 694.476 907.247 694.849 908.725 694.849C909.536 694.849 910.314 694.738 911.062 694.515C911.809 694.293 912.488 693.963 913.1 693.526C913.72 693.081 914.245 692.536 914.674 691.893C915.111 691.241 915.417 690.494 915.592 689.651H918.548C918.326 690.899 917.921 692.016 917.332 693.001C916.744 693.987 916.013 694.825 915.139 695.517C914.265 696.2 913.283 696.721 912.194 697.079C911.113 697.436 909.957 697.615 908.725 697.615C906.643 697.615 904.791 697.106 903.169 696.089C901.548 695.072 900.272 693.625 899.342 691.75C898.413 689.874 897.948 687.648 897.948 685.073C897.948 682.498 898.413 680.273 899.342 678.397C900.272 676.521 901.548 675.075 903.169 674.058C904.791 673.04 906.643 672.532 908.725 672.532C909.957 672.532 911.113 672.71 912.194 673.068C913.283 673.426 914.265 673.95 915.139 674.642C916.013 675.325 916.744 676.16 917.332 677.145C917.921 678.123 918.326 679.24 918.548 680.495ZM921.655 675.488V672.865H939.967V675.488H932.289V697.281H929.333V675.488H921.655Z" fill="white"/>
<line x1="743.578" y1="728.987" x2="743.578" y2="201.432" stroke="#384148" stroke-width="2.39798"/>
<circle cx="744.776" cy="199.034" r="28.7758" fill="#5FA4DA"/>
<circle cx="744.776" cy="558.73" r="28.7758" fill="#5FA4DA"/>
<path d="M1374.88 299.585V275.169H1389.62V277.792H1377.84V286.042H1388.85V288.665H1377.84V296.962H1389.81V299.585H1374.88ZM1413.97 275.169V299.585H1411.11L1397.81 280.415H1397.57V299.585H1394.61V275.169H1397.47L1410.82 294.387H1411.06V275.169H1413.97ZM1436.24 282.799C1435.98 281.996 1435.63 281.277 1435.21 280.641C1434.78 279.997 1434.28 279.449 1433.69 278.996C1433.11 278.543 1432.45 278.197 1431.71 277.959C1430.97 277.72 1430.16 277.601 1429.28 277.601C1427.83 277.601 1426.52 277.975 1425.33 278.722C1424.15 279.469 1423.21 280.57 1422.51 282.024C1421.81 283.479 1421.46 285.263 1421.46 287.377C1421.46 289.491 1421.81 291.275 1422.52 292.73C1423.23 294.184 1424.19 295.285 1425.39 296.032C1426.6 296.779 1427.96 297.153 1429.47 297.153C1430.87 297.153 1432.1 296.855 1433.17 296.259C1434.24 295.655 1435.07 294.804 1435.67 293.708C1436.27 292.603 1436.58 291.303 1436.58 289.809L1437.48 290H1430.14V287.377H1439.44V290C1439.44 292.011 1439.01 293.759 1438.15 295.245C1437.3 296.732 1436.12 297.884 1434.62 298.703C1433.13 299.513 1431.41 299.919 1429.47 299.919C1427.31 299.919 1425.41 299.41 1423.77 298.393C1422.14 297.375 1420.87 295.929 1419.96 294.053C1419.05 292.178 1418.6 289.952 1418.6 287.377C1418.6 285.446 1418.86 283.709 1419.37 282.167C1419.9 280.617 1420.64 279.298 1421.59 278.209C1422.54 277.12 1423.67 276.286 1424.98 275.706C1426.28 275.125 1427.71 274.835 1429.28 274.835C1430.57 274.835 1431.77 275.03 1432.88 275.42C1434 275.801 1435 276.345 1435.87 277.053C1436.76 277.752 1437.49 278.591 1438.08 279.568C1438.67 280.538 1439.07 281.615 1439.29 282.799H1436.24ZM1447.12 275.169V299.585H1444.17V275.169H1447.12ZM1472.08 275.169V299.585H1469.21L1455.91 280.415H1455.67V299.585H1452.72V275.169H1455.58L1468.93 294.387H1469.17V275.169H1472.08ZM1477.66 299.585V275.169H1492.39V277.792H1480.61V286.042H1491.63V288.665H1480.61V296.962H1492.58V299.585H1477.66ZM1497.39 299.585V275.169H1512.12V277.792H1500.34V286.042H1511.36V288.665H1500.34V296.962H1512.31V299.585H1497.39ZM1517.11 299.585V275.169H1525.36C1527.27 275.169 1528.84 275.495 1530.06 276.147C1531.28 276.791 1532.19 277.677 1532.78 278.805C1533.37 279.934 1533.66 281.217 1533.66 282.656C1533.66 284.095 1533.37 285.37 1532.78 286.483C1532.19 287.596 1531.29 288.47 1530.07 289.106C1528.86 289.734 1527.3 290.048 1525.41 290.048H1518.74V287.377H1525.32C1526.62 287.377 1527.67 287.186 1528.46 286.805C1529.27 286.423 1529.85 285.883 1530.2 285.183C1530.57 284.476 1530.75 283.634 1530.75 282.656C1530.75 281.678 1530.57 280.824 1530.2 280.093C1529.84 279.362 1529.25 278.797 1528.45 278.4C1527.65 277.995 1526.59 277.792 1525.27 277.792H1520.07V299.585H1517.11ZM1528.61 288.617L1534.61 299.585H1531.18L1525.27 288.617H1528.61Z" fill="white"/>
<path d="M1382.42 659.281H1374.88V634.865H1382.75C1385.12 634.865 1387.15 635.354 1388.83 636.332C1390.52 637.301 1391.81 638.696 1392.71 640.516C1393.6 642.328 1394.05 644.498 1394.05 647.026C1394.05 649.569 1393.6 651.759 1392.69 653.595C1391.79 655.423 1390.47 656.829 1388.74 657.815C1387 658.792 1384.9 659.281 1382.42 659.281ZM1377.84 656.658H1382.23C1384.24 656.658 1385.92 656.269 1387.25 655.49C1388.57 654.711 1389.56 653.603 1390.21 652.164C1390.87 650.725 1391.19 649.013 1391.19 647.026C1391.19 645.055 1390.87 643.358 1390.23 641.935C1389.58 640.504 1388.62 639.408 1387.34 638.645C1386.06 637.874 1384.47 637.488 1382.56 637.488H1377.84V656.658ZM1398.68 659.281V634.865H1413.41V637.488H1401.63V645.738H1412.65V648.361H1401.63V656.658H1413.6V659.281H1398.68ZM1431.76 640.969C1431.61 639.761 1431.03 638.823 1430.02 638.156C1429 637.488 1427.75 637.154 1426.27 637.154C1425.19 637.154 1424.25 637.329 1423.44 637.679C1422.63 638.029 1422.01 638.51 1421.55 639.122C1421.11 639.734 1420.88 640.429 1420.88 641.208C1420.88 641.86 1421.04 642.42 1421.35 642.889C1421.67 643.35 1422.07 643.735 1422.57 644.045C1423.06 644.347 1423.58 644.598 1424.12 644.796C1424.66 644.987 1425.15 645.142 1425.61 645.261L1428.09 645.929C1428.72 646.096 1429.43 646.326 1430.21 646.62C1430.99 646.914 1431.75 647.316 1432.46 647.824C1433.18 648.325 1433.78 648.969 1434.25 649.756C1434.72 650.543 1434.95 651.508 1434.95 652.653C1434.95 653.972 1434.61 655.164 1433.92 656.229C1433.23 657.294 1432.23 658.141 1430.91 658.769C1429.6 659.396 1428.01 659.71 1426.13 659.71C1424.38 659.71 1422.87 659.428 1421.59 658.864C1420.32 658.3 1419.31 657.513 1418.58 656.503C1417.86 655.494 1417.45 654.322 1417.36 652.987H1420.41C1420.49 653.909 1420.8 654.671 1421.34 655.276C1421.89 655.872 1422.58 656.317 1423.41 656.611C1424.25 656.897 1425.16 657.04 1426.13 657.04C1427.26 657.04 1428.27 656.857 1429.17 656.492C1430.07 656.118 1430.78 655.601 1431.3 654.942C1431.83 654.274 1432.09 653.495 1432.09 652.605C1432.09 651.794 1431.86 651.135 1431.41 650.626C1430.96 650.117 1430.36 649.704 1429.62 649.386C1428.88 649.068 1428.09 648.79 1427.23 648.552L1424.22 647.693C1422.32 647.145 1420.81 646.362 1419.69 645.345C1418.58 644.327 1418.02 642.996 1418.02 641.351C1418.02 639.984 1418.39 638.792 1419.13 637.774C1419.88 636.749 1420.88 635.954 1422.14 635.39C1423.4 634.818 1424.81 634.532 1426.37 634.532C1427.94 634.532 1429.34 634.814 1430.57 635.378C1431.79 635.934 1432.76 636.697 1433.47 637.667C1434.2 638.637 1434.58 639.737 1434.62 640.969H1431.76ZM1442.43 634.865V659.281H1439.48V634.865H1442.43ZM1464.72 642.495C1464.45 641.693 1464.11 640.973 1463.68 640.338C1463.26 639.694 1462.75 639.145 1462.17 638.692C1461.59 638.239 1460.93 637.894 1460.19 637.655C1459.45 637.417 1458.64 637.297 1457.75 637.297C1456.31 637.297 1454.99 637.671 1453.81 638.418C1452.62 639.165 1451.68 640.266 1450.98 641.72C1450.28 643.175 1449.93 644.959 1449.93 647.073C1449.93 649.187 1450.29 650.972 1451 652.426C1451.7 653.881 1452.66 654.981 1453.87 655.729C1455.08 656.476 1456.44 656.849 1457.95 656.849C1459.34 656.849 1460.58 656.551 1461.64 655.955C1462.71 655.351 1463.55 654.501 1464.15 653.404C1464.75 652.299 1465.05 651 1465.05 649.505L1465.96 649.696H1458.61V647.073H1467.91V649.696C1467.91 651.707 1467.48 653.455 1466.62 654.942C1465.77 656.428 1464.6 657.58 1463.1 658.399C1461.6 659.21 1459.88 659.615 1457.95 659.615C1455.78 659.615 1453.88 659.106 1452.25 658.089C1450.62 657.072 1449.35 655.625 1448.43 653.75C1447.53 651.874 1447.07 649.648 1447.07 647.073C1447.07 645.142 1447.33 643.405 1447.85 641.864C1448.37 640.314 1449.11 638.994 1450.07 637.906C1451.02 636.817 1452.15 635.982 1453.45 635.402C1454.75 634.822 1456.19 634.532 1457.75 634.532C1459.04 634.532 1460.24 634.726 1461.36 635.116C1462.48 635.497 1463.47 636.042 1464.35 636.749C1465.23 637.449 1465.97 638.287 1466.55 639.265C1467.14 640.234 1467.55 641.311 1467.77 642.495H1464.72ZM1492 634.865V659.281H1489.14L1475.84 640.111H1475.6V659.281H1472.64V634.865H1475.5L1488.85 654.083H1489.09V634.865H1492ZM1497.58 659.281V634.865H1512.32V637.488H1500.54V645.738H1511.55V648.361H1500.54V656.658H1512.51V659.281H1497.58ZM1517.31 659.281V634.865H1525.56C1527.47 634.865 1529.03 635.191 1530.26 635.843C1531.48 636.487 1532.39 637.373 1532.98 638.502C1533.56 639.63 1533.86 640.914 1533.86 642.352C1533.86 643.791 1533.56 645.067 1532.98 646.179C1532.39 647.292 1531.49 648.166 1530.27 648.802C1529.05 649.43 1527.5 649.744 1525.61 649.744H1518.93V647.073H1525.51C1526.82 647.073 1527.87 646.883 1528.66 646.501C1529.46 646.12 1530.04 645.579 1530.4 644.88C1530.77 644.172 1530.95 643.33 1530.95 642.352C1530.95 641.375 1530.77 640.52 1530.4 639.789C1530.03 639.058 1529.45 638.494 1528.65 638.096C1527.85 637.691 1526.78 637.488 1525.46 637.488H1520.27V659.281H1517.31ZM1528.8 648.313L1534.81 659.281H1531.38L1525.46 648.313H1528.8Z" fill="white"/>
<line x1="1361.13" y1="728.987" x2="1361.14" y2="201.432" stroke="#384148" stroke-width="2.39798"/>
<circle cx="1362.33" cy="199.034" r="28.7758" fill="#5FA4DA"/>
<circle cx="1362.33" cy="558.73" r="28.7758" fill="#5FA4DA"/>
</svg>
