<svg width="40" height="40" viewBox="0 0 40 40" fill="none" xmlns="http://www.w3.org/2000/svg">
<circle cx="20" cy="20" r="20" fill="#49E092"/>
<path d="M25.0506 17.9376L22.0623 14.9492C21.5066 14.4189 20.7679 14.123 19.9998 14.123C19.2316 14.123 18.493 14.4189 17.9373 14.9492L14.9489 17.9376C14.7146 18.1721 14.5829 18.4901 14.583 18.8216C14.5831 19.1532 14.7149 19.4711 14.9494 19.7055C15.1839 19.9399 15.5019 20.0715 15.8334 20.0714C16.165 20.0714 16.4829 19.9396 16.7173 19.7051L18.7498 17.6726V25.8334C18.7498 26.1649 18.8815 26.4829 19.1159 26.7173C19.3503 26.9517 19.6683 27.0834 19.9998 27.0834C20.3313 27.0834 20.6492 26.9517 20.8837 26.7173C21.1181 26.4829 21.2498 26.1649 21.2498 25.8334V17.6726L23.2823 19.7051C23.3983 19.8212 23.5361 19.9133 23.6878 19.9762C23.8394 20.039 24.002 20.0714 24.1662 20.0714C24.3303 20.0715 24.4929 20.0392 24.6446 19.9764C24.7963 19.9136 24.9341 19.8215 25.0502 19.7055C25.1663 19.5894 25.2584 19.4516 25.3213 19.3C25.3841 19.1483 25.4165 18.9858 25.4166 18.8216C25.4166 18.6575 25.3843 18.4949 25.3215 18.3432C25.2587 18.1915 25.1667 18.0537 25.0506 17.9376Z" fill="#061818"/>
</svg>
