<svg width="26" height="26" viewBox="0 0 26 26" fill="none" xmlns="http://www.w3.org/2000/svg">
<path d="M13 26C20.1797 26 26 20.1797 26 13C26 5.8203 20.1797 0 13 0C5.8203 0 0 5.8203 0 13C0 20.1797 5.8203 26 13 26Z" fill="url(#paint0_radial_1_62670)"/>
<g style="mix-blend-mode:soft-light">
<path d="M13 26C20.1797 26 26 20.1797 26 13C26 5.8203 20.1797 0 13 0C5.8203 0 0 5.8203 0 13C0 20.1797 5.8203 26 13 26Z" fill="url(#paint1_radial_1_62670)"/>
</g>
<g style="mix-blend-mode:soft-light">
<path d="M13 26C20.1797 26 26 20.1797 26 13C26 5.8203 20.1797 0 13 0C5.8203 0 0 5.8203 0 13C0 20.1797 5.8203 26 13 26Z" fill="url(#paint2_radial_1_62670)"/>
</g>
<g style="mix-blend-mode:overlay">
<path d="M13 26C20.1797 26 26 20.1797 26 13C26 5.8203 20.1797 0 13 0C5.8203 0 0 5.8203 0 13C0 20.1797 5.8203 26 13 26Z" fill="url(#paint3_radial_1_62670)" fill-opacity="0.7"/>
</g>
<mask id="mask0_1_62670" style="mask-type:alpha" maskUnits="userSpaceOnUse" x="0" y="0" width="26" height="26">
<path d="M13 26C20.1797 26 26 20.1797 26 13C26 5.8203 20.1797 0 13 0C5.8203 0 0 5.8203 0 13C0 20.1797 5.8203 26 13 26Z" fill="white"/>
</mask>
<g mask="url(#mask0_1_62670)">
<g filter="url(#filter0_f_1_62670)">
<path d="M-0.0739913 12.6272C-0.0598753 12.4425 0.000910595 12.424 0.0186398 12.6116C0.0383374 12.8199 4.72441e-05 13.2389 0.00926583 13.4916C0.0336749 14.1607 0.136242 14.7424 0.241977 15.2157C0.582713 16.7406 1.05458 17.7233 1.49469 18.5558C2.94139 21.2925 4.52612 22.6783 6.07207 23.7228C8.33818 25.2537 10.6227 25.7407 12.9091 25.844C12.9668 25.8466 12.9764 26.2222 12.9196 26.2711C12.8173 26.3593 12.6906 26.2718 12.5859 26.2681C12.2851 26.2576 11.9844 26.237 11.6837 26.2057C10.792 26.113 9.90031 25.9243 9.01046 25.6207C6.59097 24.7952 3.98224 23.3818 1.70396 19.4007C1.56064 19.1502 1.41845 18.8865 1.27828 18.6032C1.16618 18.3766 1.05517 18.1391 0.946109 17.885C0.587407 17.0495 -0.248489 14.9105 -0.0739913 12.6272ZM12.9107 26.2752C12.8557 26.2769 12.8417 25.9267 12.8942 25.854C12.9734 25.7441 13.0922 25.8346 13.1758 25.8293C13.5229 25.8077 13.8698 25.7755 14.2167 25.7319C15.1678 25.6125 16.1183 25.4086 17.0665 25.0945C19.4186 24.3156 21.9473 23.1281 24.1645 19.4799C24.3057 19.2477 24.4456 19.0013 24.5836 18.7365C25.003 17.9319 26.0542 15.7958 25.9326 13.1405C25.9224 12.9166 25.9905 12.7826 26.021 12.9746C26.0599 13.2191 26.0441 13.7288 26.0334 14C25.9992 14.8687 25.8658 15.6033 25.7251 16.1965C25.2793 18.0767 24.6535 19.1668 24.0804 20.077C22.2176 23.0355 20.1943 24.2282 18.2273 25.0853C16.463 25.854 14.6854 26.2204 12.9107 26.2752Z" fill="#401C02"/>
</g>
<g filter="url(#filter1_f_1_62670)">
<path d="M-0.0739913 12.6272C-0.0598753 12.4425 0.000910595 12.424 0.0186398 12.6116C0.0383374 12.8199 4.72441e-05 13.2389 0.00926583 13.4916C0.0336749 14.1607 0.136242 14.7424 0.241977 15.2157C0.582713 16.7406 1.05458 17.7233 1.49469 18.5558C2.94139 21.2925 4.52612 22.6783 6.07207 23.7228C8.33818 25.2537 10.6227 25.7407 12.9091 25.844C12.9668 25.8466 12.9764 26.2222 12.9196 26.2711C12.8173 26.3593 12.6906 26.2718 12.5859 26.2681C12.2851 26.2576 11.9844 26.237 11.6837 26.2057C10.792 26.113 9.90031 25.9243 9.01046 25.6207C6.59097 24.7952 3.98224 23.3818 1.70396 19.4007C1.56064 19.1502 1.41845 18.8865 1.27828 18.6032C1.16618 18.3766 1.05517 18.1391 0.946109 17.885C0.587407 17.0495 -0.248489 14.9105 -0.0739913 12.6272ZM12.9107 26.2752C12.8557 26.2769 12.8417 25.9267 12.8942 25.854C12.9734 25.7441 13.0922 25.8346 13.1758 25.8293C13.5229 25.8077 13.8698 25.7755 14.2167 25.7319C15.1678 25.6125 16.1183 25.4086 17.0665 25.0945C19.4186 24.3156 21.9473 23.1281 24.1645 19.4799C24.3057 19.2477 24.4456 19.0013 24.5836 18.7365C25.003 17.9319 26.0542 15.7958 25.9326 13.1405C25.9224 12.9166 25.9905 12.7826 26.021 12.9746C26.0599 13.2191 26.0441 13.7288 26.0334 14C25.9992 14.8687 25.8658 15.6033 25.7251 16.1965C25.2793 18.0767 24.6535 19.1668 24.0804 20.077C22.2176 23.0355 20.1943 24.2282 18.2273 25.0853C16.463 25.854 14.6854 26.2204 12.9107 26.2752Z" fill="#401C02"/>
</g>
</g>
<path d="M8.38566 20.3794C8.26815 20.4409 8.10753 20.3665 8.14526 20.2689C8.68805 18.8513 10.6582 17.8013 13.0066 17.8013C15.3551 17.8013 17.3279 18.8524 17.8686 20.2706C17.9058 20.3687 17.7451 20.4425 17.6282 20.3811C16.4601 19.7687 14.8204 19.3877 13.0066 19.3877C11.1929 19.3877 9.55479 19.7687 8.38566 20.3794Z" fill="url(#paint4_radial_1_62670)"/>
<path d="M8.38566 20.3794C8.26815 20.4409 8.10753 20.3665 8.14526 20.2689C8.68805 18.8513 10.6582 17.8013 13.0066 17.8013C15.3551 17.8013 17.3279 18.8524 17.8686 20.2706C17.9058 20.3687 17.7451 20.4425 17.6282 20.3811C16.4601 19.7687 14.8204 19.3877 13.0066 19.3877C11.1929 19.3877 9.55479 19.7687 8.38566 20.3794Z" stroke="url(#paint5_linear_1_62670)" stroke-width="0.852459" stroke-miterlimit="10"/>
<path d="M4.74772 8.47053C5.06197 8.05063 7.04609 5.58248 9.58108 6.50797C9.66045 6.53522 9.72822 6.58862 9.77327 6.65943C9.81831 6.73023 9.83798 6.81423 9.82903 6.89768C9.81394 7.00117 9.75357 7.10142 9.59402 7.14994C8.90462 7.36015 7.45628 6.8966 5.61769 8.38698C5.45905 8.5184 5.30721 8.65783 5.16276 8.80472C5.0582 8.90929 4.88355 9.04404 4.74287 8.96265C4.62321 8.89311 4.62429 8.76699 4.64908 8.66835C4.66834 8.59645 4.70189 8.52917 4.74772 8.47053Z" fill="#42210B"/>
<path d="M21.291 8.47052C20.9762 8.05063 18.9926 5.58248 16.4593 6.50797C16.3795 6.5353 16.3115 6.58903 16.2664 6.66028C16.2213 6.73154 16.2019 6.81604 16.2113 6.89983C16.2264 7.00332 16.2868 7.10358 16.4463 7.15209C17.1357 7.36231 18.5835 6.89875 20.4227 8.38913C20.5811 8.52056 20.7328 8.65999 20.8771 8.80687C20.9822 8.91144 21.1568 9.04619 21.2969 8.9648C21.4171 8.89527 21.4161 8.76914 21.3913 8.6705C21.3716 8.59781 21.3375 8.52981 21.291 8.47052Z" fill="#42210B"/>
<path d="M8.28907 14.4486C9.15148 14.4486 9.8506 13.5429 9.8506 12.4257C9.8506 11.3085 9.15148 10.4028 8.28907 10.4028C7.42666 10.4028 6.72754 11.3085 6.72754 12.4257C6.72754 13.5429 7.42666 14.4486 8.28907 14.4486Z" fill="url(#paint6_radial_1_62670)"/>
<path d="M8.28907 14.4486C9.15148 14.4486 9.8506 13.5429 9.8506 12.4257C9.8506 11.3085 9.15148 10.4028 8.28907 10.4028C7.42666 10.4028 6.72754 11.3085 6.72754 12.4257C6.72754 13.5429 7.42666 14.4486 8.28907 14.4486Z" stroke="url(#paint7_linear_1_62670)" stroke-width="1.06557" stroke-miterlimit="10"/>
<path d="M17.749 14.4486C18.6114 14.4486 19.3106 13.5429 19.3106 12.4257C19.3106 11.3085 18.6114 10.4028 17.749 10.4028C16.8866 10.4028 16.1875 11.3085 16.1875 12.4257C16.1875 13.5429 16.8866 14.4486 17.749 14.4486Z" fill="url(#paint8_radial_1_62670)"/>
<path d="M17.749 14.4486C18.6114 14.4486 19.3106 13.5429 19.3106 12.4257C19.3106 11.3085 18.6114 10.4028 17.749 10.4028C16.8866 10.4028 16.1875 11.3085 16.1875 12.4257C16.1875 13.5429 16.8866 14.4486 17.749 14.4486Z" stroke="url(#paint9_linear_1_62670)" stroke-width="1.06557" stroke-miterlimit="10"/>
<defs>
<filter id="filter0_f_1_62670" x="-10.7534" y="1.82375" width="47.455" height="35.1423" filterUnits="userSpaceOnUse" color-interpolation-filters="sRGB">
<feFlood flood-opacity="0" result="BackgroundImageFix"/>
<feBlend mode="normal" in="SourceGraphic" in2="BackgroundImageFix" result="shape"/>
<feGaussianBlur stdDeviation="5.32787" result="effect1_foregroundBlur_1_62670"/>
</filter>
<filter id="filter1_f_1_62670" x="-17.1468" y="-4.56969" width="60.2419" height="47.9292" filterUnits="userSpaceOnUse" color-interpolation-filters="sRGB">
<feFlood flood-opacity="0" result="BackgroundImageFix"/>
<feBlend mode="normal" in="SourceGraphic" in2="BackgroundImageFix" result="shape"/>
<feGaussianBlur stdDeviation="8.52459" result="effect1_foregroundBlur_1_62670"/>
</filter>
<radialGradient id="paint0_radial_1_62670" cx="0" cy="0" r="1" gradientUnits="userSpaceOnUse" gradientTransform="translate(12.9903) rotate(90) scale(25.9806)">
<stop stop-color="#FFDE43"/>
<stop offset="1" stop-color="#FFBC00"/>
</radialGradient>
<radialGradient id="paint1_radial_1_62670" cx="0" cy="0" r="1" gradientUnits="userSpaceOnUse" gradientTransform="translate(12.9903 3.47666) rotate(90) scale(22.5039)">
<stop stop-color="white" stop-opacity="0.5"/>
<stop offset="0.782278"/>
</radialGradient>
<radialGradient id="paint2_radial_1_62670" cx="0" cy="0" r="1" gradientUnits="userSpaceOnUse" gradientTransform="translate(12.9903 3.47666) rotate(90) scale(22.5039)">
<stop stop-color="white" stop-opacity="0.5"/>
<stop offset="0.782278"/>
</radialGradient>
<radialGradient id="paint3_radial_1_62670" cx="0" cy="0" r="1" gradientUnits="userSpaceOnUse" gradientTransform="translate(12.9903 -2.82984) rotate(90) scale(28.8104 38.962)">
<stop offset="0.0922635" stop-color="white"/>
<stop offset="0.670207" stop-color="white" stop-opacity="0"/>
</radialGradient>
<radialGradient id="paint4_radial_1_62670" cx="0" cy="0" r="1" gradientUnits="userSpaceOnUse" gradientTransform="translate(13.0068 19.0972) scale(3.67388 2.62835)">
<stop stop-color="#743C1C"/>
<stop offset="1" stop-color="#401C02"/>
</radialGradient>
<linearGradient id="paint5_linear_1_62670" x1="13.0068" y1="20.4767" x2="13.0068" y2="17.7176" gradientUnits="userSpaceOnUse">
<stop offset="0.265625" stop-color="#FFDE43"/>
<stop offset="1" stop-color="#F79D14"/>
</linearGradient>
<radialGradient id="paint6_radial_1_62670" cx="0" cy="0" r="1" gradientUnits="userSpaceOnUse" gradientTransform="translate(8.28691 12.4244) scale(1.99057 2.02644)">
<stop stop-color="#743C1C"/>
<stop offset="1" stop-color="#401C02"/>
</radialGradient>
<linearGradient id="paint7_linear_1_62670" x1="8.28907" y1="14.5625" x2="8.28907" y2="10.2726" gradientUnits="userSpaceOnUse">
<stop stop-color="#FFDE43"/>
<stop offset="0.22" stop-color="#FED93F"/>
<stop offset="0.51" stop-color="#FCC934"/>
<stop offset="0.82" stop-color="#F9AF21"/>
<stop offset="1" stop-color="#F79D14"/>
</linearGradient>
<radialGradient id="paint8_radial_1_62670" cx="0" cy="0" r="1" gradientUnits="userSpaceOnUse" gradientTransform="translate(17.7469 12.4244) scale(1.99057 2.02644)">
<stop stop-color="#743C1C"/>
<stop offset="1" stop-color="#401C02"/>
</radialGradient>
<linearGradient id="paint9_linear_1_62670" x1="17.749" y1="14.5625" x2="17.749" y2="10.2726" gradientUnits="userSpaceOnUse">
<stop stop-color="#FFDE43"/>
<stop offset="0.22" stop-color="#FED93F"/>
<stop offset="0.51" stop-color="#FCC934"/>
<stop offset="0.82" stop-color="#F9AF21"/>
<stop offset="1" stop-color="#F79D14"/>
</linearGradient>
</defs>
</svg>
