<svg width="45" height="45" viewBox="0 0 45 45" fill="none" xmlns="http://www.w3.org/2000/svg">
<mask id="mask0_795_31713" style="mask-type:luminance" maskUnits="userSpaceOnUse" x="0" y="0" width="45" height="45">
<path d="M45 0H0V45H45V0Z" fill="white"/>
</mask>
<g mask="url(#mask0_795_31713)">
<path fill-rule="evenodd" clip-rule="evenodd" d="M22.5 7.5701C20.8741 7.5701 19.5561 8.88813 19.5561 10.514H11.986C11.986 4.70729 16.6933 0 22.5 0C28.3068 0 33.014 4.70729 33.014 10.514C33.014 16.3208 28.3068 21.028 22.5 21.028V13.4579C24.1258 13.4579 25.4439 12.1399 25.4439 10.514C25.4439 8.88813 24.1258 7.5701 22.5 7.5701ZM37.4299 22.5C37.4299 20.8741 36.1118 19.5561 34.486 19.5561V11.986C40.2928 11.986 45 16.6933 45 22.5C45 28.3068 40.2928 33.014 34.486 33.014C28.6792 33.014 23.9719 28.3068 23.9719 22.5H31.5421C31.5421 24.1258 32.8601 25.4439 34.486 25.4439C36.1118 25.4439 37.4299 24.1258 37.4299 22.5ZM10.514 25.4439C8.88813 25.4439 7.5701 24.1258 7.5701 22.5C7.5701 20.8741 8.88813 19.5561 10.514 19.5561C12.1399 19.5561 13.4579 20.8741 13.4579 22.5H21.028C21.028 16.6933 16.3208 11.986 10.514 11.986C4.70729 11.986 0 16.6933 0 22.5C0 28.3068 4.70729 33.014 10.514 33.014V25.4439ZM22.5 37.4299C24.1258 37.4299 25.4439 36.1118 25.4439 34.486H33.014C33.014 40.2928 28.3068 45 22.5 45C16.6933 45 11.986 40.2928 11.986 34.486C11.986 28.6792 16.6933 23.9719 22.5 23.9719V31.5421C20.8741 31.5421 19.5561 32.8601 19.5561 34.486C19.5561 36.1118 20.8741 37.4299 22.5 37.4299Z" fill="#FFC24C"/>
</g>
</svg>
