<svg width="45" height="45" viewBox="0 0 45 45" fill="none" xmlns="http://www.w3.org/2000/svg">
<mask id="mask0_456_18532" style="mask-type:luminance" maskUnits="userSpaceOnUse" x="0" y="0" width="45" height="45">
<path d="M45 0H0V45H45V0Z" fill="white"/>
</mask>
<g mask="url(#mask0_456_18532)">
<path d="M20.2347 1.37894C21.1853 -0.459647 23.8147 -0.459647 24.7653 1.37894L30.8189 13.087C31.0615 13.5562 31.4437 13.9384 31.9131 14.181L43.621 20.2347C45.4597 21.1853 45.4597 23.8147 43.621 24.7653L31.9131 30.8189C31.4437 31.0615 31.0615 31.4437 30.8189 31.9131L24.7653 43.621C23.8147 45.4597 21.1853 45.4597 20.2347 43.621L14.181 31.9131C13.9384 31.4437 13.5562 31.0615 13.087 30.8189L1.37894 24.7653C-0.459647 23.8147 -0.459647 21.1853 1.37894 20.2347L13.087 14.181C13.5562 13.9384 13.9384 13.5562 14.181 13.087L20.2347 1.37894Z" fill="#DF99F7"/>
</g>
</svg>
