<svg width="32" height="32" viewBox="0 0 32 32" fill="none" xmlns="http://www.w3.org/2000/svg">
<rect width="32" height="32" rx="4" fill="#3B3B3B"/>
<path d="M23.3337 9.99987C22.6952 10.4502 21.9884 10.7946 21.2403 11.0199C20.8388 10.5582 20.3052 10.231 19.7117 10.0825C19.1181 9.93397 18.4933 9.97133 17.9217 10.1895C17.3501 10.4077 16.8593 10.7961 16.5156 11.3023C16.172 11.8086 15.9921 12.4081 16.0003 13.0199V13.6865C14.8287 13.7169 13.6678 13.4571 12.621 12.9302C11.5742 12.4033 10.6739 11.6256 10.0003 10.6665C10.0003 10.6665 7.33366 16.6665 13.3337 19.3332C11.9607 20.2652 10.3251 20.7325 8.66699 20.6665C14.667 23.9999 22.0003 20.6665 22.0003 12.9999C21.9997 12.8142 21.9819 12.6289 21.947 12.4465C22.6274 11.7755 23.1075 10.9283 23.3337 9.99987Z" stroke="white" stroke-width="1.33333" stroke-linecap="round" stroke-linejoin="round"/>
</svg>
