<svg width="122" height="51" viewBox="0 0 122 51" fill="none" xmlns="http://www.w3.org/2000/svg">
<rect y="11" width="118" height="40" rx="17" transform="rotate(-5 0 11)" fill="#E2AFFA"/>
<path d="M34.0053 22.6001L36.1052 22.4164L36.7678 29.9897C36.8404 30.8199 36.7081 31.5672 36.3708 32.2317C36.0373 32.8959 35.5332 33.4362 34.8586 33.8526C34.1837 34.2653 33.3745 34.5129 32.4311 34.5954C31.484 34.6783 30.6423 34.5751 29.9059 34.2859C29.1692 33.993 28.579 33.5484 28.1352 32.9522C27.6914 32.3561 27.4332 31.6429 27.3606 30.8127L26.698 23.2394L28.7979 23.0557L29.4452 30.4535C29.4874 30.9366 29.6307 31.3575 29.875 31.7163C30.1231 32.0749 30.4509 32.3447 30.8584 32.5258C31.2656 32.7031 31.7352 32.7685 32.2672 32.7219C32.7993 32.6754 33.2504 32.5294 33.6206 32.2841C33.9942 32.0347 34.2702 31.7121 34.4485 31.3162C34.6268 30.9204 34.6948 30.481 34.6525 29.998L34.0053 22.6001ZM40.9146 28.5432L41.3603 33.6374L39.3113 33.8167L38.5507 25.1226L40.5091 24.9513L40.6384 26.4286L40.7403 26.4197C40.8977 25.9154 41.1827 25.5007 41.5953 25.1756C42.0117 24.8502 42.5444 24.6591 43.1935 24.6024C43.7934 24.5499 44.3273 24.6324 44.795 24.8501C45.2665 25.0674 45.6462 25.4087 45.934 25.874C46.2257 26.339 46.4 26.9188 46.457 27.6135L46.9413 33.1491L44.8923 33.3284L44.4357 28.1097C44.3849 27.5286 44.1941 27.0871 43.8635 26.7852C43.5367 26.483 43.1092 26.355 42.5809 26.4012C42.2224 26.4326 41.9105 26.5397 41.6451 26.7226C41.3832 26.9015 41.1858 27.145 41.0531 27.4532C40.9241 27.761 40.878 28.1244 40.9146 28.5432ZM49.0242 32.9669L48.2636 24.2728L50.3126 24.0936L51.0732 32.7876L49.0242 32.9669ZM49.1858 22.9488C48.8613 22.9772 48.5726 22.8941 48.3199 22.6995C48.0668 22.5011 47.9268 22.249 47.9001 21.9434C47.873 21.634 47.9671 21.3615 48.1822 21.1259C48.397 20.8866 48.6667 20.7527 48.9912 20.7243C49.3195 20.6956 49.6083 20.7806 49.8576 20.9793C50.1104 21.174 50.2503 21.426 50.2774 21.7354C50.3041 22.0411 50.2101 22.3135 49.9953 22.5529C49.7839 22.7881 49.5141 22.9201 49.1858 22.9488ZM59.2672 35.356L58.8621 30.726L58.7772 30.7334C58.69 30.9539 58.5568 31.1918 58.3776 31.4471C58.1981 31.6985 57.9515 31.9216 57.6377 32.1164C57.3239 32.3111 56.918 32.4303 56.4199 32.4739C55.7369 32.5336 55.1103 32.4116 54.5399 32.1079C53.9696 31.8042 53.4987 31.3321 53.127 30.6916C52.7554 30.0511 52.5278 29.2535 52.4443 28.2988C52.3598 27.3328 52.447 26.5039 52.7058 25.812C52.9681 25.116 53.3561 24.5745 53.8698 24.1873C54.3831 23.7964 54.9738 23.5717 55.6417 23.5133C56.1511 23.4687 56.5775 23.5189 56.921 23.6637C57.2641 23.8048 57.5425 23.9877 57.7561 24.2123C57.9693 24.4332 58.138 24.6447 58.2622 24.8468L58.3867 24.8359L58.2609 23.3982L60.2759 23.2219L61.3218 35.1762L59.2672 35.356ZM56.8445 30.7428C57.2785 30.7048 57.638 30.5555 57.9232 30.2948C58.2081 30.0303 58.4112 29.6798 58.5327 29.2433C58.6543 28.8068 58.6904 28.3075 58.6412 27.7452C58.592 27.183 58.47 26.7012 58.2752 26.3C58.0842 25.8985 57.8258 25.596 57.5 25.3926C57.178 25.1888 56.7962 25.1062 56.3548 25.1448C55.8982 25.1848 55.5274 25.337 55.2426 25.6015C54.9577 25.8659 54.7563 26.2144 54.6382 26.6468C54.5201 27.0791 54.4847 27.5651 54.5319 28.1047C54.5795 28.6481 54.6992 29.1262 54.8913 29.5391C55.0867 29.9479 55.348 30.2615 55.6751 30.4801C56.0057 30.6945 56.3955 30.7821 56.8445 30.7428ZM68.3636 27.5905L67.9229 22.5529L69.9719 22.3736L70.7325 31.0677L68.7458 31.2415L68.6106 29.6963L68.52 29.7042C68.3664 30.2081 68.0786 30.6345 67.6566 30.9832C67.2384 31.3315 66.7029 31.5343 66.0501 31.5914C65.4803 31.6413 64.9655 31.5589 64.5056 31.3444C64.0492 31.1258 63.6771 30.7838 63.3893 30.3185C63.1011 29.8494 62.9266 29.2677 62.8658 28.5734L62.3815 23.0377L64.4305 22.8584L64.8871 28.0771C64.9353 28.6281 65.1245 29.0526 65.4548 29.3507C65.7851 29.6488 66.1955 29.7764 66.686 29.7335C66.9879 29.707 67.2739 29.6079 67.5441 29.436C67.8142 29.264 68.0271 29.0249 68.1828 28.7185C68.342 28.408 68.4022 28.032 68.3636 27.5905ZM76.7033 30.7164C75.8316 30.7927 75.063 30.6774 74.3973 30.3706C73.7351 30.0597 73.205 29.5852 72.807 28.947C72.4086 28.305 72.1696 27.5293 72.0901 26.6199C72.0118 25.7256 72.113 24.9259 72.3935 24.2207C72.6774 23.5115 73.1105 22.9412 73.6925 22.5101C74.2742 22.0752 74.9802 21.8214 75.8104 21.7487C76.3462 21.7019 76.8594 21.7444 77.3501 21.8764C77.8442 22.0043 78.2899 22.2314 78.6873 22.5579C79.0884 22.884 79.4189 23.3152 79.6788 23.8514C79.9383 24.3838 80.1014 25.0312 80.1681 25.7934L80.2231 26.4217L73.0969 27.0452L72.976 25.6641L78.1381 25.2125C78.1 24.8203 77.9846 24.4787 77.7918 24.1876C77.5987 23.8927 77.3454 23.6696 77.0317 23.5183C76.7219 23.3667 76.3707 23.3081 75.9783 23.3424C75.5594 23.3791 75.2005 23.5132 74.9013 23.7447C74.6018 23.9724 74.3778 24.2582 74.2291 24.602C74.084 24.9417 74.0265 25.306 74.0567 25.695L74.1622 26.9006C74.2064 27.4063 74.3368 27.8321 74.5534 28.1782C74.7697 28.5205 75.0523 28.7734 75.4012 28.9368C75.7498 29.0964 76.1467 29.1567 76.5919 29.1178C76.89 29.0917 77.1562 29.0266 77.3905 28.9224C77.6244 28.8145 77.8227 28.6698 77.9856 28.4882C78.1484 28.3067 78.2644 28.0893 78.3335 27.8361L80.2654 27.8838C80.1889 28.4 79.9974 28.8617 79.6908 29.2687C79.3876 29.6717 78.9828 29.9999 78.4765 30.2533C77.9698 30.5029 77.3787 30.6573 76.7033 30.7164ZM83.3226 18.2854L84.3368 29.8775L82.2878 30.0567L81.2736 18.4646L83.3226 18.2854ZM88.0026 32.842C87.7233 32.8664 87.4629 32.8664 87.2212 32.8419C86.9836 32.8209 86.7925 32.7881 86.6479 32.7438L86.9838 31.106C87.2894 31.1667 87.5591 31.1849 87.7927 31.1607C88.0264 31.1364 88.2256 31.0449 88.3904 30.886C88.5593 30.7305 88.6917 30.4832 88.7875 30.144L88.9218 29.6588L84.9926 21.0595L87.1661 20.8693L89.7443 27.2598L89.8348 27.2519L91.2698 20.5103L93.4489 20.3196L90.8207 30.3711C90.6987 30.8456 90.5181 31.2588 90.2789 31.6105C90.04 31.966 89.7339 32.2475 89.3604 32.4551C88.991 32.6661 88.5384 32.7951 88.0026 32.842Z" fill="#4F4C4C"/>
</svg>
