<svg width="315" height="455" viewBox="0 0 315 455" fill="none" xmlns="http://www.w3.org/2000/svg">
<path d="M0.29925 2C0.29925 1.0607 1.0607 0.29925 2 0.29925H313C313.939 0.29925 314.701 1.0607 314.701 2V453C314.701 453.939 313.939 454.701 313 454.701H2C1.0607 454.701 0.29925 453.939 0.29925 453V2Z" fill="white" stroke="#F3F2F2" stroke-width="0.598499"/>
<path d="M96.447 149.146C99.4299 149.146 101.709 149.715 101.709 153.285C101.709 156.871 99.4299 157.441 96.447 157.441H94.8885V160.96H92.2072V149.146H96.447ZM96.6145 155.095C98.2065 155.095 99.0277 154.927 99.0277 153.285C99.0277 151.659 98.2065 151.492 96.6145 151.492H94.8885V155.095H96.6145ZM102.215 158.647C102.215 157.189 103.086 156.335 105.6 155.983L108.264 155.614C108.264 154.927 107.728 154.508 106.572 154.508C105.499 154.508 104.896 154.961 104.896 155.731H102.382C102.382 153.586 104.209 152.33 106.572 152.33C108.901 152.33 110.946 153.452 110.946 156.234V158.614H112.169V160.96H110.309C109.505 160.96 109.052 160.507 109.052 159.703V159.536L109.471 158.53H108.801C108.482 159.938 107.661 161.128 105.298 161.128C102.667 161.128 102.215 159.519 102.215 158.647ZM104.896 158.145C104.896 158.631 105.365 158.781 105.818 158.781C107.293 158.781 108.264 158.161 108.264 157.122L106.103 157.424C105.298 157.541 104.896 157.659 104.896 158.145ZM118.373 152.497H121.406L117.535 160.457V163.071C117.535 164.01 117.016 164.513 116.094 164.479L111.955 164.362V162.016L114.854 162.066V160.457L110.983 152.497H113.999L115.859 157.156V158.497H116.53V157.156L118.373 152.497ZM133.566 152.33C135.728 152.33 136.381 154.274 136.381 156.553V160.96H133.7V156.737C133.7 155.128 133.432 154.676 132.443 154.676C130.985 154.676 130.65 155.949 130.65 157.994V160.96H127.969V156.737C127.969 155.128 127.7 154.676 126.712 154.676C125.254 154.676 124.919 155.949 124.919 157.994V160.96H122.237V152.497H124.919V153.352L124.416 154.86H125.086C125.421 153.352 126.192 152.33 127.835 152.33C129.427 152.33 130.097 153.385 130.348 154.86H130.834C131.169 153.352 131.923 152.33 133.566 152.33ZM137.384 156.62C137.384 153.938 139.21 152.33 141.841 152.33C144.472 152.33 146.316 153.888 146.316 156.452V157.29H139.897C139.897 158.262 140.601 158.949 142.126 158.949C143.065 158.949 143.768 158.614 143.936 157.977H146.617C146.45 159.2 145.059 161.128 142.126 161.128C138.875 161.128 137.384 159.016 137.384 156.62ZM139.897 155.782H143.802C143.802 155.145 143.333 154.508 141.841 154.508C140.35 154.508 139.897 155.145 139.897 155.782ZM152.878 154.676C151.42 154.676 150.465 155.447 150.465 157.826V160.96H147.783V152.497H150.465V153.519L149.962 155.028H150.632C150.967 153.519 152.023 152.33 153.833 152.33C155.995 152.33 157.302 153.771 157.302 156.385V160.96H154.621V156.804C154.621 155.262 154.168 154.676 152.878 154.676ZM162.832 158.781L165.949 158.614V160.96L161.575 161.128C160.653 161.161 160.15 160.625 160.15 159.703V154.843H158.139V152.497H160.15V150.905L162.832 150.067V152.497H165.613V154.843H162.832V158.781ZM172.151 160.96V149.146H180.581V151.492H174.833V154.894L180.195 154.558V156.938L174.833 157.273V160.96H172.151ZM181.242 158.647C181.242 157.189 182.114 156.335 184.628 155.983L187.292 155.614C187.292 154.927 186.756 154.508 185.6 154.508C184.527 154.508 183.924 154.961 183.924 155.731H181.41C181.41 153.586 183.237 152.33 185.6 152.33C187.929 152.33 189.973 153.452 189.973 156.234V158.614H191.197V160.96H189.337C188.532 160.96 188.08 160.507 188.08 159.703V159.536L188.499 158.53H187.828C187.51 159.938 186.689 161.128 184.326 161.128C181.695 161.128 181.242 159.519 181.242 158.647ZM183.924 158.145C183.924 158.631 184.393 158.781 184.845 158.781C186.32 158.781 187.292 158.161 187.292 157.122L185.13 157.424C184.326 157.541 183.924 157.659 183.924 158.145ZM195.496 151.659C194.507 151.659 193.921 151.19 193.921 150.319C193.921 149.464 194.507 148.978 195.496 148.978C196.485 148.978 197.105 149.464 197.105 150.319C197.105 151.19 196.485 151.659 195.496 151.659ZM192.027 160.96V158.614H194.424V154.743L192.362 154.843V152.497L195.546 152.33C196.485 152.279 197.004 152.799 197.004 153.737V158.614H199.401V160.96H192.027ZM200.239 160.96V158.614H202.585V150.888L200.574 150.989V148.643L203.808 148.526C204.746 148.492 205.266 148.995 205.266 149.933V158.614H207.612V160.96H200.239ZM208.114 156.62C208.114 153.938 209.941 152.33 212.572 152.33C215.203 152.33 217.046 153.888 217.046 156.452V157.29H210.628C210.628 158.262 211.332 158.949 212.857 158.949C213.795 158.949 214.499 158.614 214.666 157.977H217.348C217.18 159.2 215.789 161.128 212.857 161.128C209.606 161.128 208.114 159.016 208.114 156.62ZM210.628 155.782H214.532C214.532 155.145 214.063 154.508 212.572 154.508C211.08 154.508 210.628 155.145 210.628 155.782ZM228.032 160.96H225.351V160.44L225.854 158.932H225.184C224.748 160.055 223.943 161.128 221.849 161.128C219.402 161.128 218.179 159.117 218.179 156.72C218.179 154.324 219.402 152.33 221.849 152.33C223.943 152.33 224.748 153.402 225.184 154.525H225.854L225.351 153.017V148.643H228.032V160.96ZM225.351 156.72C225.351 155.296 224.547 154.676 223.106 154.676C221.664 154.676 220.86 155.296 220.86 156.72C220.86 158.145 221.664 158.781 223.106 158.781C224.547 158.781 225.351 158.145 225.351 156.72Z" fill="#000E1F"/>
<path d="M109.279 182.336V191.041H108.225V182.336H109.279ZM114.096 184.512V185.362H110.712V184.512H114.096ZM111.699 182.948H112.702V189.171C112.702 189.454 112.743 189.667 112.825 189.808C112.91 189.947 113.018 190.041 113.148 190.089C113.281 190.134 113.422 190.157 113.569 190.157C113.679 190.157 113.77 190.151 113.841 190.14C113.912 190.126 113.968 190.114 114.011 190.106L114.215 191.007C114.147 191.033 114.052 191.058 113.93 191.084C113.808 191.112 113.654 191.126 113.467 191.126C113.183 191.126 112.906 191.065 112.634 190.943C112.365 190.821 112.141 190.636 111.962 190.386C111.786 190.137 111.699 189.822 111.699 189.443V182.948ZM116.828 182.336V183.101C116.828 183.333 116.786 183.581 116.701 183.845C116.618 184.105 116.497 184.359 116.335 184.605C116.176 184.849 115.984 185.062 115.757 185.243L115.213 184.801C115.391 184.546 115.546 184.281 115.676 184.006C115.809 183.728 115.876 183.432 115.876 183.118V182.336H116.828ZM121.855 185.974L120.953 186.229C120.897 186.079 120.813 185.933 120.703 185.791C120.595 185.647 120.448 185.528 120.261 185.434C120.074 185.341 119.834 185.294 119.542 185.294C119.143 185.294 118.81 185.386 118.543 185.57C118.28 185.752 118.148 185.983 118.148 186.263C118.148 186.513 118.239 186.71 118.42 186.854C118.601 186.999 118.885 187.119 119.27 187.215L120.239 187.453C120.823 187.595 121.258 187.812 121.544 188.104C121.83 188.393 121.974 188.765 121.974 189.222C121.974 189.596 121.866 189.93 121.651 190.225C121.438 190.52 121.14 190.752 120.758 190.922C120.375 191.092 119.93 191.177 119.423 191.177C118.757 191.177 118.206 191.033 117.77 190.743C117.333 190.454 117.057 190.032 116.941 189.477L117.893 189.239C117.984 189.59 118.155 189.854 118.407 190.029C118.662 190.205 118.995 190.293 119.406 190.293C119.874 190.293 120.245 190.194 120.52 189.995C120.798 189.794 120.936 189.553 120.936 189.273C120.936 189.046 120.857 188.856 120.698 188.703C120.54 188.547 120.296 188.431 119.967 188.355L118.879 188.1C118.281 187.958 117.842 187.738 117.561 187.441C117.284 187.14 117.145 186.765 117.145 186.314C117.145 185.946 117.248 185.62 117.455 185.337C117.665 185.053 117.95 184.831 118.309 184.669C118.672 184.508 119.083 184.427 119.542 184.427C120.188 184.427 120.696 184.569 121.064 184.852C121.435 185.135 121.699 185.509 121.855 185.974ZM127.853 187.113V191.041H126.85V184.512H127.819V185.532H127.904C128.057 185.201 128.29 184.934 128.601 184.733C128.913 184.529 129.316 184.427 129.809 184.427C130.251 184.427 130.638 184.518 130.969 184.699C131.301 184.877 131.559 185.15 131.743 185.515C131.927 185.878 132.019 186.337 132.019 186.892V191.041H131.016V186.96C131.016 186.447 130.883 186.048 130.616 185.762C130.35 185.473 129.984 185.328 129.52 185.328C129.199 185.328 128.913 185.397 128.661 185.536C128.412 185.675 128.215 185.878 128.07 186.144C127.926 186.411 127.853 186.734 127.853 187.113ZM136.505 191.177C135.915 191.177 135.398 191.037 134.953 190.756C134.511 190.476 134.165 190.083 133.916 189.579C133.669 189.074 133.546 188.485 133.546 187.81C133.546 187.13 133.669 186.537 133.916 186.029C134.165 185.522 134.511 185.128 134.953 184.848C135.398 184.567 135.915 184.427 136.505 184.427C137.094 184.427 137.61 184.567 138.052 184.848C138.497 185.128 138.842 185.522 139.089 186.029C139.338 186.537 139.463 187.13 139.463 187.81C139.463 188.485 139.338 189.074 139.089 189.579C138.842 190.083 138.497 190.476 138.052 190.756C137.61 191.037 137.094 191.177 136.505 191.177ZM136.505 190.276C136.952 190.276 137.321 190.161 137.61 189.932C137.899 189.702 138.113 189.4 138.252 189.026C138.391 188.652 138.46 188.247 138.46 187.81C138.46 187.374 138.391 186.967 138.252 186.591C138.113 186.214 137.899 185.909 137.61 185.677C137.321 185.444 136.952 185.328 136.505 185.328C136.057 185.328 135.688 185.444 135.399 185.677C135.11 185.909 134.896 186.214 134.758 186.591C134.619 186.967 134.549 187.374 134.549 187.81C134.549 188.247 134.619 188.652 134.758 189.026C134.896 189.4 135.11 189.702 135.399 189.932C135.688 190.161 136.057 190.276 136.505 190.276ZM143.834 184.512V185.362H140.45V184.512H143.834ZM141.436 182.948H142.44V189.171C142.44 189.454 142.481 189.667 142.563 189.808C142.648 189.947 142.756 190.041 142.886 190.089C143.019 190.134 143.159 190.157 143.307 190.157C143.417 190.157 143.508 190.151 143.579 190.14C143.65 190.126 143.706 190.114 143.749 190.106L143.953 191.007C143.885 191.033 143.79 191.058 143.668 191.084C143.546 191.112 143.392 191.126 143.205 191.126C142.921 191.126 142.644 191.065 142.372 190.943C142.102 190.821 141.879 190.636 141.7 190.386C141.524 190.137 141.436 189.822 141.436 189.443V182.948ZM149.356 193.489C149.186 193.489 149.034 193.475 148.901 193.447C148.768 193.421 148.675 193.396 148.624 193.37L148.879 192.486C149.123 192.549 149.339 192.571 149.526 192.554C149.713 192.537 149.878 192.454 150.023 192.303C150.17 192.156 150.305 191.917 150.427 191.585L150.614 191.075L148.199 184.512H149.288L151.09 189.715H151.158L152.96 184.512H154.048L151.277 191.993C151.152 192.33 150.998 192.61 150.814 192.831C150.629 193.054 150.415 193.22 150.172 193.328C149.931 193.436 149.659 193.489 149.356 193.489ZM157.791 191.177C157.202 191.177 156.684 191.037 156.24 190.756C155.797 190.476 155.452 190.083 155.202 189.579C154.956 189.074 154.833 188.485 154.833 187.81C154.833 187.13 154.956 186.537 155.202 186.029C155.452 185.522 155.797 185.128 156.24 184.848C156.684 184.567 157.202 184.427 157.791 184.427C158.38 184.427 158.896 184.567 159.338 184.848C159.783 185.128 160.129 185.522 160.375 186.029C160.625 186.537 160.75 187.13 160.75 187.81C160.75 188.485 160.625 189.074 160.375 189.579C160.129 190.083 159.783 190.476 159.338 190.756C158.896 191.037 158.38 191.177 157.791 191.177ZM157.791 190.276C158.239 190.276 158.607 190.161 158.896 189.932C159.185 189.702 159.399 189.4 159.538 189.026C159.677 188.652 159.746 188.247 159.746 187.81C159.746 187.374 159.677 186.967 159.538 186.591C159.399 186.214 159.185 185.909 158.896 185.677C158.607 185.444 158.239 185.328 157.791 185.328C157.343 185.328 156.975 185.444 156.686 185.677C156.397 185.909 156.183 186.214 156.044 186.591C155.905 186.967 155.836 187.374 155.836 187.81C155.836 188.247 155.905 188.652 156.044 189.026C156.183 189.4 156.397 189.702 156.686 189.932C156.975 190.161 157.343 190.276 157.791 190.276ZM166.396 188.372V184.512H167.399V191.041H166.396V189.936H166.328C166.175 190.267 165.936 190.549 165.613 190.782C165.29 191.011 164.882 191.126 164.389 191.126C163.981 191.126 163.618 191.037 163.301 190.858C162.984 190.677 162.734 190.405 162.553 190.042C162.372 189.677 162.281 189.216 162.281 188.661V184.512H163.284V188.593C163.284 189.069 163.417 189.448 163.684 189.732C163.953 190.015 164.296 190.157 164.712 190.157C164.962 190.157 165.215 190.093 165.473 189.966C165.734 189.838 165.952 189.643 166.128 189.379C166.306 189.115 166.396 188.78 166.396 188.372ZM170.732 189.851L170.664 190.31C170.616 190.633 170.542 190.979 170.443 191.347C170.347 191.715 170.246 192.063 170.141 192.388C170.037 192.714 169.95 192.974 169.882 193.166H169.117C169.154 192.985 169.202 192.746 169.262 192.448C169.321 192.15 169.381 191.817 169.44 191.449C169.502 191.084 169.553 190.709 169.593 190.327L169.644 189.851H170.732ZM175.958 191.041V184.512H176.961V191.041H175.958ZM176.468 183.424C176.272 183.424 176.103 183.357 175.962 183.224C175.823 183.091 175.753 182.931 175.753 182.744C175.753 182.557 175.823 182.397 175.962 182.263C176.103 182.13 176.272 182.064 176.468 182.064C176.663 182.064 176.83 182.13 176.969 182.263C177.111 182.397 177.182 182.557 177.182 182.744C177.182 182.931 177.111 183.091 176.969 183.224C176.83 183.357 176.663 183.424 176.468 183.424ZM181.638 184.512V185.362H178.254V184.512H181.638ZM179.24 182.948H180.243V189.171C180.243 189.454 180.284 189.667 180.367 189.808C180.452 189.947 180.559 190.041 180.69 190.089C180.823 190.134 180.963 190.157 181.11 190.157C181.221 190.157 181.312 190.151 181.382 190.14C181.453 190.126 181.51 190.114 181.552 190.106L181.757 191.007C181.689 191.033 181.594 191.058 181.472 191.084C181.35 191.112 181.195 191.126 181.008 191.126C180.725 191.126 180.447 191.065 180.175 190.943C179.906 190.821 179.682 190.636 179.504 190.386C179.328 190.137 179.24 189.822 179.24 189.443V182.948ZM187.654 185.974L186.753 186.229C186.697 186.079 186.613 185.933 186.502 185.791C186.395 185.647 186.247 185.528 186.06 185.434C185.873 185.341 185.634 185.294 185.342 185.294C184.942 185.294 184.609 185.386 184.343 185.57C184.08 185.752 183.948 185.983 183.948 186.263C183.948 186.513 184.038 186.71 184.22 186.854C184.401 186.999 184.685 187.119 185.07 187.215L186.039 187.453C186.623 187.595 187.058 187.812 187.344 188.104C187.63 188.393 187.773 188.765 187.773 189.222C187.773 189.596 187.666 189.93 187.45 190.225C187.238 190.52 186.94 190.752 186.558 190.922C186.175 191.092 185.73 191.177 185.223 191.177C184.557 191.177 184.006 191.033 183.569 190.743C183.133 190.454 182.857 190.032 182.741 189.477L183.693 189.239C183.783 189.59 183.955 189.854 184.207 190.029C184.462 190.205 184.795 190.293 185.206 190.293C185.674 190.293 186.045 190.194 186.32 189.995C186.597 189.794 186.736 189.553 186.736 189.273C186.736 189.046 186.657 188.856 186.498 188.703C186.339 188.547 186.096 188.431 185.767 188.355L184.679 188.1C184.081 187.958 183.642 187.738 183.361 187.441C183.083 187.14 182.945 186.765 182.945 186.314C182.945 185.946 183.048 185.62 183.255 185.337C183.465 185.053 183.749 184.831 184.109 184.669C184.472 184.508 184.883 184.427 185.342 184.427C185.988 184.427 186.495 184.569 186.864 184.852C187.235 185.135 187.499 185.509 187.654 185.974ZM196.765 188.372V184.512H197.768V191.041H196.765V189.936H196.697C196.544 190.267 196.306 190.549 195.983 190.782C195.66 191.011 195.251 191.126 194.758 191.126C194.35 191.126 193.988 191.037 193.67 190.858C193.353 190.677 193.103 190.405 192.922 190.042C192.741 189.677 192.65 189.216 192.65 188.661V184.512H193.653V188.593C193.653 189.069 193.786 189.448 194.053 189.732C194.322 190.015 194.665 190.157 195.081 190.157C195.331 190.157 195.584 190.093 195.842 189.966C196.103 189.838 196.321 189.643 196.497 189.379C196.675 189.115 196.765 188.78 196.765 188.372ZM204.23 185.974L203.329 186.229C203.272 186.079 203.189 185.933 203.078 185.791C202.97 185.647 202.823 185.528 202.636 185.434C202.449 185.341 202.21 185.294 201.918 185.294C201.518 185.294 201.185 185.386 200.919 185.57C200.655 185.752 200.523 185.983 200.523 186.263C200.523 186.513 200.614 186.71 200.795 186.854C200.977 186.999 201.26 187.119 201.646 187.215L202.615 187.453C203.199 187.595 203.633 187.812 203.92 188.104C204.206 188.393 204.349 188.765 204.349 189.222C204.349 189.596 204.241 189.93 204.026 190.225C203.813 190.52 203.516 190.752 203.133 190.922C202.751 191.092 202.306 191.177 201.799 191.177C201.133 191.177 200.581 191.033 200.145 190.743C199.709 190.454 199.432 190.032 199.316 189.477L200.268 189.239C200.359 189.59 200.53 189.854 200.783 190.029C201.038 190.205 201.371 190.293 201.782 190.293C202.249 190.293 202.62 190.194 202.895 189.995C203.173 189.794 203.312 189.553 203.312 189.273C203.312 189.046 203.233 188.856 203.074 188.703C202.915 188.547 202.671 188.431 202.343 188.355L201.255 188.1C200.657 187.958 200.217 187.738 199.937 187.441C199.659 187.14 199.52 186.765 199.52 186.314C199.52 185.946 199.624 185.62 199.831 185.337C200.04 185.053 200.325 184.831 200.685 184.669C201.048 184.508 201.459 184.427 201.918 184.427C202.564 184.427 203.071 184.569 203.439 184.852C203.811 185.135 204.074 185.509 204.23 185.974ZM206.59 191.109C206.381 191.109 206.201 191.034 206.05 190.884C205.9 190.734 205.825 190.554 205.825 190.344C205.825 190.134 205.9 189.954 206.05 189.804C206.201 189.654 206.381 189.579 206.59 189.579C206.8 189.579 206.98 189.654 207.13 189.804C207.28 189.954 207.355 190.134 207.355 190.344C207.355 190.483 207.32 190.61 207.249 190.726C207.181 190.843 207.089 190.936 206.973 191.007C206.859 191.075 206.732 191.109 206.59 191.109ZM99.2355 209.041V200.336H102.177C102.86 200.336 103.418 200.459 103.852 200.705C104.288 200.949 104.611 201.279 104.821 201.696C105.031 202.112 105.135 202.577 105.135 203.09C105.135 203.603 105.031 204.069 104.821 204.489C104.614 204.908 104.294 205.242 103.86 205.492C103.427 205.738 102.871 205.861 102.194 205.861H100.086V204.926H102.16C102.628 204.926 103.003 204.846 103.286 204.684C103.57 204.523 103.775 204.304 103.903 204.029C104.033 203.752 104.098 203.439 104.098 203.09C104.098 202.741 104.033 202.43 103.903 202.155C103.775 201.88 103.568 201.665 103.282 201.509C102.996 201.35 102.616 201.271 102.143 201.271H100.29V209.041H99.2355ZM107.701 200.336V209.041H106.698V200.336H107.701ZM112.276 209.177C111.646 209.177 111.104 209.038 110.648 208.76C110.194 208.48 109.844 208.089 109.598 207.587C109.354 207.083 109.232 206.496 109.232 205.827C109.232 205.159 109.354 204.569 109.598 204.059C109.844 203.546 110.187 203.147 110.626 202.86C111.068 202.571 111.584 202.427 112.174 202.427C112.514 202.427 112.849 202.484 113.181 202.597C113.513 202.71 113.814 202.894 114.086 203.15C114.358 203.402 114.575 203.736 114.737 204.153C114.898 204.569 114.979 205.082 114.979 205.691V206.117H109.946V205.249H113.959C113.959 204.881 113.885 204.552 113.738 204.263C113.593 203.974 113.386 203.746 113.117 203.579C112.851 203.412 112.536 203.328 112.174 203.328C111.774 203.328 111.428 203.427 111.136 203.626C110.847 203.821 110.625 204.076 110.469 204.391C110.313 204.705 110.235 205.043 110.235 205.402V205.981C110.235 206.474 110.32 206.892 110.49 207.234C110.663 207.575 110.903 207.834 111.209 208.012C111.515 208.188 111.87 208.276 112.276 208.276C112.539 208.276 112.777 208.239 112.99 208.165C113.205 208.089 113.391 207.976 113.547 207.825C113.702 207.672 113.823 207.482 113.908 207.256L114.877 207.528C114.775 207.856 114.604 208.146 114.363 208.395C114.122 208.641 113.824 208.834 113.47 208.973C113.116 209.109 112.718 209.177 112.276 209.177ZM118.426 209.194C118.013 209.194 117.637 209.116 117.3 208.96C116.963 208.802 116.695 208.573 116.497 208.276C116.298 207.976 116.199 207.613 116.199 207.188C116.199 206.814 116.273 206.51 116.42 206.278C116.567 206.043 116.764 205.859 117.011 205.725C117.257 205.592 117.529 205.493 117.827 205.428C118.127 205.36 118.429 205.306 118.732 205.266C119.129 205.215 119.451 205.177 119.697 205.152C119.947 205.123 120.128 205.077 120.241 205.011C120.358 204.946 120.416 204.833 120.416 204.671V204.637C120.416 204.218 120.301 203.892 120.071 203.66C119.845 203.427 119.5 203.311 119.038 203.311C118.56 203.311 118.184 203.416 117.912 203.626C117.64 203.835 117.449 204.059 117.338 204.297L116.386 203.957C116.556 203.56 116.783 203.252 117.066 203.031C117.352 202.807 117.664 202.651 118.001 202.563C118.341 202.472 118.676 202.427 119.004 202.427C119.214 202.427 119.455 202.452 119.727 202.503C120.002 202.552 120.267 202.652 120.522 202.805C120.78 202.958 120.994 203.189 121.164 203.498C121.334 203.807 121.419 204.221 121.419 204.739V209.041H120.416V208.157H120.365C120.297 208.299 120.183 208.45 120.025 208.612C119.866 208.773 119.655 208.911 119.391 209.024C119.128 209.137 118.806 209.194 118.426 209.194ZM118.579 208.293C118.976 208.293 119.311 208.215 119.583 208.059C119.857 207.903 120.064 207.702 120.203 207.456C120.345 207.209 120.416 206.95 120.416 206.678V205.759C120.373 205.81 120.28 205.857 120.135 205.9C119.993 205.939 119.829 205.975 119.642 206.006C119.458 206.034 119.278 206.06 119.102 206.083C118.929 206.102 118.789 206.119 118.681 206.134C118.421 206.168 118.177 206.223 117.95 206.299C117.726 206.373 117.545 206.485 117.406 206.635C117.27 206.782 117.202 206.984 117.202 207.239C117.202 207.587 117.331 207.851 117.589 208.029C117.85 208.205 118.18 208.293 118.579 208.293ZM127.875 203.974L126.973 204.229C126.917 204.079 126.833 203.933 126.723 203.791C126.615 203.647 126.468 203.528 126.281 203.434C126.094 203.341 125.854 203.294 125.562 203.294C125.163 203.294 124.83 203.386 124.563 203.57C124.3 203.752 124.168 203.983 124.168 204.263C124.168 204.513 124.259 204.71 124.44 204.854C124.621 204.999 124.905 205.119 125.29 205.215L126.259 205.453C126.843 205.595 127.278 205.812 127.564 206.104C127.851 206.393 127.994 206.765 127.994 207.222C127.994 207.596 127.886 207.93 127.671 208.225C127.458 208.52 127.16 208.752 126.778 208.922C126.395 209.092 125.95 209.177 125.443 209.177C124.777 209.177 124.226 209.033 123.79 208.743C123.353 208.454 123.077 208.032 122.961 207.477L123.913 207.239C124.004 207.59 124.175 207.854 124.427 208.029C124.682 208.205 125.015 208.293 125.426 208.293C125.894 208.293 126.265 208.194 126.54 207.995C126.818 207.794 126.956 207.553 126.956 207.273C126.956 207.046 126.877 206.856 126.718 206.703C126.56 206.547 126.316 206.431 125.987 206.355L124.899 206.1C124.301 205.958 123.862 205.738 123.581 205.441C123.304 205.14 123.165 204.765 123.165 204.314C123.165 203.946 123.268 203.62 123.475 203.337C123.685 203.053 123.97 202.831 124.33 202.669C124.692 202.508 125.103 202.427 125.562 202.427C126.208 202.427 126.716 202.569 127.084 202.852C127.455 203.135 127.719 203.509 127.875 203.974ZM132.241 209.177C131.612 209.177 131.069 209.038 130.613 208.76C130.16 208.48 129.81 208.089 129.563 207.587C129.319 207.083 129.198 206.496 129.198 205.827C129.198 205.159 129.319 204.569 129.563 204.059C129.81 203.546 130.153 203.147 130.592 202.86C131.034 202.571 131.55 202.427 132.139 202.427C132.479 202.427 132.815 202.484 133.147 202.597C133.478 202.71 133.78 202.894 134.052 203.15C134.324 203.402 134.541 203.736 134.702 204.153C134.864 204.569 134.945 205.082 134.945 205.691V206.117H129.912V205.249H133.924C133.924 204.881 133.851 204.552 133.703 204.263C133.559 203.974 133.352 203.746 133.083 203.579C132.816 203.412 132.502 203.328 132.139 203.328C131.74 203.328 131.394 203.427 131.102 203.626C130.813 203.821 130.59 204.076 130.435 204.391C130.279 204.705 130.201 205.043 130.201 205.402V205.981C130.201 206.474 130.286 206.892 130.456 207.234C130.629 207.575 130.868 207.834 131.174 208.012C131.48 208.188 131.836 208.276 132.241 208.276C132.505 208.276 132.743 208.239 132.955 208.165C133.171 208.089 133.356 207.976 133.512 207.825C133.668 207.672 133.788 207.482 133.873 207.256L134.843 207.528C134.741 207.856 134.569 208.146 134.328 208.395C134.087 208.641 133.79 208.834 133.436 208.973C133.081 209.109 132.683 209.177 132.241 209.177ZM142.677 202.512V203.362H139.293V202.512H142.677ZM140.279 200.948H141.282V207.171C141.282 207.454 141.323 207.667 141.406 207.808C141.491 207.947 141.598 208.041 141.729 208.089C141.862 208.134 142.002 208.157 142.15 208.157C142.26 208.157 142.351 208.151 142.422 208.14C142.492 208.126 142.549 208.114 142.592 208.106L142.796 209.007C142.728 209.033 142.633 209.058 142.511 209.084C142.389 209.112 142.235 209.126 142.048 209.126C141.764 209.126 141.486 209.065 141.214 208.943C140.945 208.821 140.721 208.636 140.543 208.386C140.367 208.137 140.279 207.822 140.279 207.443V200.948ZM144.186 209.041V202.512H145.155V203.498H145.223C145.342 203.175 145.557 202.913 145.869 202.712C146.181 202.511 146.532 202.41 146.923 202.41C146.997 202.41 147.089 202.411 147.199 202.414C147.31 202.417 147.393 202.421 147.45 202.427V203.447C147.416 203.439 147.338 203.426 147.216 203.409C147.097 203.389 146.971 203.379 146.838 203.379C146.521 203.379 146.237 203.446 145.988 203.579C145.741 203.709 145.546 203.891 145.401 204.123C145.26 204.352 145.189 204.615 145.189 204.909V209.041H144.186ZM149.484 211.489C149.314 211.489 149.162 211.475 149.029 211.447C148.896 211.421 148.804 211.396 148.753 211.37L149.008 210.486C149.252 210.549 149.467 210.571 149.654 210.554C149.841 210.537 150.007 210.454 150.151 210.303C150.299 210.156 150.433 209.917 150.555 209.585L150.742 209.075L148.328 202.512H149.416L151.218 207.715H151.286L153.089 202.512H154.177L151.405 209.993C151.281 210.33 151.126 210.61 150.942 210.831C150.758 211.054 150.544 211.22 150.3 211.328C150.059 211.436 149.787 211.489 149.484 211.489ZM160.789 209.194C160.375 209.194 160 209.116 159.662 208.96C159.325 208.802 159.057 208.573 158.859 208.276C158.661 207.976 158.562 207.613 158.562 207.188C158.562 206.814 158.635 206.51 158.783 206.278C158.93 206.043 159.127 205.859 159.373 205.725C159.62 205.592 159.892 205.493 160.19 205.428C160.49 205.36 160.792 205.306 161.095 205.266C161.492 205.215 161.813 205.177 162.06 205.152C162.309 205.123 162.491 205.077 162.604 205.011C162.72 204.946 162.778 204.833 162.778 204.671V204.637C162.778 204.218 162.663 203.892 162.434 203.66C162.207 203.427 161.863 203.311 161.401 203.311C160.922 203.311 160.547 203.416 160.275 203.626C160.002 203.835 159.811 204.059 159.701 204.297L158.749 203.957C158.919 203.56 159.145 203.252 159.429 203.031C159.715 202.807 160.027 202.651 160.364 202.563C160.704 202.472 161.038 202.427 161.367 202.427C161.577 202.427 161.818 202.452 162.09 202.503C162.364 202.552 162.629 202.652 162.884 202.805C163.142 202.958 163.356 203.189 163.526 203.498C163.696 203.807 163.781 204.221 163.781 204.739V209.041H162.778V208.157H162.727C162.659 208.299 162.546 208.45 162.387 208.612C162.228 208.773 162.017 208.911 161.754 209.024C161.49 209.137 161.169 209.194 160.789 209.194ZM160.942 208.293C161.339 208.293 161.673 208.215 161.945 208.059C162.22 207.903 162.427 207.702 162.566 207.456C162.707 207.209 162.778 206.95 162.778 206.678V205.759C162.736 205.81 162.642 205.857 162.498 205.9C162.356 205.939 162.192 205.975 162.005 206.006C161.82 206.034 161.64 206.06 161.465 206.083C161.292 206.102 161.152 206.119 161.044 206.134C160.783 206.168 160.539 206.223 160.313 206.299C160.089 206.373 159.908 206.485 159.769 206.635C159.633 206.782 159.565 206.984 159.565 207.239C159.565 207.587 159.694 207.851 159.951 208.029C160.212 208.205 160.542 208.293 160.942 208.293ZM168.248 211.625C167.763 211.625 167.347 211.563 166.998 211.438C166.65 211.317 166.359 211.155 166.127 210.954C165.897 210.755 165.714 210.543 165.578 210.316L166.377 209.755C166.468 209.874 166.583 210.01 166.722 210.163C166.861 210.319 167.051 210.454 167.291 210.567C167.535 210.683 167.854 210.741 168.248 210.741C168.775 210.741 169.21 210.614 169.553 210.359C169.896 210.104 170.067 209.704 170.067 209.16V207.834H169.982C169.908 207.953 169.804 208.1 169.668 208.276C169.534 208.449 169.342 208.603 169.089 208.739C168.84 208.872 168.503 208.939 168.078 208.939C167.551 208.939 167.077 208.814 166.658 208.565C166.241 208.316 165.911 207.953 165.668 207.477C165.427 207.001 165.306 206.423 165.306 205.742C165.306 205.074 165.424 204.491 165.659 203.995C165.894 203.497 166.222 203.111 166.641 202.839C167.06 202.564 167.545 202.427 168.095 202.427C168.52 202.427 168.857 202.498 169.106 202.639C169.359 202.778 169.551 202.937 169.685 203.116C169.821 203.291 169.925 203.436 169.999 203.549H170.101V202.512H171.07V209.228C171.07 209.789 170.943 210.245 170.688 210.597C170.435 210.951 170.095 211.21 169.668 211.375C169.242 211.542 168.769 211.625 168.248 211.625ZM168.214 208.038C168.616 208.038 168.956 207.946 169.234 207.762C169.512 207.577 169.723 207.312 169.867 206.967C170.012 206.621 170.084 206.207 170.084 205.725C170.084 205.255 170.013 204.84 169.872 204.48C169.73 204.12 169.52 203.838 169.242 203.634C168.965 203.43 168.622 203.328 168.214 203.328C167.789 203.328 167.434 203.436 167.151 203.651C166.871 203.866 166.659 204.156 166.518 204.518C166.379 204.881 166.309 205.283 166.309 205.725C166.309 206.179 166.38 206.58 166.522 206.928C166.667 207.274 166.879 207.546 167.16 207.745C167.443 207.94 167.794 208.038 168.214 208.038ZM174.828 209.194C174.414 209.194 174.039 209.116 173.701 208.96C173.364 208.802 173.096 208.573 172.898 208.276C172.7 207.976 172.601 207.613 172.601 207.188C172.601 206.814 172.674 206.51 172.822 206.278C172.969 206.043 173.166 205.859 173.412 205.725C173.659 205.592 173.931 205.493 174.229 205.428C174.529 205.36 174.831 205.306 175.134 205.266C175.531 205.215 175.852 205.177 176.099 205.152C176.348 205.123 176.53 205.077 176.643 205.011C176.759 204.946 176.817 204.833 176.817 204.671V204.637C176.817 204.218 176.702 203.892 176.473 203.66C176.246 203.427 175.902 203.311 175.44 203.311C174.961 203.311 174.586 203.416 174.314 203.626C174.042 203.835 173.85 204.059 173.74 204.297L172.788 203.957C172.958 203.56 173.184 203.252 173.468 203.031C173.754 202.807 174.066 202.651 174.403 202.563C174.743 202.472 175.077 202.427 175.406 202.427C175.616 202.427 175.857 202.452 176.129 202.503C176.403 202.552 176.668 202.652 176.923 202.805C177.181 202.958 177.395 203.189 177.565 203.498C177.735 203.807 177.82 204.221 177.82 204.739V209.041H176.817V208.157H176.766C176.698 208.299 176.585 208.45 176.426 208.612C176.267 208.773 176.056 208.911 175.793 209.024C175.529 209.137 175.208 209.194 174.828 209.194ZM174.981 208.293C175.378 208.293 175.712 208.215 175.984 208.059C176.259 207.903 176.466 207.702 176.605 207.456C176.746 207.209 176.817 206.95 176.817 206.678V205.759C176.775 205.81 176.681 205.857 176.537 205.9C176.395 205.939 176.231 205.975 176.044 206.006C175.859 206.034 175.679 206.06 175.504 206.083C175.331 206.102 175.191 206.119 175.083 206.134C174.822 206.168 174.579 206.223 174.352 206.299C174.128 206.373 173.947 206.485 173.808 206.635C173.672 206.782 173.604 206.984 173.604 207.239C173.604 207.587 173.733 207.851 173.991 208.029C174.251 208.205 174.581 208.293 174.981 208.293ZM179.651 209.041V202.512H180.655V209.041H179.651ZM180.161 201.424C179.966 201.424 179.797 201.357 179.656 201.224C179.517 201.091 179.447 200.931 179.447 200.744C179.447 200.557 179.517 200.397 179.656 200.263C179.797 200.13 179.966 200.064 180.161 200.064C180.357 200.064 180.524 200.13 180.663 200.263C180.805 200.397 180.876 200.557 180.876 200.744C180.876 200.931 180.805 201.091 180.663 201.224C180.524 201.357 180.357 201.424 180.161 201.424ZM183.495 205.113V209.041H182.492V202.512H183.461V203.532H183.546C183.699 203.201 183.931 202.934 184.243 202.733C184.555 202.529 184.957 202.427 185.45 202.427C185.892 202.427 186.279 202.518 186.611 202.699C186.942 202.877 187.2 203.15 187.384 203.515C187.569 203.878 187.661 204.337 187.661 204.892V209.041H186.658V204.96C186.658 204.447 186.524 204.048 186.258 203.762C185.992 203.473 185.626 203.328 185.161 203.328C184.841 203.328 184.555 203.397 184.303 203.536C184.053 203.675 183.856 203.878 183.712 204.144C183.567 204.411 183.495 204.734 183.495 205.113ZM193.864 200.336V209.041H192.86V200.336H193.864ZM197.622 209.194C197.209 209.194 196.833 209.116 196.496 208.96C196.159 208.802 195.891 208.573 195.692 208.276C195.494 207.976 195.395 207.613 195.395 207.188C195.395 206.814 195.469 206.51 195.616 206.278C195.763 206.043 195.96 205.859 196.207 205.725C196.453 205.592 196.725 205.493 197.023 205.428C197.323 205.36 197.625 205.306 197.928 205.266C198.325 205.215 198.647 205.177 198.893 205.152C199.143 205.123 199.324 205.077 199.437 205.011C199.554 204.946 199.612 204.833 199.612 204.671V204.637C199.612 204.218 199.497 203.892 199.267 203.66C199.041 203.427 198.696 203.311 198.234 203.311C197.755 203.311 197.38 203.416 197.108 203.626C196.836 203.835 196.645 204.059 196.534 204.297L195.582 203.957C195.752 203.56 195.979 203.252 196.262 203.031C196.548 202.807 196.86 202.651 197.197 202.563C197.537 202.472 197.872 202.427 198.2 202.427C198.41 202.427 198.651 202.452 198.923 202.503C199.198 202.552 199.463 202.652 199.718 202.805C199.976 202.958 200.19 203.189 200.36 203.498C200.53 203.807 200.615 204.221 200.615 204.739V209.041H199.612V208.157H199.561C199.493 208.299 199.379 208.45 199.221 208.612C199.062 208.773 198.851 208.911 198.587 209.024C198.324 209.137 198.002 209.194 197.622 209.194ZM197.775 208.293C198.172 208.293 198.506 208.215 198.778 208.059C199.053 207.903 199.26 207.702 199.399 207.456C199.541 207.209 199.612 206.95 199.612 206.678V205.759C199.569 205.81 199.476 205.857 199.331 205.9C199.189 205.939 199.025 205.975 198.838 206.006C198.654 206.034 198.474 206.06 198.298 206.083C198.125 206.102 197.985 206.119 197.877 206.134C197.617 206.168 197.373 206.223 197.146 206.299C196.922 206.373 196.741 206.485 196.602 206.635C196.466 206.782 196.398 206.984 196.398 207.239C196.398 207.587 196.527 207.851 196.785 208.029C197.046 208.205 197.376 208.293 197.775 208.293ZM205.285 202.512V203.362H201.902V202.512H205.285ZM202.888 200.948H203.891V207.171C203.891 207.454 203.932 207.667 204.014 207.808C204.099 207.947 204.207 208.041 204.337 208.089C204.471 208.134 204.611 208.157 204.758 208.157C204.869 208.157 204.959 208.151 205.03 208.14C205.101 208.126 205.158 208.114 205.2 208.106L205.404 209.007C205.336 209.033 205.241 209.058 205.119 209.084C204.998 209.112 204.843 209.126 204.656 209.126C204.373 209.126 204.095 209.065 203.823 208.943C203.554 208.821 203.33 208.636 203.151 208.386C202.976 208.137 202.888 207.822 202.888 207.443V200.948ZM209.462 209.177C208.832 209.177 208.29 209.038 207.834 208.76C207.38 208.48 207.03 208.089 206.784 207.587C206.54 207.083 206.418 206.496 206.418 205.827C206.418 205.159 206.54 204.569 206.784 204.059C207.03 203.546 207.373 203.147 207.812 202.86C208.254 202.571 208.77 202.427 209.36 202.427C209.7 202.427 210.035 202.484 210.367 202.597C210.699 202.71 211 202.894 211.272 203.15C211.544 203.402 211.761 203.736 211.923 204.153C212.084 204.569 212.165 205.082 212.165 205.691V206.117H207.132V205.249H211.145C211.145 204.881 211.071 204.552 210.924 204.263C210.779 203.974 210.572 203.746 210.303 203.579C210.037 203.412 209.722 203.328 209.36 203.328C208.96 203.328 208.614 203.427 208.322 203.626C208.033 203.821 207.811 204.076 207.655 204.391C207.499 204.705 207.421 205.043 207.421 205.402V205.981C207.421 206.474 207.506 206.892 207.676 207.234C207.849 207.575 208.089 207.834 208.395 208.012C208.701 208.188 209.056 208.276 209.462 208.276C209.725 208.276 209.963 208.239 210.176 208.165C210.391 208.089 210.577 207.976 210.733 207.825C210.888 207.672 211.009 207.482 211.094 207.256L212.063 207.528C211.961 207.856 211.79 208.146 211.549 208.395C211.308 208.641 211.01 208.834 210.656 208.973C210.302 209.109 209.904 209.177 209.462 209.177ZM213.691 209.041V202.512H214.66V203.498H214.728C214.847 203.175 215.063 202.913 215.374 202.712C215.686 202.511 216.037 202.41 216.428 202.41C216.502 202.41 216.594 202.411 216.705 202.414C216.815 202.417 216.899 202.421 216.956 202.427V203.447C216.922 203.439 216.844 203.426 216.722 203.409C216.603 203.389 216.477 203.379 216.343 203.379C216.026 203.379 215.743 203.446 215.493 203.579C215.247 203.709 215.051 203.891 214.907 204.123C214.765 204.352 214.694 204.615 214.694 204.909V209.041H213.691Z" fill="#000E1F"/>
<path d="M89.678 289.203V279.192H93.3442C94.0547 279.192 94.6429 279.309 95.1089 279.544C95.5749 279.775 95.9236 280.09 96.155 280.487C96.3864 280.882 96.5021 281.326 96.5021 281.822C96.5021 282.239 96.4255 282.591 96.2723 282.878C96.1192 283.161 95.9138 283.389 95.6564 283.562C95.4022 283.731 95.1219 283.855 94.8156 283.934V284.031C95.148 284.048 95.4723 284.155 95.7884 284.354C96.1078 284.549 96.3717 284.828 96.5803 285.19C96.7889 285.552 96.8931 285.992 96.8931 286.51C96.8931 287.021 96.7726 287.481 96.5314 287.888C96.2935 288.292 95.9253 288.613 95.4266 288.851C94.928 289.086 94.2909 289.203 93.5153 289.203H89.678ZM91.1885 287.908H93.3687C94.0921 287.908 94.6103 287.768 94.9232 287.487C95.236 287.207 95.3924 286.857 95.3924 286.436C95.3924 286.12 95.3126 285.83 95.1529 285.566C94.9932 285.302 94.7651 285.092 94.4685 284.936C94.1752 284.779 93.8265 284.701 93.4224 284.701H91.1885V287.908ZM91.1885 283.523H93.2122C93.5512 283.523 93.8559 283.458 94.1264 283.327C94.4001 283.197 94.6168 283.015 94.7765 282.78C94.9394 282.542 95.0209 282.262 95.0209 281.939C95.0209 281.525 94.8759 281.178 94.5859 280.898C94.2958 280.618 93.851 280.477 93.2513 280.477H91.1885V283.523ZM100.752 289.369C100.277 289.369 99.8465 289.281 99.4619 289.105C99.0774 288.926 98.7727 288.667 98.5478 288.328C98.3262 287.989 98.2154 287.574 98.2154 287.082C98.2154 286.658 98.2969 286.309 98.4598 286.036C98.6228 285.762 98.8428 285.545 99.1198 285.385C99.3968 285.226 99.7064 285.105 100.049 285.024C100.391 284.942 100.739 284.88 101.095 284.838C101.544 284.786 101.909 284.743 102.19 284.711C102.47 284.675 102.674 284.618 102.801 284.54C102.928 284.461 102.991 284.334 102.991 284.158V284.124C102.991 283.697 102.871 283.366 102.63 283.132C102.392 282.897 102.036 282.78 101.564 282.78C101.072 282.78 100.684 282.889 100.401 283.107C100.12 283.322 99.9263 283.562 99.8188 283.826L98.4452 283.513C98.6081 283.057 98.846 282.689 99.1589 282.408C99.475 282.125 99.8383 281.92 100.249 281.792C100.66 281.662 101.091 281.597 101.544 281.597C101.844 281.597 102.162 281.633 102.498 281.704C102.837 281.773 103.153 281.9 103.446 282.086C103.742 282.272 103.985 282.537 104.174 282.883C104.363 283.225 104.458 283.67 104.458 284.217V289.203H103.03V288.177H102.972C102.877 288.366 102.735 288.551 102.546 288.734C102.357 288.916 102.115 289.068 101.818 289.188C101.522 289.309 101.166 289.369 100.752 289.369ZM101.07 288.196C101.474 288.196 101.82 288.116 102.107 287.957C102.397 287.797 102.617 287.588 102.766 287.331C102.92 287.07 102.996 286.792 102.996 286.495V285.527C102.944 285.579 102.843 285.628 102.693 285.674C102.546 285.716 102.379 285.754 102.19 285.786C102.001 285.816 101.816 285.843 101.637 285.869C101.458 285.892 101.308 285.912 101.188 285.928C100.904 285.964 100.645 286.024 100.41 286.109C100.179 286.194 99.9931 286.316 99.853 286.475C99.7161 286.632 99.6477 286.84 99.6477 287.101C99.6477 287.463 99.7813 287.737 100.049 287.922C100.316 288.105 100.656 288.196 101.07 288.196ZM109.567 289.355C108.841 289.355 108.215 289.19 107.69 288.861C107.169 288.529 106.768 288.071 106.488 287.487C106.207 286.904 106.067 286.236 106.067 285.483C106.067 284.721 106.211 284.048 106.497 283.464C106.784 282.878 107.188 282.42 107.71 282.091C108.231 281.761 108.845 281.597 109.553 281.597C110.123 281.597 110.631 281.703 111.078 281.915C111.524 282.123 111.884 282.417 112.158 282.795C112.435 283.173 112.6 283.614 112.652 284.119H111.229C111.151 283.767 110.972 283.464 110.692 283.21C110.415 282.956 110.043 282.829 109.577 282.829C109.17 282.829 108.813 282.936 108.507 283.151C108.203 283.363 107.967 283.666 107.798 284.061C107.628 284.452 107.544 284.914 107.544 285.449C107.544 285.996 107.627 286.469 107.793 286.867C107.959 287.264 108.194 287.572 108.497 287.79C108.803 288.009 109.163 288.118 109.577 288.118C109.854 288.118 110.105 288.067 110.33 287.966C110.558 287.862 110.749 287.714 110.902 287.522C111.058 287.329 111.167 287.098 111.229 286.827H112.652C112.6 287.313 112.442 287.746 112.178 288.128C111.914 288.509 111.56 288.809 111.117 289.027C110.677 289.245 110.16 289.355 109.567 289.355ZM115.559 286.656L115.549 284.872H115.804L118.795 281.695H120.545L117.133 285.312H116.903L115.559 286.656ZM114.215 289.203V279.192H115.676V289.203H114.215ZM118.957 289.203L116.268 285.635L117.275 284.613L120.751 289.203H118.957ZM129.025 281.695V282.868H124.924V281.695H129.025ZM126.024 279.896H127.485V286.998C127.485 287.282 127.528 287.495 127.612 287.639C127.697 287.779 127.806 287.875 127.94 287.927C128.077 287.976 128.225 288.001 128.385 288.001C128.502 288.001 128.605 287.992 128.693 287.976C128.781 287.96 128.849 287.947 128.898 287.937L129.162 289.144C129.077 289.177 128.957 289.21 128.8 289.242C128.644 289.278 128.448 289.298 128.214 289.301C127.829 289.307 127.471 289.239 127.138 289.096C126.806 288.952 126.537 288.731 126.332 288.431C126.126 288.131 126.024 287.755 126.024 287.302V279.896ZM133.724 289.355C133.02 289.355 132.406 289.193 131.881 288.871C131.357 288.548 130.949 288.097 130.659 287.517C130.369 286.937 130.224 286.259 130.224 285.483C130.224 284.704 130.369 284.023 130.659 283.44C130.949 282.856 131.357 282.403 131.881 282.081C132.406 281.758 133.02 281.597 133.724 281.597C134.428 281.597 135.042 281.758 135.567 282.081C136.092 282.403 136.499 282.856 136.789 283.44C137.079 284.023 137.224 284.704 137.224 285.483C137.224 286.259 137.079 286.937 136.789 287.517C136.499 288.097 136.092 288.548 135.567 288.871C135.042 289.193 134.428 289.355 133.724 289.355ZM133.729 288.128C134.185 288.128 134.563 288.007 134.863 287.766C135.163 287.525 135.385 287.204 135.528 286.803C135.675 286.402 135.748 285.961 135.748 285.478C135.748 284.999 135.675 284.559 135.528 284.158C135.385 283.754 135.163 283.43 134.863 283.186C134.563 282.941 134.185 282.819 133.729 282.819C133.269 282.819 132.888 282.941 132.585 283.186C132.285 283.43 132.062 283.754 131.915 284.158C131.772 284.559 131.7 284.999 131.7 285.478C131.7 285.961 131.772 286.402 131.915 286.803C132.062 287.204 132.285 287.525 132.585 287.766C132.888 288.007 133.269 288.128 133.729 288.128ZM143.491 279.192L146.277 287.346H146.39L149.176 279.192H150.809L147.206 289.203H145.461L141.858 279.192H143.491ZM153.765 279.192V289.203H152.254V279.192H153.765ZM164.045 279.192V289.203H162.657L157.568 281.861H157.475V289.203H155.965V279.192H157.363L162.456 286.544H162.549V279.192H164.045ZM178.207 282.447H176.681C176.623 282.122 176.514 281.835 176.354 281.587C176.194 281.339 175.999 281.129 175.767 280.957C175.536 280.784 175.277 280.653 174.99 280.565C174.706 280.477 174.405 280.433 174.086 280.433C173.509 280.433 172.992 280.579 172.536 280.869C172.083 281.159 171.725 281.584 171.461 282.144C171.2 282.705 171.07 283.389 171.07 284.197C171.07 285.012 171.2 285.7 171.461 286.26C171.725 286.821 172.085 287.245 172.541 287.531C172.997 287.818 173.51 287.961 174.081 287.961C174.397 287.961 174.697 287.919 174.98 287.834C175.267 287.746 175.526 287.618 175.757 287.448C175.989 287.279 176.184 287.072 176.344 286.827C176.507 286.58 176.619 286.296 176.681 285.977L178.207 285.982C178.125 286.474 177.967 286.927 177.732 287.341C177.501 287.751 177.203 288.107 176.838 288.406C176.476 288.703 176.062 288.933 175.596 289.096C175.13 289.259 174.622 289.34 174.071 289.34C173.204 289.34 172.432 289.135 171.754 288.724C171.076 288.31 170.542 287.719 170.151 286.95C169.763 286.181 169.569 285.263 169.569 284.197C169.569 283.129 169.764 282.211 170.155 281.445C170.547 280.676 171.081 280.086 171.759 279.676C172.437 279.262 173.207 279.055 174.071 279.055C174.602 279.055 175.098 279.132 175.557 279.285C176.02 279.435 176.435 279.656 176.804 279.95C177.172 280.24 177.477 280.595 177.718 281.015C177.959 281.432 178.122 281.91 178.207 282.447ZM181.358 284.745V289.203H179.897V279.192H181.339V282.917H181.432C181.608 282.513 181.876 282.192 182.238 281.954C182.6 281.716 183.072 281.597 183.656 281.597C184.171 281.597 184.62 281.703 185.005 281.915C185.393 282.126 185.693 282.443 185.904 282.863C186.119 283.28 186.227 283.802 186.227 284.427V289.203H184.765V284.603C184.765 284.052 184.624 283.626 184.34 283.322C184.057 283.016 183.662 282.863 183.157 282.863C182.812 282.863 182.502 282.936 182.228 283.083C181.958 283.23 181.744 283.445 181.588 283.728C181.435 284.008 181.358 284.347 181.358 284.745ZM191.413 289.355C190.674 289.355 190.037 289.197 189.502 288.88C188.971 288.561 188.56 288.113 188.27 287.536C187.984 286.956 187.84 286.277 187.84 285.498C187.84 284.729 187.984 284.051 188.27 283.464C188.56 282.878 188.964 282.42 189.483 282.091C190.004 281.761 190.613 281.597 191.311 281.597C191.734 281.597 192.145 281.667 192.543 281.807C192.94 281.947 193.297 282.167 193.613 282.467C193.929 282.767 194.179 283.156 194.361 283.635C194.544 284.111 194.635 284.69 194.635 285.371V285.889H188.666V284.794H193.203C193.203 284.409 193.124 284.069 192.968 283.772C192.812 283.472 192.592 283.236 192.308 283.063C192.028 282.891 191.699 282.804 191.321 282.804C190.91 282.804 190.552 282.905 190.245 283.107C189.942 283.306 189.707 283.567 189.541 283.89C189.378 284.209 189.297 284.556 189.297 284.931V285.786C189.297 286.288 189.385 286.715 189.561 287.067C189.74 287.419 189.989 287.688 190.309 287.874C190.628 288.056 191.001 288.147 191.428 288.147C191.705 288.147 191.958 288.108 192.186 288.03C192.414 287.948 192.611 287.828 192.777 287.668C192.944 287.509 193.071 287.311 193.159 287.077L194.542 287.326C194.431 287.733 194.232 288.09 193.946 288.397C193.662 288.7 193.305 288.936 192.875 289.105C192.448 289.272 191.961 289.355 191.413 289.355ZM199.419 289.355C198.693 289.355 198.067 289.19 197.542 288.861C197.021 288.529 196.62 288.071 196.34 287.487C196.059 286.904 195.919 286.236 195.919 285.483C195.919 284.721 196.063 284.048 196.349 283.464C196.636 282.878 197.04 282.42 197.562 282.091C198.083 281.761 198.697 281.597 199.405 281.597C199.975 281.597 200.483 281.703 200.93 281.915C201.376 282.123 201.736 282.417 202.01 282.795C202.287 283.173 202.452 283.614 202.504 284.119H201.081C201.003 283.767 200.824 283.464 200.544 283.21C200.267 282.956 199.895 282.829 199.429 282.829C199.022 282.829 198.665 282.936 198.359 283.151C198.055 283.363 197.819 283.666 197.65 284.061C197.48 284.452 197.396 284.914 197.396 285.449C197.396 285.996 197.479 286.469 197.645 286.867C197.811 287.264 198.046 287.572 198.349 287.79C198.655 288.009 199.015 288.118 199.429 288.118C199.706 288.118 199.957 288.067 200.182 287.966C200.41 287.862 200.601 287.714 200.754 287.522C200.91 287.329 201.019 287.098 201.081 286.827H202.504C202.452 287.313 202.294 287.746 202.03 288.128C201.766 288.509 201.412 288.809 200.969 289.027C200.529 289.245 200.012 289.355 199.419 289.355ZM205.411 286.656L205.401 284.872H205.656L208.647 281.695H210.397L206.985 285.312H206.755L205.411 286.656ZM204.067 289.203V279.192H205.528V289.203H204.067ZM208.809 289.203L206.12 285.635L207.127 284.613L210.603 289.203H208.809ZM215.372 292.019V281.695H216.8V282.912H216.922C217.007 282.755 217.129 282.575 217.289 282.369C217.448 282.164 217.67 281.985 217.953 281.832C218.237 281.675 218.612 281.597 219.078 281.597C219.684 281.597 220.225 281.75 220.701 282.056C221.176 282.363 221.55 282.804 221.82 283.381C222.094 283.958 222.231 284.652 222.231 285.464C222.231 286.275 222.095 286.971 221.825 287.551C221.554 288.128 221.183 288.573 220.71 288.885C220.238 289.195 219.698 289.35 219.092 289.35C218.636 289.35 218.263 289.273 217.973 289.12C217.686 288.967 217.461 288.788 217.298 288.582C217.135 288.377 217.01 288.195 216.922 288.035H216.834V292.019H215.372ZM216.805 285.449C216.805 285.977 216.881 286.44 217.034 286.837C217.188 287.235 217.409 287.546 217.699 287.771C217.989 287.992 218.344 288.103 218.765 288.103C219.201 288.103 219.566 287.988 219.86 287.756C220.153 287.522 220.375 287.204 220.525 286.803C220.678 286.402 220.754 285.951 220.754 285.449C220.754 284.954 220.679 284.509 220.529 284.114C220.383 283.72 220.161 283.409 219.865 283.181C219.571 282.953 219.205 282.839 218.765 282.839C218.341 282.839 217.983 282.948 217.689 283.166C217.399 283.384 217.179 283.689 217.029 284.08C216.88 284.471 216.805 284.927 216.805 285.449ZM226.053 289.369C225.577 289.369 225.147 289.281 224.763 289.105C224.378 288.926 224.074 288.667 223.849 288.328C223.627 287.989 223.516 287.574 223.516 287.082C223.516 286.658 223.598 286.309 223.761 286.036C223.924 285.762 224.144 285.545 224.421 285.385C224.698 285.226 225.007 285.105 225.349 285.024C225.692 284.942 226.04 284.88 226.395 284.838C226.845 284.786 227.21 284.743 227.49 284.711C227.771 284.675 227.974 284.618 228.101 284.54C228.229 284.461 228.292 284.334 228.292 284.158V284.124C228.292 283.697 228.172 283.366 227.93 283.132C227.692 282.897 227.337 282.78 226.865 282.78C226.373 282.78 225.985 282.889 225.701 283.107C225.421 283.322 225.227 283.562 225.12 283.826L223.746 283.513C223.909 283.057 224.147 282.689 224.46 282.408C224.776 282.125 225.139 281.92 225.55 281.792C225.96 281.662 226.392 281.597 226.845 281.597C227.145 281.597 227.463 281.633 227.798 281.704C228.137 281.773 228.453 281.9 228.747 282.086C229.043 282.272 229.286 282.537 229.475 282.883C229.664 283.225 229.759 283.67 229.759 284.217V289.203H228.331V288.177H228.273C228.178 288.366 228.036 288.551 227.847 288.734C227.658 288.916 227.415 289.068 227.119 289.188C226.822 289.309 226.467 289.369 226.053 289.369ZM226.371 288.196C226.775 288.196 227.121 288.116 227.407 287.957C227.697 287.797 227.917 287.588 228.067 287.331C228.22 287.07 228.297 286.792 228.297 286.495V285.527C228.245 285.579 228.144 285.628 227.994 285.674C227.847 285.716 227.679 285.754 227.49 285.786C227.301 285.816 227.117 285.843 226.938 285.869C226.759 285.892 226.609 285.912 226.488 285.928C226.205 285.964 225.946 286.024 225.711 286.109C225.48 286.194 225.294 286.316 225.154 286.475C225.017 286.632 224.949 286.84 224.949 287.101C224.949 287.463 225.082 287.737 225.349 287.922C225.617 288.105 225.957 288.196 226.371 288.196ZM234.853 292.175C234.257 292.175 233.744 292.097 233.314 291.941C232.887 291.784 232.538 291.577 232.268 291.32C231.997 291.062 231.795 290.78 231.661 290.474L232.918 289.956C233.006 290.099 233.123 290.251 233.27 290.411C233.42 290.573 233.622 290.712 233.876 290.826C234.133 290.94 234.464 290.997 234.868 290.997C235.422 290.997 235.88 290.862 236.242 290.591C236.603 290.324 236.784 289.897 236.784 289.311V287.834H236.691C236.603 287.994 236.476 288.172 236.31 288.367C236.147 288.563 235.922 288.732 235.636 288.876C235.349 289.019 234.976 289.091 234.516 289.091C233.923 289.091 233.389 288.952 232.913 288.675C232.44 288.395 232.065 287.983 231.788 287.438C231.515 286.891 231.378 286.218 231.378 285.42C231.378 284.621 231.513 283.937 231.784 283.366C232.057 282.796 232.432 282.359 232.908 282.056C233.384 281.75 233.923 281.597 234.526 281.597C234.992 281.597 235.368 281.675 235.655 281.832C235.942 281.985 236.165 282.164 236.325 282.369C236.488 282.575 236.613 282.755 236.701 282.912H236.809V281.695H238.241V289.369C238.241 290.015 238.091 290.544 237.791 290.958C237.492 291.372 237.086 291.678 236.574 291.877C236.066 292.076 235.492 292.175 234.853 292.175ZM234.839 287.878C235.259 287.878 235.614 287.781 235.904 287.585C236.198 287.386 236.419 287.103 236.569 286.735C236.722 286.363 236.799 285.918 236.799 285.4C236.799 284.895 236.724 284.45 236.574 284.066C236.424 283.681 236.204 283.381 235.914 283.166C235.624 282.948 235.266 282.839 234.839 282.839C234.399 282.839 234.032 282.953 233.739 283.181C233.446 283.406 233.224 283.712 233.074 284.1C232.927 284.488 232.854 284.921 232.854 285.4C232.854 285.892 232.929 286.324 233.079 286.695C233.229 287.067 233.451 287.357 233.744 287.566C234.04 287.774 234.405 287.878 234.839 287.878ZM243.437 289.355C242.698 289.355 242.06 289.197 241.526 288.88C240.995 288.561 240.584 288.113 240.294 287.536C240.007 286.956 239.864 286.277 239.864 285.498C239.864 284.729 240.007 284.051 240.294 283.464C240.584 282.878 240.988 282.42 241.506 282.091C242.028 281.761 242.637 281.597 243.335 281.597C243.758 281.597 244.169 281.667 244.567 281.807C244.964 281.947 245.321 282.167 245.637 282.467C245.953 282.767 246.202 283.156 246.385 283.635C246.567 284.111 246.659 284.69 246.659 285.371V285.889H240.69V284.794H245.226C245.226 284.409 245.148 284.069 244.992 283.772C244.835 283.472 244.615 283.236 244.332 283.063C244.052 282.891 243.722 282.804 243.344 282.804C242.934 282.804 242.575 282.905 242.269 283.107C241.966 283.306 241.731 283.567 241.565 283.89C241.402 284.209 241.321 284.556 241.321 284.931V285.786C241.321 286.288 241.409 286.715 241.585 287.067C241.764 287.419 242.013 287.688 242.333 287.874C242.652 288.056 243.025 288.147 243.452 288.147C243.729 288.147 243.982 288.108 244.21 288.03C244.438 287.948 244.635 287.828 244.801 287.668C244.967 287.509 245.094 287.311 245.182 287.077L246.566 287.326C246.455 287.733 246.256 288.09 245.969 288.397C245.686 288.7 245.329 288.936 244.899 289.105C244.472 289.272 243.985 289.355 243.437 289.355Z" fill="#F22E5D"/>
<path d="M78.3193 284.874H67.0334" stroke="#F22E5D" stroke-width="0.897749" stroke-linecap="round" stroke-linejoin="round"/>
<path d="M70.3242 281.583L67.0325 284.875L70.3242 288.166" stroke="#F22E5D" stroke-width="0.897749" stroke-linecap="round" stroke-linejoin="round"/>
<ellipse opacity="0.3" cx="158.004" cy="111.009" rx="19.7505" ry="19.7505" fill="#F00D0D"/>
<rect x="152.13" y="115.7" width="15.1684" height="1.89604" rx="0.711017" transform="rotate(-45 152.13 115.7)" fill="#F00D0D"/>
<rect opacity="0.3" x="153.471" y="104.975" width="15.1684" height="1.89604" rx="0.711017" transform="rotate(45 153.471 104.975)" fill="#F00D0D"/>
</svg>
