<svg width="310" height="203" viewBox="0 0 310 203" fill="none" xmlns="http://www.w3.org/2000/svg">
<rect x="0.25" y="0.25" width="309.5" height="201.908" fill="white" stroke="#F3F2F2" stroke-width="0.5"/>
<path d="M28.9959 74.5205V73.6647L31.6436 70.9214C31.9264 70.6233 32.1594 70.3623 32.3428 70.1381C32.5288 69.9114 32.6676 69.6962 32.7593 69.4924C32.851 69.2886 32.8968 69.0721 32.8968 68.8429C32.8968 68.5831 32.8357 68.3589 32.7134 68.1704C32.5912 67.9794 32.4243 67.8329 32.2129 67.731C32.0015 67.6266 31.7633 67.5744 31.4984 67.5744C31.2183 67.5744 30.9737 67.6317 30.7649 67.7463C30.556 67.8609 30.3955 68.0227 30.2834 68.2316C30.1714 68.4404 30.1153 68.685 30.1153 68.9651H28.9882C28.9882 68.4888 29.0977 68.0724 29.3168 67.7158C29.5358 67.3592 29.8364 67.0828 30.2185 66.8867C30.6006 66.688 31.0349 66.5886 31.5214 66.5886C32.013 66.5886 32.446 66.6867 32.8204 66.8828C33.1974 67.0764 33.4916 67.3413 33.703 67.6776C33.9144 68.0112 34.0201 68.3882 34.0201 68.8085C34.0201 69.0989 33.9654 69.3829 33.8558 69.6605C33.7489 69.9382 33.5616 70.2476 33.2942 70.589C33.0267 70.9277 32.6549 71.3391 32.1785 71.8231L30.6235 73.4507V73.508H34.1462V74.5205H28.9959ZM38.2109 74.6504C37.6072 74.6479 37.0914 74.4887 36.6635 74.1728C36.2356 73.857 35.9082 73.3972 35.6815 72.7935C35.4548 72.1899 35.3415 71.4626 35.3415 70.6119C35.3415 69.7637 35.4548 69.039 35.6815 68.4379C35.9108 67.8368 36.2394 67.3783 36.6673 67.0624C37.0978 66.7466 37.6123 66.5886 38.2109 66.5886C38.8095 66.5886 39.3227 66.7478 39.7506 67.0662C40.1786 67.3821 40.5059 67.8406 40.7326 68.4417C40.9618 69.0403 41.0764 69.7637 41.0764 70.6119C41.0764 71.4652 40.9631 72.1937 40.7364 72.7974C40.5097 73.3985 40.1824 73.8582 39.7545 74.1766C39.3265 74.4925 38.812 74.6504 38.2109 74.6504ZM38.2109 73.6303C38.7407 73.6303 39.1546 73.3717 39.4526 72.8547C39.7532 72.3376 39.9035 71.59 39.9035 70.6119C39.9035 69.9624 39.8347 69.4134 39.6971 68.9651C39.5621 68.5143 39.3673 68.173 39.1126 67.9412C38.8604 67.7068 38.5598 67.5897 38.2109 67.5897C37.6836 67.5897 37.2697 67.8495 36.9691 68.3691C36.6686 68.8887 36.517 69.6363 36.5145 70.6119C36.5145 71.264 36.582 71.8154 36.717 72.2663C36.8545 72.7146 37.0494 73.0546 37.3015 73.2864C37.5537 73.5157 37.8568 73.6303 38.2109 73.6303ZM45.0484 74.6504C44.4448 74.6479 43.929 74.4887 43.501 74.1728C43.0731 73.857 42.7458 73.3972 42.5191 72.7935C42.2924 72.1899 42.1791 71.4626 42.1791 70.6119C42.1791 69.7637 42.2924 69.039 42.5191 68.4379C42.7484 67.8368 43.0769 67.3783 43.5049 67.0624C43.9353 66.7466 44.4499 66.5886 45.0484 66.5886C45.647 66.5886 46.1603 66.7478 46.5882 67.0662C47.0161 67.3821 47.3434 67.8406 47.5701 68.4417C47.7994 69.0403 47.914 69.7637 47.914 70.6119C47.914 71.4652 47.8007 72.1937 47.574 72.7974C47.3473 73.3985 47.0199 73.8582 46.592 74.1766C46.1641 74.4925 45.6496 74.6504 45.0484 74.6504ZM45.0484 73.6303C45.5783 73.6303 45.9922 73.3717 46.2902 72.8547C46.5908 72.3376 46.741 71.59 46.741 70.6119C46.741 69.9624 46.6723 69.4134 46.5347 68.9651C46.3997 68.5143 46.2049 68.173 45.9501 67.9412C45.698 67.7068 45.3974 67.5897 45.0484 67.5897C44.5212 67.5897 44.1073 67.8495 43.8067 68.3691C43.5061 68.8887 43.3546 69.6363 43.352 70.6119C43.352 71.264 43.4195 71.8154 43.5545 72.2663C43.6921 72.7146 43.8869 73.0546 44.1391 73.2864C44.3913 73.5157 44.6944 73.6303 45.0484 73.6303ZM49.2153 74.5205L52.6311 67.7654V67.7081H48.6804V66.6956H53.8537V67.7425L50.4494 74.5205H49.2153Z" fill="#000E1F"/>
<path d="M30.5358 49.2112H31.6209L33.7911 52.8639H33.8828L36.053 49.2112H37.1381L34.3107 53.8114V57.0361H33.3632V53.8114L30.5358 49.2112ZM39.7642 57.1584C39.1988 57.1584 38.711 57.0336 38.3009 56.784C37.8933 56.5318 37.5788 56.1803 37.3572 55.7294C37.1381 55.276 37.0286 54.7488 37.0286 54.1476C37.0286 53.5465 37.1381 53.0167 37.3572 52.5582C37.5788 52.0972 37.887 51.738 38.2818 51.4808C38.6791 51.221 39.1427 51.0911 39.6725 51.0911C39.9782 51.0911 40.28 51.142 40.5781 51.2439C40.8761 51.3458 41.1473 51.5113 41.3919 51.7406C41.6364 51.9673 41.8313 52.2678 41.9764 52.6423C42.1216 53.0167 42.1942 53.4777 42.1942 54.0254V54.4075H37.6705V53.628H41.2773C41.2773 53.2969 41.211 53.0014 41.0786 52.7416C40.9487 52.4818 40.7627 52.2768 40.5207 52.1265C40.2813 51.9762 39.9986 51.9011 39.6725 51.9011C39.3134 51.9011 39.0026 51.9902 38.7403 52.1685C38.4805 52.3443 38.2805 52.5735 38.1404 52.8562C38.0003 53.139 37.9303 53.4421 37.9303 53.7656V54.2852C37.9303 54.7284 38.0067 55.1041 38.1595 55.4123C38.3149 55.718 38.5301 55.951 38.8052 56.1115C39.0803 56.2694 39.4 56.3484 39.7642 56.3484C40.0011 56.3484 40.2151 56.3153 40.4061 56.2491C40.5997 56.1803 40.7665 56.0784 40.9066 55.9434C41.0467 55.8059 41.155 55.6352 41.2314 55.4314L42.1025 55.6759C42.0108 55.9714 41.8567 56.2312 41.6402 56.4554C41.4237 56.677 41.1563 56.8502 40.8379 56.975C40.5195 57.0973 40.1616 57.1584 39.7642 57.1584ZM45.1853 57.1737C44.8134 57.1737 44.4759 57.1036 44.1728 56.9635C43.8697 56.8209 43.6289 56.6159 43.4506 56.3484C43.2723 56.0784 43.1832 55.7524 43.1832 55.3703C43.1832 55.0341 43.2494 54.7615 43.3819 54.5526C43.5143 54.3412 43.6913 54.1757 43.913 54.056C44.1346 53.9362 44.3791 53.8471 44.6465 53.7885C44.9165 53.7274 45.1878 53.679 45.4604 53.6433C45.817 53.5975 46.1061 53.5631 46.3277 53.5402C46.5518 53.5147 46.7148 53.4727 46.8167 53.4141C46.9212 53.3555 46.9734 53.2536 46.9734 53.1084V53.0778C46.9734 52.7009 46.8702 52.4079 46.6639 52.1991C46.4601 51.9902 46.1506 51.8858 45.7354 51.8858C45.305 51.8858 44.9675 51.98 44.723 52.1685C44.4784 52.357 44.3065 52.5582 44.2072 52.7722L43.3513 52.4665C43.5041 52.1099 43.7079 51.8323 43.9626 51.6336C44.2199 51.4324 44.5001 51.2923 44.8032 51.2133C45.1088 51.1318 45.4094 51.0911 45.7049 51.0911C45.8934 51.0911 46.1099 51.114 46.3544 51.1598C46.6015 51.2031 46.8396 51.2936 47.0689 51.4311C47.3007 51.5686 47.493 51.7762 47.6458 52.0539C47.7987 52.3315 47.8751 52.7034 47.8751 53.1695V57.0361H46.9734V56.2414H46.9275C46.8664 56.3688 46.7645 56.505 46.6219 56.6502C46.4792 56.7954 46.2895 56.919 46.0526 57.0208C45.8157 57.1227 45.5266 57.1737 45.1853 57.1737ZM45.3228 56.3637C45.6794 56.3637 45.98 56.2936 46.2245 56.1535C46.4716 56.0134 46.6575 55.8326 46.7823 55.611C46.9097 55.3894 46.9734 55.1563 46.9734 54.9118V54.0865C46.9352 54.1324 46.8511 54.1744 46.7212 54.2126C46.5938 54.2483 46.4461 54.2801 46.278 54.3081C46.1124 54.3336 45.9507 54.3565 45.7928 54.3769C45.6374 54.3947 45.5113 54.41 45.4145 54.4227C45.1802 54.4533 44.9611 54.503 44.7573 54.5718C44.5561 54.638 44.3931 54.7386 44.2683 54.8736C44.146 55.006 44.0849 55.1869 44.0849 55.4161C44.0849 55.7294 44.2008 55.9663 44.4326 56.1268C44.6669 56.2847 44.9637 56.3637 45.3228 56.3637ZM49.4133 57.0361V51.1675H50.2844V52.0539H50.3455C50.4525 51.7635 50.6461 51.5279 50.9263 51.347C51.2065 51.1662 51.5223 51.0758 51.8738 51.0758C51.94 51.0758 52.0228 51.077 52.1222 51.0796C52.2215 51.0821 52.2966 51.086 52.3476 51.0911V52.008C52.317 52.0004 52.247 51.9889 52.1375 51.9736C52.0305 51.9558 51.9171 51.9469 51.7974 51.9469C51.5121 51.9469 51.2574 52.0068 51.0333 52.1265C50.8117 52.2436 50.6359 52.4067 50.506 52.6155C50.3786 52.8219 50.315 53.0575 50.315 53.3224V57.0361H49.4133Z" fill="#848487"/>
<g clip-path="url(#clip0_1_20753)">
<path d="M32.9509 16.749C32.084 16.749 31.3818 17.4512 31.3818 18.3181V21.4562H36.089V16.749H32.9509ZM37.6581 16.749V21.4562H42.3652V16.749H37.6581ZM43.9343 16.749V21.4562H48.6414V18.3181C48.6414 17.4512 47.9392 16.749 47.0724 16.749H43.9343ZM31.3818 23.0252V27.7324H36.089V23.0252H31.3818ZM37.6581 23.0252V27.7324H42.3652V23.0252H37.6581ZM43.9343 23.0252V26.7027C42.7985 27.2459 41.8787 28.1657 41.3355 29.3014H37.6581V34.0086H41.3355C42.2206 35.8593 44.1067 37.1467 46.2878 37.1467C49.3115 37.1467 51.7795 34.6787 51.7795 31.655C51.7795 29.4739 50.4921 27.5877 48.6414 26.7027V23.0252H43.9343ZM46.2878 27.7324C48.4635 27.7324 50.2104 29.4793 50.2104 31.655C50.2104 33.8307 48.4635 35.5776 46.2878 35.5776C44.1121 35.5776 42.3652 33.8307 42.3652 31.655C42.3652 29.4793 44.1121 27.7324 46.2878 27.7324ZM46.2756 28.5062C46.0678 28.5094 45.8698 28.595 45.725 28.7441C45.5802 28.8932 45.5005 29.0937 45.5033 29.3014V31.3302L44.5563 32.2771C44.4811 32.3494 44.421 32.436 44.3796 32.5318C44.3381 32.6277 44.3163 32.7307 44.3152 32.8351C44.3141 32.9395 44.3339 33.043 44.3734 33.1397C44.4128 33.2363 44.4711 33.3241 44.545 33.3979C44.6187 33.4717 44.7066 33.53 44.8032 33.5695C44.8998 33.609 45.0034 33.6287 45.1077 33.6277C45.2121 33.6266 45.3152 33.6047 45.411 33.5633C45.5068 33.5219 45.5935 33.4618 45.6657 33.3865L46.8425 32.2097C46.9897 32.0626 47.0723 31.8631 47.0724 31.655V29.3014C47.0738 29.1965 47.0542 29.0923 47.0146 28.9951C46.9751 28.8978 46.9164 28.8096 46.8421 28.7354C46.7678 28.6612 46.6794 28.6027 46.5821 28.5634C46.4847 28.524 46.3806 28.5045 46.2756 28.5062ZM31.3818 29.3014V32.4396C31.3818 33.3064 32.084 34.0086 32.9509 34.0086H36.089V29.3014H31.3818Z" fill="#A5A5A5"/>
</g>
<path d="M122.86 66.3672V65.3509H128.915V66.3672H126.474V73.1758H125.297V66.3672H122.86ZM131.675 73.2942C131.125 73.2942 130.645 73.1681 130.235 72.916C129.825 72.6638 129.506 72.311 129.28 71.8576C129.053 71.4042 128.94 70.8744 128.94 70.2682C128.94 69.6594 129.053 69.1271 129.28 68.6711C129.506 68.2152 129.825 67.8611 130.235 67.609C130.645 67.3568 131.125 67.2307 131.675 67.2307C132.225 67.2307 132.706 67.3568 133.116 67.609C133.526 67.8611 133.844 68.2152 134.071 68.6711C134.298 69.1271 134.411 69.6594 134.411 70.2682C134.411 70.8744 134.298 71.4042 134.071 71.8576C133.844 72.311 133.526 72.6638 133.116 72.916C132.706 73.1681 132.225 73.2942 131.675 73.2942ZM131.679 72.3352C132.036 72.3352 132.331 72.241 132.566 72.0525C132.8 71.864 132.973 71.6131 133.085 71.2998C133.2 70.9865 133.257 70.6414 133.257 70.2644C133.257 69.8899 133.2 69.5461 133.085 69.2328C132.973 68.9169 132.8 68.6635 132.566 68.4724C132.331 68.2814 132.036 68.1859 131.679 68.1859C131.32 68.1859 131.022 68.2814 130.785 68.4724C130.551 68.6635 130.376 68.9169 130.262 69.2328C130.15 69.5461 130.093 69.8899 130.093 70.2644C130.093 70.6414 130.15 70.9865 130.262 71.2998C130.376 71.6131 130.551 71.864 130.785 72.0525C131.022 72.241 131.32 72.3352 131.679 72.3352ZM136.101 75.3765C135.93 75.3765 135.775 75.3625 135.635 75.3345C135.495 75.309 135.39 75.281 135.322 75.2504L135.597 74.3144C135.806 74.3704 135.991 74.3946 136.154 74.387C136.318 74.3793 136.461 74.3182 136.586 74.2036C136.714 74.0889 136.826 73.9017 136.922 73.6419L137.064 73.2522L134.917 67.3071H136.139L137.625 71.8614H137.687L139.173 67.3071H140.399L137.981 73.959C137.869 74.2647 137.726 74.5232 137.553 74.7346C137.38 74.9486 137.173 75.1091 136.934 75.2161C136.694 75.323 136.417 75.3765 136.101 75.3765ZM143.638 73.2942C143.088 73.2942 142.607 73.1681 142.197 72.916C141.787 72.6638 141.469 72.311 141.242 71.8576C141.015 71.4042 140.902 70.8744 140.902 70.2682C140.902 69.6594 141.015 69.1271 141.242 68.6711C141.469 68.2152 141.787 67.8611 142.197 67.609C142.607 67.3568 143.088 67.2307 143.638 67.2307C144.188 67.2307 144.668 67.3568 145.078 67.609C145.488 67.8611 145.807 68.2152 146.033 68.6711C146.26 69.1271 146.373 69.6594 146.373 70.2682C146.373 70.8744 146.26 71.4042 146.033 71.8576C145.807 72.311 145.488 72.6638 145.078 72.916C144.668 73.1681 144.188 73.2942 143.638 73.2942ZM143.642 72.3352C143.998 72.3352 144.294 72.241 144.528 72.0525C144.762 71.864 144.936 71.6131 145.048 71.2998C145.162 70.9865 145.22 70.6414 145.22 70.2644C145.22 69.8899 145.162 69.5461 145.048 69.2328C144.936 68.9169 144.762 68.6635 144.528 68.4724C144.294 68.2814 143.998 68.1859 143.642 68.1859C143.282 68.1859 142.984 68.2814 142.748 68.4724C142.513 68.6635 142.339 68.9169 142.224 69.2328C142.112 69.5461 142.056 69.8899 142.056 70.2644C142.056 70.6414 142.112 70.9865 142.224 71.2998C142.339 71.6131 142.513 71.864 142.748 72.0525C142.984 72.241 143.282 72.3352 143.642 72.3352ZM150.28 67.3071V68.2241H147.075V67.3071H150.28ZM147.935 65.9011H149.077V71.4526C149.077 71.6742 149.11 71.8411 149.176 71.9531C149.243 72.0627 149.328 72.1378 149.432 72.1786C149.539 72.2168 149.655 72.2359 149.78 72.2359C149.872 72.2359 149.952 72.2295 150.021 72.2168C150.089 72.204 150.143 72.1938 150.181 72.1862L150.387 73.1299C150.321 73.1554 150.227 73.1809 150.105 73.2063C149.982 73.2344 149.83 73.2496 149.646 73.2522C149.346 73.2573 149.065 73.2038 148.806 73.0917C148.546 72.9796 148.336 72.8064 148.175 72.5721C148.015 72.3378 147.935 72.0436 147.935 71.6895V65.9011ZM153.144 73.3057C152.773 73.3057 152.436 73.2369 152.136 73.0994C151.835 72.9593 151.597 72.7568 151.421 72.4919C151.248 72.227 151.161 71.9022 151.161 71.5176C151.161 71.1864 151.225 70.9139 151.353 70.6999C151.48 70.486 151.652 70.3166 151.868 70.1918C152.085 70.067 152.327 69.9727 152.594 69.909C152.862 69.8454 153.134 69.797 153.412 69.7639C153.763 69.7231 154.049 69.69 154.268 69.6645C154.487 69.6365 154.646 69.5919 154.745 69.5308C154.845 69.4697 154.894 69.3703 154.894 69.2328V69.206C154.894 68.8723 154.8 68.6138 154.612 68.4304C154.426 68.247 154.148 68.1553 153.779 68.1553C153.394 68.1553 153.091 68.2407 152.869 68.4113C152.65 68.5794 152.499 68.7666 152.415 68.973L151.341 68.7284C151.468 68.3718 151.654 68.084 151.899 67.8649C152.146 67.6433 152.43 67.4829 152.751 67.3835C153.072 67.2816 153.409 67.2307 153.763 67.2307C153.998 67.2307 154.246 67.2587 154.508 67.3148C154.773 67.3682 155.02 67.4676 155.25 67.6128C155.481 67.758 155.671 67.9656 155.819 68.2356C155.967 68.503 156.041 68.8507 156.041 69.2786V73.1758H154.925V72.3734H154.879C154.805 72.5212 154.694 72.6663 154.547 72.809C154.399 72.9516 154.209 73.0701 153.977 73.1643C153.746 73.2586 153.468 73.3057 153.144 73.3057ZM153.393 72.3887C153.709 72.3887 153.979 72.3263 154.203 72.2015C154.43 72.0767 154.601 71.9137 154.719 71.7124C154.838 71.5087 154.898 71.2909 154.898 71.0591V70.3026C154.857 70.3433 154.778 70.3815 154.661 70.4172C154.547 70.4503 154.415 70.4796 154.268 70.5051C154.12 70.528 153.976 70.5497 153.836 70.57C153.696 70.5879 153.579 70.6031 153.485 70.6159C153.263 70.6439 153.06 70.691 152.877 70.7572C152.696 70.8235 152.551 70.919 152.441 71.0438C152.334 71.1661 152.281 71.3291 152.281 71.5329C152.281 71.8156 152.385 72.0296 152.594 72.1747C152.803 72.3174 153.069 72.3887 153.393 72.3887Z" fill="#000E1F"/>
<path d="M127.367 47.8694H128.498L131.158 54.3647H131.249L133.909 47.8694H135.04V55.6943H134.153V49.7493H134.077L131.631 55.6943H130.776L128.33 49.7493H128.254V55.6943H127.367V47.8694ZM138.437 55.8319C138.065 55.8319 137.727 55.7618 137.424 55.6217C137.121 55.4791 136.88 55.2741 136.702 55.0066C136.524 54.7366 136.434 54.4106 136.434 54.0285C136.434 53.6923 136.501 53.4197 136.633 53.2109C136.766 52.9994 136.943 52.8339 137.164 52.7142C137.386 52.5944 137.63 52.5053 137.898 52.4467C138.168 52.3856 138.439 52.3372 138.712 52.3015C139.068 52.2557 139.357 52.2213 139.579 52.1984C139.803 52.1729 139.966 52.1309 140.068 52.0723C140.172 52.0137 140.225 51.9118 140.225 51.7666V51.736C140.225 51.3591 140.121 51.0661 139.915 50.8573C139.711 50.6484 139.402 50.544 138.987 50.544C138.556 50.544 138.219 50.6382 137.974 50.8267C137.73 51.0152 137.558 51.2164 137.458 51.4304L136.603 51.1247C136.755 50.7681 136.959 50.4905 137.214 50.2918C137.471 50.0906 137.751 49.9505 138.054 49.8715C138.36 49.79 138.661 49.7493 138.956 49.7493C139.145 49.7493 139.361 49.7722 139.606 49.818C139.853 49.8613 140.091 49.9518 140.32 50.0893C140.552 50.2268 140.744 50.4344 140.897 50.7121C141.05 50.9897 141.126 51.3616 141.126 51.8277V55.6943H140.225V54.8996H140.179C140.118 55.027 140.016 55.1633 139.873 55.3084C139.73 55.4536 139.541 55.5772 139.304 55.6791C139.067 55.7809 138.778 55.8319 138.437 55.8319ZM138.574 55.0219C138.931 55.0219 139.231 54.9518 139.476 54.8117C139.723 54.6716 139.909 54.4908 140.034 54.2692C140.161 54.0476 140.225 53.8145 140.225 53.57V52.7447C140.186 52.7906 140.102 52.8326 139.972 52.8708C139.845 52.9065 139.697 52.9383 139.529 52.9663C139.364 52.9918 139.202 53.0147 139.044 53.0351C138.889 53.0529 138.763 53.0682 138.666 53.0809C138.431 53.1115 138.212 53.1612 138.009 53.23C137.807 53.2962 137.644 53.3968 137.52 53.5318C137.397 53.6642 137.336 53.8451 137.336 54.0743C137.336 54.3876 137.452 54.6245 137.684 54.785C137.918 54.9429 138.215 55.0219 138.574 55.0219ZM143.505 53.5547L143.49 52.4391H143.673L146.241 49.8257H147.356L144.621 52.5919H144.544L143.505 53.5547ZM142.665 55.6943V47.8694H143.566V55.6943H142.665ZM146.394 55.6943L144.101 52.7906L144.743 52.164L147.54 55.6943H146.394ZM150.628 55.8166C150.063 55.8166 149.575 55.6918 149.165 55.4422C148.757 55.19 148.443 54.8385 148.221 54.3876C148.002 53.9342 147.893 53.407 147.893 52.8059C147.893 52.2047 148.002 51.6749 148.221 51.2164C148.443 50.7554 148.751 50.3962 149.146 50.139C149.543 49.8792 150.007 49.7493 150.537 49.7493C150.842 49.7493 151.144 49.8002 151.442 49.9021C151.74 50.004 152.011 50.1695 152.256 50.3988C152.5 50.6255 152.695 50.926 152.84 51.3005C152.986 51.6749 153.058 52.1359 153.058 52.6836V53.0657H148.534V52.2862H152.141C152.141 51.9551 152.075 51.6596 151.943 51.3998C151.813 51.14 151.627 50.935 151.385 50.7847C151.145 50.6344 150.863 50.5593 150.537 50.5593C150.177 50.5593 149.867 50.6484 149.604 50.8267C149.344 51.0025 149.145 51.2317 149.004 51.5144C148.864 51.7972 148.794 52.1003 148.794 52.4238V52.9434C148.794 53.3866 148.871 53.7623 149.024 54.0705C149.179 54.3762 149.394 54.6092 149.669 54.7697C149.944 54.9276 150.264 55.0066 150.628 55.0066C150.865 55.0066 151.079 54.9735 151.27 54.9073C151.464 54.8385 151.631 54.7366 151.771 54.6016C151.911 54.4641 152.019 54.2934 152.095 54.0896L152.967 54.3342C152.875 54.6296 152.721 54.8894 152.504 55.1136C152.288 55.3352 152.02 55.5084 151.702 55.6332C151.383 55.7555 151.026 55.8166 150.628 55.8166Z" fill="#848487"/>
<g clip-path="url(#clip1_1_20753)">
<path d="M131.575 18.6055C131.471 18.6041 131.368 18.6233 131.271 18.662C131.175 18.7008 131.087 18.7584 131.013 18.8314C130.939 18.9044 130.88 18.9913 130.84 19.0873C130.8 19.1832 130.779 19.2861 130.779 19.3901C130.779 19.494 130.8 19.597 130.84 19.6929C130.88 19.7888 130.939 19.8758 131.013 19.9488C131.087 20.0218 131.175 20.0793 131.271 20.1181C131.368 20.1569 131.471 20.1761 131.575 20.1746H131.986L131 22.64C130.418 22.8695 130.006 23.4336 130.006 24.0972V26.8829C130.006 27.5615 130.441 28.1628 131.086 28.3738L132.399 28.8044C132.581 27.9092 133.371 27.2354 134.321 27.2354C135.27 27.2354 136.06 27.9092 136.242 28.8044H144.167C144.349 27.9092 145.141 27.2354 146.09 27.2354C147.039 27.2354 147.83 27.9092 148.012 28.8044H148.796C149.619 28.8044 150.404 27.972 150.404 27.5924V24.9568C150.404 24.221 149.893 23.5823 149.175 23.4246C148.497 23.2757 147.594 23.0922 146.634 22.9128L144.927 20.3523C144.201 19.2612 142.974 18.6055 141.663 18.6055H135.498H131.575ZM133.676 20.1746H135.498H137.067V22.5282H132.733L133.676 20.1746ZM138.636 20.1746H141.663C142.452 20.1746 143.185 20.5675 143.622 21.2227L144.51 22.5542C144.458 22.5466 144.403 22.5355 144.351 22.5282H138.636V20.1746ZM134.321 30.3734C132.814 30.3734 131.575 31.6121 131.575 33.1193C131.575 34.6265 132.814 35.8651 134.321 35.8651C135.406 35.8651 136.343 35.2181 136.788 34.2961H138.847C138.985 34.5344 139.183 34.7324 139.421 34.87C139.659 35.0078 139.929 35.0804 140.205 35.0806C140.48 35.0801 140.75 35.0074 140.988 34.8697C141.226 34.732 141.423 34.5342 141.561 34.2961H143.622C144.066 35.2181 145.004 35.8651 146.089 35.8651C147.596 35.8651 148.834 34.6265 148.834 33.1193C148.834 31.6121 147.596 30.3734 146.089 30.3734C144.716 30.3734 143.577 31.4048 143.383 32.727H141.562C141.425 32.4887 141.227 32.2907 140.989 32.153C140.75 32.0153 140.48 31.9427 140.205 31.9425C139.93 31.943 139.66 32.0157 139.422 32.1534C139.184 32.2911 138.986 32.4889 138.849 32.727H137.027C136.833 31.4048 135.694 30.3734 134.321 30.3734ZM134.321 31.9425C134.98 31.9425 135.498 32.46 135.498 33.1193C135.498 33.7785 134.98 34.2961 134.321 34.2961C133.662 34.2961 133.144 33.7785 133.144 33.1193C133.144 32.46 133.662 31.9425 134.321 31.9425ZM146.089 31.9425C146.748 31.9425 147.265 32.46 147.265 33.1193C147.265 33.7785 146.748 34.2961 146.089 34.2961C145.429 34.2961 144.912 33.7785 144.912 33.1193C144.912 32.46 145.429 31.9425 146.089 31.9425Z" fill="#A5A5A5"/>
</g>
<path d="M240.486 68.7512C240.445 68.3895 240.277 68.1093 239.982 67.9106C239.686 67.7094 239.314 67.6088 238.866 67.6088C238.545 67.6088 238.267 67.6597 238.033 67.7616C237.799 67.8609 237.616 67.9985 237.487 68.1742C237.359 68.3475 237.296 68.5449 237.296 68.7665C237.296 68.9524 237.339 69.1129 237.425 69.2479C237.515 69.3829 237.63 69.4962 237.773 69.5879C237.918 69.6771 238.074 69.7522 238.239 69.8133C238.405 69.8719 238.564 69.9203 238.717 69.9585L239.481 70.1572C239.731 70.2183 239.987 70.3011 240.249 70.4056C240.511 70.51 240.755 70.6475 240.979 70.8182C241.203 70.9889 241.384 71.2003 241.521 71.4524C241.661 71.7046 241.731 72.0065 241.731 72.358C241.731 72.8012 241.617 73.1947 241.388 73.5386C241.161 73.8824 240.831 74.1537 240.398 74.3524C239.967 74.5511 239.447 74.6504 238.835 74.6504C238.249 74.6504 237.743 74.5574 237.315 74.3715C236.887 74.1856 236.552 73.9219 236.31 73.5806C236.068 73.2367 235.934 72.8292 235.909 72.358H237.093C237.116 72.6407 237.208 72.8763 237.368 73.0648C237.531 73.2507 237.739 73.3896 237.991 73.4813C238.246 73.5704 238.525 73.615 238.828 73.615C239.161 73.615 239.458 73.5628 239.718 73.4583C239.98 73.3514 240.187 73.2036 240.337 73.0151C240.487 72.8241 240.562 72.6012 240.562 72.3465C240.562 72.1147 240.496 71.9249 240.364 71.7772C240.234 71.6295 240.057 71.5072 239.832 71.4104C239.611 71.3136 239.36 71.2283 239.08 71.1544L238.155 70.9023C237.529 70.7316 237.032 70.4807 236.665 70.1496C236.301 69.8184 236.119 69.3803 236.119 68.8352C236.119 68.3844 236.241 67.9909 236.486 67.6546C236.73 67.3184 237.061 67.0573 237.479 66.8714C237.897 66.6829 238.368 66.5886 238.893 66.5886C239.422 66.5886 239.89 66.6816 240.295 66.8676C240.702 67.0535 241.023 67.3095 241.258 67.6355C241.492 67.959 241.614 68.3309 241.624 68.7512H240.486ZM242.943 74.5205V68.6518H244.085V74.5205H242.943ZM243.52 67.7463C243.321 67.7463 243.151 67.6801 243.008 67.5476C242.868 67.4126 242.798 67.2522 242.798 67.0662C242.798 66.8777 242.868 66.7173 243.008 66.5848C243.151 66.4498 243.321 66.3823 243.52 66.3823C243.719 66.3823 243.888 66.4498 244.028 66.5848C244.171 66.7173 244.242 66.8777 244.242 67.0662C244.242 67.2522 244.171 67.4126 244.028 67.5476C243.888 67.6801 243.719 67.7463 243.52 67.7463ZM248.044 74.639C247.466 74.639 246.968 74.5154 246.55 74.2683C246.135 74.0187 245.814 73.6685 245.587 73.2176C245.363 72.7642 245.251 72.2332 245.251 71.6244C245.251 71.0233 245.363 70.4934 245.587 70.035C245.814 69.5765 246.13 69.2186 246.535 68.9613C246.942 68.7041 247.419 68.5754 247.964 68.5754C248.295 68.5754 248.616 68.6302 248.927 68.7397C249.237 68.8492 249.516 69.0212 249.763 69.2555C250.01 69.4899 250.205 69.7942 250.348 70.1687C250.491 70.5406 250.562 70.9927 250.562 71.525V71.93H245.897V71.0742H249.442C249.442 70.7736 249.381 70.5075 249.259 70.2757C249.137 70.0413 248.965 69.8567 248.743 69.7217C248.524 69.5867 248.267 69.5192 247.971 69.5192C247.65 69.5192 247.37 69.5981 247.131 69.756C246.894 69.9114 246.711 70.1152 246.581 70.3674C246.453 70.617 246.39 70.8883 246.39 71.1812V71.8498C246.39 72.2421 246.458 72.5757 246.596 72.8508C246.736 73.1259 246.931 73.3361 247.18 73.4813C247.43 73.6239 247.722 73.6952 248.055 73.6952C248.272 73.6952 248.469 73.6647 248.648 73.6035C248.826 73.5398 248.98 73.4456 249.11 73.3208C249.24 73.196 249.339 73.0419 249.408 72.8585L250.489 73.0533C250.403 73.3717 250.247 73.6507 250.023 73.8901C249.802 74.127 249.523 74.3116 249.186 74.4441C248.853 74.574 248.472 74.639 248.044 74.639ZM252.864 71.036V74.5205H251.722V68.6518H252.818V69.607H252.891C253.026 69.2963 253.237 69.0467 253.525 68.8582C253.816 68.6697 254.181 68.5754 254.622 68.5754C255.022 68.5754 255.372 68.6595 255.672 68.8276C255.973 68.9932 256.206 69.2402 256.372 69.5688C256.537 69.8974 256.62 70.3037 256.62 70.7876V74.5205H255.478V70.9252C255.478 70.4998 255.367 70.1674 255.145 69.928C254.924 69.686 254.619 69.565 254.232 69.565C253.967 69.565 253.731 69.6223 253.525 69.7369C253.321 69.8516 253.16 70.0197 253.04 70.2413C252.923 70.4603 252.864 70.7252 252.864 71.036ZM259.187 71.036V74.5205H258.044V68.6518H259.141V69.607H259.214C259.349 69.2963 259.56 69.0467 259.848 68.8582C260.138 68.6697 260.504 68.5754 260.944 68.5754C261.344 68.5754 261.695 68.6595 261.995 68.8276C262.296 68.9932 262.529 69.2402 262.694 69.5688C262.86 69.8974 262.943 70.3037 262.943 70.7876V74.5205H261.8V70.9252C261.8 70.4998 261.689 70.1674 261.468 69.928C261.246 69.686 260.942 69.565 260.555 69.565C260.29 69.565 260.054 69.6223 259.848 69.7369C259.644 69.8516 259.482 70.0197 259.363 70.2413C259.245 70.4603 259.187 70.7252 259.187 71.036ZM266.075 74.6504C265.703 74.6504 265.367 74.5816 265.066 74.4441C264.766 74.304 264.528 74.1015 264.352 73.8366C264.179 73.5717 264.092 73.2469 264.092 72.8623C264.092 72.5312 264.156 72.2586 264.283 72.0447C264.411 71.8307 264.582 71.6613 264.799 71.5365C265.015 71.4117 265.257 71.3174 265.525 71.2538C265.792 71.1901 266.065 71.1417 266.343 71.1086C266.694 71.0678 266.979 71.0347 267.198 71.0092C267.417 70.9812 267.577 70.9366 267.676 70.8755C267.775 70.8144 267.825 70.715 267.825 70.5775V70.5508C267.825 70.2171 267.731 69.9585 267.542 69.7751C267.356 69.5917 267.079 69.5 266.709 69.5C266.325 69.5 266.022 69.5854 265.8 69.756C265.581 69.9242 265.429 70.1114 265.345 70.3177L264.272 70.0732C264.399 69.7166 264.585 69.4287 264.83 69.2097C265.077 68.9881 265.361 68.8276 265.682 68.7283C266.002 68.6264 266.34 68.5754 266.694 68.5754C266.928 68.5754 267.177 68.6034 267.439 68.6595C267.704 68.713 267.951 68.8123 268.18 68.9575C268.412 69.1027 268.602 69.3103 268.75 69.5803C268.897 69.8477 268.971 70.1954 268.971 70.6233V74.5205H267.856V73.7182H267.81C267.736 73.8659 267.625 74.0111 267.477 74.1537C267.33 74.2964 267.14 74.4148 266.908 74.509C266.676 74.6033 266.399 74.6504 266.075 74.6504ZM266.323 73.7334C266.639 73.7334 266.909 73.671 267.133 73.5462C267.36 73.4214 267.532 73.2584 267.649 73.0572C267.769 72.8534 267.829 72.6356 267.829 72.4038V71.6473C267.788 71.6881 267.709 71.7263 267.592 71.7619C267.477 71.795 267.346 71.8243 267.198 71.8498C267.051 71.8727 266.907 71.8944 266.767 71.9148C266.627 71.9326 266.509 71.9479 266.415 71.9606C266.194 71.9886 265.991 72.0357 265.808 72.102C265.627 72.1682 265.482 72.2637 265.372 72.3885C265.265 72.5108 265.212 72.6738 265.212 72.8776C265.212 73.1603 265.316 73.3743 265.525 73.5195C265.734 73.6621 266 73.7334 266.323 73.7334Z" fill="#000E1F"/>
<path d="M238.324 49.2112H239.454L242.114 55.7065H242.205L244.865 49.2112H245.996V57.0361H245.109V51.0911H245.033L242.587 57.0361H241.732L239.286 51.0911H239.21V57.0361H238.324V49.2112ZM250.05 57.1584C249.52 57.1584 249.055 57.0323 248.655 56.7801C248.258 56.528 247.947 56.1752 247.723 55.7218C247.501 55.2684 247.39 54.7386 247.39 54.1324C247.39 53.521 247.501 52.9874 247.723 52.5315C247.947 52.0755 248.258 51.7215 248.655 51.4693C249.055 51.2171 249.52 51.0911 250.05 51.0911C250.58 51.0911 251.043 51.2171 251.44 51.4693C251.84 51.7215 252.151 52.0755 252.373 52.5315C252.597 52.9874 252.709 53.521 252.709 54.1324C252.709 54.7386 252.597 55.2684 252.373 55.7218C252.151 56.1752 251.84 56.528 251.44 56.7801C251.043 57.0323 250.58 57.1584 250.05 57.1584ZM250.05 56.3484C250.452 56.3484 250.783 56.2452 251.043 56.0389C251.303 55.8326 251.495 55.5613 251.62 55.2251C251.745 54.8889 251.807 54.5246 251.807 54.1324C251.807 53.7401 251.745 53.3746 251.62 53.0358C251.495 52.697 251.303 52.4232 251.043 52.2144C250.783 52.0055 250.452 51.9011 250.05 51.9011C249.647 51.9011 249.316 52.0055 249.056 52.2144C248.797 52.4232 248.604 52.697 248.479 53.0358C248.355 53.3746 248.292 53.7401 248.292 54.1324C248.292 54.5246 248.355 54.8889 248.479 55.2251C248.604 55.5613 248.797 55.8326 249.056 56.0389C249.316 56.2452 249.647 56.3484 250.05 56.3484ZM256.194 57.1584C255.705 57.1584 255.273 57.0349 254.899 56.7878C254.524 56.5382 254.231 56.1867 254.02 55.7333C253.808 55.2773 253.703 54.7386 253.703 54.1171C253.703 53.5007 253.808 52.9658 254.02 52.5124C254.231 52.059 254.525 51.7087 254.902 51.4617C255.279 51.2146 255.715 51.0911 256.209 51.0911C256.591 51.0911 256.893 51.1547 257.115 51.2821C257.339 51.4069 257.509 51.5495 257.627 51.71C257.746 51.8679 257.839 51.9978 257.906 52.0997H257.982V49.2112H258.884V57.0361H258.013V56.1344H257.906C257.839 56.2414 257.745 56.3764 257.623 56.5394C257.501 56.6999 257.326 56.8438 257.099 56.9712C256.873 57.096 256.571 57.1584 256.194 57.1584ZM256.316 56.3484C256.678 56.3484 256.983 56.2542 257.233 56.0657C257.483 55.8746 257.672 55.611 257.802 55.2748C257.932 54.936 257.997 54.545 257.997 54.1018C257.997 53.6637 257.934 53.2803 257.806 52.9518C257.679 52.6206 257.49 52.3634 257.241 52.18C256.991 51.994 256.683 51.9011 256.316 51.9011C255.934 51.9011 255.616 51.9991 255.361 52.1952C255.109 52.3888 254.919 52.6525 254.792 52.9861C254.667 53.3173 254.604 53.6892 254.604 54.1018C254.604 54.5195 254.668 54.8991 254.795 55.2404C254.925 55.5792 255.116 55.8492 255.369 56.0504C255.623 56.2491 255.939 56.3484 256.316 56.3484ZM263.013 57.1584C262.448 57.1584 261.96 57.0336 261.55 56.784C261.142 56.5318 260.828 56.1803 260.606 55.7294C260.387 55.276 260.278 54.7488 260.278 54.1476C260.278 53.5465 260.387 53.0167 260.606 52.5582C260.828 52.0972 261.136 51.738 261.531 51.4808C261.928 51.221 262.392 51.0911 262.922 51.0911C263.227 51.0911 263.529 51.142 263.827 51.2439C264.125 51.3458 264.396 51.5113 264.641 51.7406C264.885 51.9673 265.08 52.2678 265.225 52.6423C265.371 53.0167 265.443 53.4777 265.443 54.0254V54.4075H260.919V53.628H264.526C264.526 53.2969 264.46 53.0014 264.328 52.7416C264.198 52.4818 264.012 52.2768 263.77 52.1265C263.53 51.9762 263.248 51.9011 262.922 51.9011C262.562 51.9011 262.252 51.9902 261.989 52.1685C261.729 52.3443 261.53 52.5735 261.389 52.8562C261.249 53.139 261.179 53.4421 261.179 53.7656V54.2852C261.179 54.7284 261.256 55.1041 261.409 55.4123C261.564 55.718 261.779 55.951 262.054 56.1115C262.329 56.2694 262.649 56.3484 263.013 56.3484C263.25 56.3484 263.464 56.3153 263.655 56.2491C263.849 56.1803 264.016 56.0784 264.156 55.9434C264.296 55.8059 264.404 55.6352 264.48 55.4314L265.352 55.6759C265.26 55.9714 265.106 56.2312 264.889 56.4554C264.673 56.677 264.405 56.8502 264.087 56.975C263.768 57.0973 263.411 57.1584 263.013 57.1584ZM267.609 49.2112V57.0361H266.707V49.2112H267.609Z" fill="#848487"/>
<g clip-path="url(#clip2_1_20753)">
<path d="M261.969 25.1454L260.354 20.5324C259.914 19.2756 258.723 18.4307 257.391 18.4307H248.964C247.632 18.4307 246.441 19.2756 246.001 20.5316L244.387 25.1447C243.525 25.7119 242.979 26.6917 242.979 27.7696V33.3367C242.979 34.2036 243.681 34.9057 244.548 34.9057C245.414 34.9057 246.117 34.2036 246.117 33.3367V32.3474C246.117 32.3474 250.26 32.5521 253.177 32.5521C256.095 32.5521 260.238 32.3474 260.238 32.3474V33.3367C260.238 34.2036 260.94 34.9057 261.807 34.9057C262.674 34.9057 263.376 34.2036 263.376 33.3367V27.7696C263.376 26.6917 262.829 25.7119 261.969 25.1454ZM246.583 23.6187L247.482 21.0502C247.703 20.421 248.297 19.9997 248.964 19.9997H257.391C258.058 19.9997 258.652 20.421 258.872 21.0502L259.771 23.6187C259.913 24.0228 259.576 24.4299 259.153 24.3617C257.615 24.113 255.637 23.9223 253.177 23.9223C250.718 23.9223 248.74 24.113 247.202 24.3617C246.779 24.4299 246.442 24.0228 246.583 23.6187ZM246.509 29.4141C245.859 29.4141 245.332 28.8869 245.332 28.2373C245.332 27.5877 245.859 27.0605 246.509 27.0605C247.158 27.0605 247.686 27.5877 247.686 28.2373C247.686 28.8869 247.158 29.4141 246.509 29.4141ZM255.531 28.6295H250.824C250.391 28.6295 250.039 28.278 250.039 27.845C250.039 27.4119 250.391 27.0605 250.824 27.0605H255.531C255.964 27.0605 256.315 27.4119 256.315 27.845C256.315 28.278 255.964 28.6295 255.531 28.6295ZM259.846 29.4141C259.196 29.4141 258.669 28.8869 258.669 28.2373C258.669 27.5877 259.196 27.0605 259.846 27.0605C260.495 27.0605 261.023 27.5877 261.023 28.2373C261.023 28.8869 260.495 29.4141 259.846 29.4141Z" fill="#A5A5A5"/>
</g>
<path d="M31.9242 156.15H33.1086V161.296C33.1086 161.844 32.9799 162.329 32.7227 162.752C32.4654 163.172 32.1037 163.503 31.6376 163.745C31.1715 163.985 30.6251 164.105 29.9985 164.105C29.3744 164.105 28.8293 163.985 28.3632 163.745C27.8971 163.503 27.5354 163.172 27.2781 162.752C27.0209 162.329 26.8922 161.844 26.8922 161.296V156.15H28.0728V161.201C28.0728 161.555 28.1505 161.869 28.3059 162.144C28.4638 162.42 28.6867 162.636 28.9745 162.794C29.2624 162.949 29.6037 163.027 29.9985 163.027C30.3959 163.027 30.7384 162.949 31.0263 162.794C31.3167 162.636 31.5383 162.42 31.6911 162.144C31.8465 161.869 31.9242 161.555 31.9242 161.201V156.15ZM35.7682 160.49V163.975H34.6258V158.106H35.7223V159.061H35.7949C35.9299 158.75 36.1413 158.501 36.4292 158.312C36.7195 158.124 37.085 158.03 37.5257 158.03C37.9256 158.03 38.2758 158.114 38.5764 158.282C38.877 158.447 39.11 158.694 39.2756 159.023C39.4412 159.352 39.524 159.758 39.524 160.242V163.975H38.3816V160.379C38.3816 159.954 38.2708 159.622 38.0491 159.382C37.8275 159.14 37.5232 159.019 37.136 159.019C36.8711 159.019 36.6355 159.076 36.4292 159.191C36.2254 159.306 36.0636 159.474 35.9439 159.695C35.8267 159.914 35.7682 160.179 35.7682 160.49ZM40.9485 163.975V158.106H42.0909V163.975H40.9485ZM41.5254 157.2C41.3267 157.2 41.1561 157.134 41.0134 157.002C40.8733 156.867 40.8033 156.706 40.8033 156.52C40.8033 156.332 40.8733 156.171 41.0134 156.039C41.1561 155.904 41.3267 155.836 41.5254 155.836C41.7241 155.836 41.8935 155.904 42.0336 156.039C42.1762 156.171 42.2475 156.332 42.2475 156.52C42.2475 156.706 42.1762 156.867 42.0336 157.002C41.8935 157.134 41.7241 157.2 41.5254 157.2ZM46.2597 158.106V159.023H43.0541V158.106H46.2597ZM43.9137 156.7H45.0561V162.251C45.0561 162.473 45.0892 162.64 45.1555 162.752C45.2217 162.861 45.307 162.937 45.4115 162.977C45.5184 163.016 45.6343 163.035 45.7591 163.035C45.8508 163.035 45.9311 163.028 45.9999 163.016C46.0686 163.003 46.1221 162.993 46.1603 162.985L46.3666 163.929C46.3004 163.954 46.2062 163.98 46.0839 164.005C45.9616 164.033 45.8088 164.048 45.6254 164.051C45.3249 164.056 45.0447 164.003 44.7849 163.891C44.525 163.778 44.3149 163.605 44.1544 163.371C43.994 163.137 43.9137 162.842 43.9137 162.488V156.7ZM49.8821 164.093C49.3039 164.093 48.8059 163.97 48.3882 163.722C47.973 163.473 47.652 163.123 47.4253 162.672C47.2012 162.218 47.0891 161.687 47.0891 161.078C47.0891 160.477 47.2012 159.948 47.4253 159.489C47.652 159.031 47.9679 158.673 48.3729 158.415C48.7804 158.158 49.2567 158.03 49.8018 158.03C50.133 158.03 50.4539 158.084 50.7647 158.194C51.0754 158.303 51.3543 158.475 51.6014 158.71C51.8485 158.944 52.0433 159.248 52.186 159.623C52.3286 159.995 52.3999 160.447 52.3999 160.979V161.384H47.7348V160.528H51.2805C51.2805 160.228 51.2193 159.962 51.0971 159.73C50.9748 159.495 50.8029 159.311 50.5813 159.176C50.3622 159.041 50.105 158.973 49.8095 158.973C49.4885 158.973 49.2083 159.052 48.9689 159.21C48.732 159.366 48.5486 159.569 48.4187 159.821C48.2914 160.071 48.2277 160.342 48.2277 160.635V161.304C48.2277 161.696 48.2965 162.03 48.434 162.305C48.5741 162.58 48.769 162.79 49.0186 162.935C49.2682 163.078 49.5599 163.149 49.8935 163.149C50.11 163.149 50.3075 163.119 50.4858 163.058C50.6641 162.994 50.8182 162.9 50.9481 162.775C51.078 162.65 51.1773 162.496 51.2461 162.313L52.3274 162.507C52.2407 162.826 52.0854 163.105 51.8612 163.344C51.6396 163.581 51.3607 163.766 51.0245 163.898C50.6908 164.028 50.31 164.093 49.8821 164.093ZM55.7568 164.089C55.283 164.089 54.8602 163.968 54.4883 163.726C54.119 163.482 53.8286 163.134 53.6172 162.683C53.4083 162.23 53.3039 161.686 53.3039 161.052C53.3039 160.417 53.4096 159.875 53.621 159.424C53.835 158.973 54.1279 158.628 54.4998 158.389C54.8717 158.149 55.2932 158.03 55.7645 158.03C56.1287 158.03 56.4216 158.091 56.6432 158.213C56.8674 158.333 57.0406 158.473 57.1628 158.633C57.2877 158.794 57.3845 158.935 57.4532 159.057H57.522V156.15H58.6644V163.975H57.5487V163.061H57.4532C57.3845 163.186 57.2851 163.329 57.1552 163.489C57.0278 163.65 56.8521 163.79 56.6279 163.91C56.4038 164.029 56.1134 164.089 55.7568 164.089ZM56.009 163.115C56.3376 163.115 56.6152 163.028 56.8419 162.855C57.0712 162.679 57.2444 162.436 57.3615 162.125C57.4812 161.815 57.5411 161.453 57.5411 161.04C57.5411 160.633 57.4825 160.276 57.3653 159.97C57.2482 159.665 57.0762 159.427 56.8495 159.256C56.6229 159.085 56.3427 159 56.009 159C55.6651 159 55.3786 159.089 55.1493 159.267C54.9201 159.446 54.7469 159.689 54.6297 159.997C54.5151 160.305 54.4578 160.653 54.4578 161.04C54.4578 161.433 54.5163 161.785 54.6335 162.099C54.7507 162.412 54.9239 162.66 55.1531 162.844C55.3849 163.025 55.6702 163.115 56.009 163.115ZM30.2144 174.205C30.1736 173.844 30.0055 173.563 29.71 173.365C29.4146 173.163 29.0427 173.063 28.5944 173.063C28.2734 173.063 27.9958 173.114 27.7614 173.216C27.5271 173.315 27.345 173.453 27.2151 173.628C27.0877 173.802 27.024 173.999 27.024 174.221C27.024 174.407 27.0673 174.567 27.1539 174.702C27.2431 174.837 27.359 174.95 27.5016 175.042C27.6468 175.131 27.8022 175.206 27.9678 175.267C28.1333 175.326 28.2925 175.374 28.4454 175.413L29.2095 175.611C29.4591 175.672 29.7151 175.755 29.9775 175.86C30.2398 175.964 30.4831 176.102 30.7072 176.272C30.9314 176.443 31.1122 176.654 31.2498 176.907C31.3899 177.159 31.4599 177.461 31.4599 177.812C31.4599 178.255 31.3453 178.649 31.1161 178.993C30.8894 179.337 30.5595 179.608 30.1265 179.806C29.696 180.005 29.1751 180.105 28.5638 180.105C27.978 180.105 27.4711 180.012 27.0431 179.826C26.6152 179.64 26.2803 179.376 26.0383 179.035C25.7963 178.691 25.6626 178.283 25.6371 177.812H26.8215C26.8445 178.095 26.9362 178.33 27.0966 178.519C27.2597 178.705 27.4672 178.844 27.7194 178.935C27.9741 179.025 28.253 179.069 28.5562 179.069C28.8898 179.069 29.1866 179.017 29.4464 178.912C29.7088 178.805 29.9151 178.658 30.0654 178.469C30.2156 178.278 30.2908 178.055 30.2908 177.801C30.2908 177.569 30.2246 177.379 30.0921 177.231C29.9622 177.084 29.7852 176.961 29.561 176.865C29.3394 176.768 29.0885 176.682 28.8083 176.609L27.8837 176.356C27.2571 176.186 26.7604 175.935 26.3936 175.604C26.0294 175.273 25.8473 174.834 25.8473 174.289C25.8473 173.838 25.9695 173.445 26.214 173.109C26.4586 172.773 26.7897 172.511 27.2074 172.325C27.6252 172.137 28.0964 172.043 28.6211 172.043C29.1509 172.043 29.6183 172.136 30.0233 172.322C30.4309 172.508 30.7518 172.764 30.9862 173.09C31.2205 173.413 31.3428 173.785 31.3529 174.205H30.2144ZM35.4109 174.106V175.023H32.2053V174.106H35.4109ZM33.065 172.7H34.2074V178.251C34.2074 178.473 34.2405 178.64 34.3067 178.752C34.373 178.861 34.4583 178.937 34.5627 178.977C34.6697 179.016 34.7856 179.035 34.9104 179.035C35.0021 179.035 35.0823 179.028 35.1511 179.016C35.2199 179.003 35.2734 178.993 35.3116 178.985L35.5179 179.929C35.4517 179.954 35.3574 179.98 35.2352 180.005C35.1129 180.033 34.9601 180.048 34.7767 180.051C34.4761 180.056 34.1959 180.003 33.9361 179.891C33.6763 179.778 33.4662 179.605 33.3057 179.371C33.1452 179.137 33.065 178.842 33.065 178.488V172.7ZM38.2749 180.105C37.903 180.105 37.5668 180.036 37.2662 179.898C36.9657 179.758 36.7275 179.556 36.5518 179.291C36.3786 179.026 36.2919 178.701 36.2919 178.316C36.2919 177.985 36.3556 177.713 36.483 177.499C36.6103 177.285 36.7823 177.115 36.9988 176.991C37.2153 176.866 37.4573 176.772 37.7247 176.708C37.9922 176.644 38.2647 176.596 38.5424 176.563C38.8939 176.522 39.1792 176.489 39.3982 176.463C39.6173 176.435 39.7765 176.391 39.8758 176.33C39.9751 176.268 40.0248 176.169 40.0248 176.032V176.005C40.0248 175.671 39.9306 175.413 39.7421 175.229C39.5561 175.046 39.2785 174.954 38.9092 174.954C38.5245 174.954 38.2214 175.039 37.9998 175.21C37.7808 175.378 37.6292 175.565 37.5452 175.772L36.4715 175.527C36.5989 175.171 36.7848 174.883 37.0294 174.664C37.2764 174.442 37.5604 174.282 37.8814 174.182C38.2023 174.08 38.5398 174.03 38.8939 174.03C39.1282 174.03 39.3766 174.058 39.6389 174.114C39.9038 174.167 40.1509 174.266 40.3801 174.412C40.6119 174.557 40.8017 174.764 40.9494 175.034C41.0972 175.302 41.171 175.65 41.171 176.077V179.975H40.0554V179.172H40.0095C39.9357 179.32 39.8249 179.465 39.6771 179.608C39.5294 179.75 39.3396 179.869 39.1078 179.963C38.876 180.057 38.5984 180.105 38.2749 180.105ZM38.5233 179.188C38.8391 179.188 39.1091 179.125 39.3333 179C39.56 178.876 39.7319 178.712 39.8491 178.511C39.9688 178.307 40.0286 178.09 40.0286 177.858V177.101C39.9879 177.142 39.9089 177.18 39.7918 177.216C39.6771 177.249 39.546 177.278 39.3982 177.304C39.2505 177.327 39.1066 177.348 38.9665 177.369C38.8264 177.387 38.7092 177.402 38.615 177.415C38.3934 177.443 38.1909 177.49 38.0075 177.556C37.8266 177.622 37.6814 177.718 37.5719 177.843C37.4649 177.965 37.4114 178.128 37.4114 178.332C37.4114 178.614 37.5159 178.828 37.7247 178.974C37.9336 179.116 38.1998 179.188 38.5233 179.188ZM45.3245 174.106V175.023H42.1189V174.106H45.3245ZM42.9786 172.7H44.121V178.251C44.121 178.473 44.1541 178.64 44.2203 178.752C44.2866 178.861 44.3719 178.937 44.4763 178.977C44.5833 179.016 44.6992 179.035 44.824 179.035C44.9157 179.035 44.996 179.028 45.0647 179.016C45.1335 179.003 45.187 178.993 45.2252 178.985L45.4315 179.929C45.3653 179.954 45.271 179.98 45.1488 180.005C45.0265 180.033 44.8737 180.048 44.6903 180.051C44.3897 180.056 44.1095 180.003 43.8497 179.891C43.5899 179.778 43.3798 179.605 43.2193 179.371C43.0588 179.137 42.9786 178.842 42.9786 178.488V172.7ZM48.9469 180.093C48.3687 180.093 47.8708 179.97 47.453 179.722C47.0378 179.473 46.7169 179.123 46.4902 178.672C46.2661 178.218 46.154 177.687 46.154 177.078C46.154 176.477 46.2661 175.948 46.4902 175.489C46.7169 175.031 47.0328 174.673 47.4378 174.415C47.8453 174.158 48.3216 174.03 48.8667 174.03C49.1978 174.03 49.5188 174.084 49.8295 174.194C50.1403 174.303 50.4192 174.475 50.6663 174.71C50.9134 174.944 51.1082 175.248 51.2509 175.623C51.3935 175.995 51.4648 176.447 51.4648 176.979V177.384H46.7997V176.528H50.3453C50.3453 176.228 50.2842 175.962 50.1619 175.73C50.0397 175.495 49.8677 175.311 49.6461 175.176C49.4271 175.041 49.1698 174.973 48.8744 174.973C48.5534 174.973 48.2732 175.052 48.0338 175.21C47.7969 175.366 47.6135 175.569 47.4836 175.821C47.3562 176.071 47.2926 176.342 47.2926 176.635V177.304C47.2926 177.696 47.3613 178.03 47.4989 178.305C47.639 178.58 47.8338 178.79 48.0835 178.935C48.3331 179.078 48.6247 179.149 48.9584 179.149C49.1749 179.149 49.3723 179.119 49.5506 179.058C49.7289 178.994 49.883 178.9 50.0129 178.775C50.1428 178.65 50.2422 178.496 50.311 178.313L51.3922 178.507C51.3056 178.826 51.1502 179.105 50.9261 179.344C50.7045 179.581 50.4256 179.766 50.0893 179.898C49.7557 180.028 49.3749 180.093 48.9469 180.093ZM57.0224 175.539L55.987 175.722C55.9437 175.59 55.8749 175.464 55.7807 175.344C55.689 175.224 55.5642 175.126 55.4063 175.05C55.2483 174.973 55.0509 174.935 54.814 174.935C54.4906 174.935 54.2206 175.008 54.004 175.153C53.7875 175.295 53.6793 175.48 53.6793 175.707C53.6793 175.903 53.7519 176.061 53.8971 176.181C54.0423 176.3 54.2766 176.398 54.6001 176.475L55.5323 176.689C56.0723 176.814 56.4748 177.006 56.7397 177.266C57.0046 177.526 57.1371 177.863 57.1371 178.278C57.1371 178.63 57.0352 178.943 56.8314 179.218C56.6302 179.491 56.3487 179.705 55.987 179.86C55.6279 180.015 55.2114 180.093 54.7376 180.093C54.0805 180.093 53.5443 179.953 53.1291 179.673C52.7139 179.39 52.4592 178.989 52.3649 178.469L53.4691 178.301C53.5379 178.589 53.6793 178.807 53.8932 178.954C54.1072 179.1 54.3861 179.172 54.73 179.172C55.1044 179.172 55.4037 179.095 55.6279 178.939C55.852 178.781 55.9641 178.589 55.9641 178.362C55.9641 178.179 55.8953 178.025 55.7578 177.9C55.6228 177.775 55.4152 177.681 55.135 177.617L54.1416 177.399C53.594 177.275 53.189 177.076 52.9266 176.803C52.6668 176.531 52.5369 176.186 52.5369 175.768C52.5369 175.422 52.6337 175.118 52.8273 174.859C53.0208 174.599 53.2883 174.396 53.6296 174.251C53.9709 174.103 54.3619 174.03 54.8026 174.03C55.4368 174.03 55.9361 174.167 56.3003 174.442C56.6646 174.715 56.9053 175.08 57.0224 175.539Z" fill="#000E1F"/>
<path d="M22.4671 140.666H23.598L26.2573 147.162H26.349L29.0082 140.666H30.1391V148.491H29.2527V142.546H29.1763L26.731 148.491H25.8752L23.4299 142.546H23.3535V148.491H22.4671V140.666ZM33.5361 148.629C33.1642 148.629 32.8267 148.559 32.5236 148.419C32.2205 148.276 31.9798 148.071 31.8015 147.803C31.6232 147.533 31.534 147.207 31.534 146.825C31.534 146.489 31.6003 146.217 31.7327 146.008C31.8652 145.796 32.0422 145.631 32.2638 145.511C32.4854 145.391 32.7299 145.302 32.9974 145.244C33.2674 145.182 33.5387 145.134 33.8112 145.098C34.1678 145.053 34.4569 145.018 34.6785 144.995C34.9027 144.97 35.0657 144.928 35.1676 144.869C35.272 144.811 35.3242 144.709 35.3242 144.563V144.533C35.3242 144.156 35.2211 143.863 35.0147 143.654C34.811 143.445 34.5015 143.341 34.0863 143.341C33.6558 143.341 33.3183 143.435 33.0738 143.624C32.8293 143.812 32.6573 144.013 32.558 144.227L31.7022 143.922C31.855 143.565 32.0588 143.287 32.3135 143.089C32.5707 142.887 32.8509 142.747 33.154 142.668C33.4597 142.587 33.7603 142.546 34.0557 142.546C34.2442 142.546 34.4607 142.569 34.7053 142.615C34.9523 142.658 35.1905 142.749 35.4197 142.886C35.6515 143.024 35.8438 143.231 35.9967 143.509C36.1495 143.787 36.2259 144.158 36.2259 144.625V148.491H35.3242V147.696H35.2784C35.2172 147.824 35.1154 147.96 34.9727 148.105C34.8301 148.251 34.6403 148.374 34.4034 148.476C34.1665 148.578 33.8774 148.629 33.5361 148.629ZM33.6737 147.819C34.0303 147.819 34.3308 147.749 34.5754 147.609C34.8224 147.469 35.0084 147.288 35.1332 147.066C35.2605 146.844 35.3242 146.611 35.3242 146.367V145.542C35.286 145.587 35.202 145.629 35.0721 145.668C34.9447 145.703 34.797 145.735 34.6289 145.763C34.4633 145.789 34.3015 145.812 34.1436 145.832C33.9882 145.85 33.8622 145.865 33.7654 145.878C33.531 145.908 33.312 145.958 33.1082 146.027C32.907 146.093 32.744 146.194 32.6191 146.329C32.4969 146.461 32.4357 146.642 32.4357 146.871C32.4357 147.185 32.5516 147.421 32.7834 147.582C33.0178 147.74 33.3145 147.819 33.6737 147.819ZM39.9802 148.613C39.4911 148.613 39.0594 148.49 38.6849 148.243C38.3105 147.993 38.0176 147.642 37.8061 147.188C37.5947 146.732 37.489 146.194 37.489 145.572C37.489 144.956 37.5947 144.421 37.8061 143.967C38.0176 143.514 38.3118 143.164 38.6887 142.917C39.0657 142.67 39.5013 142.546 39.9954 142.546C40.3775 142.546 40.6793 142.61 40.901 142.737C41.1251 142.862 41.2958 143.005 41.4129 143.165C41.5326 143.323 41.6256 143.453 41.6918 143.555H41.7683V140.666H42.67V148.491H41.7988V147.59H41.6918C41.6256 147.696 41.5314 147.831 41.4091 147.995C41.2868 148.155 41.1124 148.299 40.8857 148.426C40.659 148.551 40.3571 148.613 39.9802 148.613ZM40.1024 147.803C40.4641 147.803 40.7698 147.709 41.0194 147.521C41.269 147.33 41.4588 147.066 41.5887 146.73C41.7186 146.391 41.7835 146 41.7835 145.557C41.7835 145.119 41.7199 144.735 41.5925 144.407C41.4651 144.076 41.2767 143.818 41.027 143.635C40.7774 143.449 40.4692 143.356 40.1024 143.356C39.7203 143.356 39.4019 143.454 39.1472 143.65C38.8951 143.844 38.7053 144.108 38.5779 144.441C38.4531 144.772 38.3907 145.144 38.3907 145.557C38.3907 145.975 38.4544 146.354 38.5818 146.695C38.7117 147.034 38.9027 147.304 39.1549 147.505C39.4096 147.704 39.7254 147.803 40.1024 147.803ZM46.7996 148.613C46.2341 148.613 45.7463 148.489 45.3362 148.239C44.9287 147.987 44.6141 147.635 44.3925 147.185C44.1734 146.731 44.0639 146.204 44.0639 145.603C44.0639 145.002 44.1734 144.472 44.3925 144.013C44.6141 143.552 44.9223 143.193 45.3171 142.936C45.7145 142.676 46.1781 142.546 46.7079 142.546C47.0135 142.546 47.3154 142.597 47.6134 142.699C47.9114 142.801 48.1827 142.966 48.4272 143.196C48.6717 143.422 48.8666 143.723 49.0118 144.097C49.157 144.472 49.2296 144.933 49.2296 145.48V145.863H44.7058V145.083H48.3126C48.3126 144.752 48.2464 144.457 48.1139 144.197C47.984 143.937 47.7981 143.732 47.5561 143.582C47.3166 143.431 47.0339 143.356 46.7079 143.356C46.3487 143.356 46.038 143.445 45.7756 143.624C45.5158 143.799 45.3158 144.029 45.1758 144.311C45.0357 144.594 44.9656 144.897 44.9656 145.221V145.74C44.9656 146.183 45.042 146.559 45.1949 146.867C45.3502 147.173 45.5655 147.406 45.8406 147.567C46.1157 147.725 46.4353 147.803 46.7996 147.803C47.0365 147.803 47.2504 147.77 47.4415 147.704C47.635 147.635 47.8019 147.533 47.942 147.398C48.0821 147.261 48.1903 147.09 48.2667 146.886L49.1379 147.131C49.0462 147.426 48.8921 147.686 48.6756 147.91C48.459 148.132 48.1916 148.305 47.8732 148.43C47.5548 148.552 47.1969 148.613 46.7996 148.613ZM53.4121 148.491V142.623H54.3138V148.491H53.4121ZM53.8705 141.644C53.6948 141.644 53.5432 141.585 53.4159 141.465C53.2911 141.345 53.2287 141.201 53.2287 141.033C53.2287 140.865 53.2911 140.721 53.4159 140.601C53.5432 140.482 53.6948 140.422 53.8705 140.422C54.0463 140.422 54.1966 140.482 54.3214 140.601C54.4488 140.721 54.5124 140.865 54.5124 141.033C54.5124 141.201 54.4488 141.345 54.3214 141.465C54.1966 141.585 54.0463 141.644 53.8705 141.644ZM56.7594 144.961V148.491H55.8577V142.623H56.7288V143.54H56.8052C56.9428 143.242 57.1516 143.002 57.4318 142.821C57.712 142.638 58.0737 142.546 58.5169 142.546C58.9143 142.546 59.262 142.628 59.56 142.791C59.858 142.951 60.0898 143.196 60.2554 143.524C60.4209 143.85 60.5037 144.263 60.5037 144.762V148.491H59.602V144.823C59.602 144.362 59.4823 144.003 59.2429 143.746C59.0034 143.486 58.6748 143.356 58.2571 143.356C57.9693 143.356 57.712 143.419 57.4853 143.543C57.2612 143.668 57.0841 143.85 56.9542 144.09C56.8243 144.329 56.7594 144.62 56.7594 144.961Z" fill="#848487"/>
<g clip-path="url(#clip3_1_20753)">
<path d="M41.3579 107.813C36.6687 107.813 32.8672 111.615 32.8672 116.304C32.8672 121.888 38.3877 124.561 39.0793 125.183C39.7856 125.818 40.3691 127.243 40.6046 128.05C40.7188 128.442 41.0399 128.64 41.3579 128.649C41.6767 128.64 41.9971 128.441 42.1112 128.05C42.3467 127.243 42.9303 125.819 43.6365 125.183C44.3281 124.561 49.8486 121.888 49.8486 116.304C49.8486 111.615 46.0471 107.813 41.3579 107.813ZM41.3579 118.62C40.0789 118.62 39.0423 117.583 39.0423 116.304C39.0423 115.025 40.0789 113.989 41.3579 113.989C42.6369 113.989 43.6736 115.025 43.6736 116.304C43.6736 117.583 42.6369 118.62 41.3579 118.62Z" fill="#A5A5A5"/>
</g>
<path d="M114.876 164.082C114.351 164.082 113.882 163.991 113.47 163.81C113.06 163.629 112.735 163.379 112.495 163.058C112.258 162.734 112.131 162.36 112.113 161.934H113.313C113.328 162.166 113.406 162.367 113.546 162.538C113.689 162.706 113.875 162.836 114.104 162.928C114.333 163.019 114.588 163.065 114.868 163.065C115.176 163.065 115.449 163.012 115.686 162.905C115.925 162.798 116.112 162.649 116.247 162.458C116.382 162.264 116.45 162.041 116.45 161.789C116.45 161.527 116.382 161.296 116.247 161.098C116.115 160.896 115.92 160.738 115.663 160.624C115.408 160.509 115.1 160.452 114.738 160.452H114.077V159.489H114.738C115.028 159.489 115.283 159.437 115.502 159.332C115.724 159.228 115.897 159.083 116.022 158.897C116.147 158.708 116.209 158.488 116.209 158.236C116.209 157.994 116.154 157.784 116.045 157.605C115.938 157.425 115.785 157.283 115.586 157.181C115.39 157.079 115.158 157.028 114.891 157.028C114.636 157.028 114.398 157.076 114.176 157.17C113.957 157.262 113.779 157.394 113.642 157.567C113.504 157.738 113.43 157.943 113.42 158.182H112.278C112.29 157.76 112.415 157.388 112.652 157.067C112.891 156.746 113.207 156.495 113.6 156.314C113.992 156.133 114.427 156.043 114.906 156.043C115.408 156.043 115.841 156.141 116.205 156.337C116.572 156.531 116.855 156.789 117.053 157.113C117.255 157.436 117.354 157.79 117.351 158.175C117.354 158.613 117.232 158.985 116.985 159.29C116.74 159.596 116.414 159.801 116.007 159.906V159.967C116.526 160.046 116.929 160.252 117.214 160.586C117.502 160.919 117.644 161.333 117.642 161.827C117.644 162.258 117.525 162.644 117.283 162.985C117.043 163.326 116.716 163.595 116.301 163.791C115.886 163.985 115.411 164.082 114.876 164.082ZM119.515 164.047C119.306 164.047 119.127 163.973 118.977 163.826C118.826 163.675 118.751 163.494 118.751 163.283C118.751 163.074 118.826 162.896 118.977 162.748C119.127 162.598 119.306 162.523 119.515 162.523C119.724 162.523 119.904 162.598 120.054 162.748C120.204 162.896 120.279 163.074 120.279 163.283C120.279 163.423 120.244 163.552 120.172 163.669C120.104 163.784 120.012 163.875 119.897 163.944C119.783 164.013 119.655 164.047 119.515 164.047ZM124.144 164.082C123.665 164.082 123.234 163.99 122.852 163.806C122.473 163.621 122.169 163.366 121.943 163.042C121.716 162.719 121.595 162.35 121.58 161.934H122.726C122.754 162.271 122.903 162.547 123.173 162.763C123.443 162.98 123.767 163.088 124.144 163.088C124.444 163.088 124.71 163.019 124.942 162.882C125.176 162.742 125.36 162.549 125.492 162.305C125.627 162.06 125.695 161.782 125.695 161.468C125.695 161.15 125.626 160.866 125.488 160.616C125.351 160.367 125.161 160.17 124.919 160.028C124.68 159.885 124.405 159.813 124.094 159.81C123.857 159.81 123.619 159.851 123.379 159.932C123.14 160.014 122.946 160.121 122.799 160.253L121.717 160.093L122.157 156.15H126.459V157.162H123.139L122.89 159.352H122.936C123.089 159.204 123.292 159.08 123.544 158.981C123.798 158.882 124.071 158.832 124.361 158.832C124.838 158.832 125.262 158.945 125.634 159.172C126.008 159.399 126.302 159.708 126.516 160.1C126.733 160.49 126.84 160.938 126.837 161.445C126.84 161.952 126.725 162.404 126.493 162.802C126.264 163.199 125.946 163.512 125.538 163.742C125.133 163.968 124.668 164.082 124.144 164.082ZM128.232 163.975V156.15H129.413V162.958H132.958V163.975H128.232ZM137.621 156.15L139.799 162.523H139.887L142.065 156.15H143.341L140.525 163.975H139.161L136.345 156.15H137.621ZM146.988 164.082C146.639 164.076 146.295 164.013 145.957 163.891C145.62 163.768 145.315 163.565 145.04 163.279C144.765 162.994 144.544 162.611 144.379 162.129C144.216 161.648 144.134 161.047 144.134 160.326C144.134 159.643 144.202 159.037 144.337 158.507C144.474 157.977 144.672 157.53 144.929 157.166C145.186 156.799 145.497 156.52 145.861 156.329C146.225 156.138 146.634 156.043 147.088 156.043C147.554 156.043 147.968 156.134 148.329 156.318C148.691 156.501 148.984 156.755 149.208 157.078C149.435 157.402 149.579 157.77 149.64 158.182H148.474C148.396 157.856 148.239 157.59 148.005 157.384C147.77 157.178 147.465 157.074 147.088 157.074C146.514 157.074 146.067 157.324 145.746 157.823C145.428 158.322 145.268 159.017 145.265 159.906H145.322C145.457 159.684 145.623 159.495 145.819 159.34C146.018 159.182 146.239 159.061 146.484 158.977C146.731 158.89 146.991 158.847 147.263 158.847C147.717 158.847 148.127 158.958 148.494 159.18C148.863 159.399 149.157 159.702 149.376 160.089C149.595 160.476 149.705 160.919 149.705 161.419C149.705 161.918 149.591 162.37 149.365 162.775C149.141 163.18 148.825 163.501 148.417 163.738C148.01 163.972 147.533 164.087 146.988 164.082ZM146.984 163.088C147.285 163.088 147.554 163.014 147.791 162.867C148.027 162.719 148.215 162.52 148.352 162.271C148.49 162.021 148.559 161.742 148.559 161.434C148.559 161.133 148.491 160.859 148.356 160.612C148.224 160.365 148.04 160.169 147.806 160.024C147.574 159.879 147.309 159.806 147.011 159.806C146.784 159.806 146.574 159.849 146.381 159.936C146.19 160.023 146.022 160.142 145.876 160.295C145.731 160.448 145.617 160.624 145.532 160.822C145.451 161.019 145.41 161.226 145.41 161.445C145.41 161.738 145.478 162.009 145.613 162.259C145.75 162.509 145.937 162.71 146.174 162.863C146.414 163.013 146.684 163.088 146.984 163.088ZM153.836 163.975V156.15H158.741V157.166H155.016V159.55H158.486V160.563H155.016V162.958H158.787V163.975H153.836ZM160.211 163.975V156.15H165.063V157.166H161.392V159.55H164.716V160.563H161.392V163.975H160.211ZM167.588 156.15V163.975H166.408V156.15H167.588ZM115.748 179.975H113.215V172.15H115.828C116.595 172.15 117.253 172.306 117.803 172.62C118.354 172.93 118.775 173.377 119.068 173.961C119.364 174.542 119.511 175.238 119.511 176.051C119.511 176.866 119.362 177.566 119.064 178.152C118.769 178.738 118.341 179.189 117.781 179.505C117.22 179.818 116.543 179.975 115.748 179.975ZM114.395 178.943H115.683C116.279 178.943 116.774 178.831 117.169 178.607C117.564 178.38 117.86 178.053 118.056 177.625C118.252 177.194 118.35 176.67 118.35 176.051C118.35 175.437 118.252 174.916 118.056 174.488C117.862 174.06 117.573 173.735 117.188 173.514C116.804 173.292 116.326 173.181 115.756 173.181H114.395V178.943ZM127.669 176.062C127.669 176.898 127.516 177.616 127.211 178.217C126.905 178.816 126.486 179.277 125.953 179.6C125.424 179.921 124.821 180.082 124.146 180.082C123.469 180.082 122.864 179.921 122.331 179.6C121.802 179.277 121.384 178.814 121.078 178.213C120.773 177.612 120.62 176.895 120.62 176.062C120.62 175.227 120.773 174.51 121.078 173.911C121.384 173.31 121.802 172.849 122.331 172.528C122.864 172.204 123.469 172.043 124.146 172.043C124.821 172.043 125.424 172.204 125.953 172.528C126.486 172.849 126.905 173.31 127.211 173.911C127.516 174.51 127.669 175.227 127.669 176.062ZM126.5 176.062C126.5 175.425 126.397 174.889 126.19 174.454C125.987 174.016 125.706 173.684 125.35 173.46C124.996 173.234 124.595 173.12 124.146 173.12C123.695 173.12 123.293 173.234 122.939 173.46C122.585 173.684 122.305 174.016 122.098 174.454C121.895 174.889 121.793 175.425 121.793 176.062C121.793 176.699 121.895 177.236 122.098 177.675C122.305 178.11 122.585 178.441 122.939 178.668C123.293 178.892 123.695 179.004 124.146 179.004C124.595 179.004 124.996 178.892 125.35 178.668C125.706 178.441 125.987 178.11 126.19 177.675C126.397 177.236 126.5 176.699 126.5 176.062ZM129.033 179.975V172.15H130.214V175.55H134.115V172.15H135.299V179.975H134.115V176.563H130.214V179.975H129.033ZM143.41 174.694H142.218C142.172 174.44 142.087 174.215 141.962 174.022C141.837 173.828 141.685 173.664 141.504 173.529C141.323 173.394 141.12 173.292 140.896 173.223C140.675 173.155 140.439 173.12 140.189 173.12C139.738 173.12 139.335 173.234 138.978 173.46C138.624 173.687 138.344 174.019 138.138 174.457C137.934 174.896 137.832 175.43 137.832 176.062C137.832 176.699 137.934 177.236 138.138 177.675C138.344 178.113 138.625 178.444 138.982 178.668C139.339 178.892 139.74 179.004 140.185 179.004C140.433 179.004 140.667 178.971 140.889 178.905C141.113 178.836 141.315 178.735 141.496 178.603C141.677 178.471 141.83 178.309 141.955 178.118C142.082 177.924 142.17 177.703 142.218 177.453L143.41 177.457C143.347 177.841 143.223 178.195 143.04 178.519C142.859 178.84 142.626 179.117 142.34 179.352C142.058 179.584 141.734 179.763 141.37 179.891C141.006 180.018 140.608 180.082 140.178 180.082C139.5 180.082 138.897 179.921 138.367 179.6C137.837 179.277 137.419 178.814 137.114 178.213C136.811 177.612 136.659 176.895 136.659 176.062C136.659 175.227 136.812 174.51 137.117 173.911C137.423 173.31 137.841 172.849 138.371 172.528C138.9 172.204 139.503 172.043 140.178 172.043C140.593 172.043 140.98 172.103 141.339 172.222C141.701 172.339 142.026 172.513 142.314 172.742C142.601 172.969 142.84 173.246 143.028 173.575C143.217 173.901 143.344 174.274 143.41 174.694ZM147.348 179.975V179.119L149.996 176.375C150.279 176.077 150.512 175.816 150.695 175.592C150.881 175.366 151.02 175.15 151.112 174.947C151.203 174.743 151.249 174.526 151.249 174.297C151.249 174.037 151.188 173.813 151.066 173.625C150.943 173.433 150.777 173.287 150.565 173.185C150.354 173.081 150.116 173.028 149.851 173.028C149.571 173.028 149.326 173.086 149.117 173.2C148.908 173.315 148.748 173.477 148.636 173.686C148.524 173.895 148.468 174.139 148.468 174.419H147.341C147.341 173.943 147.45 173.526 147.669 173.17C147.888 172.813 148.189 172.537 148.571 172.341C148.953 172.142 149.387 172.043 149.874 172.043C150.365 172.043 150.798 172.141 151.173 172.337C151.55 172.531 151.844 172.795 152.055 173.132C152.267 173.465 152.372 173.842 152.372 174.263C152.372 174.553 152.318 174.837 152.208 175.115C152.101 175.392 151.914 175.702 151.647 176.043C151.379 176.382 151.007 176.793 150.531 177.277L148.976 178.905V178.962H152.499V179.975H147.348ZM153.507 178.446V177.491L156.888 172.15H157.641V173.556H157.163L154.745 177.384V177.445H159.379V178.446H153.507ZM157.217 179.975V178.156L157.224 177.72V172.15H158.344V179.975H157.217ZM161.394 172.15L163.572 178.523H163.66L165.837 172.15H167.114L164.298 179.975H162.934L160.118 172.15H161.394Z" fill="#000E1F"/>
<path d="M124.006 148.491V140.666H128.729V141.507H124.954V144.151H128.484V144.991H124.954V147.651H128.79V148.491H124.006ZM131.108 144.961V148.491H130.207V142.623H131.078V143.54H131.154C131.292 143.242 131.501 143.002 131.781 142.821C132.061 142.638 132.423 142.546 132.866 142.546C133.263 142.546 133.611 142.628 133.909 142.791C134.207 142.951 134.439 143.196 134.604 143.524C134.77 143.85 134.853 144.263 134.853 144.762V148.491H133.951V144.823C133.951 144.362 133.831 144.003 133.592 143.746C133.352 143.486 133.024 143.356 132.606 143.356C132.318 143.356 132.061 143.419 131.834 143.543C131.61 143.668 131.433 143.85 131.303 144.09C131.173 144.329 131.108 144.62 131.108 144.961ZM138.762 150.814C138.326 150.814 137.952 150.758 137.638 150.646C137.325 150.537 137.064 150.391 136.855 150.211C136.649 150.032 136.484 149.841 136.362 149.637L137.08 149.133C137.162 149.24 137.265 149.362 137.39 149.5C137.515 149.64 137.685 149.761 137.902 149.863C138.121 149.967 138.408 150.02 138.762 150.02C139.235 150.02 139.626 149.905 139.935 149.676C140.243 149.446 140.397 149.087 140.397 148.598V147.406H140.32C140.254 147.513 140.16 147.646 140.038 147.803C139.918 147.959 139.745 148.098 139.518 148.22C139.294 148.34 138.991 148.4 138.609 148.4C138.135 148.4 137.71 148.287 137.333 148.063C136.958 147.839 136.661 147.513 136.442 147.085C136.226 146.657 136.118 146.138 136.118 145.526C136.118 144.925 136.223 144.402 136.435 143.956C136.646 143.508 136.94 143.161 137.317 142.917C137.694 142.67 138.13 142.546 138.624 142.546C139.006 142.546 139.309 142.61 139.533 142.737C139.76 142.862 139.933 143.005 140.053 143.165C140.175 143.323 140.27 143.453 140.336 143.555H140.427V142.623H141.299V148.659C141.299 149.164 141.184 149.574 140.955 149.89C140.728 150.208 140.422 150.441 140.038 150.589C139.656 150.739 139.23 150.814 138.762 150.814ZM138.731 147.59C139.093 147.59 139.398 147.507 139.648 147.341C139.898 147.176 140.087 146.937 140.217 146.627C140.347 146.316 140.412 145.944 140.412 145.511C140.412 145.088 140.348 144.715 140.221 144.392C140.094 144.068 139.905 143.815 139.656 143.631C139.406 143.448 139.098 143.356 138.731 143.356C138.349 143.356 138.031 143.453 137.776 143.647C137.524 143.84 137.334 144.1 137.207 144.426C137.082 144.752 137.019 145.114 137.019 145.511C137.019 145.919 137.083 146.279 137.21 146.592C137.34 146.903 137.531 147.148 137.783 147.326C138.038 147.502 138.354 147.59 138.731 147.59ZM142.842 148.491V142.623H143.743V148.491H142.842ZM143.3 141.644C143.124 141.644 142.973 141.585 142.845 141.465C142.721 141.345 142.658 141.201 142.658 141.033C142.658 140.865 142.721 140.721 142.845 140.601C142.973 140.482 143.124 140.422 143.3 140.422C143.476 140.422 143.626 140.482 143.751 140.601C143.878 140.721 143.942 140.865 143.942 141.033C143.942 141.201 143.878 141.345 143.751 141.465C143.626 141.585 143.476 141.644 143.3 141.644ZM146.189 144.961V148.491H145.287V142.623H146.158V143.54H146.235C146.372 143.242 146.581 143.002 146.861 142.821C147.141 142.638 147.503 142.546 147.946 142.546C148.344 142.546 148.691 142.628 148.989 142.791C149.287 142.951 149.519 143.196 149.685 143.524C149.85 143.85 149.933 144.263 149.933 144.762V148.491H149.031V144.823C149.031 144.362 148.912 144.003 148.672 143.746C148.433 143.486 148.104 143.356 147.687 143.356C147.399 143.356 147.141 143.419 146.915 143.543C146.691 143.668 146.514 143.85 146.384 144.09C146.254 144.329 146.189 144.62 146.189 144.961ZM153.934 148.613C153.368 148.613 152.881 148.489 152.471 148.239C152.063 147.987 151.748 147.635 151.527 147.185C151.308 146.731 151.198 146.204 151.198 145.603C151.198 145.002 151.308 144.472 151.527 144.013C151.748 143.552 152.057 143.193 152.451 142.936C152.849 142.676 153.312 142.546 153.842 142.546C154.148 142.546 154.45 142.597 154.748 142.699C155.046 142.801 155.317 142.966 155.561 143.196C155.806 143.422 156.001 143.723 156.146 144.097C156.291 144.472 156.364 144.933 156.364 145.48V145.863H151.84V145.083H155.447C155.447 144.752 155.381 144.457 155.248 144.197C155.118 143.937 154.932 143.732 154.69 143.582C154.451 143.431 154.168 143.356 153.842 143.356C153.483 143.356 153.172 143.445 152.91 143.624C152.65 143.799 152.45 144.029 152.31 144.311C152.17 144.594 152.1 144.897 152.1 145.221V145.74C152.1 146.183 152.176 146.559 152.329 146.867C152.485 147.173 152.7 147.406 152.975 147.567C153.25 147.725 153.57 147.803 153.934 147.803C154.171 147.803 154.385 147.77 154.576 147.704C154.769 147.635 154.936 147.533 155.076 147.398C155.216 147.261 155.325 147.09 155.401 146.886L156.272 147.131C156.18 147.426 156.026 147.686 155.81 147.91C155.593 148.132 155.326 148.305 155.007 148.43C154.689 148.552 154.331 148.613 153.934 148.613Z" fill="#848487"/>
<g clip-path="url(#clip4_1_20753)">
<path d="M132.563 109.26C131.667 109.26 130.941 109.985 130.941 110.881V125.473C130.834 125.472 130.727 125.492 130.628 125.532C130.528 125.572 130.437 125.631 130.361 125.707C130.284 125.782 130.223 125.872 130.182 125.971C130.14 126.07 130.119 126.177 130.119 126.284C130.119 126.391 130.14 126.498 130.182 126.597C130.223 126.696 130.284 126.786 130.361 126.861C130.437 126.937 130.528 126.996 130.628 127.036C130.727 127.076 130.834 127.096 130.941 127.095H142.291C142.398 127.096 142.505 127.076 142.605 127.036C142.704 126.996 142.795 126.937 142.872 126.861C142.948 126.786 143.009 126.696 143.05 126.597C143.092 126.498 143.113 126.391 143.113 126.284C143.113 126.177 143.092 126.07 143.05 125.971C143.009 125.872 142.948 125.782 142.872 125.707C142.795 125.631 142.704 125.572 142.605 125.532C142.505 125.492 142.398 125.472 142.291 125.473V122.231H144.723V124.257C144.723 125.815 146.003 127.095 147.56 127.095C147.661 127.093 147.76 127.073 147.853 127.034C149.268 126.88 150.398 125.711 150.398 124.257V117.367C150.398 117.152 150.312 116.945 150.16 116.793L146.917 113.551C146.88 113.513 146.838 113.479 146.794 113.449L144.362 111.828C144.227 111.735 144.068 111.686 143.904 111.685C143.729 111.685 143.559 111.742 143.418 111.846C143.278 111.951 143.175 112.098 143.125 112.266C143.076 112.434 143.082 112.613 143.142 112.778C143.203 112.942 143.316 113.082 143.463 113.177L145.534 114.558V116.556C145.534 117.452 146.259 118.177 147.155 118.177H148.776V124.257C148.776 124.939 148.242 125.473 147.56 125.473C146.879 125.473 146.344 124.939 146.344 124.257V122.231C146.344 121.345 145.609 120.609 144.723 120.609H142.291V110.881C142.291 109.985 141.565 109.26 140.669 109.26H132.563ZM132.563 110.881H140.669V115.745H132.563V110.881Z" fill="#A5A5A5"/>
</g>
<path d="M224.117 156.15L225.989 159.21H226.05L227.922 156.15H229.29L226.852 160.062L229.305 163.975H227.93L226.05 160.956H225.989L224.109 163.975H222.734L225.228 160.062L222.749 156.15H224.117ZM230.353 163.975V156.15H231.534V162.958H235.08V163.975H230.353ZM236.319 163.975V156.15H241.225V157.166H237.499V159.55H240.969V160.563H237.499V162.958H241.271V163.975H236.319ZM245.434 163.975V156.15H250.286V157.166H246.615V159.55H249.939V160.563H246.615V163.975H245.434ZM253.163 163.975L250.993 156.15H252.234L253.759 162.209H253.831L255.417 156.15H256.647L258.233 162.213H258.305L259.826 156.15H261.072L258.898 163.975H257.709L256.063 158.114H256.002L254.355 163.975H253.163ZM264.574 163.975H262.041V156.15H264.654C265.421 156.15 266.079 156.306 266.629 156.62C267.179 156.93 267.601 157.377 267.894 157.961C268.189 158.542 268.337 159.238 268.337 160.051C268.337 160.866 268.188 161.566 267.89 162.152C267.595 162.738 267.167 163.189 266.606 163.505C266.046 163.818 265.368 163.975 264.574 163.975ZM263.221 162.943H264.509C265.105 162.943 265.6 162.831 265.995 162.607C266.39 162.38 266.685 162.053 266.881 161.625C267.078 161.194 267.176 160.67 267.176 160.051C267.176 159.437 267.078 158.916 266.881 158.488C266.688 158.06 266.399 157.735 266.014 157.514C265.629 157.292 265.152 157.181 264.581 157.181H263.221V162.943ZM274.974 164.082C274.427 164.082 273.943 163.987 273.523 163.799C273.105 163.61 272.778 163.351 272.541 163.019C272.304 162.688 272.187 162.311 272.189 161.888C272.187 161.557 272.254 161.253 272.392 160.975C272.532 160.695 272.721 160.462 272.961 160.276C273.2 160.088 273.468 159.968 273.763 159.917V159.871C273.374 159.777 273.062 159.568 272.827 159.245C272.593 158.921 272.477 158.549 272.48 158.129C272.477 157.729 272.583 157.372 272.797 157.059C273.013 156.743 273.31 156.495 273.687 156.314C274.064 156.133 274.493 156.043 274.974 156.043C275.451 156.043 275.876 156.134 276.251 156.318C276.628 156.499 276.924 156.747 277.141 157.063C277.357 157.376 277.467 157.732 277.469 158.129C277.467 158.549 277.347 158.921 277.11 159.245C276.873 159.568 276.565 159.777 276.186 159.871V159.917C276.479 159.968 276.742 160.088 276.977 160.276C277.213 160.462 277.402 160.695 277.542 160.975C277.685 161.253 277.757 161.557 277.76 161.888C277.757 162.311 277.638 162.688 277.401 163.019C277.164 163.351 276.835 163.61 276.415 163.799C275.997 163.987 275.517 164.082 274.974 164.082ZM274.974 163.115C275.298 163.115 275.578 163.061 275.815 162.954C276.052 162.845 276.235 162.693 276.365 162.5C276.495 162.304 276.561 162.074 276.564 161.812C276.561 161.54 276.49 161.299 276.35 161.09C276.212 160.881 276.025 160.717 275.788 160.597C275.551 160.477 275.28 160.417 274.974 160.417C274.666 160.417 274.392 160.477 274.153 160.597C273.914 160.717 273.725 160.881 273.588 161.09C273.45 161.299 273.382 161.54 273.385 161.812C273.382 162.074 273.445 162.304 273.572 162.5C273.702 162.693 273.887 162.845 274.126 162.954C274.366 163.061 274.648 163.115 274.974 163.115ZM274.974 159.474C275.234 159.474 275.465 159.422 275.666 159.317C275.867 159.213 276.025 159.067 276.14 158.882C276.257 158.696 276.317 158.478 276.319 158.228C276.317 157.984 276.258 157.77 276.144 157.586C276.032 157.403 275.875 157.262 275.674 157.162C275.472 157.06 275.239 157.009 274.974 157.009C274.704 157.009 274.468 157.06 274.264 157.162C274.063 157.262 273.906 157.403 273.794 157.586C273.682 157.77 273.627 157.984 273.63 158.228C273.627 158.478 273.683 158.696 273.798 158.882C273.912 159.067 274.07 159.213 274.271 159.317C274.475 159.422 274.71 159.474 274.974 159.474ZM282.494 159.565V160.559H279.025V159.565H282.494ZM218.522 179.975V172.15H221.311C221.92 172.15 222.424 172.261 222.824 172.482C223.224 172.704 223.524 173.007 223.722 173.391C223.921 173.774 224.02 174.204 224.02 174.683C224.02 175.164 223.92 175.597 223.718 175.982C223.52 176.364 223.219 176.667 222.817 176.891C222.417 177.113 221.914 177.224 221.308 177.224H219.39V176.223H221.201C221.585 176.223 221.897 176.156 222.137 176.024C222.376 175.889 222.552 175.706 222.664 175.474C222.776 175.242 222.832 174.978 222.832 174.683C222.832 174.387 222.776 174.125 222.664 173.896C222.552 173.667 222.375 173.487 222.133 173.357C221.893 173.227 221.578 173.162 221.185 173.162H219.703V179.975H218.522ZM226.86 180.105C226.489 180.105 226.152 180.036 225.852 179.898C225.551 179.758 225.313 179.556 225.137 179.291C224.964 179.026 224.877 178.701 224.877 178.316C224.877 177.985 224.941 177.713 225.068 177.499C225.196 177.285 225.368 177.115 225.584 176.991C225.801 176.866 226.043 176.772 226.31 176.708C226.578 176.644 226.85 176.596 227.128 176.563C227.479 176.522 227.765 176.489 227.984 176.463C228.203 176.435 228.362 176.391 228.461 176.33C228.561 176.268 228.61 176.169 228.61 176.032V176.005C228.61 175.671 228.516 175.413 228.328 175.229C228.142 175.046 227.864 174.954 227.495 174.954C227.11 174.954 226.807 175.039 226.585 175.21C226.366 175.378 226.215 175.565 226.131 175.772L225.057 175.527C225.184 175.171 225.37 174.883 225.615 174.664C225.862 174.442 226.146 174.282 226.467 174.182C226.788 174.08 227.125 174.03 227.479 174.03C227.714 174.03 227.962 174.058 228.224 174.114C228.489 174.167 228.736 174.266 228.966 174.412C229.197 174.557 229.387 174.764 229.535 175.034C229.683 175.302 229.757 175.65 229.757 176.077V179.975H228.641V179.172H228.595C228.521 179.32 228.41 179.465 228.263 179.608C228.115 179.75 227.925 179.869 227.693 179.963C227.462 180.057 227.184 180.105 226.86 180.105ZM227.109 179.188C227.425 179.188 227.695 179.125 227.919 179C228.145 178.876 228.317 178.712 228.435 178.511C228.554 178.307 228.614 178.09 228.614 177.858V177.101C228.573 177.142 228.494 177.18 228.377 177.216C228.263 177.249 228.131 177.278 227.984 177.304C227.836 177.327 227.692 177.348 227.552 177.369C227.412 177.387 227.295 177.402 227.2 177.415C226.979 177.443 226.776 177.49 226.593 177.556C226.412 177.622 226.267 177.718 226.157 177.843C226.05 177.965 225.997 178.128 225.997 178.332C225.997 178.614 226.101 178.828 226.31 178.974C226.519 179.116 226.785 179.188 227.109 179.188ZM235.568 175.539L234.533 175.722C234.489 175.59 234.421 175.464 234.326 175.344C234.235 175.224 234.11 175.126 233.952 175.05C233.794 174.973 233.597 174.935 233.36 174.935C233.036 174.935 232.766 175.008 232.55 175.153C232.333 175.295 232.225 175.48 232.225 175.707C232.225 175.903 232.298 176.061 232.443 176.181C232.588 176.3 232.822 176.398 233.146 176.475L234.078 176.689C234.618 176.814 235.021 177.006 235.285 177.266C235.55 177.526 235.683 177.863 235.683 178.278C235.683 178.63 235.581 178.943 235.377 179.218C235.176 179.491 234.894 179.705 234.533 179.86C234.174 180.015 233.757 180.093 233.283 180.093C232.626 180.093 232.09 179.953 231.675 179.673C231.26 179.39 231.005 178.989 230.911 178.469L232.015 178.301C232.084 178.589 232.225 178.807 232.439 178.954C232.653 179.1 232.932 179.172 233.276 179.172C233.65 179.172 233.95 179.095 234.174 178.939C234.398 178.781 234.51 178.589 234.51 178.362C234.51 178.179 234.441 178.025 234.304 177.9C234.169 177.775 233.961 177.681 233.681 177.617L232.687 177.399C232.14 177.275 231.735 177.076 231.472 176.803C231.213 176.531 231.083 176.186 231.083 175.768C231.083 175.422 231.179 175.118 231.373 174.859C231.567 174.599 231.834 174.396 232.175 174.251C232.517 174.103 232.908 174.03 233.348 174.03C233.983 174.03 234.482 174.167 234.846 174.442C235.21 174.715 235.451 175.08 235.568 175.539ZM241.229 175.539L240.194 175.722C240.15 175.59 240.082 175.464 239.987 175.344C239.896 175.224 239.771 175.126 239.613 175.05C239.455 174.973 239.257 174.935 239.021 174.935C238.697 174.935 238.427 175.008 238.211 175.153C237.994 175.295 237.886 175.48 237.886 175.707C237.886 175.903 237.958 176.061 238.104 176.181C238.249 176.3 238.483 176.398 238.807 176.475L239.739 176.689C240.279 176.814 240.681 177.006 240.946 177.266C241.211 177.526 241.344 177.863 241.344 178.278C241.344 178.63 241.242 178.943 241.038 179.218C240.837 179.491 240.555 179.705 240.194 179.86C239.834 180.015 239.418 180.093 238.944 180.093C238.287 180.093 237.751 179.953 237.336 179.673C236.92 179.39 236.666 178.989 236.572 178.469L237.676 178.301C237.744 178.589 237.886 178.807 238.1 178.954C238.314 179.1 238.593 179.172 238.937 179.172C239.311 179.172 239.61 179.095 239.834 178.939C240.059 178.781 240.171 178.589 240.171 178.362C240.171 178.179 240.102 178.025 239.964 177.9C239.829 177.775 239.622 177.681 239.342 177.617L238.348 177.399C237.801 177.275 237.396 177.076 237.133 176.803C236.873 176.531 236.743 176.186 236.743 175.768C236.743 175.422 236.84 175.118 237.034 174.859C237.227 174.599 237.495 174.396 237.836 174.251C238.178 174.103 238.568 174.03 239.009 174.03C239.643 174.03 240.143 174.167 240.507 174.442C240.871 174.715 241.112 175.08 241.229 175.539ZM245.021 180.093C244.443 180.093 243.945 179.97 243.528 179.722C243.112 179.473 242.791 179.123 242.565 178.672C242.341 178.218 242.228 177.687 242.228 177.078C242.228 176.477 242.341 175.948 242.565 175.489C242.791 175.031 243.107 174.673 243.512 174.415C243.92 174.158 244.396 174.03 244.941 174.03C245.272 174.03 245.593 174.084 245.904 174.194C246.215 174.303 246.494 174.475 246.741 174.71C246.988 174.944 247.183 175.248 247.325 175.623C247.468 175.995 247.539 176.447 247.539 176.979V177.384H242.874V176.528H246.42C246.42 176.228 246.359 175.962 246.236 175.73C246.114 175.495 245.942 175.311 245.721 175.176C245.502 175.041 245.244 174.973 244.949 174.973C244.628 174.973 244.348 175.052 244.108 175.21C243.871 175.366 243.688 175.569 243.558 175.821C243.431 176.071 243.367 176.342 243.367 176.635V177.304C243.367 177.696 243.436 178.03 243.573 178.305C243.713 178.58 243.908 178.79 244.158 178.935C244.408 179.078 244.699 179.149 245.033 179.149C245.249 179.149 245.447 179.119 245.625 179.058C245.803 178.994 245.958 178.9 246.087 178.775C246.217 178.65 246.317 178.496 246.385 178.313L247.467 178.507C247.38 178.826 247.225 179.105 247.001 179.344C246.779 179.581 246.5 179.766 246.164 179.898C245.83 180.028 245.449 180.093 245.021 180.093ZM249.842 176.49V179.975H248.699V174.106H249.796V175.061H249.868C250.003 174.75 250.215 174.501 250.503 174.312C250.793 174.124 251.159 174.03 251.599 174.03C251.999 174.03 252.349 174.114 252.65 174.282C252.95 174.447 253.184 174.694 253.349 175.023C253.515 175.352 253.597 175.758 253.597 176.242V179.975H252.455V176.379C252.455 175.954 252.344 175.622 252.123 175.382C251.901 175.14 251.597 175.019 251.209 175.019C250.945 175.019 250.709 175.076 250.503 175.191C250.299 175.306 250.137 175.474 250.017 175.695C249.9 175.914 249.842 176.179 249.842 176.49ZM257.483 182.298C257.016 182.298 256.615 182.236 256.279 182.114C255.945 181.992 255.673 181.83 255.461 181.629C255.25 181.428 255.092 181.207 254.988 180.968L255.97 180.563C256.038 180.675 256.13 180.794 256.245 180.918C256.362 181.046 256.52 181.154 256.718 181.243C256.92 181.332 257.178 181.377 257.494 181.377C257.927 181.377 258.285 181.271 258.568 181.06C258.85 180.851 258.992 180.517 258.992 180.059V178.905H258.919C258.85 179.03 258.751 179.168 258.621 179.321C258.494 179.474 258.318 179.607 258.094 179.719C257.87 179.831 257.578 179.887 257.219 179.887C256.755 179.887 256.338 179.778 255.966 179.562C255.596 179.343 255.303 179.021 255.087 178.595C254.873 178.167 254.766 177.641 254.766 177.017C254.766 176.393 254.872 175.858 255.083 175.413C255.297 174.967 255.59 174.626 255.962 174.389C256.334 174.149 256.755 174.03 257.227 174.03C257.591 174.03 257.885 174.091 258.109 174.213C258.333 174.333 258.508 174.473 258.633 174.633C258.76 174.794 258.858 174.935 258.927 175.057H259.011V174.106H260.13V180.105C260.13 180.609 260.013 181.023 259.779 181.346C259.544 181.67 259.227 181.909 258.827 182.065C258.43 182.22 257.982 182.298 257.483 182.298ZM257.471 178.939C257.8 178.939 258.077 178.863 258.304 178.71C258.533 178.555 258.706 178.333 258.824 178.045C258.943 177.755 259.003 177.407 259.003 177.002C259.003 176.607 258.945 176.26 258.827 175.959C258.71 175.658 258.538 175.424 258.312 175.256C258.085 175.085 257.805 175 257.471 175C257.127 175 256.841 175.089 256.611 175.267C256.382 175.443 256.209 175.683 256.092 175.986C255.977 176.289 255.92 176.628 255.92 177.002C255.92 177.387 255.978 177.724 256.096 178.015C256.213 178.305 256.386 178.532 256.615 178.695C256.847 178.858 257.132 178.939 257.471 178.939ZM264.084 180.093C263.506 180.093 263.008 179.97 262.59 179.722C262.175 179.473 261.854 179.123 261.627 178.672C261.403 178.218 261.291 177.687 261.291 177.078C261.291 176.477 261.403 175.948 261.627 175.489C261.854 175.031 262.17 174.673 262.575 174.415C262.983 174.158 263.459 174.03 264.004 174.03C264.335 174.03 264.656 174.084 264.967 174.194C265.278 174.303 265.556 174.475 265.804 174.71C266.051 174.944 266.245 175.248 266.388 175.623C266.531 175.995 266.602 176.447 266.602 176.979V177.384H261.937V176.528H265.483C265.483 176.228 265.421 175.962 265.299 175.73C265.177 175.495 265.005 175.311 264.783 175.176C264.564 175.041 264.307 174.973 264.012 174.973C263.691 174.973 263.41 175.052 263.171 175.21C262.934 175.366 262.751 175.569 262.621 175.821C262.493 176.071 262.43 176.342 262.43 176.635V177.304C262.43 177.696 262.499 178.03 262.636 178.305C262.776 178.58 262.971 178.79 263.221 178.935C263.47 179.078 263.762 179.149 264.096 179.149C264.312 179.149 264.51 179.119 264.688 179.058C264.866 178.994 265.02 178.9 265.15 178.775C265.28 178.65 265.379 178.496 265.448 178.313L266.529 178.507C266.443 178.826 266.287 179.105 266.063 179.344C265.842 179.581 265.563 179.766 265.227 179.898C264.893 180.028 264.512 180.093 264.084 180.093ZM267.762 179.975V174.106H268.866V175.038H268.927C269.034 174.722 269.223 174.474 269.493 174.293C269.765 174.11 270.074 174.018 270.417 174.018C270.489 174.018 270.573 174.021 270.67 174.026C270.769 174.031 270.847 174.037 270.903 174.045V175.138C270.857 175.125 270.775 175.111 270.658 175.096C270.541 175.078 270.424 175.069 270.307 175.069C270.037 175.069 269.796 175.126 269.584 175.241C269.376 175.353 269.21 175.509 269.088 175.711C268.966 175.909 268.904 176.136 268.904 176.391V179.975H267.762ZM275.299 172.15L277.477 178.523H277.565L279.743 172.15H281.019L278.203 179.975H276.839L274.023 172.15H275.299ZM284.666 180.082C284.317 180.076 283.973 180.013 283.634 179.891C283.298 179.768 282.993 179.565 282.717 179.279C282.442 178.994 282.222 178.611 282.056 178.129C281.893 177.648 281.812 177.047 281.812 176.326C281.812 175.643 281.879 175.037 282.014 174.507C282.152 173.977 282.349 173.53 282.607 173.166C282.864 172.799 283.175 172.52 283.539 172.329C283.903 172.138 284.312 172.043 284.765 172.043C285.231 172.043 285.645 172.134 286.007 172.318C286.369 172.501 286.662 172.755 286.886 173.078C287.113 173.402 287.256 173.77 287.318 174.182H286.152C286.073 173.856 285.917 173.59 285.682 173.384C285.448 173.178 285.142 173.074 284.765 173.074C284.192 173.074 283.745 173.324 283.424 173.823C283.106 174.322 282.945 175.017 282.943 175.906H283C283.135 175.684 283.301 175.495 283.497 175.34C283.696 175.182 283.917 175.061 284.162 174.977C284.409 174.89 284.669 174.847 284.941 174.847C285.394 174.847 285.805 174.958 286.171 175.18C286.541 175.399 286.835 175.702 287.054 176.089C287.273 176.476 287.383 176.919 287.383 177.419C287.383 177.918 287.269 178.37 287.042 178.775C286.818 179.18 286.502 179.501 286.095 179.738C285.687 179.972 285.211 180.087 284.666 180.082ZM284.662 179.088C284.963 179.088 285.231 179.014 285.468 178.867C285.705 178.719 285.892 178.52 286.03 178.271C286.168 178.021 286.236 177.742 286.236 177.434C286.236 177.133 286.169 176.859 286.034 176.612C285.901 176.365 285.718 176.169 285.484 176.024C285.252 175.879 284.987 175.806 284.689 175.806C284.462 175.806 284.252 175.849 284.058 175.936C283.867 176.023 283.699 176.142 283.554 176.295C283.409 176.448 283.294 176.624 283.21 176.822C283.129 177.019 283.088 177.226 283.088 177.445C283.088 177.738 283.156 178.009 283.291 178.259C283.428 178.509 283.615 178.71 283.852 178.863C284.092 179.013 284.362 179.088 284.662 179.088Z" fill="#000E1F"/>
<path d="M242.603 141.507V140.666H248.471V141.507H246.011V148.491H245.063V141.507H242.603ZM249.094 148.491V142.623H249.966V143.509H250.027C250.134 143.219 250.327 142.983 250.607 142.802C250.888 142.621 251.203 142.531 251.555 142.531C251.621 142.531 251.704 142.532 251.803 142.535C251.903 142.537 251.978 142.541 252.029 142.546V143.463C251.998 143.455 251.928 143.444 251.819 143.429C251.712 143.411 251.598 143.402 251.479 143.402C251.193 143.402 250.939 143.462 250.714 143.582C250.493 143.699 250.317 143.862 250.187 144.071C250.06 144.277 249.996 144.513 249.996 144.777V148.491H249.094ZM252.99 148.491V142.623H253.892V148.491H252.99ZM253.449 141.644C253.273 141.644 253.121 141.585 252.994 141.465C252.869 141.345 252.807 141.201 252.807 141.033C252.807 140.865 252.869 140.721 252.994 140.601C253.121 140.482 253.273 140.422 253.449 140.422C253.624 140.422 253.775 140.482 253.899 140.601C254.027 140.721 254.09 140.865 254.09 141.033C254.09 141.201 254.027 141.345 253.899 141.465C253.775 141.585 253.624 141.644 253.449 141.644ZM255.436 148.491V142.623H256.307V143.54H256.383C256.505 143.226 256.703 142.983 256.975 142.81C257.248 142.634 257.575 142.546 257.957 142.546C258.344 142.546 258.667 142.634 258.924 142.81C259.184 142.983 259.386 143.226 259.531 143.54H259.593C259.743 143.236 259.968 142.996 260.269 142.817C260.569 142.637 260.93 142.546 261.35 142.546C261.875 142.546 262.304 142.71 262.638 143.039C262.971 143.365 263.138 143.873 263.138 144.563V148.491H262.237V144.563C262.237 144.13 262.118 143.821 261.881 143.635C261.644 143.449 261.365 143.356 261.044 143.356C260.632 143.356 260.312 143.481 260.085 143.731C259.859 143.978 259.745 144.291 259.745 144.67V148.491H258.828V144.472C258.828 144.138 258.72 143.869 258.504 143.666C258.287 143.459 258.008 143.356 257.667 143.356C257.433 143.356 257.214 143.419 257.01 143.543C256.809 143.668 256.646 143.841 256.521 144.063C256.398 144.282 256.337 144.535 256.337 144.823V148.491H255.436Z" fill="#848487"/>
<path d="M245.535 111.229C244.767 111.229 244.146 111.851 244.146 112.619V113.314C244.146 114.082 244.767 114.704 245.535 114.704H248.315C249.083 114.704 249.704 114.082 249.704 113.314V112.619C249.704 111.851 249.083 111.229 248.315 111.229H245.535ZM258.043 111.229C257.275 111.229 256.653 111.851 256.653 112.619V113.314C256.653 114.082 257.275 114.704 258.043 114.704H260.822C261.59 114.704 262.212 114.082 262.212 113.314V112.619C262.212 111.851 261.59 111.229 260.822 111.229H258.043ZM246.914 115.389C246.73 115.392 246.555 115.468 246.426 115.6C246.298 115.732 246.228 115.909 246.23 116.094V116.977C246.019 117.099 245.844 117.274 245.722 117.485C245.6 117.695 245.536 117.935 245.535 118.178C245.535 118.422 245.6 118.661 245.722 118.872C245.844 119.083 246.019 119.259 246.23 119.381V120.263C246.229 120.355 246.246 120.446 246.28 120.532C246.314 120.617 246.365 120.695 246.43 120.76C246.495 120.826 246.572 120.878 246.657 120.914C246.742 120.949 246.833 120.968 246.925 120.968C247.017 120.968 247.108 120.949 247.193 120.914C247.278 120.878 247.355 120.826 247.42 120.76C247.484 120.695 247.535 120.617 247.57 120.532C247.604 120.446 247.621 120.355 247.62 120.263V119.379C247.83 119.258 248.005 119.083 248.127 118.873H258.231C258.353 119.084 258.527 119.259 258.738 119.381V120.263C258.736 120.355 258.753 120.446 258.788 120.532C258.822 120.617 258.873 120.695 258.938 120.76C259.002 120.826 259.079 120.878 259.164 120.914C259.249 120.949 259.34 120.968 259.433 120.968C259.525 120.968 259.616 120.949 259.701 120.914C259.786 120.878 259.863 120.826 259.927 120.76C259.992 120.695 260.043 120.617 260.077 120.532C260.112 120.446 260.129 120.355 260.127 120.263V119.379C260.338 119.257 260.514 119.082 260.635 118.872C260.757 118.661 260.822 118.422 260.822 118.178C260.822 117.934 260.758 117.695 260.636 117.484C260.514 117.273 260.339 117.098 260.127 116.976V116.094C260.129 116.001 260.111 115.908 260.076 115.822C260.041 115.736 259.989 115.658 259.923 115.592C259.858 115.526 259.779 115.475 259.693 115.44C259.607 115.405 259.515 115.388 259.422 115.389C259.238 115.392 259.062 115.468 258.934 115.6C258.806 115.732 258.735 115.909 258.738 116.094V116.977C258.527 117.099 258.352 117.273 258.23 117.483H248.126C248.005 117.273 247.83 117.098 247.62 116.976V116.094C247.621 116.001 247.604 115.908 247.569 115.822C247.534 115.736 247.482 115.658 247.416 115.592C247.35 115.526 247.272 115.475 247.186 115.44C247.099 115.405 247.007 115.388 246.914 115.389ZM245.535 121.652C244.767 121.652 244.146 122.274 244.146 123.042V123.737C244.146 124.505 244.767 125.127 245.535 125.127H248.315C249.083 125.127 249.704 124.505 249.704 123.737V123.042C249.704 122.274 249.083 121.652 248.315 121.652H245.535ZM258.043 121.652C257.275 121.652 256.653 122.274 256.653 123.042V123.737C256.653 124.505 257.275 125.127 258.043 125.127H260.822C261.59 125.127 262.212 124.505 262.212 123.737V123.042C262.212 122.274 261.59 121.652 260.822 121.652H258.043Z" fill="#A5A5A5"/>
<defs>
<clipPath id="clip0_1_20753">
<rect width="20.846" height="20.846" fill="white" transform="translate(30.9326 16.3018)"/>
</clipPath>
<clipPath id="clip1_1_20753">
<rect width="20.846" height="18.1562" fill="white" transform="translate(129.782 18.1572)"/>
</clipPath>
<clipPath id="clip2_1_20753">
<rect width="20.846" height="17.4837" fill="white" transform="translate(242.756 17.9814)"/>
</clipPath>
<clipPath id="clip3_1_20753">
<rect width="17.8636" height="21.1717" fill="white" transform="translate(32.4258 107.593)"/>
</clipPath>
<clipPath id="clip4_1_20753">
<rect width="20.846" height="18.7614" fill="white" transform="translate(129.783 108.798)"/>
</clipPath>
</defs>
</svg>
