<svg width="30" height="30" viewBox="0 0 30 30" fill="none" xmlns="http://www.w3.org/2000/svg">
<path d="M27.2175 15.2442C27.039 17.1485 26.7613 19.757 25.1494 22.6333C24.5396 23.7194 21.3955 29.0256 16.5652 29.4869C15.985 29.5415 15.3453 29.4919 14.0608 29.3975C12.6227 29.2886 11.4722 29.1794 10.52 29.0158C9.41413 28.8273 8.57602 28.5644 7.86686 28.1429C6.62707 27.404 6.08157 25.8319 5.8584 24.2748C6.18571 24.3392 6.54773 24.4088 6.94446 24.4831C8.42229 24.7608 9.42404 24.8996 10.8076 24.9146C11.1895 24.9196 11.5565 24.9046 11.9185 24.865C12.2656 24.8948 12.6078 24.9146 12.9401 24.9146C13.6641 24.9244 14.3485 24.86 14.9783 24.6915C14.9138 25.1973 14.9436 25.7229 15.1519 26.209C15.1965 26.3129 15.2461 26.4123 15.3105 26.5115C15.9651 27.5775 17.3438 27.9396 18.2364 27.9298C21.9359 27.89 25.6257 21.4083 26.4636 15.5566C27.2373 10.1809 25.9282 3.14882 22.8336 2.40991C21.8367 2.17186 20.6416 2.58845 19.5903 3.31247C18.8811 3.80343 18.2364 4.43324 17.7604 5.10272C17.2496 5.8218 16.957 6.5508 16.7933 7.18061C16.2081 6.88307 15.5486 6.67478 14.8543 6.51114C13.9567 6.30284 12.9996 6.16895 12.0425 6.04001C10.272 5.79701 9.01738 5.62841 7.93134 5.90611C8.32806 4.80518 9.05211 3.44636 10.3762 2.35041C12.4491 0.634531 14.8196 0.530389 16.7884 0.475839C16.8429 0.475839 16.8975 0.470879 16.952 0.470879C19.0795 0.416329 21.6632 0.346902 23.8205 1.87432C28.1894 4.96386 27.4953 12.2786 27.2175 15.2442Z" fill="#262B2C"/>
<path d="M26.4631 15.5557C25.6202 21.4074 21.9354 27.8891 18.236 27.9289C17.3433 27.9387 15.9647 27.5766 15.3101 26.5105C15.2506 26.4112 15.196 26.312 15.1514 26.208C16.8821 25.0772 18.3897 23.9566 18.6674 23.3218C19.3865 21.6951 20.9536 18.6254 21.6429 15.0994C22.3323 11.5735 21.7669 8.73189 20.9536 5.76135C20.7304 4.95301 20.2196 4.10995 19.5898 3.31153C20.6412 2.58749 21.8313 2.17093 22.8331 2.40897C25.9275 3.14789 27.2369 10.18 26.4631 15.5557Z" fill="#ECD3EF"/>
<path d="M18.4842 8.58927C18.0429 7.97433 17.4627 7.52304 16.7932 7.18583C16.208 6.88827 15.5484 6.68 14.8541 6.51633C13.9565 6.30806 12.9994 6.17417 12.0423 6.04521C10.2719 5.80223 9.01722 5.6336 7.93115 5.91131C7.85678 5.93117 7.78238 5.951 7.70801 5.97579C7.77247 5.97579 7.8419 5.97083 7.91132 5.97083C8.55601 5.96588 9.23047 6.00554 9.91482 6.04521C10.624 6.0849 11.5712 6.14935 12.7267 6.51633C13.5152 6.76925 15.35 7.34948 16.3518 8.58927C16.3518 8.58927 16.3518 8.59423 16.3568 8.59423C17.6065 10.1365 16.2873 11.1135 16.2427 17.0198C16.2377 17.8133 16.1931 20.3871 15.4889 22.2666C15.3005 22.7674 15.0674 23.2236 14.7748 23.5807C14.6905 23.6799 14.6062 23.7593 14.5169 23.8386C13.7978 24.4586 12.9102 24.7611 11.9233 24.8751C12.2704 24.9049 12.6126 24.9247 12.9449 24.9247C13.6689 24.9347 14.3533 24.8701 14.9831 24.7016C15.598 24.533 16.1584 24.2601 16.6444 23.8386C17.2444 23.3228 17.6263 22.6682 18.3702 17.0198C19.2827 10.0919 18.9454 9.23396 18.4842 8.58927Z" fill="#4E02C6"/>
<path d="M16.3512 8.59061C16.3512 8.58566 16.3512 8.58566 16.3512 8.59061C15.3395 7.34586 13.5096 6.76563 12.7211 6.51272C11.5656 6.14574 10.6234 6.08624 9.90926 6.04159C9.22488 6.00193 8.54549 5.96226 7.90576 5.96722C7.83632 5.96722 7.77186 5.96722 7.70243 5.97218C6.75524 5.99697 5.88738 6.13582 5.18813 6.53751C4.39468 6.99376 3.64584 7.89632 2.86726 15.5433C2.25728 21.5389 2.52507 22.8433 3.44251 23.5723C3.77478 23.84 4.50874 24.0135 5.85763 24.2814C6.18493 24.3458 6.54695 24.4152 6.94368 24.4896C8.42151 24.7673 9.42326 24.9062 10.8069 24.921C11.1887 24.926 11.5557 24.9112 11.9177 24.8714C12.9046 24.7625 13.7923 24.46 14.5113 23.835C14.6006 23.7556 14.6849 23.6764 14.7692 23.5773C15.0618 23.2202 15.2949 22.7687 15.4833 22.2629C16.1875 20.3835 16.2322 17.8097 16.2371 17.0162C16.2818 11.1049 17.6009 10.1329 16.3512 8.59061Z" fill="#ECD3EF"/>
<path d="M18.5981 14.4854C18.4344 14.535 18.2113 14.5697 17.9881 14.4904C17.269 14.2523 17.1847 13.1712 17.1798 13.0423C17.1302 12.2439 17.5467 11.262 18.2807 11.0587C18.36 11.0388 18.6129 10.9694 18.8659 11.0735C18.1567 11.3016 17.76 12.2637 17.8096 13.0423C17.8145 13.1712 17.8939 14.2325 18.5981 14.4854Z" fill="#262B2C"/>
<path d="M19.5159 11.0836C19.253 10.9646 18.9852 11.0389 18.9059 11.0588C18.891 11.0637 18.8761 11.0687 18.8612 11.0736C18.1521 11.3018 17.7554 12.2638 17.8049 13.0424C17.8149 13.1714 17.8942 14.2326 18.5984 14.4855C18.6034 14.4855 18.6083 14.4905 18.6182 14.4905C19.0646 14.6393 19.4861 14.3715 19.5208 14.3516C19.9622 14.064 20.0316 13.5383 20.0861 13.1168C20.101 13.0176 20.2944 11.4357 19.5159 11.0836Z" fill="#ECD3EF"/>
<path d="M8.71484 15.1047L10.3117 11.7028L11.7697 8.55865L12.3945 8.76695C12.3945 8.76695 10.1828 13.0715 10.1183 13.25C10.0538 13.4286 9.02726 15.3378 9.02726 15.3378L8.71484 15.1047Z" fill="#4E02C6"/>
<path d="M8.54589 14.9378C8.54589 14.9378 6.8201 14.4022 6.56718 14.3724C6.31427 14.3427 4.20168 13.8418 4.20168 13.8418L3.97852 15.2799C3.97852 15.2799 7.06806 15.513 7.37554 15.5676C7.683 15.6221 8.71449 15.5676 8.71449 15.5676L8.54589 14.9378Z" fill="#F4F4F4"/>
<path d="M8.86309 14.4967C8.80855 14.4967 8.54571 14.5165 8.35726 14.7248C8.1589 14.943 8.17378 15.2207 8.18369 15.3398C8.21344 15.7365 8.36221 15.9646 8.55563 16.0489C8.85813 16.1729 9.18544 15.9051 9.23007 15.8704C9.49786 15.6472 9.73094 15.1811 9.51771 14.829C9.37886 14.6008 9.10609 14.4868 8.86309 14.4967Z" fill="#FA0018"/>
<path d="M8.81348 15.4221L11.908 19.2852L13.971 21.8194L14.2041 21.5515L12.1807 19.0522L8.92256 15.2188L8.81348 15.4221Z" fill="#FA0018"/>
</svg>
